<?xml version="1.0" encoding="utf-8" standalone="no"?>
<!DOCTYPE svg PUBLIC "-//W3C//DTD SVG 1.1//EN"
  "http://www.w3.org/Graphics/SVG/1.1/DTD/svg11.dtd">
<!-- Created with matplotlib (https://matplotlib.org/) -->
<svg height="288pt" version="1.1" viewBox="0 0 432 288" width="432pt" xmlns="http://www.w3.org/2000/svg" xmlns:xlink="http://www.w3.org/1999/xlink">
 <defs>
  <style type="text/css">
*{stroke-linecap:butt;stroke-linejoin:round;}
  </style>
 </defs>
 <g id="figure_1">
  <g id="patch_1">
   <path d="M 0 288 
L 432 288 
L 432 0 
L 0 0 
z
" style="fill:#ffffff;"/>
  </g>
  <g id="axes_1">
   <g id="patch_2">
    <path d="M 54 252 
L 388.8 252 
L 388.8 34.56 
L 54 34.56 
z
" style="fill:#ffffff;"/>
   </g>
   <g id="matplotlib.axis_1">
    <g id="xtick_1">
     <g id="line2d_1">
      <defs>
       <path d="M 0 0 
L 0 3.5 
" id="m170b5e3cf9" style="stroke:#000000;stroke-width:0.8;"/>
      </defs>
      <g>
       <use style="stroke:#000000;stroke-width:0.8;" x="69.218182" xlink:href="#m170b5e3cf9" y="252"/>
      </g>
     </g>
     <g id="text_1">
      <!-- 0.0 -->
      <defs>
       <path d="M 31.78125 66.40625 
Q 24.171875 66.40625 20.328125 58.90625 
Q 16.5 51.421875 16.5 36.375 
Q 16.5 21.390625 20.328125 13.890625 
Q 24.171875 6.390625 31.78125 6.390625 
Q 39.453125 6.390625 43.28125 13.890625 
Q 47.125 21.390625 47.125 36.375 
Q 47.125 51.421875 43.28125 58.90625 
Q 39.453125 66.40625 31.78125 66.40625 
z
M 31.78125 74.21875 
Q 44.046875 74.21875 50.515625 64.515625 
Q 56.984375 54.828125 56.984375 36.375 
Q 56.984375 17.96875 50.515625 8.265625 
Q 44.046875 -1.421875 31.78125 -1.421875 
Q 19.53125 -1.421875 13.0625 8.265625 
Q 6.59375 17.96875 6.59375 36.375 
Q 6.59375 54.828125 13.0625 64.515625 
Q 19.53125 74.21875 31.78125 74.21875 
z
" id="DejaVuSans-48"/>
       <path d="M 10.6875 12.40625 
L 21 12.40625 
L 21 0 
L 10.6875 0 
z
" id="DejaVuSans-46"/>
      </defs>
      <g transform="translate(58.085994 269.637812)scale(0.14 -0.14)">
       <use xlink:href="#DejaVuSans-48"/>
       <use x="63.623047" xlink:href="#DejaVuSans-46"/>
       <use x="95.410156" xlink:href="#DejaVuSans-48"/>
      </g>
     </g>
    </g>
    <g id="xtick_2">
     <g id="line2d_2">
      <g>
       <use style="stroke:#000000;stroke-width:0.8;" x="145.309091" xlink:href="#m170b5e3cf9" y="252"/>
      </g>
     </g>
     <g id="text_2">
      <!-- 0.5 -->
      <defs>
       <path d="M 10.796875 72.90625 
L 49.515625 72.90625 
L 49.515625 64.59375 
L 19.828125 64.59375 
L 19.828125 46.734375 
Q 21.96875 47.46875 24.109375 47.828125 
Q 26.265625 48.1875 28.421875 48.1875 
Q 40.625 48.1875 47.75 41.5 
Q 54.890625 34.8125 54.890625 23.390625 
Q 54.890625 11.625 47.5625 5.09375 
Q 40.234375 -1.421875 26.90625 -1.421875 
Q 22.3125 -1.421875 17.546875 -0.640625 
Q 12.796875 0.140625 7.71875 1.703125 
L 7.71875 11.625 
Q 12.109375 9.234375 16.796875 8.0625 
Q 21.484375 6.890625 26.703125 6.890625 
Q 35.15625 6.890625 40.078125 11.328125 
Q 45.015625 15.765625 45.015625 23.390625 
Q 45.015625 31 40.078125 35.4375 
Q 35.15625 39.890625 26.703125 39.890625 
Q 22.75 39.890625 18.8125 39.015625 
Q 14.890625 38.140625 10.796875 36.28125 
z
" id="DejaVuSans-53"/>
      </defs>
      <g transform="translate(134.176903 269.637812)scale(0.14 -0.14)">
       <use xlink:href="#DejaVuSans-48"/>
       <use x="63.623047" xlink:href="#DejaVuSans-46"/>
       <use x="95.410156" xlink:href="#DejaVuSans-53"/>
      </g>
     </g>
    </g>
    <g id="xtick_3">
     <g id="line2d_3">
      <g>
       <use style="stroke:#000000;stroke-width:0.8;" x="221.4" xlink:href="#m170b5e3cf9" y="252"/>
      </g>
     </g>
     <g id="text_3">
      <!-- 1.0 -->
      <defs>
       <path d="M 12.40625 8.296875 
L 28.515625 8.296875 
L 28.515625 63.921875 
L 10.984375 60.40625 
L 10.984375 69.390625 
L 28.421875 72.90625 
L 38.28125 72.90625 
L 38.28125 8.296875 
L 54.390625 8.296875 
L 54.390625 0 
L 12.40625 0 
z
" id="DejaVuSans-49"/>
      </defs>
      <g transform="translate(210.267812 269.637812)scale(0.14 -0.14)">
       <use xlink:href="#DejaVuSans-49"/>
       <use x="63.623047" xlink:href="#DejaVuSans-46"/>
       <use x="95.410156" xlink:href="#DejaVuSans-48"/>
      </g>
     </g>
    </g>
    <g id="xtick_4">
     <g id="line2d_4">
      <g>
       <use style="stroke:#000000;stroke-width:0.8;" x="297.490909" xlink:href="#m170b5e3cf9" y="252"/>
      </g>
     </g>
     <g id="text_4">
      <!-- 1.5 -->
      <g transform="translate(286.358722 269.637812)scale(0.14 -0.14)">
       <use xlink:href="#DejaVuSans-49"/>
       <use x="63.623047" xlink:href="#DejaVuSans-46"/>
       <use x="95.410156" xlink:href="#DejaVuSans-53"/>
      </g>
     </g>
    </g>
    <g id="xtick_5">
     <g id="line2d_5">
      <g>
       <use style="stroke:#000000;stroke-width:0.8;" x="373.581818" xlink:href="#m170b5e3cf9" y="252"/>
      </g>
     </g>
     <g id="text_5">
      <!-- 2.0 -->
      <defs>
       <path d="M 19.1875 8.296875 
L 53.609375 8.296875 
L 53.609375 0 
L 7.328125 0 
L 7.328125 8.296875 
Q 12.9375 14.109375 22.625 23.890625 
Q 32.328125 33.6875 34.8125 36.53125 
Q 39.546875 41.84375 41.421875 45.53125 
Q 43.3125 49.21875 43.3125 52.78125 
Q 43.3125 58.59375 39.234375 62.25 
Q 35.15625 65.921875 28.609375 65.921875 
Q 23.96875 65.921875 18.8125 64.3125 
Q 13.671875 62.703125 7.8125 59.421875 
L 7.8125 69.390625 
Q 13.765625 71.78125 18.9375 73 
Q 24.125 74.21875 28.421875 74.21875 
Q 39.75 74.21875 46.484375 68.546875 
Q 53.21875 62.890625 53.21875 53.421875 
Q 53.21875 48.921875 51.53125 44.890625 
Q 49.859375 40.875 45.40625 35.40625 
Q 44.1875 33.984375 37.640625 27.21875 
Q 31.109375 20.453125 19.1875 8.296875 
z
" id="DejaVuSans-50"/>
      </defs>
      <g transform="translate(362.449631 269.637812)scale(0.14 -0.14)">
       <use xlink:href="#DejaVuSans-50"/>
       <use x="63.623047" xlink:href="#DejaVuSans-46"/>
       <use x="95.410156" xlink:href="#DejaVuSans-48"/>
      </g>
     </g>
    </g>
    <g id="text_6">
     <!-- Time -->
     <defs>
      <path d="M -0.296875 72.90625 
L 61.375 72.90625 
L 61.375 64.59375 
L 35.5 64.59375 
L 35.5 0 
L 25.59375 0 
L 25.59375 64.59375 
L -0.296875 64.59375 
z
" id="DejaVuSans-84"/>
      <path d="M 9.421875 54.6875 
L 18.40625 54.6875 
L 18.40625 0 
L 9.421875 0 
z
M 9.421875 75.984375 
L 18.40625 75.984375 
L 18.40625 64.59375 
L 9.421875 64.59375 
z
" id="DejaVuSans-105"/>
      <path d="M 52 44.1875 
Q 55.375 50.25 60.0625 53.125 
Q 64.75 56 71.09375 56 
Q 79.640625 56 84.28125 50.015625 
Q 88.921875 44.046875 88.921875 33.015625 
L 88.921875 0 
L 79.890625 0 
L 79.890625 32.71875 
Q 79.890625 40.578125 77.09375 44.375 
Q 74.3125 48.1875 68.609375 48.1875 
Q 61.625 48.1875 57.5625 43.546875 
Q 53.515625 38.921875 53.515625 30.90625 
L 53.515625 0 
L 44.484375 0 
L 44.484375 32.71875 
Q 44.484375 40.625 41.703125 44.40625 
Q 38.921875 48.1875 33.109375 48.1875 
Q 26.21875 48.1875 22.15625 43.53125 
Q 18.109375 38.875 18.109375 30.90625 
L 18.109375 0 
L 9.078125 0 
L 9.078125 54.6875 
L 18.109375 54.6875 
L 18.109375 46.1875 
Q 21.1875 51.21875 25.484375 53.609375 
Q 29.78125 56 35.6875 56 
Q 41.65625 56 45.828125 52.96875 
Q 50 49.953125 52 44.1875 
z
" id="DejaVuSans-109"/>
      <path d="M 56.203125 29.59375 
L 56.203125 25.203125 
L 14.890625 25.203125 
Q 15.484375 15.921875 20.484375 11.0625 
Q 25.484375 6.203125 34.421875 6.203125 
Q 39.59375 6.203125 44.453125 7.46875 
Q 49.3125 8.734375 54.109375 11.28125 
L 54.109375 2.78125 
Q 49.265625 0.734375 44.1875 -0.34375 
Q 39.109375 -1.421875 33.890625 -1.421875 
Q 20.796875 -1.421875 13.15625 6.1875 
Q 5.515625 13.8125 5.515625 26.8125 
Q 5.515625 40.234375 12.765625 48.109375 
Q 20.015625 56 32.328125 56 
Q 43.359375 56 49.78125 48.890625 
Q 56.203125 41.796875 56.203125 29.59375 
z
M 47.21875 32.234375 
Q 47.125 39.59375 43.09375 43.984375 
Q 39.0625 48.390625 32.421875 48.390625 
Q 24.90625 48.390625 20.390625 44.140625 
Q 15.875 39.890625 15.1875 32.171875 
z
" id="DejaVuSans-101"/>
     </defs>
     <g transform="translate(199.1025 290.226562)scale(0.18 -0.18)">
      <use xlink:href="#DejaVuSans-84"/>
      <use x="61.037109" xlink:href="#DejaVuSans-105"/>
      <use x="88.820312" xlink:href="#DejaVuSans-109"/>
      <use x="186.232422" xlink:href="#DejaVuSans-101"/>
     </g>
    </g>
   </g>
   <g id="matplotlib.axis_2">
    <g id="ytick_1">
     <g id="line2d_6">
      <defs>
       <path d="M 0 0 
L -3.5 0 
" id="m2f5addbfcb" style="stroke:#000000;stroke-width:0.8;"/>
      </defs>
      <g>
       <use style="stroke:#000000;stroke-width:0.8;" x="54" xlink:href="#m2f5addbfcb" y="242.116364"/>
      </g>
     </g>
     <g id="text_7">
      <!-- 0 -->
      <g transform="translate(38.0925 247.43527)scale(0.14 -0.14)">
       <use xlink:href="#DejaVuSans-48"/>
      </g>
     </g>
    </g>
    <g id="ytick_2">
     <g id="line2d_7">
      <g>
       <use style="stroke:#000000;stroke-width:0.8;" x="54" xlink:href="#m2f5addbfcb" y="192.695248"/>
      </g>
     </g>
     <g id="text_8">
      <!-- 50 -->
      <g transform="translate(29.185 198.014154)scale(0.14 -0.14)">
       <use xlink:href="#DejaVuSans-53"/>
       <use x="63.623047" xlink:href="#DejaVuSans-48"/>
      </g>
     </g>
    </g>
    <g id="ytick_3">
     <g id="line2d_8">
      <g>
       <use style="stroke:#000000;stroke-width:0.8;" x="54" xlink:href="#m2f5addbfcb" y="143.274132"/>
      </g>
     </g>
     <g id="text_9">
      <!-- 100 -->
      <g transform="translate(20.2775 148.593039)scale(0.14 -0.14)">
       <use xlink:href="#DejaVuSans-49"/>
       <use x="63.623047" xlink:href="#DejaVuSans-48"/>
       <use x="127.246094" xlink:href="#DejaVuSans-48"/>
      </g>
     </g>
    </g>
    <g id="ytick_4">
     <g id="line2d_9">
      <g>
       <use style="stroke:#000000;stroke-width:0.8;" x="54" xlink:href="#m2f5addbfcb" y="93.853017"/>
      </g>
     </g>
     <g id="text_10">
      <!-- 150 -->
      <g transform="translate(20.2775 99.171923)scale(0.14 -0.14)">
       <use xlink:href="#DejaVuSans-49"/>
       <use x="63.623047" xlink:href="#DejaVuSans-53"/>
       <use x="127.246094" xlink:href="#DejaVuSans-48"/>
      </g>
     </g>
    </g>
    <g id="ytick_5">
     <g id="line2d_10">
      <g>
       <use style="stroke:#000000;stroke-width:0.8;" x="54" xlink:href="#m2f5addbfcb" y="44.431901"/>
      </g>
     </g>
     <g id="text_11">
      <!-- 200 -->
      <g transform="translate(20.2775 49.750807)scale(0.14 -0.14)">
       <use xlink:href="#DejaVuSans-50"/>
       <use x="63.623047" xlink:href="#DejaVuSans-48"/>
       <use x="127.246094" xlink:href="#DejaVuSans-48"/>
      </g>
     </g>
    </g>
    <g id="text_12">
     <!-- [X] -->
     <defs>
      <path d="M 8.59375 75.984375 
L 29.296875 75.984375 
L 29.296875 69 
L 17.578125 69 
L 17.578125 -6.203125 
L 29.296875 -6.203125 
L 29.296875 -13.1875 
L 8.59375 -13.1875 
z
" id="DejaVuSans-91"/>
      <path d="M 6.296875 72.90625 
L 16.890625 72.90625 
L 35.015625 45.796875 
L 53.21875 72.90625 
L 63.8125 72.90625 
L 40.375 37.890625 
L 65.375 0 
L 54.78125 0 
L 34.28125 31 
L 13.625 0 
L 2.984375 0 
L 29 38.921875 
z
" id="DejaVuSans-88"/>
      <path d="M 30.421875 75.984375 
L 30.421875 -13.1875 
L 9.71875 -13.1875 
L 9.71875 -6.203125 
L 21.390625 -6.203125 
L 21.390625 69 
L 9.71875 69 
L 9.71875 75.984375 
z
" id="DejaVuSans-93"/>
     </defs>
     <g transform="translate(12.534062 156.467813)rotate(-90)scale(0.18 -0.18)">
      <use xlink:href="#DejaVuSans-91"/>
      <use x="39.013672" xlink:href="#DejaVuSans-88"/>
      <use x="107.519531" xlink:href="#DejaVuSans-93"/>
     </g>
    </g>
   </g>
   <g id="line2d_11">
    <path clip-path="url(#p6ffcb17d51)" d="M 69.218182 242.116364 
L 72.292562 240.88811 
L 75.366942 237.085597 
L 78.441322 231.275946 
L 81.515702 223.933524 
L 84.590083 215.441754 
L 87.664463 206.109926 
L 90.738843 196.186935 
L 93.813223 185.872521 
L 96.887603 175.326464 
L 99.961983 164.67614 
L 103.036364 154.022749 
L 106.110744 143.446552 
L 109.185124 133.011468 
L 112.259504 122.769635 
L 115.333884 112.767511 
L 118.408264 103.059505 
L 121.482645 93.758744 
L 124.557025 85.213898 
L 127.631405 77.91267 
L 130.705785 71.876156 
L 133.780165 66.916966 
L 136.854545 62.850687 
L 139.928926 59.519388 
L 143.003306 56.791438 
L 146.077686 54.558123 
L 149.152066 52.730016 
L 152.226446 51.23371 
L 155.300826 50.009016 
L 158.375207 49.00662 
L 161.449587 48.18614 
L 164.523967 47.514517 
L 167.598347 46.964693 
L 170.672727 46.514528 
L 173.747107 46.145902 
L 176.821488 45.843993 
L 179.895868 45.596675 
L 182.970248 45.394028 
L 186.044628 45.227941 
L 189.119008 45.091769 
L 192.193388 44.980082 
L 195.267769 44.88844 
L 198.342149 44.813209 
L 201.416529 44.751405 
L 204.490909 44.700607 
L 207.565289 44.658822 
L 210.639669 44.624419 
L 213.71405 44.596067 
L 216.78843 44.572675 
L 219.86281 44.55335 
L 222.93719 44.537362 
L 226.01157 44.524109 
L 229.08595 44.513108 
L 232.160331 44.503954 
L 235.234711 44.496317 
L 238.309091 44.489928 
L 241.383471 44.484565 
L 244.457851 44.480049 
L 247.532231 44.476234 
L 250.606612 44.472996 
L 253.680992 44.470234 
L 256.755372 44.467869 
L 259.829752 44.465831 
L 262.904132 44.464065 
L 265.978512 44.462527 
L 269.052893 44.461178 
L 272.127273 44.459988 
L 275.201653 44.458932 
L 278.276033 44.457987 
L 281.350413 44.457138 
L 284.424793 44.456369 
L 287.499174 44.455668 
L 290.573554 44.455027 
L 293.647934 44.454435 
L 296.722314 44.453888 
L 299.796694 44.453378 
L 302.871074 44.452901 
L 305.945455 44.452453 
L 309.019835 44.452031 
L 312.094215 44.451631 
L 315.168595 44.451252 
L 318.242975 44.450892 
L 321.317355 44.450548 
L 324.391736 44.450219 
L 327.466116 44.449904 
L 330.540496 44.449602 
L 333.614876 44.449311 
L 336.689256 44.449031 
L 339.763636 44.44876 
L 342.838017 44.448499 
L 345.912397 44.448247 
L 348.986777 44.448003 
L 352.061157 44.447767 
L 355.135537 44.447537 
L 358.209917 44.447315 
L 361.284298 44.4471 
L 364.358678 44.44689 
L 367.433058 44.446687 
L 370.507438 44.446489 
L 373.581818 44.446296 
" style="fill:none;stroke:#000000;stroke-dasharray:18.5,8;stroke-dashoffset:0;stroke-width:5;"/>
   </g>
   <g id="line2d_12">
    <path clip-path="url(#p6ffcb17d51)" d="M 69.218182 242.116364 
L 72.292562 206.817624 
L 75.366942 177.24868 
L 78.441322 153.03358 
L 81.515702 133.225035 
L 84.590083 117.027243 
L 87.664463 103.784331 
L 90.738843 92.958262 
L 93.813223 84.108427 
L 96.887603 76.874288 
L 99.961983 70.960961 
L 103.036364 66.127307 
L 106.110744 62.176179 
L 109.185124 58.946407 
L 112.259504 56.306246 
L 115.333884 54.148007 
L 118.408264 52.383665 
L 121.482645 50.941278 
L 124.557025 49.762041 
L 127.631405 48.797895 
L 130.705785 48.009557 
L 133.780165 47.364921 
L 136.854545 46.837749 
L 139.928926 46.406593 
L 143.003306 46.053926 
L 146.077686 45.765422 
L 149.152066 45.52937 
L 152.226446 45.336201 
L 155.300826 45.178091 
L 158.375207 45.048647 
L 161.449587 44.942643 
L 164.523967 44.855806 
L 167.598347 44.784644 
L 170.672727 44.726304 
L 173.747107 44.678451 
L 176.821488 44.639178 
L 179.895868 44.606924 
L 182.970248 44.580416 
L 186.044628 44.55861 
L 189.119008 44.540654 
L 192.193388 44.52585 
L 195.267769 44.513629 
L 198.342149 44.503524 
L 201.416529 44.495154 
L 204.490909 44.488206 
L 207.565289 44.482425 
L 210.639669 44.477602 
L 213.71405 44.473567 
L 216.78843 44.470179 
L 219.86281 44.467324 
L 222.93719 44.464907 
L 226.01157 44.462852 
L 229.08595 44.461095 
L 232.160331 44.459586 
L 235.234711 44.458281 
L 238.309091 44.457146 
L 241.383471 44.456152 
L 244.457851 44.455276 
L 247.532231 44.454498 
L 250.606612 44.453803 
L 253.680992 44.453177 
L 256.755372 44.45261 
L 259.829752 44.452093 
L 262.904132 44.451618 
L 265.978512 44.451179 
L 269.052893 44.450771 
L 272.127273 44.450391 
L 275.201653 44.450033 
L 278.276033 44.449697 
L 281.350413 44.449378 
L 284.424793 44.449076 
L 287.499174 44.448788 
L 290.573554 44.448513 
L 293.647934 44.448249 
L 296.722314 44.447996 
L 299.796694 44.447752 
L 302.871074 44.447518 
L 305.945455 44.447291 
L 309.019835 44.447072 
L 312.094215 44.44686 
L 315.168595 44.446654 
L 318.242975 44.446455 
L 321.317355 44.446261 
L 324.391736 44.446073 
L 327.466116 44.44589 
L 330.540496 44.445713 
L 333.614876 44.445539 
L 336.689256 44.445371 
L 339.763636 44.445206 
L 342.838017 44.445046 
L 345.912397 44.44489 
L 348.986777 44.444737 
L 352.061157 44.444588 
L 355.135537 44.444443 
L 358.209917 44.444301 
L 361.284298 44.444162 
L 364.358678 44.444026 
L 367.433058 44.443894 
L 370.507438 44.443764 
L 373.581818 44.443637 
" style="fill:none;stroke:#1f77b4;stroke-linecap:square;stroke-width:2;"/>
   </g>
   <g id="line2d_13">
    <path clip-path="url(#p6ffcb17d51)" d="M 69.218182 242.116364 
L 72.292562 208.982296 
L 75.366942 179.029351 
L 78.441322 154.492461 
L 81.515702 134.419014 
L 84.590083 118.003988 
L 87.664463 104.583185 
L 90.738843 93.611545 
L 93.813223 84.642626 
L 96.887603 77.311094 
L 99.961983 71.318123 
L 103.036364 66.419347 
L 106.110744 62.414974 
L 109.185124 59.141675 
L 112.259504 56.465918 
L 115.333884 54.278581 
L 118.408264 52.490454 
L 121.482645 51.028619 
L 124.557025 49.833483 
L 127.631405 48.856337 
L 130.705785 48.05737 
L 133.780165 47.404045 
L 136.854545 46.869767 
L 139.928926 46.4328 
L 143.003306 46.075381 
L 146.077686 45.782989 
L 149.152066 45.543761 
L 152.226446 45.347994 
L 155.300826 45.187758 
L 158.375207 45.056576 
L 161.449587 44.94915 
L 164.523967 44.861149 
L 167.598347 44.789035 
L 170.672727 44.729914 
L 173.747107 44.681423 
L 176.821488 44.641626 
L 179.895868 44.608944 
L 182.970248 44.582085 
L 186.044628 44.559991 
L 189.119008 44.541799 
L 192.193388 44.526801 
L 195.267769 44.51442 
L 198.342149 44.504186 
L 201.416529 44.495709 
L 204.490909 44.488674 
L 207.565289 44.482817 
L 210.639669 44.477933 
L 213.71405 44.473848 
L 216.78843 44.470418 
L 219.86281 44.467529 
L 222.93719 44.465083 
L 226.01157 44.463003 
L 229.08595 44.461226 
L 232.160331 44.4597 
L 235.234711 44.458382 
L 238.309091 44.457236 
L 241.383471 44.456232 
L 244.457851 44.455349 
L 247.532231 44.454565 
L 250.606612 44.453863 
L 253.680992 44.453232 
L 256.755372 44.452661 
L 259.829752 44.452141 
L 262.904132 44.451664 
L 265.978512 44.451223 
L 269.052893 44.450814 
L 272.127273 44.450431 
L 275.201653 44.450071 
L 278.276033 44.449732 
L 281.350413 44.449412 
L 284.424793 44.449108 
L 287.499174 44.448819 
L 290.573554 44.448543 
L 293.647934 44.448278 
L 296.722314 44.448024 
L 299.796694 44.447779 
L 302.871074 44.447543 
L 305.945455 44.447316 
L 309.019835 44.447096 
L 312.094215 44.446883 
L 315.168595 44.446677 
L 318.242975 44.446477 
L 321.317355 44.446283 
L 324.391736 44.446094 
L 327.466116 44.445911 
L 330.540496 44.445732 
L 333.614876 44.445559 
L 336.689256 44.44539 
L 339.763636 44.445225 
L 342.838017 44.445064 
L 345.912397 44.444907 
L 348.986777 44.444754 
L 352.061157 44.444605 
L 355.135537 44.444459 
L 358.209917 44.444317 
L 361.284298 44.444177 
L 364.358678 44.444041 
L 367.433058 44.443908 
L 370.507438 44.443778 
L 373.581818 44.443651 
" style="fill:none;stroke:#ff7f0e;stroke-linecap:square;stroke-width:2;"/>
   </g>
   <g id="line2d_14">
    <path clip-path="url(#p6ffcb17d51)" d="M 69.218182 242.116364 
L 72.292562 240.642232 
L 75.366942 236.633991 
L 78.441322 230.666183 
L 81.515702 223.204088 
L 84.590083 214.62372 
L 87.664463 205.228328 
L 90.738843 195.261891 
L 93.813223 184.920147 
L 96.887603 174.35963 
L 99.961983 163.705084 
L 103.036364 153.055594 
L 106.110744 142.489746 
L 109.185124 132.070186 
L 112.259504 121.848235 
L 115.333884 111.870295 
L 118.408264 102.19294 
L 121.482645 92.940948 
L 124.557025 84.493492 
L 127.631405 77.313139 
L 130.705785 71.382888 
L 133.780165 66.51228 
L 136.854545 62.519055 
L 139.928926 59.247778 
L 143.003306 56.569057 
L 146.077686 54.376083 
L 149.152066 52.581015 
L 152.226446 51.111754 
L 155.300826 49.909198 
L 158.375207 48.924922 
L 161.449587 48.119274 
L 164.523967 47.459779 
L 167.598347 46.91988 
L 170.672727 46.477833 
L 173.747107 46.11585 
L 176.821488 45.819378 
L 179.895868 45.576509 
L 182.970248 45.377502 
L 186.044628 45.21439 
L 189.119008 45.080656 
L 192.193388 44.970967 
L 195.267769 44.880958 
L 198.342149 44.80706 
L 201.416529 44.746355 
L 204.490909 44.696455 
L 207.565289 44.655404 
L 210.639669 44.621604 
L 213.71405 44.593747 
L 216.78843 44.570762 
L 219.86281 44.55177 
L 222.93719 44.536053 
L 226.01157 44.523026 
L 229.08595 44.512207 
L 232.160331 44.503201 
L 235.234711 44.495687 
L 238.309091 44.489399 
L 241.383471 44.484122 
L 244.457851 44.479677 
L 247.532231 44.475919 
L 250.606612 44.472728 
L 253.680992 44.470006 
L 256.755372 44.467674 
L 259.829752 44.465663 
L 262.904132 44.46392 
L 265.978512 44.462401 
L 269.052893 44.461068 
L 272.127273 44.459891 
L 275.201653 44.458845 
L 278.276033 44.45791 
L 281.350413 44.457068 
L 284.424793 44.456306 
L 287.499174 44.455611 
L 290.573554 44.454974 
L 293.647934 44.454387 
L 296.722314 44.453843 
L 299.796694 44.453337 
L 302.871074 44.452862 
L 305.945455 44.452417 
L 309.019835 44.451996 
L 312.094215 44.451598 
L 315.168595 44.45122 
L 318.242975 44.45086 
L 321.317355 44.450517 
L 324.391736 44.450189 
L 327.466116 44.449875 
L 330.540496 44.449574 
L 333.614876 44.449284 
L 336.689256 44.449004 
L 339.763636 44.448735 
L 342.838017 44.448475 
L 345.912397 44.448223 
L 348.986777 44.44798 
L 352.061157 44.447744 
L 355.135537 44.447516 
L 358.209917 44.447294 
L 361.284298 44.447079 
L 364.358678 44.44687 
L 367.433058 44.446667 
L 370.507438 44.44647 
L 373.581818 44.446278 
" style="fill:none;stroke:#2ca02c;stroke-linecap:square;stroke-width:2;"/>
   </g>
   <g id="line2d_15">
    <path clip-path="url(#p6ffcb17d51)" d="M 69.218182 242.116364 
L 72.292562 206.817624 
L 75.366942 177.24868 
L 78.441322 153.033581 
L 81.515702 133.225036 
L 84.590083 117.027244 
L 87.664463 103.784331 
L 90.738843 92.958262 
L 93.813223 84.108429 
L 96.887603 76.87429 
L 99.961983 70.960961 
L 103.036364 66.127308 
L 106.110744 62.176179 
L 109.185124 58.946405 
L 112.259504 56.306241 
L 115.333884 54.148005 
L 118.408264 52.383665 
L 121.482645 50.941278 
L 124.557025 49.762045 
L 127.631405 48.797895 
L 130.705785 48.009555 
L 133.780165 47.364919 
L 136.854545 46.837749 
L 139.928926 46.406594 
L 143.003306 46.053928 
L 146.077686 45.765426 
L 149.152066 45.529374 
L 152.226446 45.336205 
L 155.300826 45.178096 
L 158.375207 45.048651 
L 161.449587 44.942647 
L 164.523967 44.855809 
L 167.598347 44.784648 
L 170.672727 44.726309 
L 173.747107 44.678454 
L 176.821488 44.63918 
L 179.895868 44.606926 
L 182.970248 44.580416 
L 186.044628 44.55861 
L 189.119008 44.540654 
L 192.193388 44.525851 
L 195.267769 44.51363 
L 198.342149 44.503525 
L 201.416529 44.495156 
L 204.490909 44.48821 
L 207.565289 44.482429 
L 210.639669 44.477604 
L 213.71405 44.473566 
L 216.78843 44.470177 
L 219.86281 44.467321 
L 222.93719 44.464905 
L 226.01157 44.46285 
L 229.08595 44.461093 
L 232.160331 44.459583 
L 235.234711 44.458278 
L 238.309091 44.457143 
L 241.383471 44.456149 
L 244.457851 44.455272 
L 247.532231 44.454494 
L 250.606612 44.453798 
L 253.680992 44.453174 
L 256.755372 44.452609 
L 259.829752 44.452093 
L 262.904132 44.451619 
L 265.978512 44.451181 
L 269.052893 44.450774 
L 272.127273 44.450393 
L 275.201653 44.450036 
L 278.276033 44.449699 
L 281.350413 44.449381 
L 284.424793 44.449078 
L 287.499174 44.44879 
L 290.573554 44.448515 
L 293.647934 44.448251 
L 296.722314 44.447998 
L 299.796694 44.447754 
L 302.871074 44.447519 
L 305.945455 44.447293 
L 309.019835 44.447073 
L 312.094215 44.446861 
L 315.168595 44.446656 
L 318.242975 44.446456 
L 321.317355 44.446263 
L 324.391736 44.446075 
L 327.466116 44.445892 
L 330.540496 44.445714 
L 333.614876 44.445541 
L 336.689256 44.445372 
L 339.763636 44.445208 
L 342.838017 44.445047 
L 345.912397 44.444891 
L 348.986777 44.444738 
L 352.061157 44.444589 
L 355.135537 44.444443 
L 358.209917 44.444301 
L 361.284298 44.444162 
L 364.358678 44.444026 
L 367.433058 44.443894 
L 370.507438 44.443764 
L 373.581818 44.443636 
" style="fill:none;stroke:#d62728;stroke-linecap:square;stroke-width:2;"/>
   </g>
   <g id="patch_3">
    <path d="M 54 252 
L 54 34.56 
" style="fill:none;stroke:#000000;stroke-linecap:square;stroke-linejoin:miter;stroke-width:0.8;"/>
   </g>
   <g id="patch_4">
    <path d="M 388.8 252 
L 388.8 34.56 
" style="fill:none;stroke:#000000;stroke-linecap:square;stroke-linejoin:miter;stroke-width:0.8;"/>
   </g>
   <g id="patch_5">
    <path d="M 54 252 
L 388.8 252 
" style="fill:none;stroke:#000000;stroke-linecap:square;stroke-linejoin:miter;stroke-width:0.8;"/>
   </g>
   <g id="patch_6">
    <path d="M 54 34.56 
L 388.8 34.56 
" style="fill:none;stroke:#000000;stroke-linecap:square;stroke-linejoin:miter;stroke-width:0.8;"/>
   </g>
   <g id="legend_1">
    <g id="patch_7">
     <path d="M 273.254687 247 
L 381.8 247 
Q 383.8 247 383.8 245 
L 383.8 172.609375 
Q 383.8 170.609375 381.8 170.609375 
L 273.254687 170.609375 
Q 271.254687 170.609375 271.254687 172.609375 
L 271.254687 245 
Q 271.254687 247 273.254687 247 
z
" style="fill:#ffffff;opacity:0.8;stroke:#cccccc;stroke-linejoin:miter;"/>
    </g>
    <g id="line2d_16">
     <path d="M 275.254687 178.707812 
L 295.254687 178.707812 
" style="fill:none;stroke:#000000;stroke-dasharray:18.5,8;stroke-dashoffset:0;stroke-width:5;"/>
    </g>
    <g id="line2d_17"/>
    <g id="text_13">
     <!-- Full CRN model -->
     <defs>
      <path d="M 9.8125 72.90625 
L 51.703125 72.90625 
L 51.703125 64.59375 
L 19.671875 64.59375 
L 19.671875 43.109375 
L 48.578125 43.109375 
L 48.578125 34.8125 
L 19.671875 34.8125 
L 19.671875 0 
L 9.8125 0 
z
" id="DejaVuSans-70"/>
      <path d="M 8.5 21.578125 
L 8.5 54.6875 
L 17.484375 54.6875 
L 17.484375 21.921875 
Q 17.484375 14.15625 20.5 10.265625 
Q 23.53125 6.390625 29.59375 6.390625 
Q 36.859375 6.390625 41.078125 11.03125 
Q 45.3125 15.671875 45.3125 23.6875 
L 45.3125 54.6875 
L 54.296875 54.6875 
L 54.296875 0 
L 45.3125 0 
L 45.3125 8.40625 
Q 42.046875 3.421875 37.71875 1 
Q 33.40625 -1.421875 27.6875 -1.421875 
Q 18.265625 -1.421875 13.375 4.4375 
Q 8.5 10.296875 8.5 21.578125 
z
M 31.109375 56 
z
" id="DejaVuSans-117"/>
      <path d="M 9.421875 75.984375 
L 18.40625 75.984375 
L 18.40625 0 
L 9.421875 0 
z
" id="DejaVuSans-108"/>
      <path id="DejaVuSans-32"/>
      <path d="M 64.40625 67.28125 
L 64.40625 56.890625 
Q 59.421875 61.53125 53.78125 63.8125 
Q 48.140625 66.109375 41.796875 66.109375 
Q 29.296875 66.109375 22.65625 58.46875 
Q 16.015625 50.828125 16.015625 36.375 
Q 16.015625 21.96875 22.65625 14.328125 
Q 29.296875 6.6875 41.796875 6.6875 
Q 48.140625 6.6875 53.78125 8.984375 
Q 59.421875 11.28125 64.40625 15.921875 
L 64.40625 5.609375 
Q 59.234375 2.09375 53.4375 0.328125 
Q 47.65625 -1.421875 41.21875 -1.421875 
Q 24.65625 -1.421875 15.125 8.703125 
Q 5.609375 18.84375 5.609375 36.375 
Q 5.609375 53.953125 15.125 64.078125 
Q 24.65625 74.21875 41.21875 74.21875 
Q 47.75 74.21875 53.53125 72.484375 
Q 59.328125 70.75 64.40625 67.28125 
z
" id="DejaVuSans-67"/>
      <path d="M 44.390625 34.1875 
Q 47.5625 33.109375 50.5625 29.59375 
Q 53.5625 26.078125 56.59375 19.921875 
L 66.609375 0 
L 56 0 
L 46.6875 18.703125 
Q 43.0625 26.03125 39.671875 28.421875 
Q 36.28125 30.8125 30.421875 30.8125 
L 19.671875 30.8125 
L 19.671875 0 
L 9.8125 0 
L 9.8125 72.90625 
L 32.078125 72.90625 
Q 44.578125 72.90625 50.734375 67.671875 
Q 56.890625 62.453125 56.890625 51.90625 
Q 56.890625 45.015625 53.6875 40.46875 
Q 50.484375 35.9375 44.390625 34.1875 
z
M 19.671875 64.796875 
L 19.671875 38.921875 
L 32.078125 38.921875 
Q 39.203125 38.921875 42.84375 42.21875 
Q 46.484375 45.515625 46.484375 51.90625 
Q 46.484375 58.296875 42.84375 61.546875 
Q 39.203125 64.796875 32.078125 64.796875 
z
" id="DejaVuSans-82"/>
      <path d="M 9.8125 72.90625 
L 23.09375 72.90625 
L 55.421875 11.921875 
L 55.421875 72.90625 
L 64.984375 72.90625 
L 64.984375 0 
L 51.703125 0 
L 19.390625 60.984375 
L 19.390625 0 
L 9.8125 0 
z
" id="DejaVuSans-78"/>
      <path d="M 30.609375 48.390625 
Q 23.390625 48.390625 19.1875 42.75 
Q 14.984375 37.109375 14.984375 27.296875 
Q 14.984375 17.484375 19.15625 11.84375 
Q 23.34375 6.203125 30.609375 6.203125 
Q 37.796875 6.203125 41.984375 11.859375 
Q 46.1875 17.53125 46.1875 27.296875 
Q 46.1875 37.015625 41.984375 42.703125 
Q 37.796875 48.390625 30.609375 48.390625 
z
M 30.609375 56 
Q 42.328125 56 49.015625 48.375 
Q 55.71875 40.765625 55.71875 27.296875 
Q 55.71875 13.875 49.015625 6.21875 
Q 42.328125 -1.421875 30.609375 -1.421875 
Q 18.84375 -1.421875 12.171875 6.21875 
Q 5.515625 13.875 5.515625 27.296875 
Q 5.515625 40.765625 12.171875 48.375 
Q 18.84375 56 30.609375 56 
z
" id="DejaVuSans-111"/>
      <path d="M 45.40625 46.390625 
L 45.40625 75.984375 
L 54.390625 75.984375 
L 54.390625 0 
L 45.40625 0 
L 45.40625 8.203125 
Q 42.578125 3.328125 38.25 0.953125 
Q 33.9375 -1.421875 27.875 -1.421875 
Q 17.96875 -1.421875 11.734375 6.484375 
Q 5.515625 14.40625 5.515625 27.296875 
Q 5.515625 40.1875 11.734375 48.09375 
Q 17.96875 56 27.875 56 
Q 33.9375 56 38.25 53.625 
Q 42.578125 51.265625 45.40625 46.390625 
z
M 14.796875 27.296875 
Q 14.796875 17.390625 18.875 11.75 
Q 22.953125 6.109375 30.078125 6.109375 
Q 37.203125 6.109375 41.296875 11.75 
Q 45.40625 17.390625 45.40625 27.296875 
Q 45.40625 37.203125 41.296875 42.84375 
Q 37.203125 48.484375 30.078125 48.484375 
Q 22.953125 48.484375 18.875 42.84375 
Q 14.796875 37.203125 14.796875 27.296875 
z
" id="DejaVuSans-100"/>
     </defs>
     <g transform="translate(303.254687 182.207812)scale(0.1 -0.1)">
      <use xlink:href="#DejaVuSans-70"/>
      <use x="57.441406" xlink:href="#DejaVuSans-117"/>
      <use x="120.820312" xlink:href="#DejaVuSans-108"/>
      <use x="148.603516" xlink:href="#DejaVuSans-108"/>
      <use x="176.386719" xlink:href="#DejaVuSans-32"/>
      <use x="208.173828" xlink:href="#DejaVuSans-67"/>
      <use x="277.998047" xlink:href="#DejaVuSans-82"/>
      <use x="347.480469" xlink:href="#DejaVuSans-78"/>
      <use x="422.285156" xlink:href="#DejaVuSans-32"/>
      <use x="454.072266" xlink:href="#DejaVuSans-109"/>
      <use x="551.484375" xlink:href="#DejaVuSans-111"/>
      <use x="612.666016" xlink:href="#DejaVuSans-100"/>
      <use x="676.142578" xlink:href="#DejaVuSans-101"/>
      <use x="737.666016" xlink:href="#DejaVuSans-108"/>
     </g>
    </g>
    <g id="line2d_18">
     <path d="M 275.254687 193.385938 
L 295.254687 193.385938 
" style="fill:none;stroke:#1f77b4;stroke-linecap:square;stroke-width:2;"/>
    </g>
    <g id="line2d_19"/>
    <g id="text_14">
     <!-- [T, X] -->
     <defs>
      <path d="M 11.71875 12.40625 
L 22.015625 12.40625 
L 22.015625 4 
L 14.015625 -11.625 
L 7.71875 -11.625 
L 11.71875 4 
z
" id="DejaVuSans-44"/>
     </defs>
     <g transform="translate(303.254687 196.885938)scale(0.1 -0.1)">
      <use xlink:href="#DejaVuSans-91"/>
      <use x="39.013672" xlink:href="#DejaVuSans-84"/>
      <use x="100.097656" xlink:href="#DejaVuSans-44"/>
      <use x="131.884766" xlink:href="#DejaVuSans-32"/>
      <use x="163.671875" xlink:href="#DejaVuSans-88"/>
      <use x="232.177734" xlink:href="#DejaVuSans-93"/>
     </g>
    </g>
    <g id="line2d_20">
     <path d="M 275.254687 208.064063 
L 295.254687 208.064063 
" style="fill:none;stroke:#ff7f0e;stroke-linecap:square;stroke-width:2;"/>
    </g>
    <g id="line2d_21"/>
    <g id="text_15">
     <!-- [T, C1, X] -->
     <g transform="translate(303.254687 211.564063)scale(0.1 -0.1)">
      <use xlink:href="#DejaVuSans-91"/>
      <use x="39.013672" xlink:href="#DejaVuSans-84"/>
      <use x="100.097656" xlink:href="#DejaVuSans-44"/>
      <use x="131.884766" xlink:href="#DejaVuSans-32"/>
      <use x="163.671875" xlink:href="#DejaVuSans-67"/>
      <use x="233.496094" xlink:href="#DejaVuSans-49"/>
      <use x="297.119141" xlink:href="#DejaVuSans-44"/>
      <use x="328.90625" xlink:href="#DejaVuSans-32"/>
      <use x="360.693359" xlink:href="#DejaVuSans-88"/>
      <use x="429.199219" xlink:href="#DejaVuSans-93"/>
     </g>
    </g>
    <g id="line2d_22">
     <path d="M 275.254687 222.742188 
L 295.254687 222.742188 
" style="fill:none;stroke:#2ca02c;stroke-linecap:square;stroke-width:2;"/>
    </g>
    <g id="line2d_23"/>
    <g id="text_16">
     <!-- [T, C2, X] -->
     <g transform="translate(303.254687 226.242188)scale(0.1 -0.1)">
      <use xlink:href="#DejaVuSans-91"/>
      <use x="39.013672" xlink:href="#DejaVuSans-84"/>
      <use x="100.097656" xlink:href="#DejaVuSans-44"/>
      <use x="131.884766" xlink:href="#DejaVuSans-32"/>
      <use x="163.671875" xlink:href="#DejaVuSans-67"/>
      <use x="233.496094" xlink:href="#DejaVuSans-50"/>
      <use x="297.119141" xlink:href="#DejaVuSans-44"/>
      <use x="328.90625" xlink:href="#DejaVuSans-32"/>
      <use x="360.693359" xlink:href="#DejaVuSans-88"/>
      <use x="429.199219" xlink:href="#DejaVuSans-93"/>
     </g>
    </g>
    <g id="line2d_24">
     <path d="M 275.254687 237.420313 
L 295.254687 237.420313 
" style="fill:none;stroke:#d62728;stroke-linecap:square;stroke-width:2;"/>
    </g>
    <g id="line2d_25"/>
    <g id="text_17">
     <!-- [T, C3, X] -->
     <defs>
      <path d="M 40.578125 39.3125 
Q 47.65625 37.796875 51.625 33 
Q 55.609375 28.21875 55.609375 21.1875 
Q 55.609375 10.40625 48.1875 4.484375 
Q 40.765625 -1.421875 27.09375 -1.421875 
Q 22.515625 -1.421875 17.65625 -0.515625 
Q 12.796875 0.390625 7.625 2.203125 
L 7.625 11.71875 
Q 11.71875 9.328125 16.59375 8.109375 
Q 21.484375 6.890625 26.8125 6.890625 
Q 36.078125 6.890625 40.9375 10.546875 
Q 45.796875 14.203125 45.796875 21.1875 
Q 45.796875 27.640625 41.28125 31.265625 
Q 36.765625 34.90625 28.71875 34.90625 
L 20.21875 34.90625 
L 20.21875 43.015625 
L 29.109375 43.015625 
Q 36.375 43.015625 40.234375 45.921875 
Q 44.09375 48.828125 44.09375 54.296875 
Q 44.09375 59.90625 40.109375 62.90625 
Q 36.140625 65.921875 28.71875 65.921875 
Q 24.65625 65.921875 20.015625 65.03125 
Q 15.375 64.15625 9.8125 62.3125 
L 9.8125 71.09375 
Q 15.4375 72.65625 20.34375 73.4375 
Q 25.25 74.21875 29.59375 74.21875 
Q 40.828125 74.21875 47.359375 69.109375 
Q 53.90625 64.015625 53.90625 55.328125 
Q 53.90625 49.265625 50.4375 45.09375 
Q 46.96875 40.921875 40.578125 39.3125 
z
" id="DejaVuSans-51"/>
     </defs>
     <g transform="translate(303.254687 240.920313)scale(0.1 -0.1)">
      <use xlink:href="#DejaVuSans-91"/>
      <use x="39.013672" xlink:href="#DejaVuSans-84"/>
      <use x="100.097656" xlink:href="#DejaVuSans-44"/>
      <use x="131.884766" xlink:href="#DejaVuSans-32"/>
      <use x="163.671875" xlink:href="#DejaVuSans-67"/>
      <use x="233.496094" xlink:href="#DejaVuSans-51"/>
      <use x="297.119141" xlink:href="#DejaVuSans-44"/>
      <use x="328.90625" xlink:href="#DejaVuSans-32"/>
      <use x="360.693359" xlink:href="#DejaVuSans-88"/>
      <use x="429.199219" xlink:href="#DejaVuSans-93"/>
     </g>
    </g>
   </g>
  </g>
 </g>
 <defs>
  <clipPath id="p6ffcb17d51">
   <rect height="217.44" width="334.8" x="54" y="34.56"/>
  </clipPath>
 </defs>
</svg>
