<?xml version="1.0" encoding="utf-8" standalone="no"?>
<!DOCTYPE svg PUBLIC "-//W3C//DTD SVG 1.1//EN"
  "http://www.w3.org/Graphics/SVG/1.1/DTD/svg11.dtd">
<!-- Created with matplotlib (https://matplotlib.org/) -->
<svg height="288pt" version="1.1" viewBox="0 0 432 288" width="432pt" xmlns="http://www.w3.org/2000/svg" xmlns:xlink="http://www.w3.org/1999/xlink">
 <defs>
  <style type="text/css">
*{stroke-linecap:butt;stroke-linejoin:round;}
  </style>
 </defs>
 <g id="figure_1">
  <g id="patch_1">
   <path d="M 0 288 
L 432 288 
L 432 0 
L 0 0 
z
" style="fill:#ffffff;"/>
  </g>
  <g id="axes_1">
   <g id="patch_2">
    <path d="M 54 133.396364 
L 126.782609 133.396364 
L 126.782609 34.56 
L 54 34.56 
z
" style="fill:#ffffff;"/>
   </g>
   <g id="matplotlib.axis_1">
    <g id="xtick_1">
     <g id="line2d_1">
      <defs>
       <path d="M 0 0 
L 0 3.5 
" id="m097f31555f" style="stroke:#000000;stroke-width:0.8;"/>
      </defs>
      <g>
       <use style="stroke:#000000;stroke-width:0.8;" x="57.3083" xlink:href="#m097f31555f" y="133.396364"/>
      </g>
     </g>
     <g id="text_1">
      <!-- 0 -->
      <defs>
       <path d="M 31.78125 66.40625 
Q 24.171875 66.40625 20.328125 58.90625 
Q 16.5 51.421875 16.5 36.375 
Q 16.5 21.390625 20.328125 13.890625 
Q 24.171875 6.390625 31.78125 6.390625 
Q 39.453125 6.390625 43.28125 13.890625 
Q 47.125 21.390625 47.125 36.375 
Q 47.125 51.421875 43.28125 58.90625 
Q 39.453125 66.40625 31.78125 66.40625 
z
M 31.78125 74.21875 
Q 44.046875 74.21875 50.515625 64.515625 
Q 56.984375 54.828125 56.984375 36.375 
Q 56.984375 17.96875 50.515625 8.265625 
Q 44.046875 -1.421875 31.78125 -1.421875 
Q 19.53125 -1.421875 13.0625 8.265625 
Q 6.59375 17.96875 6.59375 36.375 
Q 6.59375 54.828125 13.0625 64.515625 
Q 19.53125 74.21875 31.78125 74.21875 
z
" id="DejaVuSans-48"/>
      </defs>
      <g transform="translate(54.12705 147.994801)scale(0.1 -0.1)">
       <use xlink:href="#DejaVuSans-48"/>
      </g>
     </g>
    </g>
    <g id="xtick_2">
     <g id="line2d_2">
      <g>
       <use style="stroke:#000000;stroke-width:0.8;" x="125.52068" xlink:href="#m097f31555f" y="133.396364"/>
      </g>
     </g>
     <g id="text_2">
      <!-- 200 -->
      <defs>
       <path d="M 19.1875 8.296875 
L 53.609375 8.296875 
L 53.609375 0 
L 7.328125 0 
L 7.328125 8.296875 
Q 12.9375 14.109375 22.625 23.890625 
Q 32.328125 33.6875 34.8125 36.53125 
Q 39.546875 41.84375 41.421875 45.53125 
Q 43.3125 49.21875 43.3125 52.78125 
Q 43.3125 58.59375 39.234375 62.25 
Q 35.15625 65.921875 28.609375 65.921875 
Q 23.96875 65.921875 18.8125 64.3125 
Q 13.671875 62.703125 7.8125 59.421875 
L 7.8125 69.390625 
Q 13.765625 71.78125 18.9375 73 
Q 24.125 74.21875 28.421875 74.21875 
Q 39.75 74.21875 46.484375 68.546875 
Q 53.21875 62.890625 53.21875 53.421875 
Q 53.21875 48.921875 51.53125 44.890625 
Q 49.859375 40.875 45.40625 35.40625 
Q 44.1875 33.984375 37.640625 27.21875 
Q 31.109375 20.453125 19.1875 8.296875 
z
" id="DejaVuSans-50"/>
      </defs>
      <g transform="translate(115.97693 147.994801)scale(0.1 -0.1)">
       <use xlink:href="#DejaVuSans-50"/>
       <use x="63.623047" xlink:href="#DejaVuSans-48"/>
       <use x="127.246094" xlink:href="#DejaVuSans-48"/>
      </g>
     </g>
    </g>
   </g>
   <g id="matplotlib.axis_2">
    <g id="ytick_1">
     <g id="line2d_3">
      <defs>
       <path d="M 0 0 
L -3.5 0 
" id="m3145c06f45" style="stroke:#000000;stroke-width:0.8;"/>
      </defs>
      <g>
       <use style="stroke:#000000;stroke-width:0.8;" x="54" xlink:href="#m3145c06f45" y="128.903802"/>
      </g>
     </g>
     <g id="text_3">
      <!-- 0.0 -->
      <defs>
       <path d="M 10.6875 12.40625 
L 21 12.40625 
L 21 0 
L 10.6875 0 
z
" id="DejaVuSans-46"/>
      </defs>
      <g transform="translate(31.096875 132.70302)scale(0.1 -0.1)">
       <use xlink:href="#DejaVuSans-48"/>
       <use x="63.623047" xlink:href="#DejaVuSans-46"/>
       <use x="95.410156" xlink:href="#DejaVuSans-48"/>
      </g>
     </g>
    </g>
    <g id="ytick_2">
     <g id="line2d_4">
      <g>
       <use style="stroke:#000000;stroke-width:0.8;" x="54" xlink:href="#m3145c06f45" y="83.934303"/>
      </g>
     </g>
     <g id="text_4">
      <!-- 0.5 -->
      <defs>
       <path d="M 10.796875 72.90625 
L 49.515625 72.90625 
L 49.515625 64.59375 
L 19.828125 64.59375 
L 19.828125 46.734375 
Q 21.96875 47.46875 24.109375 47.828125 
Q 26.265625 48.1875 28.421875 48.1875 
Q 40.625 48.1875 47.75 41.5 
Q 54.890625 34.8125 54.890625 23.390625 
Q 54.890625 11.625 47.5625 5.09375 
Q 40.234375 -1.421875 26.90625 -1.421875 
Q 22.3125 -1.421875 17.546875 -0.640625 
Q 12.796875 0.140625 7.71875 1.703125 
L 7.71875 11.625 
Q 12.109375 9.234375 16.796875 8.0625 
Q 21.484375 6.890625 26.703125 6.890625 
Q 35.15625 6.890625 40.078125 11.328125 
Q 45.015625 15.765625 45.015625 23.390625 
Q 45.015625 31 40.078125 35.4375 
Q 35.15625 39.890625 26.703125 39.890625 
Q 22.75 39.890625 18.8125 39.015625 
Q 14.890625 38.140625 10.796875 36.28125 
z
" id="DejaVuSans-53"/>
      </defs>
      <g transform="translate(31.096875 87.733521)scale(0.1 -0.1)">
       <use xlink:href="#DejaVuSans-48"/>
       <use x="63.623047" xlink:href="#DejaVuSans-46"/>
       <use x="95.410156" xlink:href="#DejaVuSans-53"/>
      </g>
     </g>
    </g>
    <g id="ytick_3">
     <g id="line2d_5">
      <g>
       <use style="stroke:#000000;stroke-width:0.8;" x="54" xlink:href="#m3145c06f45" y="38.964803"/>
      </g>
     </g>
     <g id="text_5">
      <!-- 1.0 -->
      <defs>
       <path d="M 12.40625 8.296875 
L 28.515625 8.296875 
L 28.515625 63.921875 
L 10.984375 60.40625 
L 10.984375 69.390625 
L 28.421875 72.90625 
L 38.28125 72.90625 
L 38.28125 8.296875 
L 54.390625 8.296875 
L 54.390625 0 
L 12.40625 0 
z
" id="DejaVuSans-49"/>
      </defs>
      <g transform="translate(31.096875 42.764022)scale(0.1 -0.1)">
       <use xlink:href="#DejaVuSans-49"/>
       <use x="63.623047" xlink:href="#DejaVuSans-46"/>
       <use x="95.410156" xlink:href="#DejaVuSans-48"/>
      </g>
     </g>
    </g>
    <g id="text_6">
     <!-- Se -->
     <defs>
      <path d="M 53.515625 70.515625 
L 53.515625 60.890625 
Q 47.90625 63.578125 42.921875 64.890625 
Q 37.9375 66.21875 33.296875 66.21875 
Q 25.25 66.21875 20.875 63.09375 
Q 16.5 59.96875 16.5 54.203125 
Q 16.5 49.359375 19.40625 46.890625 
Q 22.3125 44.4375 30.421875 42.921875 
L 36.375 41.703125 
Q 47.40625 39.59375 52.65625 34.296875 
Q 57.90625 29 57.90625 20.125 
Q 57.90625 9.515625 50.796875 4.046875 
Q 43.703125 -1.421875 29.984375 -1.421875 
Q 24.8125 -1.421875 18.96875 -0.25 
Q 13.140625 0.921875 6.890625 3.21875 
L 6.890625 13.375 
Q 12.890625 10.015625 18.65625 8.296875 
Q 24.421875 6.59375 29.984375 6.59375 
Q 38.421875 6.59375 43.015625 9.90625 
Q 47.609375 13.234375 47.609375 19.390625 
Q 47.609375 24.75 44.3125 27.78125 
Q 41.015625 30.8125 33.5 32.328125 
L 27.484375 33.5 
Q 16.453125 35.6875 11.515625 40.375 
Q 6.59375 45.0625 6.59375 53.421875 
Q 6.59375 63.09375 13.40625 68.65625 
Q 20.21875 74.21875 32.171875 74.21875 
Q 37.3125 74.21875 42.625 73.28125 
Q 47.953125 72.359375 53.515625 70.515625 
z
" id="DejaVuSans-83"/>
      <path d="M 56.203125 29.59375 
L 56.203125 25.203125 
L 14.890625 25.203125 
Q 15.484375 15.921875 20.484375 11.0625 
Q 25.484375 6.203125 34.421875 6.203125 
Q 39.59375 6.203125 44.453125 7.46875 
Q 49.3125 8.734375 54.109375 11.28125 
L 54.109375 2.78125 
Q 49.265625 0.734375 44.1875 -0.34375 
Q 39.109375 -1.421875 33.890625 -1.421875 
Q 20.796875 -1.421875 13.15625 6.1875 
Q 5.515625 13.8125 5.515625 26.8125 
Q 5.515625 40.234375 12.765625 48.109375 
Q 20.015625 56 32.328125 56 
Q 43.359375 56 49.78125 48.890625 
Q 56.203125 41.796875 56.203125 29.59375 
z
M 47.21875 32.234375 
Q 47.125 39.59375 43.09375 43.984375 
Q 39.0625 48.390625 32.421875 48.390625 
Q 24.90625 48.390625 20.390625 44.140625 
Q 15.875 39.890625 15.1875 32.171875 
z
" id="DejaVuSans-101"/>
     </defs>
     <g transform="translate(24.60125 91.479119)rotate(-90)scale(0.12 -0.12)">
      <use xlink:href="#DejaVuSans-83"/>
      <use x="63.476562" xlink:href="#DejaVuSans-101"/>
     </g>
    </g>
    <g id="text_7">
     <!-- 1e7 -->
     <defs>
      <path d="M 8.203125 72.90625 
L 55.078125 72.90625 
L 55.078125 68.703125 
L 28.609375 0 
L 18.3125 0 
L 43.21875 64.59375 
L 8.203125 64.59375 
z
" id="DejaVuSans-55"/>
     </defs>
     <g transform="translate(54 31.56)scale(0.1 -0.1)">
      <use xlink:href="#DejaVuSans-49"/>
      <use x="63.623047" xlink:href="#DejaVuSans-101"/>
      <use x="125.146484" xlink:href="#DejaVuSans-55"/>
     </g>
    </g>
   </g>
   <g id="line2d_6">
    <path clip-path="url(#p8321f0c4f5)" d="M 57.3083 128.9038 
L 72.997148 128.9038 
L 73.33821 126.230181 
L 73.679271 128.9038 
L 74.020333 128.9038 
L 74.361395 126.199359 
L 74.702457 128.9038 
L 75.043519 128.809603 
L 75.725643 128.903802 
L 76.748828 128.903794 
L 79.136262 128.9038 
L 79.477324 122.18026 
L 79.818386 128.9038 
L 80.159447 123.393385 
L 80.500509 128.9038 
L 80.841571 128.903802 
L 81.182633 128.450318 
L 81.523695 128.9038 
L 83.911128 128.804051 
L 84.25219 127.987443 
L 84.593252 128.087334 
L 84.934314 128.903802 
L 86.298562 128.903802 
L 86.639623 42.603477 
L 86.980685 58.163504 
L 87.321747 39.052562 
L 87.662809 39.236767 
L 88.003871 128.903801 
L 91.073428 128.864451 
L 91.41449 83.578021 
L 91.755552 128.903761 
L 95.166171 128.9038 
L 95.507233 125.401851 
L 95.848295 128.9038 
L 96.189357 127.443642 
L 96.530418 128.903802 
L 100.282099 128.9038 
L 100.623161 128.43349 
L 100.964223 128.9038 
L 101.305285 128.707702 
L 101.646347 128.903802 
L 103.010595 128.9038 
L 103.351656 56.497674 
L 105.056966 56.480324 
L 105.398028 128.900071 
L 105.73909 56.481415 
L 106.080152 112.267145 
L 106.421213 56.481415 
L 106.762275 56.481415 
L 107.103337 119.171916 
L 107.444399 116.618537 
L 108.126523 116.618537 
L 108.467585 128.903801 
L 115.629885 128.9038 
L 115.970947 128.695505 
L 116.312008 128.9038 
L 123.474308 128.9038 
L 123.474308 128.9038 
" style="fill:none;stroke:#1f77b4;stroke-linecap:square;stroke-width:1.5;"/>
   </g>
   <g id="patch_3">
    <path d="M 54 133.396364 
L 54 34.56 
" style="fill:none;stroke:#000000;stroke-linecap:square;stroke-linejoin:miter;stroke-width:0.8;"/>
   </g>
   <g id="patch_4">
    <path d="M 126.782609 133.396364 
L 126.782609 34.56 
" style="fill:none;stroke:#000000;stroke-linecap:square;stroke-linejoin:miter;stroke-width:0.8;"/>
   </g>
   <g id="patch_5">
    <path d="M 54 133.396364 
L 126.782609 133.396364 
" style="fill:none;stroke:#000000;stroke-linecap:square;stroke-linejoin:miter;stroke-width:0.8;"/>
   </g>
   <g id="patch_6">
    <path d="M 54 34.56 
L 126.782609 34.56 
" style="fill:none;stroke:#000000;stroke-linecap:square;stroke-linejoin:miter;stroke-width:0.8;"/>
   </g>
   <g id="text_8">
    <!-- k_up -->
    <defs>
     <path d="M 9.078125 75.984375 
L 18.109375 75.984375 
L 18.109375 31.109375 
L 44.921875 54.6875 
L 56.390625 54.6875 
L 27.390625 29.109375 
L 57.625 0 
L 45.90625 0 
L 18.109375 26.703125 
L 18.109375 0 
L 9.078125 0 
z
" id="DejaVuSans-107"/>
     <path d="M 50.984375 -16.609375 
L 50.984375 -23.578125 
L -0.984375 -23.578125 
L -0.984375 -16.609375 
z
" id="DejaVuSans-95"/>
     <path d="M 8.5 21.578125 
L 8.5 54.6875 
L 17.484375 54.6875 
L 17.484375 21.921875 
Q 17.484375 14.15625 20.5 10.265625 
Q 23.53125 6.390625 29.59375 6.390625 
Q 36.859375 6.390625 41.078125 11.03125 
Q 45.3125 15.671875 45.3125 23.6875 
L 45.3125 54.6875 
L 54.296875 54.6875 
L 54.296875 0 
L 45.3125 0 
L 45.3125 8.40625 
Q 42.046875 3.421875 37.71875 1 
Q 33.40625 -1.421875 27.6875 -1.421875 
Q 18.265625 -1.421875 13.375 4.4375 
Q 8.5 10.296875 8.5 21.578125 
z
M 31.109375 56 
z
" id="DejaVuSans-117"/>
     <path d="M 18.109375 8.203125 
L 18.109375 -20.796875 
L 9.078125 -20.796875 
L 9.078125 54.6875 
L 18.109375 54.6875 
L 18.109375 46.390625 
Q 20.953125 51.265625 25.265625 53.625 
Q 29.59375 56 35.59375 56 
Q 45.5625 56 51.78125 48.09375 
Q 58.015625 40.1875 58.015625 27.296875 
Q 58.015625 14.40625 51.78125 6.484375 
Q 45.5625 -1.421875 35.59375 -1.421875 
Q 29.59375 -1.421875 25.265625 0.953125 
Q 20.953125 3.328125 18.109375 8.203125 
z
M 48.6875 27.296875 
Q 48.6875 37.203125 44.609375 42.84375 
Q 40.53125 48.484375 33.40625 48.484375 
Q 26.265625 48.484375 22.1875 42.84375 
Q 18.109375 37.203125 18.109375 27.296875 
Q 18.109375 17.390625 22.1875 11.75 
Q 26.265625 6.109375 33.40625 6.109375 
Q 40.53125 6.109375 44.609375 11.75 
Q 48.6875 17.390625 48.6875 27.296875 
z
" id="DejaVuSans-112"/>
    </defs>
    <g transform="translate(76.305367 28.56)scale(0.12 -0.12)">
     <use xlink:href="#DejaVuSans-107"/>
     <use x="57.910156" xlink:href="#DejaVuSans-95"/>
     <use x="107.910156" xlink:href="#DejaVuSans-117"/>
     <use x="171.289062" xlink:href="#DejaVuSans-112"/>
    </g>
   </g>
  </g>
  <g id="axes_2">
   <g id="patch_7">
    <path d="M 141.33913 133.396364 
L 214.121739 133.396364 
L 214.121739 34.56 
L 141.33913 34.56 
z
" style="fill:#ffffff;"/>
   </g>
   <g id="matplotlib.axis_3">
    <g id="xtick_3">
     <g id="line2d_7">
      <g>
       <use style="stroke:#000000;stroke-width:0.8;" x="144.647431" xlink:href="#m097f31555f" y="133.396364"/>
      </g>
     </g>
     <g id="text_9">
      <!-- 0 -->
      <g transform="translate(141.466181 147.994801)scale(0.1 -0.1)">
       <use xlink:href="#DejaVuSans-48"/>
      </g>
     </g>
    </g>
    <g id="xtick_4">
     <g id="line2d_8">
      <g>
       <use style="stroke:#000000;stroke-width:0.8;" x="212.85981" xlink:href="#m097f31555f" y="133.396364"/>
      </g>
     </g>
     <g id="text_10">
      <!-- 200 -->
      <g transform="translate(203.31606 147.994801)scale(0.1 -0.1)">
       <use xlink:href="#DejaVuSans-50"/>
       <use x="63.623047" xlink:href="#DejaVuSans-48"/>
       <use x="127.246094" xlink:href="#DejaVuSans-48"/>
      </g>
     </g>
    </g>
   </g>
   <g id="matplotlib.axis_4">
    <g id="ytick_4">
     <g id="line2d_9">
      <g>
       <use style="stroke:#000000;stroke-width:0.8;" x="141.33913" xlink:href="#m3145c06f45" y="128.903802"/>
      </g>
     </g>
     <g id="text_11">
      <!-- 0.0 -->
      <g transform="translate(118.436005 132.70302)scale(0.1 -0.1)">
       <use xlink:href="#DejaVuSans-48"/>
       <use x="63.623047" xlink:href="#DejaVuSans-46"/>
       <use x="95.410156" xlink:href="#DejaVuSans-48"/>
      </g>
     </g>
    </g>
    <g id="ytick_5">
     <g id="line2d_10">
      <g>
       <use style="stroke:#000000;stroke-width:0.8;" x="141.33913" xlink:href="#m3145c06f45" y="83.934303"/>
      </g>
     </g>
     <g id="text_12">
      <!-- 0.5 -->
      <g transform="translate(118.436005 87.733521)scale(0.1 -0.1)">
       <use xlink:href="#DejaVuSans-48"/>
       <use x="63.623047" xlink:href="#DejaVuSans-46"/>
       <use x="95.410156" xlink:href="#DejaVuSans-53"/>
      </g>
     </g>
    </g>
    <g id="ytick_6">
     <g id="line2d_11">
      <g>
       <use style="stroke:#000000;stroke-width:0.8;" x="141.33913" xlink:href="#m3145c06f45" y="38.964803"/>
      </g>
     </g>
     <g id="text_13">
      <!-- 1.0 -->
      <g transform="translate(118.436005 42.764022)scale(0.1 -0.1)">
       <use xlink:href="#DejaVuSans-49"/>
       <use x="63.623047" xlink:href="#DejaVuSans-46"/>
       <use x="95.410156" xlink:href="#DejaVuSans-48"/>
      </g>
     </g>
    </g>
    <g id="text_14">
     <!-- Se -->
     <g transform="translate(111.94038 91.479119)rotate(-90)scale(0.12 -0.12)">
      <use xlink:href="#DejaVuSans-83"/>
      <use x="63.476562" xlink:href="#DejaVuSans-101"/>
     </g>
    </g>
    <g id="text_15">
     <!-- 1e7 -->
     <g transform="translate(141.33913 31.56)scale(0.1 -0.1)">
      <use xlink:href="#DejaVuSans-49"/>
      <use x="63.623047" xlink:href="#DejaVuSans-101"/>
      <use x="125.146484" xlink:href="#DejaVuSans-55"/>
     </g>
    </g>
   </g>
   <g id="line2d_12">
    <path clip-path="url(#p6a2029642f)" d="M 144.647431 128.9038 
L 160.336278 128.9038 
L 160.67734 126.230181 
L 161.018402 128.9038 
L 161.359464 128.9038 
L 161.700526 126.199359 
L 162.041588 128.9038 
L 162.382649 128.809603 
L 163.064773 128.903802 
L 164.087959 128.903794 
L 166.475392 128.9038 
L 166.816454 122.18026 
L 167.157516 128.9038 
L 167.498578 123.393385 
L 167.83964 128.9038 
L 168.180702 128.903802 
L 168.521764 128.450318 
L 168.862825 128.9038 
L 171.250259 128.804051 
L 171.591321 127.987443 
L 171.932383 128.087334 
L 172.273444 128.903802 
L 173.637692 128.903802 
L 173.978754 42.603477 
L 174.319816 58.163504 
L 174.660878 39.052562 
L 175.00194 39.236767 
L 175.343002 128.903801 
L 178.412559 128.864451 
L 178.75362 83.578021 
L 179.094682 128.903761 
L 182.505301 128.9038 
L 182.846363 125.401851 
L 183.187425 128.9038 
L 183.528487 127.443642 
L 183.869549 128.903802 
L 187.62123 128.9038 
L 187.962292 128.43349 
L 188.303354 128.9038 
L 188.644415 128.707702 
L 188.985477 128.903802 
L 190.349725 128.9038 
L 190.690787 56.497674 
L 192.396096 56.480324 
L 192.737158 128.900071 
L 193.07822 56.481415 
L 193.419282 112.267145 
L 193.760344 56.481415 
L 194.101406 56.481415 
L 194.442468 119.171916 
L 194.78353 116.618537 
L 195.465653 116.618537 
L 195.806715 128.903801 
L 202.969015 128.9038 
L 203.310077 128.695505 
L 203.651139 128.9038 
L 210.813439 128.9038 
L 210.813439 128.9038 
" style="fill:none;stroke:#1f77b4;stroke-linecap:square;stroke-width:1.5;"/>
   </g>
   <g id="patch_8">
    <path d="M 141.33913 133.396364 
L 141.33913 34.56 
" style="fill:none;stroke:#000000;stroke-linecap:square;stroke-linejoin:miter;stroke-width:0.8;"/>
   </g>
   <g id="patch_9">
    <path d="M 214.121739 133.396364 
L 214.121739 34.56 
" style="fill:none;stroke:#000000;stroke-linecap:square;stroke-linejoin:miter;stroke-width:0.8;"/>
   </g>
   <g id="patch_10">
    <path d="M 141.33913 133.396364 
L 214.121739 133.396364 
" style="fill:none;stroke:#000000;stroke-linecap:square;stroke-linejoin:miter;stroke-width:0.8;"/>
   </g>
   <g id="patch_11">
    <path d="M 141.33913 34.56 
L 214.121739 34.56 
" style="fill:none;stroke:#000000;stroke-linecap:square;stroke-linejoin:miter;stroke-width:0.8;"/>
   </g>
   <g id="text_16">
    <!-- k_tx -->
    <defs>
     <path d="M 18.3125 70.21875 
L 18.3125 54.6875 
L 36.8125 54.6875 
L 36.8125 47.703125 
L 18.3125 47.703125 
L 18.3125 18.015625 
Q 18.3125 11.328125 20.140625 9.421875 
Q 21.96875 7.515625 27.59375 7.515625 
L 36.8125 7.515625 
L 36.8125 0 
L 27.59375 0 
Q 17.1875 0 13.234375 3.875 
Q 9.28125 7.765625 9.28125 18.015625 
L 9.28125 47.703125 
L 2.6875 47.703125 
L 2.6875 54.6875 
L 9.28125 54.6875 
L 9.28125 70.21875 
z
" id="DejaVuSans-116"/>
     <path d="M 54.890625 54.6875 
L 35.109375 28.078125 
L 55.90625 0 
L 45.3125 0 
L 29.390625 21.484375 
L 13.484375 0 
L 2.875 0 
L 24.125 28.609375 
L 4.6875 54.6875 
L 15.28125 54.6875 
L 29.78125 35.203125 
L 44.28125 54.6875 
z
" id="DejaVuSans-120"/>
    </defs>
    <g transform="translate(165.352622 28.56)scale(0.12 -0.12)">
     <use xlink:href="#DejaVuSans-107"/>
     <use x="57.910156" xlink:href="#DejaVuSans-95"/>
     <use x="107.910156" xlink:href="#DejaVuSans-116"/>
     <use x="147.119141" xlink:href="#DejaVuSans-120"/>
    </g>
   </g>
  </g>
  <g id="axes_3">
   <g id="patch_12">
    <path d="M 228.678261 133.396364 
L 301.46087 133.396364 
L 301.46087 34.56 
L 228.678261 34.56 
z
" style="fill:#ffffff;"/>
   </g>
   <g id="matplotlib.axis_5">
    <g id="xtick_5">
     <g id="line2d_13">
      <g>
       <use style="stroke:#000000;stroke-width:0.8;" x="231.986561" xlink:href="#m097f31555f" y="133.396364"/>
      </g>
     </g>
     <g id="text_17">
      <!-- 0 -->
      <g transform="translate(228.805311 147.994801)scale(0.1 -0.1)">
       <use xlink:href="#DejaVuSans-48"/>
      </g>
     </g>
    </g>
    <g id="xtick_6">
     <g id="line2d_14">
      <g>
       <use style="stroke:#000000;stroke-width:0.8;" x="300.198941" xlink:href="#m097f31555f" y="133.396364"/>
      </g>
     </g>
     <g id="text_18">
      <!-- 200 -->
      <g transform="translate(290.655191 147.994801)scale(0.1 -0.1)">
       <use xlink:href="#DejaVuSans-50"/>
       <use x="63.623047" xlink:href="#DejaVuSans-48"/>
       <use x="127.246094" xlink:href="#DejaVuSans-48"/>
      </g>
     </g>
    </g>
   </g>
   <g id="matplotlib.axis_6">
    <g id="ytick_7">
     <g id="line2d_15">
      <g>
       <use style="stroke:#000000;stroke-width:0.8;" x="228.678261" xlink:href="#m3145c06f45" y="128.903802"/>
      </g>
     </g>
     <g id="text_19">
      <!-- 0.0 -->
      <g transform="translate(205.775136 132.70302)scale(0.1 -0.1)">
       <use xlink:href="#DejaVuSans-48"/>
       <use x="63.623047" xlink:href="#DejaVuSans-46"/>
       <use x="95.410156" xlink:href="#DejaVuSans-48"/>
      </g>
     </g>
    </g>
    <g id="ytick_8">
     <g id="line2d_16">
      <g>
       <use style="stroke:#000000;stroke-width:0.8;" x="228.678261" xlink:href="#m3145c06f45" y="83.934303"/>
      </g>
     </g>
     <g id="text_20">
      <!-- 0.5 -->
      <g transform="translate(205.775136 87.733521)scale(0.1 -0.1)">
       <use xlink:href="#DejaVuSans-48"/>
       <use x="63.623047" xlink:href="#DejaVuSans-46"/>
       <use x="95.410156" xlink:href="#DejaVuSans-53"/>
      </g>
     </g>
    </g>
    <g id="ytick_9">
     <g id="line2d_17">
      <g>
       <use style="stroke:#000000;stroke-width:0.8;" x="228.678261" xlink:href="#m3145c06f45" y="38.964803"/>
      </g>
     </g>
     <g id="text_21">
      <!-- 1.0 -->
      <g transform="translate(205.775136 42.764022)scale(0.1 -0.1)">
       <use xlink:href="#DejaVuSans-49"/>
       <use x="63.623047" xlink:href="#DejaVuSans-46"/>
       <use x="95.410156" xlink:href="#DejaVuSans-48"/>
      </g>
     </g>
    </g>
    <g id="text_22">
     <!-- Se -->
     <g transform="translate(199.279511 91.479119)rotate(-90)scale(0.12 -0.12)">
      <use xlink:href="#DejaVuSans-83"/>
      <use x="63.476562" xlink:href="#DejaVuSans-101"/>
     </g>
    </g>
    <g id="text_23">
     <!-- 1e7 -->
     <g transform="translate(228.678261 31.56)scale(0.1 -0.1)">
      <use xlink:href="#DejaVuSans-49"/>
      <use x="63.623047" xlink:href="#DejaVuSans-101"/>
      <use x="125.146484" xlink:href="#DejaVuSans-55"/>
     </g>
    </g>
   </g>
   <g id="line2d_18">
    <path clip-path="url(#pece7599ed2)" d="M 231.986561 128.9038 
L 247.675409 128.9038 
L 248.01647 126.230181 
L 248.357532 128.9038 
L 248.698594 128.9038 
L 249.039656 126.199359 
L 249.380718 128.9038 
L 249.72178 128.809603 
L 250.403904 128.903802 
L 251.427089 128.903794 
L 253.814523 128.9038 
L 254.155585 122.18026 
L 254.496646 128.9038 
L 254.837708 123.393385 
L 255.17877 128.9038 
L 255.519832 128.903802 
L 255.860894 128.450318 
L 256.201956 128.9038 
L 258.589389 128.804051 
L 258.930451 127.987443 
L 259.271513 128.087334 
L 259.612575 128.903802 
L 260.976822 128.903802 
L 261.317884 42.603477 
L 261.658946 58.163504 
L 262.000008 39.052562 
L 262.34107 39.236767 
L 262.682132 128.903801 
L 265.751689 128.864451 
L 266.092751 83.578021 
L 266.433813 128.903761 
L 269.844432 128.9038 
L 270.185494 125.401851 
L 270.526556 128.9038 
L 270.867617 127.443642 
L 271.208679 128.903802 
L 274.96036 128.9038 
L 275.301422 128.43349 
L 275.642484 128.9038 
L 275.983546 128.707702 
L 276.324608 128.903802 
L 277.688855 128.9038 
L 278.029917 56.497674 
L 279.735227 56.480324 
L 280.076289 128.900071 
L 280.417351 56.481415 
L 280.758412 112.267145 
L 281.099474 56.481415 
L 281.440536 56.481415 
L 281.781598 119.171916 
L 282.12266 116.618537 
L 282.804784 116.618537 
L 283.145846 128.903801 
L 290.308146 128.9038 
L 290.649207 128.695505 
L 290.990269 128.9038 
L 298.152569 128.9038 
L 298.152569 128.9038 
" style="fill:none;stroke:#1f77b4;stroke-linecap:square;stroke-width:1.5;"/>
   </g>
   <g id="patch_13">
    <path d="M 228.678261 133.396364 
L 228.678261 34.56 
" style="fill:none;stroke:#000000;stroke-linecap:square;stroke-linejoin:miter;stroke-width:0.8;"/>
   </g>
   <g id="patch_14">
    <path d="M 301.46087 133.396364 
L 301.46087 34.56 
" style="fill:none;stroke:#000000;stroke-linecap:square;stroke-linejoin:miter;stroke-width:0.8;"/>
   </g>
   <g id="patch_15">
    <path d="M 228.678261 133.396364 
L 301.46087 133.396364 
" style="fill:none;stroke:#000000;stroke-linecap:square;stroke-linejoin:miter;stroke-width:0.8;"/>
   </g>
   <g id="patch_16">
    <path d="M 228.678261 34.56 
L 301.46087 34.56 
" style="fill:none;stroke:#000000;stroke-linecap:square;stroke-linejoin:miter;stroke-width:0.8;"/>
   </g>
   <g id="text_24">
    <!-- k_br -->
    <defs>
     <path d="M 48.6875 27.296875 
Q 48.6875 37.203125 44.609375 42.84375 
Q 40.53125 48.484375 33.40625 48.484375 
Q 26.265625 48.484375 22.1875 42.84375 
Q 18.109375 37.203125 18.109375 27.296875 
Q 18.109375 17.390625 22.1875 11.75 
Q 26.265625 6.109375 33.40625 6.109375 
Q 40.53125 6.109375 44.609375 11.75 
Q 48.6875 17.390625 48.6875 27.296875 
z
M 18.109375 46.390625 
Q 20.953125 51.265625 25.265625 53.625 
Q 29.59375 56 35.59375 56 
Q 45.5625 56 51.78125 48.09375 
Q 58.015625 40.1875 58.015625 27.296875 
Q 58.015625 14.40625 51.78125 6.484375 
Q 45.5625 -1.421875 35.59375 -1.421875 
Q 29.59375 -1.421875 25.265625 0.953125 
Q 20.953125 3.328125 18.109375 8.203125 
L 18.109375 0 
L 9.078125 0 
L 9.078125 75.984375 
L 18.109375 75.984375 
z
" id="DejaVuSans-98"/>
     <path d="M 41.109375 46.296875 
Q 39.59375 47.171875 37.8125 47.578125 
Q 36.03125 48 33.890625 48 
Q 26.265625 48 22.1875 43.046875 
Q 18.109375 38.09375 18.109375 28.8125 
L 18.109375 0 
L 9.078125 0 
L 9.078125 54.6875 
L 18.109375 54.6875 
L 18.109375 46.1875 
Q 20.953125 51.171875 25.484375 53.578125 
Q 30.03125 56 36.53125 56 
Q 37.453125 56 38.578125 55.875 
Q 39.703125 55.765625 41.0625 55.515625 
z
" id="DejaVuSans-114"/>
    </defs>
    <g transform="translate(252.319565 28.56)scale(0.12 -0.12)">
     <use xlink:href="#DejaVuSans-107"/>
     <use x="57.910156" xlink:href="#DejaVuSans-95"/>
     <use x="107.910156" xlink:href="#DejaVuSans-98"/>
     <use x="171.386719" xlink:href="#DejaVuSans-114"/>
    </g>
   </g>
  </g>
  <g id="axes_4">
   <g id="patch_17">
    <path d="M 316.017391 133.396364 
L 388.8 133.396364 
L 388.8 34.56 
L 316.017391 34.56 
z
" style="fill:#ffffff;"/>
   </g>
   <g id="matplotlib.axis_7">
    <g id="xtick_7">
     <g id="line2d_19">
      <g>
       <use style="stroke:#000000;stroke-width:0.8;" x="319.325692" xlink:href="#m097f31555f" y="133.396364"/>
      </g>
     </g>
     <g id="text_25">
      <!-- 0 -->
      <g transform="translate(316.144442 147.994801)scale(0.1 -0.1)">
       <use xlink:href="#DejaVuSans-48"/>
      </g>
     </g>
    </g>
    <g id="xtick_8">
     <g id="line2d_20">
      <g>
       <use style="stroke:#000000;stroke-width:0.8;" x="387.538071" xlink:href="#m097f31555f" y="133.396364"/>
      </g>
     </g>
     <g id="text_26">
      <!-- 200 -->
      <g transform="translate(377.994321 147.994801)scale(0.1 -0.1)">
       <use xlink:href="#DejaVuSans-50"/>
       <use x="63.623047" xlink:href="#DejaVuSans-48"/>
       <use x="127.246094" xlink:href="#DejaVuSans-48"/>
      </g>
     </g>
    </g>
   </g>
   <g id="matplotlib.axis_8">
    <g id="ytick_10">
     <g id="line2d_21">
      <g>
       <use style="stroke:#000000;stroke-width:0.8;" x="316.017391" xlink:href="#m3145c06f45" y="128.903802"/>
      </g>
     </g>
     <g id="text_27">
      <!-- 0.0 -->
      <g transform="translate(293.114266 132.70302)scale(0.1 -0.1)">
       <use xlink:href="#DejaVuSans-48"/>
       <use x="63.623047" xlink:href="#DejaVuSans-46"/>
       <use x="95.410156" xlink:href="#DejaVuSans-48"/>
      </g>
     </g>
    </g>
    <g id="ytick_11">
     <g id="line2d_22">
      <g>
       <use style="stroke:#000000;stroke-width:0.8;" x="316.017391" xlink:href="#m3145c06f45" y="83.934303"/>
      </g>
     </g>
     <g id="text_28">
      <!-- 0.5 -->
      <g transform="translate(293.114266 87.733521)scale(0.1 -0.1)">
       <use xlink:href="#DejaVuSans-48"/>
       <use x="63.623047" xlink:href="#DejaVuSans-46"/>
       <use x="95.410156" xlink:href="#DejaVuSans-53"/>
      </g>
     </g>
    </g>
    <g id="ytick_12">
     <g id="line2d_23">
      <g>
       <use style="stroke:#000000;stroke-width:0.8;" x="316.017391" xlink:href="#m3145c06f45" y="38.964803"/>
      </g>
     </g>
     <g id="text_29">
      <!-- 1.0 -->
      <g transform="translate(293.114266 42.764022)scale(0.1 -0.1)">
       <use xlink:href="#DejaVuSans-49"/>
       <use x="63.623047" xlink:href="#DejaVuSans-46"/>
       <use x="95.410156" xlink:href="#DejaVuSans-48"/>
      </g>
     </g>
    </g>
    <g id="text_30">
     <!-- Se -->
     <g transform="translate(286.618641 91.479119)rotate(-90)scale(0.12 -0.12)">
      <use xlink:href="#DejaVuSans-83"/>
      <use x="63.476562" xlink:href="#DejaVuSans-101"/>
     </g>
    </g>
    <g id="text_31">
     <!-- 1e7 -->
     <g transform="translate(316.017391 31.56)scale(0.1 -0.1)">
      <use xlink:href="#DejaVuSans-49"/>
      <use x="63.623047" xlink:href="#DejaVuSans-101"/>
      <use x="125.146484" xlink:href="#DejaVuSans-55"/>
     </g>
    </g>
   </g>
   <g id="line2d_24">
    <path clip-path="url(#p2cf412be0f)" d="M 319.325692 128.9038 
L 335.014539 128.9038 
L 335.355601 126.230181 
L 335.696663 128.9038 
L 336.037725 128.9038 
L 336.378787 126.199359 
L 336.719848 128.9038 
L 337.06091 128.809603 
L 337.743034 128.903802 
L 338.76622 128.903794 
L 341.153653 128.9038 
L 341.494715 122.18026 
L 341.835777 128.9038 
L 342.176839 123.393385 
L 342.517901 128.9038 
L 342.858963 128.903802 
L 343.200024 128.450318 
L 343.541086 128.9038 
L 345.92852 128.804051 
L 346.269582 127.987443 
L 346.610643 128.087334 
L 346.951705 128.903802 
L 348.315953 128.903802 
L 348.657015 42.603477 
L 348.998077 58.163504 
L 349.339139 39.052562 
L 349.6802 39.236767 
L 350.021262 128.903801 
L 353.090819 128.864451 
L 353.431881 83.578021 
L 353.772943 128.903761 
L 357.183562 128.9038 
L 357.524624 125.401851 
L 357.865686 128.9038 
L 358.206748 127.443642 
L 358.54781 128.903802 
L 362.299491 128.9038 
L 362.640553 128.43349 
L 362.981614 128.9038 
L 363.322676 128.707702 
L 363.663738 128.903802 
L 365.027986 128.9038 
L 365.369048 56.497674 
L 367.074357 56.480324 
L 367.415419 128.900071 
L 367.756481 56.481415 
L 368.097543 112.267145 
L 368.438605 56.481415 
L 368.779667 56.481415 
L 369.120729 119.171916 
L 369.46179 116.618537 
L 370.143914 116.618537 
L 370.484976 128.903801 
L 377.647276 128.9038 
L 377.988338 128.695505 
L 378.3294 128.9038 
L 385.4917 128.9038 
L 385.4917 128.9038 
" style="fill:none;stroke:#1f77b4;stroke-linecap:square;stroke-width:1.5;"/>
   </g>
   <g id="patch_18">
    <path d="M 316.017391 133.396364 
L 316.017391 34.56 
" style="fill:none;stroke:#000000;stroke-linecap:square;stroke-linejoin:miter;stroke-width:0.8;"/>
   </g>
   <g id="patch_19">
    <path d="M 388.8 133.396364 
L 388.8 34.56 
" style="fill:none;stroke:#000000;stroke-linecap:square;stroke-linejoin:miter;stroke-width:0.8;"/>
   </g>
   <g id="patch_20">
    <path d="M 316.017391 133.396364 
L 388.8 133.396364 
" style="fill:none;stroke:#000000;stroke-linecap:square;stroke-linejoin:miter;stroke-width:0.8;"/>
   </g>
   <g id="patch_21">
    <path d="M 316.017391 34.56 
L 388.8 34.56 
" style="fill:none;stroke:#000000;stroke-linecap:square;stroke-linejoin:miter;stroke-width:0.8;"/>
   </g>
   <g id="text_32">
    <!-- k_ur -->
    <g transform="translate(339.665258 28.56)scale(0.12 -0.12)">
     <use xlink:href="#DejaVuSans-107"/>
     <use x="57.910156" xlink:href="#DejaVuSans-95"/>
     <use x="107.910156" xlink:href="#DejaVuSans-117"/>
     <use x="171.289062" xlink:href="#DejaVuSans-114"/>
    </g>
   </g>
  </g>
  <g id="axes_5">
   <g id="patch_22">
    <path d="M 54 252 
L 126.782609 252 
L 126.782609 153.163636 
L 54 153.163636 
z
" style="fill:#ffffff;"/>
   </g>
   <g id="matplotlib.axis_9">
    <g id="xtick_9">
     <g id="line2d_25">
      <g>
       <use style="stroke:#000000;stroke-width:0.8;" x="57.3083" xlink:href="#m097f31555f" y="252"/>
      </g>
     </g>
     <g id="text_33">
      <!-- 0 -->
      <g transform="translate(54.12705 266.598437)scale(0.1 -0.1)">
       <use xlink:href="#DejaVuSans-48"/>
      </g>
     </g>
    </g>
    <g id="xtick_10">
     <g id="line2d_26">
      <g>
       <use style="stroke:#000000;stroke-width:0.8;" x="125.52068" xlink:href="#m097f31555f" y="252"/>
      </g>
     </g>
     <g id="text_34">
      <!-- 200 -->
      <g transform="translate(115.97693 266.598437)scale(0.1 -0.1)">
       <use xlink:href="#DejaVuSans-50"/>
       <use x="63.623047" xlink:href="#DejaVuSans-48"/>
       <use x="127.246094" xlink:href="#DejaVuSans-48"/>
      </g>
     </g>
    </g>
   </g>
   <g id="matplotlib.axis_10">
    <g id="ytick_13">
     <g id="line2d_27">
      <g>
       <use style="stroke:#000000;stroke-width:0.8;" x="54" xlink:href="#m3145c06f45" y="247.507438"/>
      </g>
     </g>
     <g id="text_35">
      <!-- 0.0 -->
      <g transform="translate(31.096875 251.306657)scale(0.1 -0.1)">
       <use xlink:href="#DejaVuSans-48"/>
       <use x="63.623047" xlink:href="#DejaVuSans-46"/>
       <use x="95.410156" xlink:href="#DejaVuSans-48"/>
      </g>
     </g>
    </g>
    <g id="ytick_14">
     <g id="line2d_28">
      <g>
       <use style="stroke:#000000;stroke-width:0.8;" x="54" xlink:href="#m3145c06f45" y="202.537939"/>
      </g>
     </g>
     <g id="text_36">
      <!-- 0.5 -->
      <g transform="translate(31.096875 206.337158)scale(0.1 -0.1)">
       <use xlink:href="#DejaVuSans-48"/>
       <use x="63.623047" xlink:href="#DejaVuSans-46"/>
       <use x="95.410156" xlink:href="#DejaVuSans-53"/>
      </g>
     </g>
    </g>
    <g id="ytick_15">
     <g id="line2d_29">
      <g>
       <use style="stroke:#000000;stroke-width:0.8;" x="54" xlink:href="#m3145c06f45" y="157.56844"/>
      </g>
     </g>
     <g id="text_37">
      <!-- 1.0 -->
      <g transform="translate(31.096875 161.367658)scale(0.1 -0.1)">
       <use xlink:href="#DejaVuSans-49"/>
       <use x="63.623047" xlink:href="#DejaVuSans-46"/>
       <use x="95.410156" xlink:href="#DejaVuSans-48"/>
      </g>
     </g>
    </g>
    <g id="text_38">
     <!-- Se -->
     <g transform="translate(24.60125 210.082756)rotate(-90)scale(0.12 -0.12)">
      <use xlink:href="#DejaVuSans-83"/>
      <use x="63.476562" xlink:href="#DejaVuSans-101"/>
     </g>
    </g>
    <g id="text_39">
     <!-- 1e7 -->
     <g transform="translate(54 150.163636)scale(0.1 -0.1)">
      <use xlink:href="#DejaVuSans-49"/>
      <use x="63.623047" xlink:href="#DejaVuSans-101"/>
      <use x="125.146484" xlink:href="#DejaVuSans-55"/>
     </g>
    </g>
   </g>
   <g id="line2d_30">
    <path clip-path="url(#p537bc4a125)" d="M 57.3083 247.507436 
L 72.997148 247.507436 
L 73.33821 244.833817 
L 73.679271 247.507436 
L 74.020333 247.507436 
L 74.361395 244.802995 
L 74.702457 247.507436 
L 75.043519 247.41324 
L 75.725643 247.507438 
L 76.748828 247.50743 
L 79.136262 247.507436 
L 79.477324 240.783896 
L 79.818386 247.507436 
L 80.159447 241.997022 
L 80.500509 247.507436 
L 80.841571 247.507438 
L 81.182633 247.053954 
L 81.523695 247.507436 
L 83.911128 247.407687 
L 84.25219 246.591079 
L 84.593252 246.69097 
L 84.934314 247.507438 
L 86.298562 247.507438 
L 86.639623 161.207113 
L 86.980685 176.76714 
L 87.321747 157.656198 
L 87.662809 157.840404 
L 88.003871 247.507437 
L 91.073428 247.468087 
L 91.41449 202.181658 
L 91.755552 247.507397 
L 95.166171 247.507436 
L 95.507233 244.005487 
L 95.848295 247.507436 
L 96.189357 246.047278 
L 96.530418 247.507438 
L 100.282099 247.507436 
L 100.623161 247.037127 
L 100.964223 247.507436 
L 101.305285 247.311338 
L 101.646347 247.507438 
L 103.010595 247.507436 
L 103.351656 175.10131 
L 105.056966 175.08396 
L 105.398028 247.503707 
L 105.73909 175.085051 
L 106.080152 230.870782 
L 106.421213 175.085051 
L 106.762275 175.085051 
L 107.103337 237.775553 
L 107.444399 235.222174 
L 108.126523 235.222174 
L 108.467585 247.507437 
L 115.629885 247.507436 
L 115.970947 247.299141 
L 116.312008 247.507436 
L 123.474308 247.507436 
L 123.474308 247.507436 
" style="fill:none;stroke:#1f77b4;stroke-linecap:square;stroke-width:1.5;"/>
   </g>
   <g id="patch_23">
    <path d="M 54 252 
L 54 153.163636 
" style="fill:none;stroke:#000000;stroke-linecap:square;stroke-linejoin:miter;stroke-width:0.8;"/>
   </g>
   <g id="patch_24">
    <path d="M 126.782609 252 
L 126.782609 153.163636 
" style="fill:none;stroke:#000000;stroke-linecap:square;stroke-linejoin:miter;stroke-width:0.8;"/>
   </g>
   <g id="patch_25">
    <path d="M 54 252 
L 126.782609 252 
" style="fill:none;stroke:#000000;stroke-linecap:square;stroke-linejoin:miter;stroke-width:0.8;"/>
   </g>
   <g id="patch_26">
    <path d="M 54 153.163636 
L 126.782609 153.163636 
" style="fill:none;stroke:#000000;stroke-linecap:square;stroke-linejoin:miter;stroke-width:0.8;"/>
   </g>
   <g id="text_40">
    <!-- k_tl -->
    <defs>
     <path d="M 9.421875 75.984375 
L 18.40625 75.984375 
L 18.40625 0 
L 9.421875 0 
z
" id="DejaVuSans-108"/>
    </defs>
    <g transform="translate(79.897867 147.163636)scale(0.12 -0.12)">
     <use xlink:href="#DejaVuSans-107"/>
     <use x="57.910156" xlink:href="#DejaVuSans-95"/>
     <use x="107.910156" xlink:href="#DejaVuSans-116"/>
     <use x="147.119141" xlink:href="#DejaVuSans-108"/>
    </g>
   </g>
  </g>
  <g id="axes_6">
   <g id="patch_27">
    <path d="M 141.33913 252 
L 214.121739 252 
L 214.121739 153.163636 
L 141.33913 153.163636 
z
" style="fill:#ffffff;"/>
   </g>
   <g id="matplotlib.axis_11">
    <g id="xtick_11">
     <g id="line2d_31">
      <g>
       <use style="stroke:#000000;stroke-width:0.8;" x="144.647431" xlink:href="#m097f31555f" y="252"/>
      </g>
     </g>
     <g id="text_41">
      <!-- 0 -->
      <g transform="translate(141.466181 266.598437)scale(0.1 -0.1)">
       <use xlink:href="#DejaVuSans-48"/>
      </g>
     </g>
    </g>
    <g id="xtick_12">
     <g id="line2d_32">
      <g>
       <use style="stroke:#000000;stroke-width:0.8;" x="212.85981" xlink:href="#m097f31555f" y="252"/>
      </g>
     </g>
     <g id="text_42">
      <!-- 200 -->
      <g transform="translate(203.31606 266.598437)scale(0.1 -0.1)">
       <use xlink:href="#DejaVuSans-50"/>
       <use x="63.623047" xlink:href="#DejaVuSans-48"/>
       <use x="127.246094" xlink:href="#DejaVuSans-48"/>
      </g>
     </g>
    </g>
   </g>
   <g id="matplotlib.axis_12">
    <g id="ytick_16">
     <g id="line2d_33">
      <g>
       <use style="stroke:#000000;stroke-width:0.8;" x="141.33913" xlink:href="#m3145c06f45" y="247.507438"/>
      </g>
     </g>
     <g id="text_43">
      <!-- 0.0 -->
      <g transform="translate(118.436005 251.306657)scale(0.1 -0.1)">
       <use xlink:href="#DejaVuSans-48"/>
       <use x="63.623047" xlink:href="#DejaVuSans-46"/>
       <use x="95.410156" xlink:href="#DejaVuSans-48"/>
      </g>
     </g>
    </g>
    <g id="ytick_17">
     <g id="line2d_34">
      <g>
       <use style="stroke:#000000;stroke-width:0.8;" x="141.33913" xlink:href="#m3145c06f45" y="202.537939"/>
      </g>
     </g>
     <g id="text_44">
      <!-- 0.5 -->
      <g transform="translate(118.436005 206.337158)scale(0.1 -0.1)">
       <use xlink:href="#DejaVuSans-48"/>
       <use x="63.623047" xlink:href="#DejaVuSans-46"/>
       <use x="95.410156" xlink:href="#DejaVuSans-53"/>
      </g>
     </g>
    </g>
    <g id="ytick_18">
     <g id="line2d_35">
      <g>
       <use style="stroke:#000000;stroke-width:0.8;" x="141.33913" xlink:href="#m3145c06f45" y="157.56844"/>
      </g>
     </g>
     <g id="text_45">
      <!-- 1.0 -->
      <g transform="translate(118.436005 161.367658)scale(0.1 -0.1)">
       <use xlink:href="#DejaVuSans-49"/>
       <use x="63.623047" xlink:href="#DejaVuSans-46"/>
       <use x="95.410156" xlink:href="#DejaVuSans-48"/>
      </g>
     </g>
    </g>
    <g id="text_46">
     <!-- Se -->
     <g transform="translate(111.94038 210.082756)rotate(-90)scale(0.12 -0.12)">
      <use xlink:href="#DejaVuSans-83"/>
      <use x="63.476562" xlink:href="#DejaVuSans-101"/>
     </g>
    </g>
    <g id="text_47">
     <!-- 1e7 -->
     <g transform="translate(141.33913 150.163636)scale(0.1 -0.1)">
      <use xlink:href="#DejaVuSans-49"/>
      <use x="63.623047" xlink:href="#DejaVuSans-101"/>
      <use x="125.146484" xlink:href="#DejaVuSans-55"/>
     </g>
    </g>
   </g>
   <g id="line2d_36">
    <path clip-path="url(#p17a971abaf)" d="M 144.647431 247.507436 
L 160.336278 247.507436 
L 160.67734 244.833817 
L 161.018402 247.507436 
L 161.359464 247.507436 
L 161.700526 244.802995 
L 162.041588 247.507436 
L 162.382649 247.41324 
L 163.064773 247.507438 
L 164.087959 247.50743 
L 166.475392 247.507436 
L 166.816454 240.783896 
L 167.157516 247.507436 
L 167.498578 241.997022 
L 167.83964 247.507436 
L 168.180702 247.507438 
L 168.521764 247.053954 
L 168.862825 247.507436 
L 171.250259 247.407687 
L 171.591321 246.591079 
L 171.932383 246.69097 
L 172.273444 247.507438 
L 173.637692 247.507438 
L 173.978754 161.207113 
L 174.319816 176.76714 
L 174.660878 157.656198 
L 175.00194 157.840404 
L 175.343002 247.507437 
L 178.412559 247.468087 
L 178.75362 202.181658 
L 179.094682 247.507397 
L 182.505301 247.507436 
L 182.846363 244.005487 
L 183.187425 247.507436 
L 183.528487 246.047278 
L 183.869549 247.507438 
L 187.62123 247.507436 
L 187.962292 247.037127 
L 188.303354 247.507436 
L 188.644415 247.311338 
L 188.985477 247.507438 
L 190.349725 247.507436 
L 190.690787 175.10131 
L 192.396096 175.08396 
L 192.737158 247.503707 
L 193.07822 175.085051 
L 193.419282 230.870782 
L 193.760344 175.085051 
L 194.101406 175.085051 
L 194.442468 237.775553 
L 194.78353 235.222174 
L 195.465653 235.222174 
L 195.806715 247.507437 
L 202.969015 247.507436 
L 203.310077 247.299141 
L 203.651139 247.507436 
L 210.813439 247.507436 
L 210.813439 247.507436 
" style="fill:none;stroke:#1f77b4;stroke-linecap:square;stroke-width:1.5;"/>
   </g>
   <g id="patch_28">
    <path d="M 141.33913 252 
L 141.33913 153.163636 
" style="fill:none;stroke:#000000;stroke-linecap:square;stroke-linejoin:miter;stroke-width:0.8;"/>
   </g>
   <g id="patch_29">
    <path d="M 214.121739 252 
L 214.121739 153.163636 
" style="fill:none;stroke:#000000;stroke-linecap:square;stroke-linejoin:miter;stroke-width:0.8;"/>
   </g>
   <g id="patch_30">
    <path d="M 141.33913 252 
L 214.121739 252 
" style="fill:none;stroke:#000000;stroke-linecap:square;stroke-linejoin:miter;stroke-width:0.8;"/>
   </g>
   <g id="patch_31">
    <path d="M 141.33913 153.163636 
L 214.121739 153.163636 
" style="fill:none;stroke:#000000;stroke-linecap:square;stroke-linejoin:miter;stroke-width:0.8;"/>
   </g>
   <g id="text_48">
    <!-- k_be -->
    <g transform="translate(163.755122 147.163636)scale(0.12 -0.12)">
     <use xlink:href="#DejaVuSans-107"/>
     <use x="57.910156" xlink:href="#DejaVuSans-95"/>
     <use x="107.910156" xlink:href="#DejaVuSans-98"/>
     <use x="171.386719" xlink:href="#DejaVuSans-101"/>
    </g>
   </g>
  </g>
  <g id="axes_7">
   <g id="patch_32">
    <path d="M 228.678261 252 
L 301.46087 252 
L 301.46087 153.163636 
L 228.678261 153.163636 
z
" style="fill:#ffffff;"/>
   </g>
   <g id="matplotlib.axis_13">
    <g id="xtick_13">
     <g id="line2d_37">
      <g>
       <use style="stroke:#000000;stroke-width:0.8;" x="231.986561" xlink:href="#m097f31555f" y="252"/>
      </g>
     </g>
     <g id="text_49">
      <!-- 0 -->
      <g transform="translate(228.805311 266.598437)scale(0.1 -0.1)">
       <use xlink:href="#DejaVuSans-48"/>
      </g>
     </g>
    </g>
    <g id="xtick_14">
     <g id="line2d_38">
      <g>
       <use style="stroke:#000000;stroke-width:0.8;" x="300.198941" xlink:href="#m097f31555f" y="252"/>
      </g>
     </g>
     <g id="text_50">
      <!-- 200 -->
      <g transform="translate(290.655191 266.598437)scale(0.1 -0.1)">
       <use xlink:href="#DejaVuSans-50"/>
       <use x="63.623047" xlink:href="#DejaVuSans-48"/>
       <use x="127.246094" xlink:href="#DejaVuSans-48"/>
      </g>
     </g>
    </g>
   </g>
   <g id="matplotlib.axis_14">
    <g id="ytick_19">
     <g id="line2d_39">
      <g>
       <use style="stroke:#000000;stroke-width:0.8;" x="228.678261" xlink:href="#m3145c06f45" y="247.507438"/>
      </g>
     </g>
     <g id="text_51">
      <!-- 0.0 -->
      <g transform="translate(205.775136 251.306657)scale(0.1 -0.1)">
       <use xlink:href="#DejaVuSans-48"/>
       <use x="63.623047" xlink:href="#DejaVuSans-46"/>
       <use x="95.410156" xlink:href="#DejaVuSans-48"/>
      </g>
     </g>
    </g>
    <g id="ytick_20">
     <g id="line2d_40">
      <g>
       <use style="stroke:#000000;stroke-width:0.8;" x="228.678261" xlink:href="#m3145c06f45" y="202.537939"/>
      </g>
     </g>
     <g id="text_52">
      <!-- 0.5 -->
      <g transform="translate(205.775136 206.337158)scale(0.1 -0.1)">
       <use xlink:href="#DejaVuSans-48"/>
       <use x="63.623047" xlink:href="#DejaVuSans-46"/>
       <use x="95.410156" xlink:href="#DejaVuSans-53"/>
      </g>
     </g>
    </g>
    <g id="ytick_21">
     <g id="line2d_41">
      <g>
       <use style="stroke:#000000;stroke-width:0.8;" x="228.678261" xlink:href="#m3145c06f45" y="157.56844"/>
      </g>
     </g>
     <g id="text_53">
      <!-- 1.0 -->
      <g transform="translate(205.775136 161.367658)scale(0.1 -0.1)">
       <use xlink:href="#DejaVuSans-49"/>
       <use x="63.623047" xlink:href="#DejaVuSans-46"/>
       <use x="95.410156" xlink:href="#DejaVuSans-48"/>
      </g>
     </g>
    </g>
    <g id="text_54">
     <!-- Se -->
     <g transform="translate(199.279511 210.082756)rotate(-90)scale(0.12 -0.12)">
      <use xlink:href="#DejaVuSans-83"/>
      <use x="63.476562" xlink:href="#DejaVuSans-101"/>
     </g>
    </g>
    <g id="text_55">
     <!-- 1e7 -->
     <g transform="translate(228.678261 150.163636)scale(0.1 -0.1)">
      <use xlink:href="#DejaVuSans-49"/>
      <use x="63.623047" xlink:href="#DejaVuSans-101"/>
      <use x="125.146484" xlink:href="#DejaVuSans-55"/>
     </g>
    </g>
   </g>
   <g id="line2d_42">
    <path clip-path="url(#p5edd765144)" d="M 231.986561 247.507436 
L 247.675409 247.507436 
L 248.01647 244.833817 
L 248.357532 247.507436 
L 248.698594 247.507436 
L 249.039656 244.802995 
L 249.380718 247.507436 
L 249.72178 247.41324 
L 250.403904 247.507438 
L 251.427089 247.50743 
L 253.814523 247.507436 
L 254.155585 240.783896 
L 254.496646 247.507436 
L 254.837708 241.997022 
L 255.17877 247.507436 
L 255.519832 247.507438 
L 255.860894 247.053954 
L 256.201956 247.507436 
L 258.589389 247.407687 
L 258.930451 246.591079 
L 259.271513 246.69097 
L 259.612575 247.507438 
L 260.976822 247.507438 
L 261.317884 161.207113 
L 261.658946 176.76714 
L 262.000008 157.656198 
L 262.34107 157.840404 
L 262.682132 247.507437 
L 265.751689 247.468087 
L 266.092751 202.181658 
L 266.433813 247.507397 
L 269.844432 247.507436 
L 270.185494 244.005487 
L 270.526556 247.507436 
L 270.867617 246.047278 
L 271.208679 247.507438 
L 274.96036 247.507436 
L 275.301422 247.037127 
L 275.642484 247.507436 
L 275.983546 247.311338 
L 276.324608 247.507438 
L 277.688855 247.507436 
L 278.029917 175.10131 
L 279.735227 175.08396 
L 280.076289 247.503707 
L 280.417351 175.085051 
L 280.758412 230.870782 
L 281.099474 175.085051 
L 281.440536 175.085051 
L 281.781598 237.775553 
L 282.12266 235.222174 
L 282.804784 235.222174 
L 283.145846 247.507437 
L 290.308146 247.507436 
L 290.649207 247.299141 
L 290.990269 247.507436 
L 298.152569 247.507436 
L 298.152569 247.507436 
" style="fill:none;stroke:#1f77b4;stroke-linecap:square;stroke-width:1.5;"/>
   </g>
   <g id="patch_33">
    <path d="M 228.678261 252 
L 228.678261 153.163636 
" style="fill:none;stroke:#000000;stroke-linecap:square;stroke-linejoin:miter;stroke-width:0.8;"/>
   </g>
   <g id="patch_34">
    <path d="M 301.46087 252 
L 301.46087 153.163636 
" style="fill:none;stroke:#000000;stroke-linecap:square;stroke-linejoin:miter;stroke-width:0.8;"/>
   </g>
   <g id="patch_35">
    <path d="M 228.678261 252 
L 301.46087 252 
" style="fill:none;stroke:#000000;stroke-linecap:square;stroke-linejoin:miter;stroke-width:0.8;"/>
   </g>
   <g id="patch_36">
    <path d="M 228.678261 153.163636 
L 301.46087 153.163636 
" style="fill:none;stroke:#000000;stroke-linecap:square;stroke-linejoin:miter;stroke-width:0.8;"/>
   </g>
   <g id="text_56">
    <!-- k_ue -->
    <g transform="translate(251.100815 147.163636)scale(0.12 -0.12)">
     <use xlink:href="#DejaVuSans-107"/>
     <use x="57.910156" xlink:href="#DejaVuSans-95"/>
     <use x="107.910156" xlink:href="#DejaVuSans-117"/>
     <use x="171.289062" xlink:href="#DejaVuSans-101"/>
    </g>
   </g>
  </g>
  <g id="axes_8">
   <g id="patch_37">
    <path d="M 316.017391 252 
L 388.8 252 
L 388.8 153.163636 
L 316.017391 153.163636 
z
" style="fill:#ffffff;"/>
   </g>
   <g id="matplotlib.axis_15">
    <g id="xtick_15">
     <g id="line2d_43">
      <g>
       <use style="stroke:#000000;stroke-width:0.8;" x="319.325692" xlink:href="#m097f31555f" y="252"/>
      </g>
     </g>
     <g id="text_57">
      <!-- 0 -->
      <g transform="translate(316.144442 266.598437)scale(0.1 -0.1)">
       <use xlink:href="#DejaVuSans-48"/>
      </g>
     </g>
    </g>
    <g id="xtick_16">
     <g id="line2d_44">
      <g>
       <use style="stroke:#000000;stroke-width:0.8;" x="387.538071" xlink:href="#m097f31555f" y="252"/>
      </g>
     </g>
     <g id="text_58">
      <!-- 200 -->
      <g transform="translate(377.994321 266.598437)scale(0.1 -0.1)">
       <use xlink:href="#DejaVuSans-50"/>
       <use x="63.623047" xlink:href="#DejaVuSans-48"/>
       <use x="127.246094" xlink:href="#DejaVuSans-48"/>
      </g>
     </g>
    </g>
   </g>
   <g id="matplotlib.axis_16">
    <g id="ytick_22">
     <g id="line2d_45">
      <g>
       <use style="stroke:#000000;stroke-width:0.8;" x="316.017391" xlink:href="#m3145c06f45" y="247.507438"/>
      </g>
     </g>
     <g id="text_59">
      <!-- 0.0 -->
      <g transform="translate(293.114266 251.306657)scale(0.1 -0.1)">
       <use xlink:href="#DejaVuSans-48"/>
       <use x="63.623047" xlink:href="#DejaVuSans-46"/>
       <use x="95.410156" xlink:href="#DejaVuSans-48"/>
      </g>
     </g>
    </g>
    <g id="ytick_23">
     <g id="line2d_46">
      <g>
       <use style="stroke:#000000;stroke-width:0.8;" x="316.017391" xlink:href="#m3145c06f45" y="202.537939"/>
      </g>
     </g>
     <g id="text_60">
      <!-- 0.5 -->
      <g transform="translate(293.114266 206.337158)scale(0.1 -0.1)">
       <use xlink:href="#DejaVuSans-48"/>
       <use x="63.623047" xlink:href="#DejaVuSans-46"/>
       <use x="95.410156" xlink:href="#DejaVuSans-53"/>
      </g>
     </g>
    </g>
    <g id="ytick_24">
     <g id="line2d_47">
      <g>
       <use style="stroke:#000000;stroke-width:0.8;" x="316.017391" xlink:href="#m3145c06f45" y="157.56844"/>
      </g>
     </g>
     <g id="text_61">
      <!-- 1.0 -->
      <g transform="translate(293.114266 161.367658)scale(0.1 -0.1)">
       <use xlink:href="#DejaVuSans-49"/>
       <use x="63.623047" xlink:href="#DejaVuSans-46"/>
       <use x="95.410156" xlink:href="#DejaVuSans-48"/>
      </g>
     </g>
    </g>
    <g id="text_62">
     <!-- Se -->
     <g transform="translate(286.618641 210.082756)rotate(-90)scale(0.12 -0.12)">
      <use xlink:href="#DejaVuSans-83"/>
      <use x="63.476562" xlink:href="#DejaVuSans-101"/>
     </g>
    </g>
    <g id="text_63">
     <!-- 1e7 -->
     <g transform="translate(316.017391 150.163636)scale(0.1 -0.1)">
      <use xlink:href="#DejaVuSans-49"/>
      <use x="63.623047" xlink:href="#DejaVuSans-101"/>
      <use x="125.146484" xlink:href="#DejaVuSans-55"/>
     </g>
    </g>
   </g>
   <g id="line2d_48">
    <path clip-path="url(#p00f6d01f9b)" d="M 319.325692 247.507436 
L 335.014539 247.507436 
L 335.355601 244.833817 
L 335.696663 247.507436 
L 336.037725 247.507436 
L 336.378787 244.802995 
L 336.719848 247.507436 
L 337.06091 247.41324 
L 337.743034 247.507438 
L 338.76622 247.50743 
L 341.153653 247.507436 
L 341.494715 240.783896 
L 341.835777 247.507436 
L 342.176839 241.997022 
L 342.517901 247.507436 
L 342.858963 247.507438 
L 343.200024 247.053954 
L 343.541086 247.507436 
L 345.92852 247.407687 
L 346.269582 246.591079 
L 346.610643 246.69097 
L 346.951705 247.507438 
L 348.315953 247.507438 
L 348.657015 161.207113 
L 348.998077 176.76714 
L 349.339139 157.656198 
L 349.6802 157.840404 
L 350.021262 247.507437 
L 353.090819 247.468087 
L 353.431881 202.181658 
L 353.772943 247.507397 
L 357.183562 247.507436 
L 357.524624 244.005487 
L 357.865686 247.507436 
L 358.206748 246.047278 
L 358.54781 247.507438 
L 362.299491 247.507436 
L 362.640553 247.037127 
L 362.981614 247.507436 
L 363.322676 247.311338 
L 363.663738 247.507438 
L 365.027986 247.507436 
L 365.369048 175.10131 
L 367.074357 175.08396 
L 367.415419 247.503707 
L 367.756481 175.085051 
L 368.097543 230.870782 
L 368.438605 175.085051 
L 368.779667 175.085051 
L 369.120729 237.775553 
L 369.46179 235.222174 
L 370.143914 235.222174 
L 370.484976 247.507437 
L 377.647276 247.507436 
L 377.988338 247.299141 
L 378.3294 247.507436 
L 385.4917 247.507436 
L 385.4917 247.507436 
" style="fill:none;stroke:#1f77b4;stroke-linecap:square;stroke-width:1.5;"/>
   </g>
   <g id="patch_38">
    <path d="M 316.017391 252 
L 316.017391 153.163636 
" style="fill:none;stroke:#000000;stroke-linecap:square;stroke-linejoin:miter;stroke-width:0.8;"/>
   </g>
   <g id="patch_39">
    <path d="M 388.8 252 
L 388.8 153.163636 
" style="fill:none;stroke:#000000;stroke-linecap:square;stroke-linejoin:miter;stroke-width:0.8;"/>
   </g>
   <g id="patch_40">
    <path d="M 316.017391 252 
L 388.8 252 
" style="fill:none;stroke:#000000;stroke-linecap:square;stroke-linejoin:miter;stroke-width:0.8;"/>
   </g>
   <g id="patch_41">
    <path d="M 316.017391 153.163636 
L 388.8 153.163636 
" style="fill:none;stroke:#000000;stroke-linecap:square;stroke-linejoin:miter;stroke-width:0.8;"/>
   </g>
  </g>
 </g>
 <defs>
  <clipPath id="p8321f0c4f5">
   <rect height="98.836364" width="72.782609" x="54" y="34.56"/>
  </clipPath>
  <clipPath id="p6a2029642f">
   <rect height="98.836364" width="72.782609" x="141.33913" y="34.56"/>
  </clipPath>
  <clipPath id="pece7599ed2">
   <rect height="98.836364" width="72.782609" x="228.678261" y="34.56"/>
  </clipPath>
  <clipPath id="p2cf412be0f">
   <rect height="98.836364" width="72.782609" x="316.017391" y="34.56"/>
  </clipPath>
  <clipPath id="p537bc4a125">
   <rect height="98.836364" width="72.782609" x="54" y="153.163636"/>
  </clipPath>
  <clipPath id="p17a971abaf">
   <rect height="98.836364" width="72.782609" x="141.33913" y="153.163636"/>
  </clipPath>
  <clipPath id="p5edd765144">
   <rect height="98.836364" width="72.782609" x="228.678261" y="153.163636"/>
  </clipPath>
  <clipPath id="p00f6d01f9b">
   <rect height="98.836364" width="72.782609" x="316.017391" y="153.163636"/>
  </clipPath>
 </defs>
</svg>
