<?xml version="1.0" encoding="utf-8" standalone="no"?>
<!DOCTYPE svg PUBLIC "-//W3C//DTD SVG 1.1//EN"
  "http://www.w3.org/Graphics/SVG/1.1/DTD/svg11.dtd">
<!-- Created with matplotlib (https://matplotlib.org/) -->
<svg height="288pt" version="1.1" viewBox="0 0 432 288" width="432pt" xmlns="http://www.w3.org/2000/svg" xmlns:xlink="http://www.w3.org/1999/xlink">
 <defs>
  <style type="text/css">
*{stroke-linecap:butt;stroke-linejoin:round;}
  </style>
 </defs>
 <g id="figure_1">
  <g id="patch_1">
   <path d="M 0 288 
L 432 288 
L 432 0 
L 0 0 
z
" style="fill:#ffffff;"/>
  </g>
  <g id="axes_1">
   <g id="patch_2">
    <path d="M 54 81.829565 
L 126.782609 81.829565 
L 126.782609 34.56 
L 54 34.56 
z
" style="fill:#ffffff;"/>
   </g>
   <g id="matplotlib.axis_1">
    <g id="xtick_1">
     <g id="line2d_1">
      <defs>
       <path d="M 0 0 
L 0 3.5 
" id="m3396a10cc0" style="stroke:#000000;stroke-width:0.8;"/>
      </defs>
      <g>
       <use style="stroke:#000000;stroke-width:0.8;" x="57.3083" xlink:href="#m3396a10cc0" y="81.829565"/>
      </g>
     </g>
     <g id="text_1">
      <!-- 0 -->
      <defs>
       <path d="M 31.78125 66.40625 
Q 24.171875 66.40625 20.328125 58.90625 
Q 16.5 51.421875 16.5 36.375 
Q 16.5 21.390625 20.328125 13.890625 
Q 24.171875 6.390625 31.78125 6.390625 
Q 39.453125 6.390625 43.28125 13.890625 
Q 47.125 21.390625 47.125 36.375 
Q 47.125 51.421875 43.28125 58.90625 
Q 39.453125 66.40625 31.78125 66.40625 
z
M 31.78125 74.21875 
Q 44.046875 74.21875 50.515625 64.515625 
Q 56.984375 54.828125 56.984375 36.375 
Q 56.984375 17.96875 50.515625 8.265625 
Q 44.046875 -1.421875 31.78125 -1.421875 
Q 19.53125 -1.421875 13.0625 8.265625 
Q 6.59375 17.96875 6.59375 36.375 
Q 6.59375 54.828125 13.0625 64.515625 
Q 19.53125 74.21875 31.78125 74.21875 
z
" id="DejaVuSans-48"/>
      </defs>
      <g transform="translate(54.12705 96.428003)scale(0.1 -0.1)">
       <use xlink:href="#DejaVuSans-48"/>
      </g>
     </g>
    </g>
    <g id="xtick_2">
     <g id="line2d_2">
      <g>
       <use style="stroke:#000000;stroke-width:0.8;" x="125.52068" xlink:href="#m3396a10cc0" y="81.829565"/>
      </g>
     </g>
     <g id="text_2">
      <!-- 200 -->
      <defs>
       <path d="M 19.1875 8.296875 
L 53.609375 8.296875 
L 53.609375 0 
L 7.328125 0 
L 7.328125 8.296875 
Q 12.9375 14.109375 22.625 23.890625 
Q 32.328125 33.6875 34.8125 36.53125 
Q 39.546875 41.84375 41.421875 45.53125 
Q 43.3125 49.21875 43.3125 52.78125 
Q 43.3125 58.59375 39.234375 62.25 
Q 35.15625 65.921875 28.609375 65.921875 
Q 23.96875 65.921875 18.8125 64.3125 
Q 13.671875 62.703125 7.8125 59.421875 
L 7.8125 69.390625 
Q 13.765625 71.78125 18.9375 73 
Q 24.125 74.21875 28.421875 74.21875 
Q 39.75 74.21875 46.484375 68.546875 
Q 53.21875 62.890625 53.21875 53.421875 
Q 53.21875 48.921875 51.53125 44.890625 
Q 49.859375 40.875 45.40625 35.40625 
Q 44.1875 33.984375 37.640625 27.21875 
Q 31.109375 20.453125 19.1875 8.296875 
z
" id="DejaVuSans-50"/>
      </defs>
      <g transform="translate(115.97693 96.428003)scale(0.1 -0.1)">
       <use xlink:href="#DejaVuSans-50"/>
       <use x="63.623047" xlink:href="#DejaVuSans-48"/>
       <use x="127.246094" xlink:href="#DejaVuSans-48"/>
      </g>
     </g>
    </g>
   </g>
   <g id="matplotlib.axis_2">
    <g id="ytick_1">
     <g id="line2d_3">
      <defs>
       <path d="M 0 0 
L -3.5 0 
" id="me0d25d9731" style="stroke:#000000;stroke-width:0.8;"/>
      </defs>
      <g>
       <use style="stroke:#000000;stroke-width:0.8;" x="54" xlink:href="#me0d25d9731" y="79.680949"/>
      </g>
     </g>
     <g id="text_3">
      <!-- 0 -->
      <g transform="translate(40.6375 83.480167)scale(0.1 -0.1)">
       <use xlink:href="#DejaVuSans-48"/>
      </g>
     </g>
    </g>
    <g id="ytick_2">
     <g id="line2d_4">
      <g>
       <use style="stroke:#000000;stroke-width:0.8;" x="54" xlink:href="#me0d25d9731" y="36.666645"/>
      </g>
     </g>
     <g id="text_4">
      <!-- 1 -->
      <defs>
       <path d="M 12.40625 8.296875 
L 28.515625 8.296875 
L 28.515625 63.921875 
L 10.984375 60.40625 
L 10.984375 69.390625 
L 28.421875 72.90625 
L 38.28125 72.90625 
L 38.28125 8.296875 
L 54.390625 8.296875 
L 54.390625 0 
L 12.40625 0 
z
" id="DejaVuSans-49"/>
      </defs>
      <g transform="translate(40.6375 40.465864)scale(0.1 -0.1)">
       <use xlink:href="#DejaVuSans-49"/>
      </g>
     </g>
    </g>
    <g id="text_5">
     <!-- Se -->
     <defs>
      <path d="M 53.515625 70.515625 
L 53.515625 60.890625 
Q 47.90625 63.578125 42.921875 64.890625 
Q 37.9375 66.21875 33.296875 66.21875 
Q 25.25 66.21875 20.875 63.09375 
Q 16.5 59.96875 16.5 54.203125 
Q 16.5 49.359375 19.40625 46.890625 
Q 22.3125 44.4375 30.421875 42.921875 
L 36.375 41.703125 
Q 47.40625 39.59375 52.65625 34.296875 
Q 57.90625 29 57.90625 20.125 
Q 57.90625 9.515625 50.796875 4.046875 
Q 43.703125 -1.421875 29.984375 -1.421875 
Q 24.8125 -1.421875 18.96875 -0.25 
Q 13.140625 0.921875 6.890625 3.21875 
L 6.890625 13.375 
Q 12.890625 10.015625 18.65625 8.296875 
Q 24.421875 6.59375 29.984375 6.59375 
Q 38.421875 6.59375 43.015625 9.90625 
Q 47.609375 13.234375 47.609375 19.390625 
Q 47.609375 24.75 44.3125 27.78125 
Q 41.015625 30.8125 33.5 32.328125 
L 27.484375 33.5 
Q 16.453125 35.6875 11.515625 40.375 
Q 6.59375 45.0625 6.59375 53.421875 
Q 6.59375 63.09375 13.40625 68.65625 
Q 20.21875 74.21875 32.171875 74.21875 
Q 37.3125 74.21875 42.625 73.28125 
Q 47.953125 72.359375 53.515625 70.515625 
z
" id="DejaVuSans-83"/>
      <path d="M 56.203125 29.59375 
L 56.203125 25.203125 
L 14.890625 25.203125 
Q 15.484375 15.921875 20.484375 11.0625 
Q 25.484375 6.203125 34.421875 6.203125 
Q 39.59375 6.203125 44.453125 7.46875 
Q 49.3125 8.734375 54.109375 11.28125 
L 54.109375 2.78125 
Q 49.265625 0.734375 44.1875 -0.34375 
Q 39.109375 -1.421875 33.890625 -1.421875 
Q 20.796875 -1.421875 13.15625 6.1875 
Q 5.515625 13.8125 5.515625 26.8125 
Q 5.515625 40.234375 12.765625 48.109375 
Q 20.015625 56 32.328125 56 
Q 43.359375 56 49.78125 48.890625 
Q 56.203125 41.796875 56.203125 29.59375 
z
M 47.21875 32.234375 
Q 47.125 39.59375 43.09375 43.984375 
Q 39.0625 48.390625 32.421875 48.390625 
Q 24.90625 48.390625 20.390625 44.140625 
Q 15.875 39.890625 15.1875 32.171875 
z
" id="DejaVuSans-101"/>
     </defs>
     <g transform="translate(32.894063 69.446189)rotate(-90)scale(0.18 -0.18)">
      <use xlink:href="#DejaVuSans-83"/>
      <use x="63.476562" xlink:href="#DejaVuSans-101"/>
     </g>
    </g>
    <g id="text_6">
     <!-- 1e7 -->
     <defs>
      <path d="M 8.203125 72.90625 
L 55.078125 72.90625 
L 55.078125 68.703125 
L 28.609375 0 
L 18.3125 0 
L 43.21875 64.59375 
L 8.203125 64.59375 
z
" id="DejaVuSans-55"/>
     </defs>
     <g transform="translate(54 31.56)scale(0.1 -0.1)">
      <use xlink:href="#DejaVuSans-49"/>
      <use x="63.623047" xlink:href="#DejaVuSans-101"/>
      <use x="125.146484" xlink:href="#DejaVuSans-55"/>
     </g>
    </g>
   </g>
   <g id="line2d_5">
    <path clip-path="url(#p00ac891abc)" d="M 57.3083 79.680948 
L 72.997148 79.680948 
L 73.33821 78.40226 
L 73.679271 79.680948 
L 74.020333 79.680948 
L 74.361395 78.387519 
L 74.702457 79.680948 
L 75.384581 79.680948 
L 79.136262 79.680948 
L 79.477324 76.465342 
L 79.818386 79.680948 
L 80.159447 77.045532 
L 80.500509 79.680948 
L 80.841571 79.680949 
L 81.182633 79.464065 
L 81.523695 79.680948 
L 83.911128 79.633242 
L 84.25219 79.24269 
L 84.593252 79.290464 
L 84.934314 79.680949 
L 86.298562 79.680949 
L 86.639623 38.40688 
L 86.980685 45.848632 
L 87.321747 36.708617 
L 87.662809 36.796715 
L 88.003871 79.680948 
L 91.073428 79.662129 
L 91.41449 58.003402 
L 91.755552 79.680929 
L 95.166171 79.680948 
L 95.507233 78.006103 
L 95.848295 79.680948 
L 96.189357 78.982611 
L 96.530418 79.680949 
L 100.282099 79.680948 
L 100.623161 79.456017 
L 100.964223 79.680948 
L 101.305285 79.587162 
L 101.987409 79.680948 
L 103.010595 79.680948 
L 103.351656 45.051931 
L 105.056966 45.043633 
L 105.398028 79.679164 
L 105.73909 45.044155 
L 106.080152 71.724287 
L 106.421213 45.044155 
L 106.762275 45.044155 
L 107.103337 75.026569 
L 107.444399 73.805387 
L 108.126523 73.805387 
L 108.467585 79.680948 
L 123.474308 79.680948 
L 123.474308 79.680948 
" style="fill:none;stroke:#1f77b4;stroke-linecap:square;stroke-width:1.5;"/>
   </g>
   <g id="line2d_6">
    <path clip-path="url(#p00ac891abc)" d="M 57.3083 79.680948 
L 72.997148 79.680948 
L 73.33821 78.40226 
L 73.679271 79.680948 
L 74.020333 79.680948 
L 74.361395 78.387519 
L 74.702457 79.680948 
L 75.384581 79.680948 
L 79.136262 79.680948 
L 79.477324 76.465342 
L 79.818386 79.680948 
L 80.159447 77.045532 
L 80.500509 79.680948 
L 80.841571 79.680949 
L 81.182633 79.464065 
L 81.523695 79.680948 
L 83.911128 79.633242 
L 84.25219 79.24269 
L 84.593252 79.290464 
L 84.934314 79.680949 
L 86.298562 79.680949 
L 86.639623 38.40688 
L 86.980685 45.848632 
L 87.321747 36.708617 
L 87.662809 36.796715 
L 88.003871 79.680948 
L 91.073428 79.662129 
L 91.41449 58.003402 
L 91.755552 79.680929 
L 95.166171 79.680948 
L 95.507233 78.006103 
L 95.848295 79.680948 
L 96.189357 78.982611 
L 96.530418 79.680949 
L 100.282099 79.680948 
L 100.623161 79.456017 
L 100.964223 79.680948 
L 101.305285 79.587162 
L 101.987409 79.680948 
L 103.010595 79.680948 
L 103.351656 45.051931 
L 105.056966 45.043633 
L 105.398028 79.679164 
L 105.73909 45.044155 
L 106.080152 71.724287 
L 106.421213 45.044155 
L 106.762275 45.044155 
L 107.103337 75.026569 
L 107.444399 73.805387 
L 108.126523 73.805387 
L 108.467585 79.680948 
L 123.474308 79.680948 
L 123.474308 79.680948 
" style="fill:none;stroke:#ff7f0e;stroke-linecap:square;stroke-width:1.5;"/>
   </g>
   <g id="line2d_7">
    <path clip-path="url(#p00ac891abc)" d="M 57.3083 79.680948 
L 72.997148 79.680948 
L 73.33821 78.40226 
L 73.679271 79.680948 
L 74.020333 79.680948 
L 74.361395 78.387519 
L 74.702457 79.680948 
L 75.384581 79.680948 
L 79.136262 79.680948 
L 79.477324 76.465342 
L 79.818386 79.680948 
L 80.159447 77.045532 
L 80.500509 79.680948 
L 80.841571 79.680949 
L 81.182633 79.464065 
L 81.523695 79.680948 
L 83.911128 79.633242 
L 84.25219 79.24269 
L 84.593252 79.290464 
L 84.934314 79.680949 
L 86.298562 79.680949 
L 86.639623 38.40688 
L 86.980685 45.848632 
L 87.321747 36.708617 
L 87.662809 36.796715 
L 88.003871 79.680948 
L 91.073428 79.662129 
L 91.41449 58.003402 
L 91.755552 79.680929 
L 95.166171 79.680948 
L 95.507233 78.006103 
L 95.848295 79.680948 
L 96.189357 78.982611 
L 96.530418 79.680949 
L 100.282099 79.680948 
L 100.623161 79.456017 
L 100.964223 79.680948 
L 101.305285 79.587162 
L 101.987409 79.680948 
L 103.010595 79.680948 
L 103.351656 45.051931 
L 105.056966 45.043633 
L 105.398028 79.679164 
L 105.73909 45.044155 
L 106.080152 71.724287 
L 106.421213 45.044155 
L 106.762275 45.044155 
L 107.103337 75.026569 
L 107.444399 73.805387 
L 108.126523 73.805387 
L 108.467585 79.680948 
L 123.474308 79.680948 
L 123.474308 79.680948 
" style="fill:none;stroke:#2ca02c;stroke-linecap:square;stroke-width:1.5;"/>
   </g>
   <g id="line2d_8">
    <path clip-path="url(#p00ac891abc)" d="M 57.3083 79.680948 
L 72.997148 79.680948 
L 73.33821 78.40226 
L 73.679271 79.680948 
L 74.020333 79.680948 
L 74.361395 78.387519 
L 74.702457 79.680948 
L 75.384581 79.680948 
L 79.136262 79.680948 
L 79.477324 76.465342 
L 79.818386 79.680948 
L 80.159447 77.045532 
L 80.500509 79.680948 
L 80.841571 79.680949 
L 81.182633 79.464065 
L 81.523695 79.680948 
L 83.911128 79.633242 
L 84.25219 79.24269 
L 84.593252 79.290464 
L 84.934314 79.680949 
L 86.298562 79.680949 
L 86.639623 38.40688 
L 86.980685 45.848632 
L 87.321747 36.708617 
L 87.662809 36.796715 
L 88.003871 79.680948 
L 91.073428 79.662129 
L 91.41449 58.003402 
L 91.755552 79.680929 
L 95.166171 79.680948 
L 95.507233 78.006103 
L 95.848295 79.680948 
L 96.189357 78.982611 
L 96.530418 79.680949 
L 100.282099 79.680948 
L 100.623161 79.456017 
L 100.964223 79.680948 
L 101.305285 79.587162 
L 101.987409 79.680948 
L 103.010595 79.680948 
L 103.351656 45.051931 
L 105.056966 45.043633 
L 105.398028 79.679164 
L 105.73909 45.044155 
L 106.080152 71.724287 
L 106.421213 45.044155 
L 106.762275 45.044155 
L 107.103337 75.026569 
L 107.444399 73.805387 
L 108.126523 73.805387 
L 108.467585 79.680948 
L 123.474308 79.680948 
L 123.474308 79.680948 
" style="fill:none;stroke:#d62728;stroke-linecap:square;stroke-width:1.5;"/>
   </g>
   <g id="line2d_9">
    <path clip-path="url(#p00ac891abc)" d="M 57.3083 79.680948 
L 72.997148 79.680948 
L 73.33821 78.40226 
L 73.679271 79.680948 
L 74.020333 79.680948 
L 74.361395 78.387519 
L 74.702457 79.680948 
L 75.384581 79.680948 
L 79.136262 79.680948 
L 79.477324 76.465342 
L 79.818386 79.680948 
L 80.159447 77.045532 
L 80.500509 79.680948 
L 80.841571 79.680949 
L 81.182633 79.464065 
L 81.523695 79.680948 
L 83.911128 79.633242 
L 84.25219 79.24269 
L 84.593252 79.290464 
L 84.934314 79.680949 
L 86.298562 79.680949 
L 86.639623 38.40688 
L 86.980685 45.848632 
L 87.321747 36.708617 
L 87.662809 36.796715 
L 88.003871 79.680948 
L 91.073428 79.662129 
L 91.41449 58.003402 
L 91.755552 79.680929 
L 95.166171 79.680948 
L 95.507233 78.006103 
L 95.848295 79.680948 
L 96.189357 78.982611 
L 96.530418 79.680949 
L 100.282099 79.680948 
L 100.623161 79.456017 
L 100.964223 79.680948 
L 101.305285 79.587162 
L 101.987409 79.680948 
L 103.010595 79.680948 
L 103.351656 45.051931 
L 105.056966 45.043633 
L 105.398028 79.679164 
L 105.73909 45.044155 
L 106.080152 71.724287 
L 106.421213 45.044155 
L 106.762275 45.044155 
L 107.103337 75.026569 
L 107.444399 73.805387 
L 108.126523 73.805387 
L 108.467585 79.680948 
L 123.474308 79.680948 
L 123.474308 79.680948 
" style="fill:none;stroke:#9467bd;stroke-linecap:square;stroke-width:1.5;"/>
   </g>
   <g id="line2d_10">
    <path clip-path="url(#p00ac891abc)" d="M 57.3083 79.680948 
L 72.997148 79.680948 
L 73.33821 78.40226 
L 73.679271 79.680948 
L 74.020333 79.680948 
L 74.361395 78.387519 
L 74.702457 79.680948 
L 75.384581 79.680948 
L 79.136262 79.680948 
L 79.477324 76.465342 
L 79.818386 79.680948 
L 80.159447 77.045532 
L 80.500509 79.680948 
L 80.841571 79.680949 
L 81.182633 79.464065 
L 81.523695 79.680948 
L 83.911128 79.633242 
L 84.25219 79.24269 
L 84.593252 79.290464 
L 84.934314 79.680949 
L 86.298562 79.680949 
L 86.639623 38.40688 
L 86.980685 45.848632 
L 87.321747 36.708617 
L 87.662809 36.796715 
L 88.003871 79.680948 
L 91.073428 79.662129 
L 91.41449 58.003402 
L 91.755552 79.680929 
L 95.166171 79.680948 
L 95.507233 78.006103 
L 95.848295 79.680948 
L 96.189357 78.982611 
L 96.530418 79.680949 
L 100.282099 79.680948 
L 100.623161 79.456017 
L 100.964223 79.680948 
L 101.305285 79.587162 
L 101.987409 79.680948 
L 103.010595 79.680948 
L 103.351656 45.051931 
L 105.056966 45.043633 
L 105.398028 79.679164 
L 105.73909 45.044155 
L 106.080152 71.724287 
L 106.421213 45.044155 
L 106.762275 45.044155 
L 107.103337 75.026569 
L 107.444399 73.805387 
L 108.126523 73.805387 
L 108.467585 79.680948 
L 123.474308 79.680948 
L 123.474308 79.680948 
" style="fill:none;stroke:#8c564b;stroke-linecap:square;stroke-width:1.5;"/>
   </g>
   <g id="line2d_11">
    <path clip-path="url(#p00ac891abc)" d="M 57.3083 79.680948 
L 72.997148 79.680948 
L 73.33821 78.40226 
L 73.679271 79.680948 
L 74.020333 79.680948 
L 74.361395 78.387519 
L 74.702457 79.680948 
L 75.384581 79.680948 
L 79.136262 79.680948 
L 79.477324 76.465342 
L 79.818386 79.680948 
L 80.159447 77.045532 
L 80.500509 79.680948 
L 80.841571 79.680949 
L 81.182633 79.464065 
L 81.523695 79.680948 
L 83.911128 79.633242 
L 84.25219 79.24269 
L 84.593252 79.290464 
L 84.934314 79.680949 
L 86.298562 79.680949 
L 86.639623 38.40688 
L 86.980685 45.848632 
L 87.321747 36.708617 
L 87.662809 36.796715 
L 88.003871 79.680948 
L 91.073428 79.662129 
L 91.41449 58.003402 
L 91.755552 79.680929 
L 95.166171 79.680948 
L 95.507233 78.006103 
L 95.848295 79.680948 
L 96.189357 78.982611 
L 96.530418 79.680949 
L 100.282099 79.680948 
L 100.623161 79.456017 
L 100.964223 79.680948 
L 101.305285 79.587162 
L 101.987409 79.680948 
L 103.010595 79.680948 
L 103.351656 45.051931 
L 105.056966 45.043633 
L 105.398028 79.679164 
L 105.73909 45.044155 
L 106.080152 71.724287 
L 106.421213 45.044155 
L 106.762275 45.044155 
L 107.103337 75.026569 
L 107.444399 73.805387 
L 108.126523 73.805387 
L 108.467585 79.680948 
L 123.474308 79.680948 
L 123.474308 79.680948 
" style="fill:none;stroke:#e377c2;stroke-linecap:square;stroke-width:1.5;"/>
   </g>
   <g id="line2d_12">
    <path clip-path="url(#p00ac891abc)" d="M 57.3083 79.680948 
L 72.997148 79.680948 
L 73.33821 78.40226 
L 73.679271 79.680948 
L 74.020333 79.680948 
L 74.361395 78.387519 
L 74.702457 79.680948 
L 75.384581 79.680948 
L 79.136262 79.680948 
L 79.477324 76.465342 
L 79.818386 79.680948 
L 80.159447 77.045532 
L 80.500509 79.680948 
L 80.841571 79.680949 
L 81.182633 79.464065 
L 81.523695 79.680948 
L 83.911128 79.633242 
L 84.25219 79.24269 
L 84.593252 79.290464 
L 84.934314 79.680949 
L 86.298562 79.680949 
L 86.639623 38.40688 
L 86.980685 45.848632 
L 87.321747 36.708617 
L 87.662809 36.796715 
L 88.003871 79.680948 
L 91.073428 79.662129 
L 91.41449 58.003402 
L 91.755552 79.680929 
L 95.166171 79.680948 
L 95.507233 78.006103 
L 95.848295 79.680948 
L 96.189357 78.982611 
L 96.530418 79.680949 
L 100.282099 79.680948 
L 100.623161 79.456017 
L 100.964223 79.680948 
L 101.305285 79.587162 
L 101.987409 79.680948 
L 103.010595 79.680948 
L 103.351656 45.051931 
L 105.056966 45.043633 
L 105.398028 79.679164 
L 105.73909 45.044155 
L 106.080152 71.724287 
L 106.421213 45.044155 
L 106.762275 45.044155 
L 107.103337 75.026569 
L 107.444399 73.805387 
L 108.126523 73.805387 
L 108.467585 79.680948 
L 123.474308 79.680948 
L 123.474308 79.680948 
" style="fill:none;stroke:#7f7f7f;stroke-linecap:square;stroke-width:1.5;"/>
   </g>
   <g id="line2d_13">
    <path clip-path="url(#p00ac891abc)" d="M 57.3083 79.680948 
L 72.997148 79.680948 
L 73.33821 78.40226 
L 73.679271 79.680948 
L 74.020333 79.680948 
L 74.361395 78.387519 
L 74.702457 79.680948 
L 75.384581 79.680948 
L 79.136262 79.680948 
L 79.477324 76.465342 
L 79.818386 79.680948 
L 80.159447 77.045532 
L 80.500509 79.680948 
L 80.841571 79.680949 
L 81.182633 79.464065 
L 81.523695 79.680948 
L 83.911128 79.633242 
L 84.25219 79.24269 
L 84.593252 79.290464 
L 84.934314 79.680949 
L 86.298562 79.680949 
L 86.639623 38.40688 
L 86.980685 45.848632 
L 87.321747 36.708617 
L 87.662809 36.796715 
L 88.003871 79.680948 
L 91.073428 79.662129 
L 91.41449 58.003402 
L 91.755552 79.680929 
L 95.166171 79.680948 
L 95.507233 78.006103 
L 95.848295 79.680948 
L 96.189357 78.982611 
L 96.530418 79.680949 
L 100.282099 79.680948 
L 100.623161 79.456017 
L 100.964223 79.680948 
L 101.305285 79.587162 
L 101.987409 79.680948 
L 103.010595 79.680948 
L 103.351656 45.051931 
L 105.056966 45.043633 
L 105.398028 79.679164 
L 105.73909 45.044155 
L 106.080152 71.724287 
L 106.421213 45.044155 
L 106.762275 45.044155 
L 107.103337 75.026569 
L 107.444399 73.805387 
L 108.126523 73.805387 
L 108.467585 79.680948 
L 123.474308 79.680948 
L 123.474308 79.680948 
" style="fill:none;stroke:#bcbd22;stroke-linecap:square;stroke-width:1.5;"/>
   </g>
   <g id="line2d_14">
    <path clip-path="url(#p00ac891abc)" d="M 57.3083 79.680948 
L 72.997148 79.680948 
L 73.33821 78.40226 
L 73.679271 79.680948 
L 74.020333 79.680948 
L 74.361395 78.387519 
L 74.702457 79.680948 
L 75.384581 79.680948 
L 79.136262 79.680948 
L 79.477324 76.465342 
L 79.818386 79.680948 
L 80.159447 77.045532 
L 80.500509 79.680948 
L 80.841571 79.680949 
L 81.182633 79.464065 
L 81.523695 79.680948 
L 83.911128 79.633242 
L 84.25219 79.24269 
L 84.593252 79.290464 
L 84.934314 79.680949 
L 86.298562 79.680949 
L 86.639623 38.40688 
L 86.980685 45.848632 
L 87.321747 36.708617 
L 87.662809 36.796715 
L 88.003871 79.680948 
L 91.073428 79.662129 
L 91.41449 58.003402 
L 91.755552 79.680929 
L 95.166171 79.680948 
L 95.507233 78.006103 
L 95.848295 79.680948 
L 96.189357 78.982611 
L 96.530418 79.680949 
L 100.282099 79.680948 
L 100.623161 79.456017 
L 100.964223 79.680948 
L 101.305285 79.587162 
L 101.987409 79.680948 
L 103.010595 79.680948 
L 103.351656 45.051931 
L 105.056966 45.043633 
L 105.398028 79.679164 
L 105.73909 45.044155 
L 106.080152 71.724287 
L 106.421213 45.044155 
L 106.762275 45.044155 
L 107.103337 75.026569 
L 107.444399 73.805387 
L 108.126523 73.805387 
L 108.467585 79.680948 
L 123.474308 79.680948 
L 123.474308 79.680948 
" style="fill:none;stroke:#17becf;stroke-linecap:square;stroke-width:1.5;"/>
   </g>
   <g id="line2d_15">
    <path clip-path="url(#p00ac891abc)" d="M 57.3083 79.680948 
L 72.997148 79.680948 
L 73.33821 78.40226 
L 73.679271 79.680948 
L 74.020333 79.680948 
L 74.361395 78.387519 
L 74.702457 79.680948 
L 75.384581 79.680948 
L 79.136262 79.680948 
L 79.477324 76.465342 
L 79.818386 79.680948 
L 80.159447 77.045532 
L 80.500509 79.680948 
L 80.841571 79.680949 
L 81.182633 79.464065 
L 81.523695 79.680948 
L 83.911128 79.633242 
L 84.25219 79.24269 
L 84.593252 79.290464 
L 84.934314 79.680949 
L 86.298562 79.680949 
L 86.639623 38.40688 
L 86.980685 45.848632 
L 87.321747 36.708617 
L 87.662809 36.796715 
L 88.003871 79.680948 
L 91.073428 79.662129 
L 91.41449 58.003402 
L 91.755552 79.680929 
L 95.166171 79.680948 
L 95.507233 78.006103 
L 95.848295 79.680948 
L 96.189357 78.982611 
L 96.530418 79.680949 
L 100.282099 79.680948 
L 100.623161 79.456017 
L 100.964223 79.680948 
L 101.305285 79.587162 
L 101.987409 79.680948 
L 103.010595 79.680948 
L 103.351656 45.051931 
L 105.056966 45.043633 
L 105.398028 79.679164 
L 105.73909 45.044155 
L 106.080152 71.724287 
L 106.421213 45.044155 
L 106.762275 45.044155 
L 107.103337 75.026569 
L 107.444399 73.805387 
L 108.126523 73.805387 
L 108.467585 79.680948 
L 123.474308 79.680948 
L 123.474308 79.680948 
" style="fill:none;stroke:#1f77b4;stroke-linecap:square;stroke-width:1.5;"/>
   </g>
   <g id="line2d_16">
    <path clip-path="url(#p00ac891abc)" d="M 57.3083 79.680948 
L 72.997148 79.680948 
L 73.33821 78.40226 
L 73.679271 79.680948 
L 74.020333 79.680948 
L 74.361395 78.387519 
L 74.702457 79.680948 
L 75.384581 79.680948 
L 79.136262 79.680948 
L 79.477324 76.465342 
L 79.818386 79.680948 
L 80.159447 77.045532 
L 80.500509 79.680948 
L 80.841571 79.680949 
L 81.182633 79.464065 
L 81.523695 79.680948 
L 83.911128 79.633242 
L 84.25219 79.24269 
L 84.593252 79.290464 
L 84.934314 79.680949 
L 86.298562 79.680949 
L 86.639623 38.40688 
L 86.980685 45.848632 
L 87.321747 36.708617 
L 87.662809 36.796715 
L 88.003871 79.680948 
L 91.073428 79.662129 
L 91.41449 58.003402 
L 91.755552 79.680929 
L 95.166171 79.680948 
L 95.507233 78.006103 
L 95.848295 79.680948 
L 96.189357 78.982611 
L 96.530418 79.680949 
L 100.282099 79.680948 
L 100.623161 79.456017 
L 100.964223 79.680948 
L 101.305285 79.587162 
L 101.987409 79.680948 
L 103.010595 79.680948 
L 103.351656 45.051931 
L 105.056966 45.043633 
L 105.398028 79.679164 
L 105.73909 45.044155 
L 106.080152 71.724287 
L 106.421213 45.044155 
L 106.762275 45.044155 
L 107.103337 75.026569 
L 107.444399 73.805387 
L 108.126523 73.805387 
L 108.467585 79.680948 
L 123.474308 79.680948 
L 123.474308 79.680948 
" style="fill:none;stroke:#ff7f0e;stroke-linecap:square;stroke-width:1.5;"/>
   </g>
   <g id="line2d_17">
    <path clip-path="url(#p00ac891abc)" d="M 57.3083 79.680948 
L 72.997148 79.680948 
L 73.33821 78.40226 
L 73.679271 79.680948 
L 74.020333 79.680948 
L 74.361395 78.387519 
L 74.702457 79.680948 
L 75.384581 79.680948 
L 79.136262 79.680948 
L 79.477324 76.465342 
L 79.818386 79.680948 
L 80.159447 77.045532 
L 80.500509 79.680948 
L 80.841571 79.680949 
L 81.182633 79.464065 
L 81.523695 79.680948 
L 83.911128 79.633242 
L 84.25219 79.24269 
L 84.593252 79.290464 
L 84.934314 79.680949 
L 86.298562 79.680949 
L 86.639623 38.40688 
L 86.980685 45.848632 
L 87.321747 36.708617 
L 87.662809 36.796715 
L 88.003871 79.680948 
L 91.073428 79.662129 
L 91.41449 58.003402 
L 91.755552 79.680929 
L 95.166171 79.680948 
L 95.507233 78.006103 
L 95.848295 79.680948 
L 96.189357 78.982611 
L 96.530418 79.680949 
L 100.282099 79.680948 
L 100.623161 79.456017 
L 100.964223 79.680948 
L 101.305285 79.587162 
L 101.987409 79.680948 
L 103.010595 79.680948 
L 103.351656 45.051931 
L 105.056966 45.043633 
L 105.398028 79.679164 
L 105.73909 45.044155 
L 106.080152 71.724287 
L 106.421213 45.044155 
L 106.762275 45.044155 
L 107.103337 75.026569 
L 107.444399 73.805387 
L 108.126523 73.805387 
L 108.467585 79.680948 
L 123.474308 79.680948 
L 123.474308 79.680948 
" style="fill:none;stroke:#2ca02c;stroke-linecap:square;stroke-width:1.5;"/>
   </g>
   <g id="patch_3">
    <path d="M 54 81.829565 
L 54 34.56 
" style="fill:none;stroke:#000000;stroke-linecap:square;stroke-linejoin:miter;stroke-width:0.8;"/>
   </g>
   <g id="patch_4">
    <path d="M 126.782609 81.829565 
L 126.782609 34.56 
" style="fill:none;stroke:#000000;stroke-linecap:square;stroke-linejoin:miter;stroke-width:0.8;"/>
   </g>
   <g id="patch_5">
    <path d="M 54 81.829565 
L 126.782609 81.829565 
" style="fill:none;stroke:#000000;stroke-linecap:square;stroke-linejoin:miter;stroke-width:0.8;"/>
   </g>
   <g id="patch_6">
    <path d="M 54 34.56 
L 126.782609 34.56 
" style="fill:none;stroke:#000000;stroke-linecap:square;stroke-linejoin:miter;stroke-width:0.8;"/>
   </g>
   <g id="text_7">
    <!-- For parameter :R_tot -->
    <defs>
     <path d="M 9.8125 72.90625 
L 51.703125 72.90625 
L 51.703125 64.59375 
L 19.671875 64.59375 
L 19.671875 43.109375 
L 48.578125 43.109375 
L 48.578125 34.8125 
L 19.671875 34.8125 
L 19.671875 0 
L 9.8125 0 
z
" id="DejaVuSans-70"/>
     <path d="M 30.609375 48.390625 
Q 23.390625 48.390625 19.1875 42.75 
Q 14.984375 37.109375 14.984375 27.296875 
Q 14.984375 17.484375 19.15625 11.84375 
Q 23.34375 6.203125 30.609375 6.203125 
Q 37.796875 6.203125 41.984375 11.859375 
Q 46.1875 17.53125 46.1875 27.296875 
Q 46.1875 37.015625 41.984375 42.703125 
Q 37.796875 48.390625 30.609375 48.390625 
z
M 30.609375 56 
Q 42.328125 56 49.015625 48.375 
Q 55.71875 40.765625 55.71875 27.296875 
Q 55.71875 13.875 49.015625 6.21875 
Q 42.328125 -1.421875 30.609375 -1.421875 
Q 18.84375 -1.421875 12.171875 6.21875 
Q 5.515625 13.875 5.515625 27.296875 
Q 5.515625 40.765625 12.171875 48.375 
Q 18.84375 56 30.609375 56 
z
" id="DejaVuSans-111"/>
     <path d="M 41.109375 46.296875 
Q 39.59375 47.171875 37.8125 47.578125 
Q 36.03125 48 33.890625 48 
Q 26.265625 48 22.1875 43.046875 
Q 18.109375 38.09375 18.109375 28.8125 
L 18.109375 0 
L 9.078125 0 
L 9.078125 54.6875 
L 18.109375 54.6875 
L 18.109375 46.1875 
Q 20.953125 51.171875 25.484375 53.578125 
Q 30.03125 56 36.53125 56 
Q 37.453125 56 38.578125 55.875 
Q 39.703125 55.765625 41.0625 55.515625 
z
" id="DejaVuSans-114"/>
     <path id="DejaVuSans-32"/>
     <path d="M 18.109375 8.203125 
L 18.109375 -20.796875 
L 9.078125 -20.796875 
L 9.078125 54.6875 
L 18.109375 54.6875 
L 18.109375 46.390625 
Q 20.953125 51.265625 25.265625 53.625 
Q 29.59375 56 35.59375 56 
Q 45.5625 56 51.78125 48.09375 
Q 58.015625 40.1875 58.015625 27.296875 
Q 58.015625 14.40625 51.78125 6.484375 
Q 45.5625 -1.421875 35.59375 -1.421875 
Q 29.59375 -1.421875 25.265625 0.953125 
Q 20.953125 3.328125 18.109375 8.203125 
z
M 48.6875 27.296875 
Q 48.6875 37.203125 44.609375 42.84375 
Q 40.53125 48.484375 33.40625 48.484375 
Q 26.265625 48.484375 22.1875 42.84375 
Q 18.109375 37.203125 18.109375 27.296875 
Q 18.109375 17.390625 22.1875 11.75 
Q 26.265625 6.109375 33.40625 6.109375 
Q 40.53125 6.109375 44.609375 11.75 
Q 48.6875 17.390625 48.6875 27.296875 
z
" id="DejaVuSans-112"/>
     <path d="M 34.28125 27.484375 
Q 23.390625 27.484375 19.1875 25 
Q 14.984375 22.515625 14.984375 16.5 
Q 14.984375 11.71875 18.140625 8.90625 
Q 21.296875 6.109375 26.703125 6.109375 
Q 34.1875 6.109375 38.703125 11.40625 
Q 43.21875 16.703125 43.21875 25.484375 
L 43.21875 27.484375 
z
M 52.203125 31.203125 
L 52.203125 0 
L 43.21875 0 
L 43.21875 8.296875 
Q 40.140625 3.328125 35.546875 0.953125 
Q 30.953125 -1.421875 24.3125 -1.421875 
Q 15.921875 -1.421875 10.953125 3.296875 
Q 6 8.015625 6 15.921875 
Q 6 25.140625 12.171875 29.828125 
Q 18.359375 34.515625 30.609375 34.515625 
L 43.21875 34.515625 
L 43.21875 35.40625 
Q 43.21875 41.609375 39.140625 45 
Q 35.0625 48.390625 27.6875 48.390625 
Q 23 48.390625 18.546875 47.265625 
Q 14.109375 46.140625 10.015625 43.890625 
L 10.015625 52.203125 
Q 14.9375 54.109375 19.578125 55.046875 
Q 24.21875 56 28.609375 56 
Q 40.484375 56 46.34375 49.84375 
Q 52.203125 43.703125 52.203125 31.203125 
z
" id="DejaVuSans-97"/>
     <path d="M 52 44.1875 
Q 55.375 50.25 60.0625 53.125 
Q 64.75 56 71.09375 56 
Q 79.640625 56 84.28125 50.015625 
Q 88.921875 44.046875 88.921875 33.015625 
L 88.921875 0 
L 79.890625 0 
L 79.890625 32.71875 
Q 79.890625 40.578125 77.09375 44.375 
Q 74.3125 48.1875 68.609375 48.1875 
Q 61.625 48.1875 57.5625 43.546875 
Q 53.515625 38.921875 53.515625 30.90625 
L 53.515625 0 
L 44.484375 0 
L 44.484375 32.71875 
Q 44.484375 40.625 41.703125 44.40625 
Q 38.921875 48.1875 33.109375 48.1875 
Q 26.21875 48.1875 22.15625 43.53125 
Q 18.109375 38.875 18.109375 30.90625 
L 18.109375 0 
L 9.078125 0 
L 9.078125 54.6875 
L 18.109375 54.6875 
L 18.109375 46.1875 
Q 21.1875 51.21875 25.484375 53.609375 
Q 29.78125 56 35.6875 56 
Q 41.65625 56 45.828125 52.96875 
Q 50 49.953125 52 44.1875 
z
" id="DejaVuSans-109"/>
     <path d="M 18.3125 70.21875 
L 18.3125 54.6875 
L 36.8125 54.6875 
L 36.8125 47.703125 
L 18.3125 47.703125 
L 18.3125 18.015625 
Q 18.3125 11.328125 20.140625 9.421875 
Q 21.96875 7.515625 27.59375 7.515625 
L 36.8125 7.515625 
L 36.8125 0 
L 27.59375 0 
Q 17.1875 0 13.234375 3.875 
Q 9.28125 7.765625 9.28125 18.015625 
L 9.28125 47.703125 
L 2.6875 47.703125 
L 2.6875 54.6875 
L 9.28125 54.6875 
L 9.28125 70.21875 
z
" id="DejaVuSans-116"/>
     <path d="M 11.71875 12.40625 
L 22.015625 12.40625 
L 22.015625 0 
L 11.71875 0 
z
M 11.71875 51.703125 
L 22.015625 51.703125 
L 22.015625 39.3125 
L 11.71875 39.3125 
z
" id="DejaVuSans-58"/>
     <path d="M 44.390625 34.1875 
Q 47.5625 33.109375 50.5625 29.59375 
Q 53.5625 26.078125 56.59375 19.921875 
L 66.609375 0 
L 56 0 
L 46.6875 18.703125 
Q 43.0625 26.03125 39.671875 28.421875 
Q 36.28125 30.8125 30.421875 30.8125 
L 19.671875 30.8125 
L 19.671875 0 
L 9.8125 0 
L 9.8125 72.90625 
L 32.078125 72.90625 
Q 44.578125 72.90625 50.734375 67.671875 
Q 56.890625 62.453125 56.890625 51.90625 
Q 56.890625 45.015625 53.6875 40.46875 
Q 50.484375 35.9375 44.390625 34.1875 
z
M 19.671875 64.796875 
L 19.671875 38.921875 
L 32.078125 38.921875 
Q 39.203125 38.921875 42.84375 42.21875 
Q 46.484375 45.515625 46.484375 51.90625 
Q 46.484375 58.296875 42.84375 61.546875 
Q 39.203125 64.796875 32.078125 64.796875 
z
" id="DejaVuSans-82"/>
     <path d="M 50.984375 -16.609375 
L 50.984375 -23.578125 
L -0.984375 -23.578125 
L -0.984375 -16.609375 
z
" id="DejaVuSans-95"/>
    </defs>
    <g transform="translate(27.749429 28.56)scale(0.12 -0.12)">
     <use xlink:href="#DejaVuSans-70"/>
     <use x="57.472656" xlink:href="#DejaVuSans-111"/>
     <use x="118.654297" xlink:href="#DejaVuSans-114"/>
     <use x="159.767578" xlink:href="#DejaVuSans-32"/>
     <use x="191.554688" xlink:href="#DejaVuSans-112"/>
     <use x="255.03125" xlink:href="#DejaVuSans-97"/>
     <use x="316.310547" xlink:href="#DejaVuSans-114"/>
     <use x="357.423828" xlink:href="#DejaVuSans-97"/>
     <use x="418.703125" xlink:href="#DejaVuSans-109"/>
     <use x="516.115234" xlink:href="#DejaVuSans-101"/>
     <use x="577.638672" xlink:href="#DejaVuSans-116"/>
     <use x="616.847656" xlink:href="#DejaVuSans-101"/>
     <use x="678.371094" xlink:href="#DejaVuSans-114"/>
     <use x="719.484375" xlink:href="#DejaVuSans-32"/>
     <use x="751.271484" xlink:href="#DejaVuSans-58"/>
     <use x="784.962891" xlink:href="#DejaVuSans-82"/>
     <use x="854.445312" xlink:href="#DejaVuSans-95"/>
     <use x="904.445312" xlink:href="#DejaVuSans-116"/>
     <use x="943.654297" xlink:href="#DejaVuSans-111"/>
     <use x="1004.835938" xlink:href="#DejaVuSans-116"/>
    </g>
   </g>
  </g>
 </g>
 <defs>
  <clipPath id="p00ac891abc">
   <rect height="47.269565" width="72.782609" x="54" y="34.56"/>
  </clipPath>
 </defs>
</svg>
