<?xml version="1.0" encoding="utf-8" standalone="no"?>
<!DOCTYPE svg PUBLIC "-//W3C//DTD SVG 1.1//EN"
  "http://www.w3.org/Graphics/SVG/1.1/DTD/svg11.dtd">
<!-- Created with matplotlib (https://matplotlib.org/) -->
<svg height="288pt" version="1.1" viewBox="0 0 432 288" width="432pt" xmlns="http://www.w3.org/2000/svg" xmlns:xlink="http://www.w3.org/1999/xlink">
 <defs>
  <style type="text/css">
*{stroke-linecap:butt;stroke-linejoin:round;}
  </style>
 </defs>
 <g id="figure_1">
  <g id="patch_1">
   <path d="M 0 288 
L 432 288 
L 432 0 
L 0 0 
z
" style="fill:#ffffff;"/>
  </g>
  <g id="axes_1">
   <g id="patch_2">
    <path d="M 54 252 
L 388.8 252 
L 388.8 34.56 
L 54 34.56 
z
" style="fill:#ffffff;"/>
   </g>
   <g id="PathCollection_1">
    <defs>
     <path d="M 0 3 
C 0.795609 3 1.55874 2.683901 2.12132 2.12132 
C 2.683901 1.55874 3 0.795609 3 0 
C 3 -0.795609 2.683901 -1.55874 2.12132 -2.12132 
C 1.55874 -2.683901 0.795609 -3 0 -3 
C -0.795609 -3 -1.55874 -2.683901 -2.12132 -2.12132 
C -2.683901 -1.55874 -3 -0.795609 -3 0 
C -3 0.795609 -2.683901 1.55874 -2.12132 2.12132 
C -1.55874 2.683901 -0.795609 3 0 3 
z
" id="mb9287f2b1e" style="stroke:#1f77b4;stroke-width:2.5;"/>
    </defs>
    <g clip-path="url(#p474900c432)">
     <use style="fill:#1f77b4;stroke:#1f77b4;stroke-width:2.5;" x="373.581703" xlink:href="#mb9287f2b1e" y="240.782623"/>
    </g>
   </g>
   <g id="PathCollection_2">
    <defs>
     <path d="M 0 3 
C 0.795609 3 1.55874 2.683901 2.12132 2.12132 
C 2.683901 1.55874 3 0.795609 3 0 
C 3 -0.795609 2.683901 -1.55874 2.12132 -2.12132 
C 1.55874 -2.683901 0.795609 -3 0 -3 
C -0.795609 -3 -1.55874 -2.683901 -2.12132 -2.12132 
C -2.683901 -1.55874 -3 -0.795609 -3 0 
C -3 0.795609 -2.683901 1.55874 -2.12132 2.12132 
C -1.55874 2.683901 -0.795609 3 0 3 
z
" id="m4f13e032d8" style="stroke:#ff7f0e;stroke-width:2.5;"/>
    </defs>
    <g clip-path="url(#p474900c432)">
     <use style="fill:#ff7f0e;stroke:#ff7f0e;stroke-width:2.5;" x="373.068026" xlink:href="#m4f13e032d8" y="144.113127"/>
    </g>
   </g>
   <g id="PathCollection_3">
    <defs>
     <path d="M 0 3 
C 0.795609 3 1.55874 2.683901 2.12132 2.12132 
C 2.683901 1.55874 3 0.795609 3 0 
C 3 -0.795609 2.683901 -1.55874 2.12132 -2.12132 
C 1.55874 -2.683901 0.795609 -3 0 -3 
C -0.795609 -3 -1.55874 -2.683901 -2.12132 -2.12132 
C -2.683901 -1.55874 -3 -0.795609 -3 0 
C -3 0.795609 -2.683901 1.55874 -2.12132 2.12132 
C -1.55874 2.683901 -0.795609 3 0 3 
z
" id="m5194b077a3" style="stroke:#2ca02c;stroke-width:2.5;"/>
    </defs>
    <g clip-path="url(#p474900c432)">
     <use style="fill:#2ca02c;stroke:#2ca02c;stroke-width:2.5;" x="72.726129" xlink:href="#m5194b077a3" y="144.113127"/>
    </g>
   </g>
   <g id="PathCollection_4">
    <defs>
     <path d="M 0 3 
C 0.795609 3 1.55874 2.683901 2.12132 2.12132 
C 2.683901 1.55874 3 0.795609 3 0 
C 3 -0.795609 2.683901 -1.55874 2.12132 -2.12132 
C 1.55874 -2.683901 0.795609 -3 0 -3 
C -0.795609 -3 -1.55874 -2.683901 -2.12132 -2.12132 
C -2.683901 -1.55874 -3 -0.795609 -3 0 
C -3 0.795609 -2.683901 1.55874 -2.12132 2.12132 
C -1.55874 2.683901 -0.795609 3 0 3 
z
" id="m80f0952c19" style="stroke:#d62728;stroke-width:2.5;"/>
    </defs>
    <g clip-path="url(#p474900c432)">
     <use style="fill:#d62728;stroke:#d62728;stroke-width:2.5;" x="356.689661" xlink:href="#m80f0952c19" y="144.113127"/>
    </g>
   </g>
   <g id="PathCollection_5">
    <defs>
     <path d="M 0 3 
C 0.795609 3 1.55874 2.683901 2.12132 2.12132 
C 2.683901 1.55874 3 0.795609 3 0 
C 3 -0.795609 2.683901 -1.55874 2.12132 -2.12132 
C 1.55874 -2.683901 0.795609 -3 0 -3 
C -0.795609 -3 -1.55874 -2.683901 -2.12132 -2.12132 
C -2.683901 -1.55874 -3 -0.795609 -3 0 
C -3 0.795609 -2.683901 1.55874 -2.12132 2.12132 
C -1.55874 2.683901 -0.795609 3 0 3 
z
" id="m53c19bf1f8" style="stroke:#9467bd;stroke-width:2.5;"/>
    </defs>
    <g clip-path="url(#p474900c432)">
     <use style="fill:#9467bd;stroke:#9467bd;stroke-width:2.5;" x="72.342994" xlink:href="#m53c19bf1f8" y="144.113127"/>
    </g>
   </g>
   <g id="PathCollection_6">
    <defs>
     <path d="M 0 3 
C 0.795609 3 1.55874 2.683901 2.12132 2.12132 
C 2.683901 1.55874 3 0.795609 3 0 
C 3 -0.795609 2.683901 -1.55874 2.12132 -2.12132 
C 1.55874 -2.683901 0.795609 -3 0 -3 
C -0.795609 -3 -1.55874 -2.683901 -2.12132 -2.12132 
C -2.683901 -1.55874 -3 -0.795609 -3 0 
C -3 0.795609 -2.683901 1.55874 -2.12132 2.12132 
C -1.55874 2.683901 -0.795609 3 0 3 
z
" id="mdc23410932" style="stroke:#8c564b;stroke-width:2.5;"/>
    </defs>
    <g clip-path="url(#p474900c432)">
     <use style="fill:#8c564b;stroke:#8c564b;stroke-width:2.5;" x="72.604228" xlink:href="#mdc23410932" y="47.443631"/>
    </g>
   </g>
   <g id="PathCollection_7">
    <defs>
     <path d="M 0 3 
C 0.795609 3 1.55874 2.683901 2.12132 2.12132 
C 2.683901 1.55874 3 0.795609 3 0 
C 3 -0.795609 2.683901 -1.55874 2.12132 -2.12132 
C 1.55874 -2.683901 0.795609 -3 0 -3 
C -0.795609 -3 -1.55874 -2.683901 -2.12132 -2.12132 
C -2.683901 -1.55874 -3 -0.795609 -3 0 
C -3 0.795609 -2.683901 1.55874 -2.12132 2.12132 
C -1.55874 2.683901 -0.795609 3 0 3 
z
" id="m9221dc3135" style="stroke:#e377c2;stroke-width:2.5;"/>
    </defs>
    <g clip-path="url(#p474900c432)">
     <use style="fill:#e377c2;stroke:#e377c2;stroke-width:2.5;" x="356.130046" xlink:href="#m9221dc3135" y="47.443631"/>
    </g>
   </g>
   <g id="PathCollection_8">
    <defs>
     <path d="M 0 3 
C 0.795609 3 1.55874 2.683901 2.12132 2.12132 
C 2.683901 1.55874 3 0.795609 3 0 
C 3 -0.795609 2.683901 -1.55874 2.12132 -2.12132 
C 1.55874 -2.683901 0.795609 -3 0 -3 
C -0.795609 -3 -1.55874 -2.683901 -2.12132 -2.12132 
C -2.683901 -1.55874 -3 -0.795609 -3 0 
C -3 0.795609 -2.683901 1.55874 -2.12132 2.12132 
C -1.55874 2.683901 -0.795609 3 0 3 
z
" id="m4daab7a214" style="stroke:#7f7f7f;stroke-width:2.5;"/>
    </defs>
    <g clip-path="url(#p474900c432)">
     <use style="fill:#7f7f7f;stroke:#7f7f7f;stroke-width:2.5;" x="72.216611" xlink:href="#m4daab7a214" y="47.443631"/>
    </g>
   </g>
   <g id="PathCollection_9">
    <defs>
     <path d="M 0 3 
C 0.795609 3 1.55874 2.683901 2.12132 2.12132 
C 2.683901 1.55874 3 0.795609 3 0 
C 3 -0.795609 2.683901 -1.55874 2.12132 -2.12132 
C 1.55874 -2.683901 0.795609 -3 0 -3 
C -0.795609 -3 -1.55874 -2.683901 -2.12132 -2.12132 
C -2.683901 -1.55874 -3 -0.795609 -3 0 
C -3 0.795609 -2.683901 1.55874 -2.12132 2.12132 
C -1.55874 2.683901 -0.795609 3 0 3 
z
" id="mea6f44984e" style="stroke:#bcbd22;stroke-width:2.5;"/>
    </defs>
    <g clip-path="url(#p474900c432)">
     <use style="fill:#bcbd22;stroke:#bcbd22;stroke-width:2.5;" x="72.330355" xlink:href="#mea6f44984e" y="47.443631"/>
    </g>
   </g>
   <g id="matplotlib.axis_1">
    <g id="xtick_1">
     <g id="line2d_1">
      <defs>
       <path d="M 0 0 
L 0 3.5 
" id="mabc1e30849" style="stroke:#000000;stroke-width:0.8;"/>
      </defs>
      <g>
       <use style="stroke:#000000;stroke-width:0.8;" x="72.203487" xlink:href="#mabc1e30849" y="252"/>
      </g>
     </g>
     <g id="text_1">
      <!-- 0 -->
      <defs>
       <path d="M 31.78125 66.40625 
Q 24.171875 66.40625 20.328125 58.90625 
Q 16.5 51.421875 16.5 36.375 
Q 16.5 21.390625 20.328125 13.890625 
Q 24.171875 6.390625 31.78125 6.390625 
Q 39.453125 6.390625 43.28125 13.890625 
Q 47.125 21.390625 47.125 36.375 
Q 47.125 51.421875 43.28125 58.90625 
Q 39.453125 66.40625 31.78125 66.40625 
z
M 31.78125 74.21875 
Q 44.046875 74.21875 50.515625 64.515625 
Q 56.984375 54.828125 56.984375 36.375 
Q 56.984375 17.96875 50.515625 8.265625 
Q 44.046875 -1.421875 31.78125 -1.421875 
Q 19.53125 -1.421875 13.0625 8.265625 
Q 6.59375 17.96875 6.59375 36.375 
Q 6.59375 54.828125 13.0625 64.515625 
Q 19.53125 74.21875 31.78125 74.21875 
z
" id="DejaVuSans-48"/>
      </defs>
      <g transform="translate(69.022237 266.598437)scale(0.1 -0.1)">
       <use xlink:href="#DejaVuSans-48"/>
      </g>
     </g>
    </g>
    <g id="xtick_2">
     <g id="line2d_2">
      <g>
       <use style="stroke:#000000;stroke-width:0.8;" x="136.562684" xlink:href="#mabc1e30849" y="252"/>
      </g>
     </g>
     <g id="text_2">
      <!-- 5000 -->
      <defs>
       <path d="M 10.796875 72.90625 
L 49.515625 72.90625 
L 49.515625 64.59375 
L 19.828125 64.59375 
L 19.828125 46.734375 
Q 21.96875 47.46875 24.109375 47.828125 
Q 26.265625 48.1875 28.421875 48.1875 
Q 40.625 48.1875 47.75 41.5 
Q 54.890625 34.8125 54.890625 23.390625 
Q 54.890625 11.625 47.5625 5.09375 
Q 40.234375 -1.421875 26.90625 -1.421875 
Q 22.3125 -1.421875 17.546875 -0.640625 
Q 12.796875 0.140625 7.71875 1.703125 
L 7.71875 11.625 
Q 12.109375 9.234375 16.796875 8.0625 
Q 21.484375 6.890625 26.703125 6.890625 
Q 35.15625 6.890625 40.078125 11.328125 
Q 45.015625 15.765625 45.015625 23.390625 
Q 45.015625 31 40.078125 35.4375 
Q 35.15625 39.890625 26.703125 39.890625 
Q 22.75 39.890625 18.8125 39.015625 
Q 14.890625 38.140625 10.796875 36.28125 
z
" id="DejaVuSans-53"/>
      </defs>
      <g transform="translate(123.837684 266.598437)scale(0.1 -0.1)">
       <use xlink:href="#DejaVuSans-53"/>
       <use x="63.623047" xlink:href="#DejaVuSans-48"/>
       <use x="127.246094" xlink:href="#DejaVuSans-48"/>
       <use x="190.869141" xlink:href="#DejaVuSans-48"/>
      </g>
     </g>
    </g>
    <g id="xtick_3">
     <g id="line2d_3">
      <g>
       <use style="stroke:#000000;stroke-width:0.8;" x="200.92188" xlink:href="#mabc1e30849" y="252"/>
      </g>
     </g>
     <g id="text_3">
      <!-- 10000 -->
      <defs>
       <path d="M 12.40625 8.296875 
L 28.515625 8.296875 
L 28.515625 63.921875 
L 10.984375 60.40625 
L 10.984375 69.390625 
L 28.421875 72.90625 
L 38.28125 72.90625 
L 38.28125 8.296875 
L 54.390625 8.296875 
L 54.390625 0 
L 12.40625 0 
z
" id="DejaVuSans-49"/>
      </defs>
      <g transform="translate(185.01563 266.598437)scale(0.1 -0.1)">
       <use xlink:href="#DejaVuSans-49"/>
       <use x="63.623047" xlink:href="#DejaVuSans-48"/>
       <use x="127.246094" xlink:href="#DejaVuSans-48"/>
       <use x="190.869141" xlink:href="#DejaVuSans-48"/>
       <use x="254.492188" xlink:href="#DejaVuSans-48"/>
      </g>
     </g>
    </g>
    <g id="xtick_4">
     <g id="line2d_4">
      <g>
       <use style="stroke:#000000;stroke-width:0.8;" x="265.281076" xlink:href="#mabc1e30849" y="252"/>
      </g>
     </g>
     <g id="text_4">
      <!-- 15000 -->
      <g transform="translate(249.374826 266.598437)scale(0.1 -0.1)">
       <use xlink:href="#DejaVuSans-49"/>
       <use x="63.623047" xlink:href="#DejaVuSans-53"/>
       <use x="127.246094" xlink:href="#DejaVuSans-48"/>
       <use x="190.869141" xlink:href="#DejaVuSans-48"/>
       <use x="254.492188" xlink:href="#DejaVuSans-48"/>
      </g>
     </g>
    </g>
    <g id="xtick_5">
     <g id="line2d_5">
      <g>
       <use style="stroke:#000000;stroke-width:0.8;" x="329.640272" xlink:href="#mabc1e30849" y="252"/>
      </g>
     </g>
     <g id="text_5">
      <!-- 20000 -->
      <defs>
       <path d="M 19.1875 8.296875 
L 53.609375 8.296875 
L 53.609375 0 
L 7.328125 0 
L 7.328125 8.296875 
Q 12.9375 14.109375 22.625 23.890625 
Q 32.328125 33.6875 34.8125 36.53125 
Q 39.546875 41.84375 41.421875 45.53125 
Q 43.3125 49.21875 43.3125 52.78125 
Q 43.3125 58.59375 39.234375 62.25 
Q 35.15625 65.921875 28.609375 65.921875 
Q 23.96875 65.921875 18.8125 64.3125 
Q 13.671875 62.703125 7.8125 59.421875 
L 7.8125 69.390625 
Q 13.765625 71.78125 18.9375 73 
Q 24.125 74.21875 28.421875 74.21875 
Q 39.75 74.21875 46.484375 68.546875 
Q 53.21875 62.890625 53.21875 53.421875 
Q 53.21875 48.921875 51.53125 44.890625 
Q 49.859375 40.875 45.40625 35.40625 
Q 44.1875 33.984375 37.640625 27.21875 
Q 31.109375 20.453125 19.1875 8.296875 
z
" id="DejaVuSans-50"/>
      </defs>
      <g transform="translate(313.734022 266.598437)scale(0.1 -0.1)">
       <use xlink:href="#DejaVuSans-50"/>
       <use x="63.623047" xlink:href="#DejaVuSans-48"/>
       <use x="127.246094" xlink:href="#DejaVuSans-48"/>
       <use x="190.869141" xlink:href="#DejaVuSans-48"/>
       <use x="254.492188" xlink:href="#DejaVuSans-48"/>
      </g>
     </g>
    </g>
   </g>
   <g id="matplotlib.axis_2">
    <g id="ytick_1">
     <g id="line2d_6">
      <defs>
       <path d="M 0 0 
L -3.5 0 
" id="m2132ea2597" style="stroke:#000000;stroke-width:0.8;"/>
      </defs>
      <g>
       <use style="stroke:#000000;stroke-width:0.8;" x="54" xlink:href="#m2132ea2597" y="240.782623"/>
      </g>
     </g>
     <g id="text_6">
      <!-- 2.00 -->
      <defs>
       <path d="M 10.6875 12.40625 
L 21 12.40625 
L 21 0 
L 10.6875 0 
z
" id="DejaVuSans-46"/>
      </defs>
      <g transform="translate(24.734375 244.581842)scale(0.1 -0.1)">
       <use xlink:href="#DejaVuSans-50"/>
       <use x="63.623047" xlink:href="#DejaVuSans-46"/>
       <use x="95.410156" xlink:href="#DejaVuSans-48"/>
       <use x="159.033203" xlink:href="#DejaVuSans-48"/>
      </g>
     </g>
    </g>
    <g id="ytick_2">
     <g id="line2d_7">
      <g>
       <use style="stroke:#000000;stroke-width:0.8;" x="54" xlink:href="#m2132ea2597" y="216.615249"/>
      </g>
     </g>
     <g id="text_7">
      <!-- 2.25 -->
      <g transform="translate(24.734375 220.414468)scale(0.1 -0.1)">
       <use xlink:href="#DejaVuSans-50"/>
       <use x="63.623047" xlink:href="#DejaVuSans-46"/>
       <use x="95.410156" xlink:href="#DejaVuSans-50"/>
       <use x="159.033203" xlink:href="#DejaVuSans-53"/>
      </g>
     </g>
    </g>
    <g id="ytick_3">
     <g id="line2d_8">
      <g>
       <use style="stroke:#000000;stroke-width:0.8;" x="54" xlink:href="#m2132ea2597" y="192.447875"/>
      </g>
     </g>
     <g id="text_8">
      <!-- 2.50 -->
      <g transform="translate(24.734375 196.247094)scale(0.1 -0.1)">
       <use xlink:href="#DejaVuSans-50"/>
       <use x="63.623047" xlink:href="#DejaVuSans-46"/>
       <use x="95.410156" xlink:href="#DejaVuSans-53"/>
       <use x="159.033203" xlink:href="#DejaVuSans-48"/>
      </g>
     </g>
    </g>
    <g id="ytick_4">
     <g id="line2d_9">
      <g>
       <use style="stroke:#000000;stroke-width:0.8;" x="54" xlink:href="#m2132ea2597" y="168.280501"/>
      </g>
     </g>
     <g id="text_9">
      <!-- 2.75 -->
      <defs>
       <path d="M 8.203125 72.90625 
L 55.078125 72.90625 
L 55.078125 68.703125 
L 28.609375 0 
L 18.3125 0 
L 43.21875 64.59375 
L 8.203125 64.59375 
z
" id="DejaVuSans-55"/>
      </defs>
      <g transform="translate(24.734375 172.07972)scale(0.1 -0.1)">
       <use xlink:href="#DejaVuSans-50"/>
       <use x="63.623047" xlink:href="#DejaVuSans-46"/>
       <use x="95.410156" xlink:href="#DejaVuSans-55"/>
       <use x="159.033203" xlink:href="#DejaVuSans-53"/>
      </g>
     </g>
    </g>
    <g id="ytick_5">
     <g id="line2d_10">
      <g>
       <use style="stroke:#000000;stroke-width:0.8;" x="54" xlink:href="#m2132ea2597" y="144.113127"/>
      </g>
     </g>
     <g id="text_10">
      <!-- 3.00 -->
      <defs>
       <path d="M 40.578125 39.3125 
Q 47.65625 37.796875 51.625 33 
Q 55.609375 28.21875 55.609375 21.1875 
Q 55.609375 10.40625 48.1875 4.484375 
Q 40.765625 -1.421875 27.09375 -1.421875 
Q 22.515625 -1.421875 17.65625 -0.515625 
Q 12.796875 0.390625 7.625 2.203125 
L 7.625 11.71875 
Q 11.71875 9.328125 16.59375 8.109375 
Q 21.484375 6.890625 26.8125 6.890625 
Q 36.078125 6.890625 40.9375 10.546875 
Q 45.796875 14.203125 45.796875 21.1875 
Q 45.796875 27.640625 41.28125 31.265625 
Q 36.765625 34.90625 28.71875 34.90625 
L 20.21875 34.90625 
L 20.21875 43.015625 
L 29.109375 43.015625 
Q 36.375 43.015625 40.234375 45.921875 
Q 44.09375 48.828125 44.09375 54.296875 
Q 44.09375 59.90625 40.109375 62.90625 
Q 36.140625 65.921875 28.71875 65.921875 
Q 24.65625 65.921875 20.015625 65.03125 
Q 15.375 64.15625 9.8125 62.3125 
L 9.8125 71.09375 
Q 15.4375 72.65625 20.34375 73.4375 
Q 25.25 74.21875 29.59375 74.21875 
Q 40.828125 74.21875 47.359375 69.109375 
Q 53.90625 64.015625 53.90625 55.328125 
Q 53.90625 49.265625 50.4375 45.09375 
Q 46.96875 40.921875 40.578125 39.3125 
z
" id="DejaVuSans-51"/>
      </defs>
      <g transform="translate(24.734375 147.912346)scale(0.1 -0.1)">
       <use xlink:href="#DejaVuSans-51"/>
       <use x="63.623047" xlink:href="#DejaVuSans-46"/>
       <use x="95.410156" xlink:href="#DejaVuSans-48"/>
       <use x="159.033203" xlink:href="#DejaVuSans-48"/>
      </g>
     </g>
    </g>
    <g id="ytick_6">
     <g id="line2d_11">
      <g>
       <use style="stroke:#000000;stroke-width:0.8;" x="54" xlink:href="#m2132ea2597" y="119.945753"/>
      </g>
     </g>
     <g id="text_11">
      <!-- 3.25 -->
      <g transform="translate(24.734375 123.744972)scale(0.1 -0.1)">
       <use xlink:href="#DejaVuSans-51"/>
       <use x="63.623047" xlink:href="#DejaVuSans-46"/>
       <use x="95.410156" xlink:href="#DejaVuSans-50"/>
       <use x="159.033203" xlink:href="#DejaVuSans-53"/>
      </g>
     </g>
    </g>
    <g id="ytick_7">
     <g id="line2d_12">
      <g>
       <use style="stroke:#000000;stroke-width:0.8;" x="54" xlink:href="#m2132ea2597" y="95.778379"/>
      </g>
     </g>
     <g id="text_12">
      <!-- 3.50 -->
      <g transform="translate(24.734375 99.577598)scale(0.1 -0.1)">
       <use xlink:href="#DejaVuSans-51"/>
       <use x="63.623047" xlink:href="#DejaVuSans-46"/>
       <use x="95.410156" xlink:href="#DejaVuSans-53"/>
       <use x="159.033203" xlink:href="#DejaVuSans-48"/>
      </g>
     </g>
    </g>
    <g id="ytick_8">
     <g id="line2d_13">
      <g>
       <use style="stroke:#000000;stroke-width:0.8;" x="54" xlink:href="#m2132ea2597" y="71.611005"/>
      </g>
     </g>
     <g id="text_13">
      <!-- 3.75 -->
      <g transform="translate(24.734375 75.410224)scale(0.1 -0.1)">
       <use xlink:href="#DejaVuSans-51"/>
       <use x="63.623047" xlink:href="#DejaVuSans-46"/>
       <use x="95.410156" xlink:href="#DejaVuSans-55"/>
       <use x="159.033203" xlink:href="#DejaVuSans-53"/>
      </g>
     </g>
    </g>
    <g id="ytick_9">
     <g id="line2d_14">
      <g>
       <use style="stroke:#000000;stroke-width:0.8;" x="54" xlink:href="#m2132ea2597" y="47.443631"/>
      </g>
     </g>
     <g id="text_14">
      <!-- 4.00 -->
      <defs>
       <path d="M 37.796875 64.3125 
L 12.890625 25.390625 
L 37.796875 25.390625 
z
M 35.203125 72.90625 
L 47.609375 72.90625 
L 47.609375 25.390625 
L 58.015625 25.390625 
L 58.015625 17.1875 
L 47.609375 17.1875 
L 47.609375 0 
L 37.796875 0 
L 37.796875 17.1875 
L 4.890625 17.1875 
L 4.890625 26.703125 
z
" id="DejaVuSans-52"/>
      </defs>
      <g transform="translate(24.734375 51.24285)scale(0.1 -0.1)">
       <use xlink:href="#DejaVuSans-52"/>
       <use x="63.623047" xlink:href="#DejaVuSans-46"/>
       <use x="95.410156" xlink:href="#DejaVuSans-48"/>
       <use x="159.033203" xlink:href="#DejaVuSans-48"/>
      </g>
     </g>
    </g>
   </g>
   <g id="patch_3">
    <path d="M 54 252 
L 54 34.56 
" style="fill:none;stroke:#000000;stroke-linecap:square;stroke-linejoin:miter;stroke-width:0.8;"/>
   </g>
   <g id="patch_4">
    <path d="M 388.8 252 
L 388.8 34.56 
" style="fill:none;stroke:#000000;stroke-linecap:square;stroke-linejoin:miter;stroke-width:0.8;"/>
   </g>
   <g id="patch_5">
    <path d="M 54 252 
L 388.8 252 
" style="fill:none;stroke:#000000;stroke-linecap:square;stroke-linejoin:miter;stroke-width:0.8;"/>
   </g>
   <g id="patch_6">
    <path d="M 54 34.56 
L 388.8 34.56 
" style="fill:none;stroke:#000000;stroke-linecap:square;stroke-linejoin:miter;stroke-width:0.8;"/>
   </g>
   <g id="legend_1">
    <g id="patch_7">
     <path d="M 178.851562 247 
L 263.948438 247 
Q 265.948438 247 265.948438 245 
L 265.948438 113.896875 
Q 265.948438 111.896875 263.948438 111.896875 
L 178.851562 111.896875 
Q 176.851562 111.896875 176.851562 113.896875 
L 176.851562 245 
Q 176.851562 247 178.851562 247 
z
" style="fill:#ffffff;opacity:0.8;stroke:#cccccc;stroke-linejoin:miter;"/>
    </g>
    <g id="PathCollection_10">
     <g>
      <use style="fill:#1f77b4;stroke:#1f77b4;stroke-width:2.5;" x="190.851562" xlink:href="#mb9287f2b1e" y="120.870313"/>
     </g>
    </g>
    <g id="text_15">
     <!-- [T, X] -->
     <defs>
      <path d="M 8.59375 75.984375 
L 29.296875 75.984375 
L 29.296875 69 
L 17.578125 69 
L 17.578125 -6.203125 
L 29.296875 -6.203125 
L 29.296875 -13.1875 
L 8.59375 -13.1875 
z
" id="DejaVuSans-91"/>
      <path d="M -0.296875 72.90625 
L 61.375 72.90625 
L 61.375 64.59375 
L 35.5 64.59375 
L 35.5 0 
L 25.59375 0 
L 25.59375 64.59375 
L -0.296875 64.59375 
z
" id="DejaVuSans-84"/>
      <path d="M 11.71875 12.40625 
L 22.015625 12.40625 
L 22.015625 4 
L 14.015625 -11.625 
L 7.71875 -11.625 
L 11.71875 4 
z
" id="DejaVuSans-44"/>
      <path id="DejaVuSans-32"/>
      <path d="M 6.296875 72.90625 
L 16.890625 72.90625 
L 35.015625 45.796875 
L 53.21875 72.90625 
L 63.8125 72.90625 
L 40.375 37.890625 
L 65.375 0 
L 54.78125 0 
L 34.28125 31 
L 13.625 0 
L 2.984375 0 
L 29 38.921875 
z
" id="DejaVuSans-88"/>
      <path d="M 30.421875 75.984375 
L 30.421875 -13.1875 
L 9.71875 -13.1875 
L 9.71875 -6.203125 
L 21.390625 -6.203125 
L 21.390625 69 
L 9.71875 69 
L 9.71875 75.984375 
z
" id="DejaVuSans-93"/>
     </defs>
     <g transform="translate(208.851562 123.495313)scale(0.1 -0.1)">
      <use xlink:href="#DejaVuSans-91"/>
      <use x="39.013672" xlink:href="#DejaVuSans-84"/>
      <use x="100.097656" xlink:href="#DejaVuSans-44"/>
      <use x="131.884766" xlink:href="#DejaVuSans-32"/>
      <use x="163.671875" xlink:href="#DejaVuSans-88"/>
      <use x="232.177734" xlink:href="#DejaVuSans-93"/>
     </g>
    </g>
    <g id="PathCollection_11">
     <g>
      <use style="fill:#ff7f0e;stroke:#ff7f0e;stroke-width:2.5;" x="190.851562" xlink:href="#m4f13e032d8" y="135.548438"/>
     </g>
    </g>
    <g id="text_16">
     <!-- [P, T, X] -->
     <defs>
      <path d="M 19.671875 64.796875 
L 19.671875 37.40625 
L 32.078125 37.40625 
Q 38.96875 37.40625 42.71875 40.96875 
Q 46.484375 44.53125 46.484375 51.125 
Q 46.484375 57.671875 42.71875 61.234375 
Q 38.96875 64.796875 32.078125 64.796875 
z
M 9.8125 72.90625 
L 32.078125 72.90625 
Q 44.34375 72.90625 50.609375 67.359375 
Q 56.890625 61.8125 56.890625 51.125 
Q 56.890625 40.328125 50.609375 34.8125 
Q 44.34375 29.296875 32.078125 29.296875 
L 19.671875 29.296875 
L 19.671875 0 
L 9.8125 0 
z
" id="DejaVuSans-80"/>
     </defs>
     <g transform="translate(208.851562 138.173438)scale(0.1 -0.1)">
      <use xlink:href="#DejaVuSans-91"/>
      <use x="39.013672" xlink:href="#DejaVuSans-80"/>
      <use x="99.316406" xlink:href="#DejaVuSans-44"/>
      <use x="131.103516" xlink:href="#DejaVuSans-32"/>
      <use x="162.890625" xlink:href="#DejaVuSans-84"/>
      <use x="223.974609" xlink:href="#DejaVuSans-44"/>
      <use x="255.761719" xlink:href="#DejaVuSans-32"/>
      <use x="287.548828" xlink:href="#DejaVuSans-88"/>
      <use x="356.054688" xlink:href="#DejaVuSans-93"/>
     </g>
    </g>
    <g id="PathCollection_12">
     <g>
      <use style="fill:#2ca02c;stroke:#2ca02c;stroke-width:2.5;" x="190.851562" xlink:href="#m5194b077a3" y="150.226562"/>
     </g>
    </g>
    <g id="text_17">
     <!-- [T, R, X] -->
     <defs>
      <path d="M 44.390625 34.1875 
Q 47.5625 33.109375 50.5625 29.59375 
Q 53.5625 26.078125 56.59375 19.921875 
L 66.609375 0 
L 56 0 
L 46.6875 18.703125 
Q 43.0625 26.03125 39.671875 28.421875 
Q 36.28125 30.8125 30.421875 30.8125 
L 19.671875 30.8125 
L 19.671875 0 
L 9.8125 0 
L 9.8125 72.90625 
L 32.078125 72.90625 
Q 44.578125 72.90625 50.734375 67.671875 
Q 56.890625 62.453125 56.890625 51.90625 
Q 56.890625 45.015625 53.6875 40.46875 
Q 50.484375 35.9375 44.390625 34.1875 
z
M 19.671875 64.796875 
L 19.671875 38.921875 
L 32.078125 38.921875 
Q 39.203125 38.921875 42.84375 42.21875 
Q 46.484375 45.515625 46.484375 51.90625 
Q 46.484375 58.296875 42.84375 61.546875 
Q 39.203125 64.796875 32.078125 64.796875 
z
" id="DejaVuSans-82"/>
     </defs>
     <g transform="translate(208.851562 152.851562)scale(0.1 -0.1)">
      <use xlink:href="#DejaVuSans-91"/>
      <use x="39.013672" xlink:href="#DejaVuSans-84"/>
      <use x="100.097656" xlink:href="#DejaVuSans-44"/>
      <use x="131.884766" xlink:href="#DejaVuSans-32"/>
      <use x="163.671875" xlink:href="#DejaVuSans-82"/>
      <use x="233.154297" xlink:href="#DejaVuSans-44"/>
      <use x="264.941406" xlink:href="#DejaVuSans-32"/>
      <use x="296.728516" xlink:href="#DejaVuSans-88"/>
      <use x="365.234375" xlink:href="#DejaVuSans-93"/>
     </g>
    </g>
    <g id="PathCollection_13">
     <g>
      <use style="fill:#d62728;stroke:#d62728;stroke-width:2.5;" x="190.851562" xlink:href="#m80f0952c19" y="164.904688"/>
     </g>
    </g>
    <g id="text_18">
     <!-- [T, E, X] -->
     <defs>
      <path d="M 9.8125 72.90625 
L 55.90625 72.90625 
L 55.90625 64.59375 
L 19.671875 64.59375 
L 19.671875 43.015625 
L 54.390625 43.015625 
L 54.390625 34.71875 
L 19.671875 34.71875 
L 19.671875 8.296875 
L 56.78125 8.296875 
L 56.78125 0 
L 9.8125 0 
z
" id="DejaVuSans-69"/>
     </defs>
     <g transform="translate(208.851562 167.529688)scale(0.1 -0.1)">
      <use xlink:href="#DejaVuSans-91"/>
      <use x="39.013672" xlink:href="#DejaVuSans-84"/>
      <use x="100.097656" xlink:href="#DejaVuSans-44"/>
      <use x="131.884766" xlink:href="#DejaVuSans-32"/>
      <use x="163.671875" xlink:href="#DejaVuSans-69"/>
      <use x="226.855469" xlink:href="#DejaVuSans-44"/>
      <use x="258.642578" xlink:href="#DejaVuSans-32"/>
      <use x="290.429688" xlink:href="#DejaVuSans-88"/>
      <use x="358.935547" xlink:href="#DejaVuSans-93"/>
     </g>
    </g>
    <g id="PathCollection_14">
     <g>
      <use style="fill:#9467bd;stroke:#9467bd;stroke-width:2.5;" x="190.851562" xlink:href="#m53c19bf1f8" y="179.582813"/>
     </g>
    </g>
    <g id="text_19">
     <!-- [R, E, X] -->
     <g transform="translate(208.851562 182.207813)scale(0.1 -0.1)">
      <use xlink:href="#DejaVuSans-91"/>
      <use x="39.013672" xlink:href="#DejaVuSans-82"/>
      <use x="108.496094" xlink:href="#DejaVuSans-44"/>
      <use x="140.283203" xlink:href="#DejaVuSans-32"/>
      <use x="172.070312" xlink:href="#DejaVuSans-69"/>
      <use x="235.253906" xlink:href="#DejaVuSans-44"/>
      <use x="267.041016" xlink:href="#DejaVuSans-32"/>
      <use x="298.828125" xlink:href="#DejaVuSans-88"/>
      <use x="367.333984" xlink:href="#DejaVuSans-93"/>
     </g>
    </g>
    <g id="PathCollection_15">
     <g>
      <use style="fill:#8c564b;stroke:#8c564b;stroke-width:2.5;" x="190.851562" xlink:href="#mdc23410932" y="194.260938"/>
     </g>
    </g>
    <g id="text_20">
     <!-- [P, T, R, X] -->
     <g transform="translate(208.851562 196.885938)scale(0.1 -0.1)">
      <use xlink:href="#DejaVuSans-91"/>
      <use x="39.013672" xlink:href="#DejaVuSans-80"/>
      <use x="99.316406" xlink:href="#DejaVuSans-44"/>
      <use x="131.103516" xlink:href="#DejaVuSans-32"/>
      <use x="162.890625" xlink:href="#DejaVuSans-84"/>
      <use x="223.974609" xlink:href="#DejaVuSans-44"/>
      <use x="255.761719" xlink:href="#DejaVuSans-32"/>
      <use x="287.548828" xlink:href="#DejaVuSans-82"/>
      <use x="357.03125" xlink:href="#DejaVuSans-44"/>
      <use x="388.818359" xlink:href="#DejaVuSans-32"/>
      <use x="420.605469" xlink:href="#DejaVuSans-88"/>
      <use x="489.111328" xlink:href="#DejaVuSans-93"/>
     </g>
    </g>
    <g id="PathCollection_16">
     <g>
      <use style="fill:#e377c2;stroke:#e377c2;stroke-width:2.5;" x="190.851562" xlink:href="#m9221dc3135" y="208.939063"/>
     </g>
    </g>
    <g id="text_21">
     <!-- [P, T, E, X] -->
     <g transform="translate(208.851562 211.564063)scale(0.1 -0.1)">
      <use xlink:href="#DejaVuSans-91"/>
      <use x="39.013672" xlink:href="#DejaVuSans-80"/>
      <use x="99.316406" xlink:href="#DejaVuSans-44"/>
      <use x="131.103516" xlink:href="#DejaVuSans-32"/>
      <use x="162.890625" xlink:href="#DejaVuSans-84"/>
      <use x="223.974609" xlink:href="#DejaVuSans-44"/>
      <use x="255.761719" xlink:href="#DejaVuSans-32"/>
      <use x="287.548828" xlink:href="#DejaVuSans-69"/>
      <use x="350.732422" xlink:href="#DejaVuSans-44"/>
      <use x="382.519531" xlink:href="#DejaVuSans-32"/>
      <use x="414.306641" xlink:href="#DejaVuSans-88"/>
      <use x="482.8125" xlink:href="#DejaVuSans-93"/>
     </g>
    </g>
    <g id="PathCollection_17">
     <g>
      <use style="fill:#7f7f7f;stroke:#7f7f7f;stroke-width:2.5;" x="190.851562" xlink:href="#m4daab7a214" y="223.617188"/>
     </g>
    </g>
    <g id="text_22">
     <!-- [P, R, E, X] -->
     <g transform="translate(208.851562 226.242188)scale(0.1 -0.1)">
      <use xlink:href="#DejaVuSans-91"/>
      <use x="39.013672" xlink:href="#DejaVuSans-80"/>
      <use x="99.316406" xlink:href="#DejaVuSans-44"/>
      <use x="131.103516" xlink:href="#DejaVuSans-32"/>
      <use x="162.890625" xlink:href="#DejaVuSans-82"/>
      <use x="232.373047" xlink:href="#DejaVuSans-44"/>
      <use x="264.160156" xlink:href="#DejaVuSans-32"/>
      <use x="295.947266" xlink:href="#DejaVuSans-69"/>
      <use x="359.130859" xlink:href="#DejaVuSans-44"/>
      <use x="390.917969" xlink:href="#DejaVuSans-32"/>
      <use x="422.705078" xlink:href="#DejaVuSans-88"/>
      <use x="491.210938" xlink:href="#DejaVuSans-93"/>
     </g>
    </g>
    <g id="PathCollection_18">
     <g>
      <use style="fill:#bcbd22;stroke:#bcbd22;stroke-width:2.5;" x="190.851562" xlink:href="#mea6f44984e" y="238.295312"/>
     </g>
    </g>
    <g id="text_23">
     <!-- [T, R, E, X] -->
     <g transform="translate(208.851562 240.920312)scale(0.1 -0.1)">
      <use xlink:href="#DejaVuSans-91"/>
      <use x="39.013672" xlink:href="#DejaVuSans-84"/>
      <use x="100.097656" xlink:href="#DejaVuSans-44"/>
      <use x="131.884766" xlink:href="#DejaVuSans-32"/>
      <use x="163.671875" xlink:href="#DejaVuSans-82"/>
      <use x="233.154297" xlink:href="#DejaVuSans-44"/>
      <use x="264.941406" xlink:href="#DejaVuSans-32"/>
      <use x="296.728516" xlink:href="#DejaVuSans-69"/>
      <use x="359.912109" xlink:href="#DejaVuSans-44"/>
      <use x="391.699219" xlink:href="#DejaVuSans-32"/>
      <use x="423.486328" xlink:href="#DejaVuSans-88"/>
      <use x="491.992188" xlink:href="#DejaVuSans-93"/>
     </g>
    </g>
   </g>
  </g>
 </g>
 <defs>
  <clipPath id="p474900c432">
   <rect height="217.44" width="334.8" x="54" y="34.56"/>
  </clipPath>
 </defs>
</svg>
