<?xml version="1.0" encoding="UTF-8" standalone="no"?>
<!-- Created with matplotlib (https://matplotlib.org/) -->

<svg
   xmlns:dc="http://purl.org/dc/elements/1.1/"
   xmlns:cc="http://creativecommons.org/ns#"
   xmlns:rdf="http://www.w3.org/1999/02/22-rdf-syntax-ns#"
   xmlns:svg="http://www.w3.org/2000/svg"
   xmlns="http://www.w3.org/2000/svg"
   xmlns:xlink="http://www.w3.org/1999/xlink"
   xmlns:sodipodi="http://sodipodi.sourceforge.net/DTD/sodipodi-0.dtd"
   xmlns:inkscape="http://www.inkscape.org/namespaces/inkscape"
   height="288pt"
   version="1.1"
   viewBox="0 0 432 288"
   width="432pt"
   id="svg7486"
   sodipodi:docname="error_metric_gene_expression_gamma.svg"
   inkscape:version="0.92.4 (5da689c313, 2019-01-14)">
  <metadata
     id="metadata7490">
    <rdf:RDF>
      <cc:Work
         rdf:about="">
        <dc:format>image/svg+xml</dc:format>
        <dc:type
           rdf:resource="http://purl.org/dc/dcmitype/StillImage" />
      </cc:Work>
    </rdf:RDF>
  </metadata>
  <sodipodi:namedview
     pagecolor="#ffffff"
     bordercolor="#666666"
     borderopacity="1"
     objecttolerance="10"
     gridtolerance="10"
     guidetolerance="10"
     inkscape:pageopacity="0"
     inkscape:pageshadow="2"
     inkscape:window-width="1280"
     inkscape:window-height="961"
     id="namedview7488"
     showgrid="false"
     inkscape:zoom="1.6253635"
     inkscape:cx="346.21843"
     inkscape:cy="172.14824"
     inkscape:window-x="-8"
     inkscape:window-y="-8"
     inkscape:window-maximized="1"
     inkscape:current-layer="line2d_24" />
  <defs
     id="defs6542">
    <style
       type="text/css"
       id="style6540">
*{stroke-linecap:butt;stroke-linejoin:round;}
  </style>
  </defs>
  <g
     id="figure_1">
    <g
       id="patch_1">
      <path
         d="M 0 288  L 432 288  L 432 0  L 0 0  z "
         style="fill:#ffffff;"
         id="path6544" />
    </g>
    <g
       id="axes_1">
      <g
         id="patch_2">
        <path
           d="M 54 252  L 388.8 252  L 388.8 34.56  L 54 34.56  z "
           style="fill:#ffffff;"
           id="path6547" />
      </g>
      <g
         id="matplotlib.axis_1">
        <g
           id="xtick_1">
          <g
             id="line2d_1">
            <defs
               id="defs6551">
              <path
                 d="M 0 0  L 0 3.5  "
                 id="m15725a1a16"
                 style="stroke:#000000;stroke-width:0.8;" />
            </defs>
            <g
               id="g6555">
              <use
                 style="stroke:#000000;stroke-width:0.8;"
                 x="69.218182"
                 xlink:href="#m15725a1a16"
                 y="252"
                 id="use6553" />
            </g>
          </g>
          <g
             id="text_1">
            <!-- 0 -->
            <defs
               id="defs6559">
              <path
                 d="M 31.78125 66.40625  Q 24.171875 66.40625 20.328125 58.90625  Q 16.5 51.421875 16.5 36.375  Q 16.5 21.390625 20.328125 13.890625  Q 24.171875 6.390625 31.78125 6.390625  Q 39.453125 6.390625 43.28125 13.890625  Q 47.125 21.390625 47.125 36.375  Q 47.125 51.421875 43.28125 58.90625  Q 39.453125 66.40625 31.78125 66.40625  z M 31.78125 74.21875  Q 44.046875 74.21875 50.515625 64.515625  Q 56.984375 54.828125 56.984375 36.375  Q 56.984375 17.96875 50.515625 8.265625  Q 44.046875 -1.421875 31.78125 -1.421875  Q 19.53125 -1.421875 13.0625 8.265625  Q 6.59375 17.96875 6.59375 36.375  Q 6.59375 54.828125 13.0625 64.515625  Q 19.53125 74.21875 31.78125 74.21875  z "
                 id="DejaVuSans-48" />
            </defs>
            <g
               transform="translate(64.764432 269.637812)scale(0.14 -0.14)"
               id="g6563">
              <use
                 xlink:href="#DejaVuSans-48"
                 id="use6561" />
            </g>
          </g>
        </g>
        <g
           id="xtick_2">
          <g
             id="line2d_2">
            <g
               id="g6569">
              <use
                 style="stroke:#000000;stroke-width:0.8;"
                 x="130.090909"
                 xlink:href="#m15725a1a16"
                 y="252"
                 id="use6567" />
            </g>
          </g>
          <g
             id="text_2">
            <!-- 1 -->
            <defs
               id="defs6573">
              <path
                 d="M 12.40625 8.296875  L 28.515625 8.296875  L 28.515625 63.921875  L 10.984375 60.40625  L 10.984375 69.390625  L 28.421875 72.90625  L 38.28125 72.90625  L 38.28125 8.296875  L 54.390625 8.296875  L 54.390625 0  L 12.40625 0  z "
                 id="DejaVuSans-49" />
            </defs>
            <g
               transform="translate(125.637159 269.637812)scale(0.14 -0.14)"
               id="g6577">
              <use
                 xlink:href="#DejaVuSans-49"
                 id="use6575" />
            </g>
          </g>
        </g>
        <g
           id="xtick_3">
          <g
             id="line2d_3">
            <g
               id="g6583">
              <use
                 style="stroke:#000000;stroke-width:0.8;"
                 x="190.963636"
                 xlink:href="#m15725a1a16"
                 y="252"
                 id="use6581" />
            </g>
          </g>
          <g
             id="text_3">
            <!-- 2 -->
            <defs
               id="defs6587">
              <path
                 d="M 19.1875 8.296875  L 53.609375 8.296875  L 53.609375 0  L 7.328125 0  L 7.328125 8.296875  Q 12.9375 14.109375 22.625 23.890625  Q 32.328125 33.6875 34.8125 36.53125  Q 39.546875 41.84375 41.421875 45.53125  Q 43.3125 49.21875 43.3125 52.78125  Q 43.3125 58.59375 39.234375 62.25  Q 35.15625 65.921875 28.609375 65.921875  Q 23.96875 65.921875 18.8125 64.3125  Q 13.671875 62.703125 7.8125 59.421875  L 7.8125 69.390625  Q 13.765625 71.78125 18.9375 73  Q 24.125 74.21875 28.421875 74.21875  Q 39.75 74.21875 46.484375 68.546875  Q 53.21875 62.890625 53.21875 53.421875  Q 53.21875 48.921875 51.53125 44.890625  Q 49.859375 40.875 45.40625 35.40625  Q 44.1875 33.984375 37.640625 27.21875  Q 31.109375 20.453125 19.1875 8.296875  z "
                 id="DejaVuSans-50" />
            </defs>
            <g
               transform="translate(186.509886 269.637812)scale(0.14 -0.14)"
               id="g6591">
              <use
                 xlink:href="#DejaVuSans-50"
                 id="use6589" />
            </g>
          </g>
        </g>
        <g
           id="xtick_4">
          <g
             id="line2d_4">
            <g
               id="g6597">
              <use
                 style="stroke:#000000;stroke-width:0.8;"
                 x="251.836364"
                 xlink:href="#m15725a1a16"
                 y="252"
                 id="use6595" />
            </g>
          </g>
          <g
             id="text_4">
            <!-- 3 -->
            <defs
               id="defs6601">
              <path
                 d="M 40.578125 39.3125  Q 47.65625 37.796875 51.625 33  Q 55.609375 28.21875 55.609375 21.1875  Q 55.609375 10.40625 48.1875 4.484375  Q 40.765625 -1.421875 27.09375 -1.421875  Q 22.515625 -1.421875 17.65625 -0.515625  Q 12.796875 0.390625 7.625 2.203125  L 7.625 11.71875  Q 11.71875 9.328125 16.59375 8.109375  Q 21.484375 6.890625 26.8125 6.890625  Q 36.078125 6.890625 40.9375 10.546875  Q 45.796875 14.203125 45.796875 21.1875  Q 45.796875 27.640625 41.28125 31.265625  Q 36.765625 34.90625 28.71875 34.90625  L 20.21875 34.90625  L 20.21875 43.015625  L 29.109375 43.015625  Q 36.375 43.015625 40.234375 45.921875  Q 44.09375 48.828125 44.09375 54.296875  Q 44.09375 59.90625 40.109375 62.90625  Q 36.140625 65.921875 28.71875 65.921875  Q 24.65625 65.921875 20.015625 65.03125  Q 15.375 64.15625 9.8125 62.3125  L 9.8125 71.09375  Q 15.4375 72.65625 20.34375 73.4375  Q 25.25 74.21875 29.59375 74.21875  Q 40.828125 74.21875 47.359375 69.109375  Q 53.90625 64.015625 53.90625 55.328125  Q 53.90625 49.265625 50.4375 45.09375  Q 46.96875 40.921875 40.578125 39.3125  z "
                 id="DejaVuSans-51" />
            </defs>
            <g
               transform="translate(247.382614 269.637812)scale(0.14 -0.14)"
               id="g6605">
              <use
                 xlink:href="#DejaVuSans-51"
                 id="use6603" />
            </g>
          </g>
        </g>
        <g
           id="xtick_5">
          <g
             id="line2d_5">
            <g
               id="g6611">
              <use
                 style="stroke:#000000;stroke-width:0.8;"
                 x="312.709091"
                 xlink:href="#m15725a1a16"
                 y="252"
                 id="use6609" />
            </g>
          </g>
          <g
             id="text_5">
            <!-- 4 -->
            <defs
               id="defs6615">
              <path
                 d="M 37.796875 64.3125  L 12.890625 25.390625  L 37.796875 25.390625  z M 35.203125 72.90625  L 47.609375 72.90625  L 47.609375 25.390625  L 58.015625 25.390625  L 58.015625 17.1875  L 47.609375 17.1875  L 47.609375 0  L 37.796875 0  L 37.796875 17.1875  L 4.890625 17.1875  L 4.890625 26.703125  z "
                 id="DejaVuSans-52" />
            </defs>
            <g
               transform="translate(308.255341 269.637812)scale(0.14 -0.14)"
               id="g6619">
              <use
                 xlink:href="#DejaVuSans-52"
                 id="use6617" />
            </g>
          </g>
        </g>
        <g
           id="xtick_6">
          <g
             id="line2d_6">
            <g
               id="g6625">
              <use
                 style="stroke:#000000;stroke-width:0.8;"
                 x="373.581818"
                 xlink:href="#m15725a1a16"
                 y="252"
                 id="use6623" />
            </g>
          </g>
          <g
             id="text_6">
            <!-- 5 -->
            <defs
               id="defs6629">
              <path
                 d="M 10.796875 72.90625  L 49.515625 72.90625  L 49.515625 64.59375  L 19.828125 64.59375  L 19.828125 46.734375  Q 21.96875 47.46875 24.109375 47.828125  Q 26.265625 48.1875 28.421875 48.1875  Q 40.625 48.1875 47.75 41.5  Q 54.890625 34.8125 54.890625 23.390625  Q 54.890625 11.625 47.5625 5.09375  Q 40.234375 -1.421875 26.90625 -1.421875  Q 22.3125 -1.421875 17.546875 -0.640625  Q 12.796875 0.140625 7.71875 1.703125  L 7.71875 11.625  Q 12.109375 9.234375 16.796875 8.0625  Q 21.484375 6.890625 26.703125 6.890625  Q 35.15625 6.890625 40.078125 11.328125  Q 45.015625 15.765625 45.015625 23.390625  Q 45.015625 31 40.078125 35.4375  Q 35.15625 39.890625 26.703125 39.890625  Q 22.75 39.890625 18.8125 39.015625  Q 14.890625 38.140625 10.796875 36.28125  z "
                 id="DejaVuSans-53" />
            </defs>
            <g
               transform="translate(369.128068 269.637812)scale(0.14 -0.14)"
               id="g6633">
              <use
                 xlink:href="#DejaVuSans-53"
                 id="use6631" />
            </g>
          </g>
        </g>
        <g
           id="text_7">
          <!-- Time -->
          <defs
             id="defs6641">
            <path
               d="M -0.296875 72.90625  L 61.375 72.90625  L 61.375 64.59375  L 35.5 64.59375  L 35.5 0  L 25.59375 0  L 25.59375 64.59375  L -0.296875 64.59375  z "
               id="DejaVuSans-84" />
            <path
               d="M 9.421875 54.6875  L 18.40625 54.6875  L 18.40625 0  L 9.421875 0  z M 9.421875 75.984375  L 18.40625 75.984375  L 18.40625 64.59375  L 9.421875 64.59375  z "
               id="DejaVuSans-105" />
            <path
               d="M 52 44.1875  Q 55.375 50.25 60.0625 53.125  Q 64.75 56 71.09375 56  Q 79.640625 56 84.28125 50.015625  Q 88.921875 44.046875 88.921875 33.015625  L 88.921875 0  L 79.890625 0  L 79.890625 32.71875  Q 79.890625 40.578125 77.09375 44.375  Q 74.3125 48.1875 68.609375 48.1875  Q 61.625 48.1875 57.5625 43.546875  Q 53.515625 38.921875 53.515625 30.90625  L 53.515625 0  L 44.484375 0  L 44.484375 32.71875  Q 44.484375 40.625 41.703125 44.40625  Q 38.921875 48.1875 33.109375 48.1875  Q 26.21875 48.1875 22.15625 43.53125  Q 18.109375 38.875 18.109375 30.90625  L 18.109375 0  L 9.078125 0  L 9.078125 54.6875  L 18.109375 54.6875  L 18.109375 46.1875  Q 21.1875 51.21875 25.484375 53.609375  Q 29.78125 56 35.6875 56  Q 41.65625 56 45.828125 52.96875  Q 50 49.953125 52 44.1875  z "
               id="DejaVuSans-109" />
            <path
               d="M 56.203125 29.59375  L 56.203125 25.203125  L 14.890625 25.203125  Q 15.484375 15.921875 20.484375 11.0625  Q 25.484375 6.203125 34.421875 6.203125  Q 39.59375 6.203125 44.453125 7.46875  Q 49.3125 8.734375 54.109375 11.28125  L 54.109375 2.78125  Q 49.265625 0.734375 44.1875 -0.34375  Q 39.109375 -1.421875 33.890625 -1.421875  Q 20.796875 -1.421875 13.15625 6.1875  Q 5.515625 13.8125 5.515625 26.8125  Q 5.515625 40.234375 12.765625 48.109375  Q 20.015625 56 32.328125 56  Q 43.359375 56 49.78125 48.890625  Q 56.203125 41.796875 56.203125 29.59375  z M 47.21875 32.234375  Q 47.125 39.59375 43.09375 43.984375  Q 39.0625 48.390625 32.421875 48.390625  Q 24.90625 48.390625 20.390625 44.140625  Q 15.875 39.890625 15.1875 32.171875  z "
               id="DejaVuSans-101" />
          </defs>
          <g
             transform="translate(199.1025 290.226562)scale(0.18 -0.18)"
             id="g6651">
            <use
               xlink:href="#DejaVuSans-84"
               id="use6643" />
            <use
               x="61.037109"
               xlink:href="#DejaVuSans-105"
               id="use6645" />
            <use
               x="88.820312"
               xlink:href="#DejaVuSans-109"
               id="use6647" />
            <use
               x="186.232422"
               xlink:href="#DejaVuSans-101"
               id="use6649" />
          </g>
        </g>
      </g>
      <g
         id="matplotlib.axis_2">
        <g
           id="ytick_1">
          <g
             id="line2d_7">
            <defs
               id="defs6656">
              <path
                 d="M 0 0  L -3.5 0  "
                 id="mda3aa8537f"
                 style="stroke:#000000;stroke-width:0.8;" />
            </defs>
            <g
               id="g6660">
              <use
                 style="stroke:#000000;stroke-width:0.8;"
                 x="54"
                 xlink:href="#mda3aa8537f"
                 y="242.116364"
                 id="use6658" />
            </g>
          </g>
          <g
             id="text_8">
            <!-- 0 -->
            <g
               transform="translate(38.0925 247.43527)scale(0.14 -0.14)"
               id="g6665">
              <use
                 xlink:href="#DejaVuSans-48"
                 id="use6663" />
            </g>
          </g>
        </g>
        <g
           id="ytick_2">
          <g
             id="line2d_8">
            <g
               id="g6671">
              <use
                 style="stroke:#000000;stroke-width:0.8;"
                 x="54"
                 xlink:href="#mda3aa8537f"
                 y="190.672036"
                 id="use6669" />
            </g>
          </g>
          <g
             id="text_9">
            <!-- 1 -->
            <g
               transform="translate(38.0925 195.990943)scale(0.14 -0.14)"
               id="g6676">
              <use
                 xlink:href="#DejaVuSans-49"
                 id="use6674" />
            </g>
          </g>
        </g>
        <g
           id="ytick_3">
          <g
             id="line2d_9">
            <g
               id="g6682">
              <use
                 style="stroke:#000000;stroke-width:0.8;"
                 x="54"
                 xlink:href="#mda3aa8537f"
                 y="139.227709"
                 id="use6680" />
            </g>
          </g>
          <g
             id="text_10">
            <!-- 2 -->
            <g
               transform="translate(38.0925 144.546616)scale(0.14 -0.14)"
               id="g6687">
              <use
                 xlink:href="#DejaVuSans-50"
                 id="use6685" />
            </g>
          </g>
        </g>
        <g
           id="ytick_4">
          <g
             id="line2d_10">
            <g
               id="g6693">
              <use
                 style="stroke:#000000;stroke-width:0.8;"
                 x="54"
                 xlink:href="#mda3aa8537f"
                 y="87.783382"
                 id="use6691" />
            </g>
          </g>
          <g
             id="text_11">
            <!-- 3 -->
            <g
               transform="translate(38.0925 93.102288)scale(0.14 -0.14)"
               id="g6698">
              <use
                 xlink:href="#DejaVuSans-51"
                 id="use6696" />
            </g>
          </g>
        </g>
        <g
           id="ytick_5">
          <g
             id="line2d_11">
            <g
               id="g6704">
              <use
                 style="stroke:#000000;stroke-width:0.8;"
                 x="54"
                 xlink:href="#mda3aa8537f"
                 y="36.339055"
                 id="use6702" />
            </g>
          </g>
          <g
             id="text_12">
            <!-- 4 -->
            <g
               transform="translate(38.0925 41.657961)scale(0.14 -0.14)"
               id="g6709">
              <use
                 xlink:href="#DejaVuSans-52"
                 id="use6707" />
            </g>
          </g>
        </g>
        <g
           id="text_13">
          <!-- [X] -->
          <defs
             id="defs6716">
            <path
               d="M 8.59375 75.984375  L 29.296875 75.984375  L 29.296875 69  L 17.578125 69  L 17.578125 -6.203125  L 29.296875 -6.203125  L 29.296875 -13.1875  L 8.59375 -13.1875  z "
               id="DejaVuSans-91" />
            <path
               d="M 6.296875 72.90625  L 16.890625 72.90625  L 35.015625 45.796875  L 53.21875 72.90625  L 63.8125 72.90625  L 40.375 37.890625  L 65.375 0  L 54.78125 0  L 34.28125 31  L 13.625 0  L 2.984375 0  L 29 38.921875  z "
               id="DejaVuSans-88" />
            <path
               d="M 30.421875 75.984375  L 30.421875 -13.1875  L 9.71875 -13.1875  L 9.71875 -6.203125  L 21.390625 -6.203125  L 21.390625 69  L 9.71875 69  L 9.71875 75.984375  z "
               id="DejaVuSans-93" />
          </defs>
          <g
             transform="translate(30.349063 156.467813)rotate(-90)scale(0.18 -0.18)"
             id="g6724">
            <use
               xlink:href="#DejaVuSans-91"
               id="use6718" />
            <use
               x="39.013672"
               xlink:href="#DejaVuSans-88"
               id="use6720" />
            <use
               x="107.519531"
               xlink:href="#DejaVuSans-93"
               id="use6722" />
          </g>
        </g>
      </g>
      <g
         id="line2d_12">
        <path
           clip-path="url(#p33c2829edc)"
           d="M 69.218182 242.116364  L 72.292562 239.181681  L 75.366942 230.383468  L 78.441322 218.501581  L 81.515702 205.389075  L 84.590083 192.104806  L 87.664463 179.232926  L 90.738843 167.076373  L 93.813223 155.773148  L 96.887603 145.366027  L 99.961983 135.8442  L 103.036364 127.168045  L 106.110744 119.283732  L 109.185124 112.131729  L 112.259504 105.651665  L 115.333884 99.785007  L 118.408264 94.47646  L 121.482645 89.674596  L 124.557025 85.33206  L 127.631405 81.405521  L 130.705785 77.855493  L 133.780165 74.646095  L 136.854545 71.744775  L 139.928926 69.122041  L 143.003306 66.751192  L 146.077686 64.608065  L 149.152066 62.670807  L 152.226446 60.919651  L 155.300826 59.336725  L 158.375207 57.905872  L 161.449587 56.612485  L 164.523967 55.443358  L 167.598347 54.386555  L 170.672727 53.431283  L 173.747107 52.567789  L 176.821488 51.787255  L 179.895868 51.081712  L 182.970248 50.443954  L 186.044628 49.867469  L 189.119008 49.346371  L 192.193388 48.875337  L 195.267769 48.449559  L 198.342149 48.064687  L 201.416529 47.716792  L 204.490909 47.402322  L 207.565289 47.118064  L 210.639669 46.861117  L 213.71405 46.628856  L 216.78843 46.41891  L 219.86281 46.229135  L 222.93719 46.057593  L 226.01157 45.902531  L 229.08595 45.762367  L 232.160331 45.63567  L 235.234711 45.521145  L 238.309091 45.417623  L 241.383471 45.324047  L 244.457851 45.239462  L 247.532231 45.163003  L 250.606612 45.09389  L 253.680992 45.031417  L 256.755372 44.974946  L 259.829752 44.923901  L 262.904132 44.877759  L 265.978512 44.836051  L 269.052893 44.79835  L 272.127273 44.764271  L 275.201653 44.733466  L 278.276033 44.705621  L 281.350413 44.680451  L 284.424793 44.6577  L 287.499174 44.637134  L 290.573554 44.618544  L 293.647934 44.60174  L 296.722314 44.586551  L 299.796694 44.572821  L 302.871074 44.56041  L 305.945455 44.549191  L 309.019835 44.53905  L 312.094215 44.529883  L 315.168595 44.521598  L 318.242975 44.514108  L 321.317355 44.507338  L 324.391736 44.501218  L 327.466116 44.495686  L 330.540496 44.490686  L 333.614876 44.486166  L 336.689256 44.48208  L 339.763636 44.478387  L 342.838017 44.475048  L 345.912397 44.472031  L 348.986777 44.469303  L 352.061157 44.466838  L 355.135537 44.464609  L 358.209917 44.462594  L 361.284298 44.460774  L 364.358678 44.459128  L 367.433058 44.45764  L 370.507438 44.456295  L 373.581818 44.455079  "
           style="fill:none;stroke:#000000;stroke-dasharray:18.5,8;stroke-dashoffset:0;stroke-width:5;"
           id="path6728" />
      </g>
      <g
         id="line2d_13">
        <path
           clip-path="url(#p33c2829edc)"
           d="M 69.218182 242.116364  L 72.292562 163.734204  L 75.366942 116.432522  L 78.441322 87.887135  L 81.515702 70.660706  L 84.590083 60.264986  L 87.664463 53.991427  L 90.738843 50.205491  L 93.813223 47.920772  L 96.887603 46.542002  L 99.961983 45.709948  L 103.036364 45.207824  L 106.110744 44.904805  L 109.185124 44.72194  L 112.259504 44.611586  L 115.333884 44.54499  L 118.408264 44.504801  L 121.482645 44.480548  L 124.557025 44.465911  L 127.631405 44.457079  L 130.705785 44.451749  L 133.780165 44.448532  L 136.854545 44.446591  L 139.928926 44.44542  L 143.003306 44.444713  L 146.077686 44.444286  L 149.152066 44.444028  L 152.226446 44.443873  L 155.300826 44.443779  L 158.375207 44.443723  L 161.449587 44.443689  L 164.523967 44.443668  L 167.598347 44.443656  L 170.672727 44.443648  L 173.747107 44.443643  L 176.821488 44.443641  L 179.895868 44.443639  L 182.970248 44.443638  L 186.044628 44.443638  L 189.119008 44.443637  L 192.193388 44.443637  L 195.267769 44.443637  L 198.342149 44.443637  L 201.416529 44.443637  L 204.490909 44.443637  L 207.565289 44.443637  L 210.639669 44.443637  L 213.71405 44.443637  L 216.78843 44.443637  L 219.86281 44.443637  L 222.93719 44.443637  L 226.01157 44.443637  L 229.08595 44.443637  L 232.160331 44.443637  L 235.234711 44.443637  L 238.309091 44.443637  L 241.383471 44.443637  L 244.457851 44.443637  L 247.532231 44.443637  L 250.606612 44.443637  L 253.680992 44.443637  L 256.755372 44.443637  L 259.829752 44.443637  L 262.904132 44.443637  L 265.978512 44.443637  L 269.052893 44.443637  L 272.127273 44.443637  L 275.201653 44.443637  L 278.276033 44.443637  L 281.350413 44.443637  L 284.424793 44.443637  L 287.499174 44.443637  L 290.573554 44.443637  L 293.647934 44.443637  L 296.722314 44.443637  L 299.796694 44.443637  L 302.871074 44.443637  L 305.945455 44.443637  L 309.019835 44.443637  L 312.094215 44.443637  L 315.168595 44.443637  L 318.242975 44.443637  L 321.317355 44.443637  L 324.391736 44.443637  L 327.466116 44.443637  L 330.540496 44.443637  L 333.614876 44.443637  L 336.689256 44.443637  L 339.763636 44.443637  L 342.838017 44.443637  L 345.912397 44.443637  L 348.986777 44.443637  L 352.061157 44.443637  L 355.135537 44.443637  L 358.209917 44.443637  L 361.284298 44.443637  L 364.358678 44.443637  L 367.433058 44.443637  L 370.507438 44.443637  L 373.581818 44.443637  "
           style="fill:none;stroke:#1f77b4;stroke-linecap:square;stroke-width:2;"
           id="path6731" />
      </g>
      <g
         id="line2d_14">
        <path
           clip-path="url(#p33c2829edc)"
           d="M 69.218182 242.116364  L 72.292562 176.301804  L 75.366942 124.082208  L 78.441322 92.503866  L 81.515702 73.446795  L 84.590083 61.946318  L 87.664463 55.006071  L 90.738843 50.817811  L 93.813223 48.290286  L 96.887603 46.764994  L 99.961983 45.844513  L 103.036364 45.289032  L 106.110744 44.953814  L 109.185124 44.751519  L 112.259504 44.629438  L 115.333884 44.555765  L 118.408264 44.511305  L 121.482645 44.484474  L 124.557025 44.468283  L 127.631405 44.458511  L 130.705785 44.452614  L 133.780165 44.449056  L 136.854545 44.446908  L 139.928926 44.445611  L 143.003306 44.444829  L 146.077686 44.444357  L 149.152066 44.444072  L 152.226446 44.4439  L 155.300826 44.443796  L 158.375207 44.443734  L 161.449587 44.443695  L 164.523967 44.443672  L 167.598347 44.443658  L 170.672727 44.44365  L 173.747107 44.443645  L 176.821488 44.443642  L 179.895868 44.44364  L 182.970248 44.443639  L 186.044628 44.443638  L 189.119008 44.443637  L 192.193388 44.443637  L 195.267769 44.443637  L 198.342149 44.443637  L 201.416529 44.443637  L 204.490909 44.443638  L 207.565289 44.443637  L 210.639669 44.443637  L 213.71405 44.443637  L 216.78843 44.443637  L 219.86281 44.443637  L 222.93719 44.443637  L 226.01157 44.443637  L 229.08595 44.443637  L 232.160331 44.443637  L 235.234711 44.443637  L 238.309091 44.443637  L 241.383471 44.443637  L 244.457851 44.443637  L 247.532231 44.443637  L 250.606612 44.443637  L 253.680992 44.443637  L 256.755372 44.443637  L 259.829752 44.443637  L 262.904132 44.443637  L 265.978512 44.443637  L 269.052893 44.443637  L 272.127273 44.443637  L 275.201653 44.443637  L 278.276033 44.443637  L 281.350413 44.443637  L 284.424793 44.443637  L 287.499174 44.443637  L 290.573554 44.443637  L 293.647934 44.443637  L 296.722314 44.443637  L 299.796694 44.443637  L 302.871074 44.443637  L 305.945455 44.443637  L 309.019835 44.443637  L 312.094215 44.443637  L 315.168595 44.443637  L 318.242975 44.443637  L 321.317355 44.443637  L 324.391736 44.443637  L 327.466116 44.443637  L 330.540496 44.443637  L 333.614876 44.443637  L 336.689256 44.443637  L 339.763636 44.443637  L 342.838017 44.443637  L 345.912397 44.443637  L 348.986777 44.443637  L 352.061157 44.443637  L 355.135537 44.443637  L 358.209917 44.443637  L 361.284298 44.443637  L 364.358678 44.443637  L 367.433058 44.443637  L 370.507438 44.443637  L 373.581818 44.443637  "
           style="fill:none;stroke:#ff7f0e;stroke-linecap:square;stroke-width:2;"
           id="path6734" />
      </g>
      <g
         id="line2d_15">
        <path
           clip-path="url(#p33c2829edc)"
           d="M 69.218182 242.116364  L 72.292562 163.747652  L 75.366942 116.440641  L 78.441322 87.892041  L 81.515702 70.663667  L 84.590083 60.266773  L 87.664463 53.992507  L 90.738843 50.206146  L 93.813223 47.921171  L 96.887603 46.542245  L 99.961983 45.710098  L 103.036364 45.207917  L 106.110744 44.904863  L 109.185124 44.721977  L 112.259504 44.611611  L 115.333884 44.545006  L 118.408264 44.504813  L 121.482645 44.480556  L 124.557025 44.465918  L 127.631405 44.457084  L 130.705785 44.451753  L 133.780165 44.448536  L 136.854545 44.446594  L 139.928926 44.445422  L 143.003306 44.444715  L 146.077686 44.444289  L 149.152066 44.444031  L 152.226446 44.443875  L 155.300826 44.443781  L 158.375207 44.443725  L 161.449587 44.443691  L 164.523967 44.443669  L 167.598347 44.443656  L 170.672727 44.443649  L 173.747107 44.443644  L 176.821488 44.443642  L 179.895868 44.443641  L 182.970248 44.44364  L 186.044628 44.443639  L 189.119008 44.443638  L 192.193388 44.443637  L 195.267769 44.443637  L 198.342149 44.443637  L 201.416529 44.443637  L 204.490909 44.443637  L 207.565289 44.443638  L 210.639669 44.443638  L 213.71405 44.443638  L 216.78843 44.443637  L 219.86281 44.443637  L 222.93719 44.443637  L 226.01157 44.443637  L 229.08595 44.443637  L 232.160331 44.443636  L 235.234711 44.443636  L 238.309091 44.443637  L 241.383471 44.443637  L 244.457851 44.443637  L 247.532231 44.443637  L 250.606612 44.443637  L 253.680992 44.443637  L 256.755372 44.443637  L 259.829752 44.443637  L 262.904132 44.443637  L 265.978512 44.443637  L 269.052893 44.443637  L 272.127273 44.443637  L 275.201653 44.443637  L 278.276033 44.443637  L 281.350413 44.443637  L 284.424793 44.443637  L 287.499174 44.443637  L 290.573554 44.443637  L 293.647934 44.443637  L 296.722314 44.443637  L 299.796694 44.443637  L 302.871074 44.443637  L 305.945455 44.443637  L 309.019835 44.443637  L 312.094215 44.443637  L 315.168595 44.443637  L 318.242975 44.443637  L 321.317355 44.443637  L 324.391736 44.443637  L 327.466116 44.443637  L 330.540496 44.443637  L 333.614876 44.443637  L 336.689256 44.443637  L 339.763636 44.443637  L 342.838017 44.443637  L 345.912397 44.443637  L 348.986777 44.443637  L 352.061157 44.443637  L 355.135537 44.443637  L 358.209917 44.443637  L 361.284298 44.443637  L 364.358678 44.443637  L 367.433058 44.443637  L 370.507438 44.443637  L 373.581818 44.443637  "
           style="fill:none;stroke:#2ca02c;stroke-linecap:square;stroke-width:2;"
           id="path6737" />
      </g>
      <g
         id="line2d_16">
        <path
           clip-path="url(#p33c2829edc)"
           d="M 69.218182 242.116364  L 72.292562 237.972373  L 75.366942 228.339064  L 78.441322 216.078353  L 81.515702 202.851497  L 84.590083 189.60151  L 87.664463 176.843685  L 90.738843 164.840359  L 93.813223 153.705898  L 96.887603 143.469581  L 99.961983 134.113168  L 103.036364 125.593184  L 106.110744 117.854052  L 109.185124 110.835706  L 112.259504 104.477919  L 115.333884 98.722674  L 118.408264 93.515369  L 121.482645 88.805342  L 124.557025 84.546015  L 127.631405 80.694808  L 130.705785 77.212945  L 133.780165 74.065205  L 136.854545 71.219646  L 139.928926 68.647332  L 143.003306 66.322067  L 146.077686 64.220151  L 149.152066 62.320154  L 152.226446 60.602678  L 155.300826 59.050197  L 158.375207 57.646866  L 161.449587 56.378357  L 164.523967 55.231721  L 167.598347 54.195247  L 170.672727 53.258352  L 173.747107 52.411469  L 176.821488 51.645952  L 179.895868 50.953982  L 182.970248 50.328494  L 186.044628 49.7631  L 189.119008 49.252028  L 192.193388 48.790056  L 195.267769 48.37247  L 198.342149 47.995003  L 201.416529 47.653802  L 204.490909 47.345382  L 207.565289 47.066594  L 210.639669 46.814589  L 213.71405 46.586797  L 216.78843 46.38089  L 219.86281 46.194767  L 222.93719 46.026525  L 226.01157 45.874447  L 229.08595 45.73698  L 232.160331 45.612721  L 235.234711 45.5004  L 238.309091 45.39887  L 241.383471 45.307095  L 244.457851 45.224137  L 247.532231 45.14915  L 250.606612 45.081367  L 253.680992 45.020096  L 256.755372 44.964712  L 259.829752 44.914649  L 262.904132 44.869396  L 265.978512 44.82849  L 269.052893 44.791515  L 272.127273 44.758091  L 275.201653 44.72788  L 278.276033 44.700572  L 281.350413 44.675887  L 284.424793 44.653574  L 287.499174 44.633404  L 290.573554 44.615172  L 293.647934 44.598691  L 296.722314 44.583794  L 299.796694 44.570329  L 302.871074 44.558157  L 305.945455 44.547154  L 309.019835 44.537208  L 312.094215 44.528218  L 315.168595 44.520092  L 318.242975 44.512747  L 321.317355 44.506107  L 324.391736 44.500105  L 327.466116 44.49468  L 330.540496 44.489776  L 333.614876 44.485343  L 336.689256 44.481336  L 339.763636 44.477714  L 342.838017 44.47444  L 345.912397 44.47148  L 348.986777 44.468806  L 352.061157 44.466388  L 355.135537 44.464203  L 358.209917 44.462227  L 361.284298 44.460441  L 364.358678 44.458827  L 367.433058 44.457366  L 370.507438 44.456046  L 373.581818 44.454852  "
           style="fill:none;stroke:#d62728;stroke-linecap:square;stroke-width:2;"
           id="path6740" />
      </g>
      <g
         id="line2d_17">
        <path
           clip-path="url(#p33c2829edc)"
           d="M 69.218182 242.116364  L 72.292562 163.734204  L 75.366942 116.432526  L 78.441322 87.887142  L 81.515702 70.660714  L 84.590083 60.264994  L 87.664463 53.991436  L 90.738843 50.2055  L 93.813223 47.92078  L 96.887603 46.542004  L 99.961983 45.709951  L 103.036364 45.207829  L 106.110744 44.904811  L 109.185124 44.721946  L 112.259504 44.611591  L 115.333884 44.544995  L 118.408264 44.504805  L 121.482645 44.480552  L 124.557025 44.465915  L 127.631405 44.457083  L 130.705785 44.451752  L 133.780165 44.448535  L 136.854545 44.446594  L 139.928926 44.445422  L 143.003306 44.444715  L 146.077686 44.444288  L 149.152066 44.44403  L 152.226446 44.443875  L 155.300826 44.443781  L 158.375207 44.443724  L 161.449587 44.44369  L 164.523967 44.443669  L 167.598347 44.443657  L 170.672727 44.443649  L 173.747107 44.443644  L 176.821488 44.443641  L 179.895868 44.44364  L 182.970248 44.443639  L 186.044628 44.443638  L 189.119008 44.443638  L 192.193388 44.443638  L 195.267769 44.443638  L 198.342149 44.443637  L 201.416529 44.443637  L 204.490909 44.443637  L 207.565289 44.443637  L 210.639669 44.443637  L 213.71405 44.443637  L 216.78843 44.443637  L 219.86281 44.443637  L 222.93719 44.443637  L 226.01157 44.443637  L 229.08595 44.443637  L 232.160331 44.443637  L 235.234711 44.443637  L 238.309091 44.443637  L 241.383471 44.443637  L 244.457851 44.443637  L 247.532231 44.443637  L 250.606612 44.443637  L 253.680992 44.443637  L 256.755372 44.443637  L 259.829752 44.443637  L 262.904132 44.443637  L 265.978512 44.443637  L 269.052893 44.443637  L 272.127273 44.443637  L 275.201653 44.443637  L 278.276033 44.443637  L 281.350413 44.443637  L 284.424793 44.443637  L 287.499174 44.443637  L 290.573554 44.443637  L 293.647934 44.443637  L 296.722314 44.443637  L 299.796694 44.443637  L 302.871074 44.443637  L 305.945455 44.443637  L 309.019835 44.443637  L 312.094215 44.443637  L 315.168595 44.443637  L 318.242975 44.443637  L 321.317355 44.443637  L 324.391736 44.443637  L 327.466116 44.443637  L 330.540496 44.443637  L 333.614876 44.443637  L 336.689256 44.443637  L 339.763636 44.443637  L 342.838017 44.443637  L 345.912397 44.443637  L 348.986777 44.443637  L 352.061157 44.443636  L 355.135537 44.443636  L 358.209917 44.443636  L 361.284298 44.443636  L 364.358678 44.443636  L 367.433058 44.443636  L 370.507438 44.443636  L 373.581818 44.443636  "
           style="fill:none;stroke:#9467bd;stroke-linecap:square;stroke-width:2;"
           id="path6743" />
      </g>
      <g
         id="line2d_18">
        <path
           clip-path="url(#p33c2829edc)"
           d="M 69.218182 242.116364  L 72.292562 176.31655  L 75.366942 124.091184  L 78.441322 92.509291  L 81.515702 73.45007  L 84.590083 61.948299  L 87.664463 55.00726  L 90.738843 50.818522  L 93.813223 48.290724  L 96.887603 46.765263  L 99.961983 45.844683  L 103.036364 45.289136  L 106.110744 44.953877  L 109.185124 44.751556  L 112.259504 44.629461  L 115.333884 44.555779  L 118.408264 44.511313  L 121.482645 44.48448  L 124.557025 44.468286  L 127.631405 44.458513  L 130.705785 44.452615  L 133.780165 44.449056  L 136.854545 44.446909  L 139.928926 44.445612  L 143.003306 44.444829  L 146.077686 44.444357  L 149.152066 44.444072  L 152.226446 44.4439  L 155.300826 44.443796  L 158.375207 44.443733  L 161.449587 44.443695  L 164.523967 44.443673  L 167.598347 44.443659  L 170.672727 44.44365  L 173.747107 44.443645  L 176.821488 44.443642  L 179.895868 44.44364  L 182.970248 44.443639  L 186.044628 44.443639  L 189.119008 44.443638  L 192.193388 44.443638  L 195.267769 44.443637  L 198.342149 44.443637  L 201.416529 44.443637  L 204.490909 44.443637  L 207.565289 44.443637  L 210.639669 44.443637  L 213.71405 44.443637  L 216.78843 44.443637  L 219.86281 44.443637  L 222.93719 44.443637  L 226.01157 44.443637  L 229.08595 44.443637  L 232.160331 44.443637  L 235.234711 44.443637  L 238.309091 44.443637  L 241.383471 44.443637  L 244.457851 44.443637  L 247.532231 44.443637  L 250.606612 44.443637  L 253.680992 44.443637  L 256.755372 44.443637  L 259.829752 44.443637  L 262.904132 44.443637  L 265.978512 44.443637  L 269.052893 44.443637  L 272.127273 44.443637  L 275.201653 44.443637  L 278.276033 44.443637  L 281.350413 44.443636  L 284.424793 44.443636  L 287.499174 44.443636  L 290.573554 44.443636  L 293.647934 44.443636  L 296.722314 44.443636  L 299.796694 44.443637  L 302.871074 44.443637  L 305.945455 44.443637  L 309.019835 44.443637  L 312.094215 44.443637  L 315.168595 44.443637  L 318.242975 44.443637  L 321.317355 44.443637  L 324.391736 44.443637  L 327.466116 44.443637  L 330.540496 44.443637  L 333.614876 44.443637  L 336.689256 44.443637  L 339.763636 44.443637  L 342.838017 44.443637  L 345.912397 44.443637  L 348.986777 44.443637  L 352.061157 44.443637  L 355.135537 44.443637  L 358.209917 44.443637  L 361.284298 44.443637  L 364.358678 44.443638  L 367.433058 44.443638  L 370.507438 44.443638  L 373.581818 44.443638  "
           style="fill:none;stroke:#8c564b;stroke-linecap:square;stroke-width:2;"
           id="path6746" />
      </g>
      <g
         id="line2d_19">
        <path
           clip-path="url(#p33c2829edc)"
           d="M 69.218182 242.116364  L 72.292562 176.301802  L 75.366942 124.082206  L 78.441322 92.503873  L 81.515702 73.446801  L 84.590083 61.946328  L 87.664463 55.006079  L 90.738843 50.817811  L 93.813223 48.290296  L 96.887603 46.765003  L 99.961983 45.844527  L 103.036364 45.289042  L 106.110744 44.95382  L 109.185124 44.751522  L 112.259504 44.62944  L 115.333884 44.555766  L 118.408264 44.511306  L 121.482645 44.484475  L 124.557025 44.468283  L 127.631405 44.458512  L 130.705785 44.452614  L 133.780165 44.449055  L 136.854545 44.446908  L 139.928926 44.445612  L 143.003306 44.444829  L 146.077686 44.444357  L 149.152066 44.444072  L 152.226446 44.4439  L 155.300826 44.443796  L 158.375207 44.443733  L 161.449587 44.443695  L 164.523967 44.443673  L 167.598347 44.443659  L 170.672727 44.44365  L 173.747107 44.443645  L 176.821488 44.443642  L 179.895868 44.44364  L 182.970248 44.443639  L 186.044628 44.443639  L 189.119008 44.443638  L 192.193388 44.443638  L 195.267769 44.443637  L 198.342149 44.443637  L 201.416529 44.443637  L 204.490909 44.443637  L 207.565289 44.443637  L 210.639669 44.443637  L 213.71405 44.443637  L 216.78843 44.443637  L 219.86281 44.443637  L 222.93719 44.443637  L 226.01157 44.443637  L 229.08595 44.443637  L 232.160331 44.443637  L 235.234711 44.443637  L 238.309091 44.443637  L 241.383471 44.443637  L 244.457851 44.443637  L 247.532231 44.443637  L 250.606612 44.443637  L 253.680992 44.443637  L 256.755372 44.443637  L 259.829752 44.443637  L 262.904132 44.443637  L 265.978512 44.443637  L 269.052893 44.443637  L 272.127273 44.443637  L 275.201653 44.443637  L 278.276033 44.443637  L 281.350413 44.443636  L 284.424793 44.443636  L 287.499174 44.443636  L 290.573554 44.443636  L 293.647934 44.443636  L 296.722314 44.443636  L 299.796694 44.443636  L 302.871074 44.443637  L 305.945455 44.443637  L 309.019835 44.443637  L 312.094215 44.443637  L 315.168595 44.443637  L 318.242975 44.443637  L 321.317355 44.443637  L 324.391736 44.443637  L 327.466116 44.443637  L 330.540496 44.443637  L 333.614876 44.443637  L 336.689256 44.443637  L 339.763636 44.443637  L 342.838017 44.443637  L 345.912397 44.443637  L 348.986777 44.443637  L 352.061157 44.443637  L 355.135537 44.443637  L 358.209917 44.443637  L 361.284298 44.443637  L 364.358678 44.443637  L 367.433058 44.443637  L 370.507438 44.443637  L 373.581818 44.443637  "
           style="fill:none;stroke:#e377c2;stroke-linecap:square;stroke-width:2;"
           id="path6749" />
      </g>
      <g
         id="line2d_20">
        <path
           clip-path="url(#p33c2829edc)"
           d="M 69.218182 242.116364  L 72.292562 237.973868  L 75.366942 228.341335  L 78.441322 216.080974  L 81.515702 202.854223  L 84.590083 189.604202  L 87.664463 176.846267  L 90.738843 164.842795  L 93.813223 153.708168  L 96.887603 143.471685  L 99.961983 134.11511  L 103.036364 125.594971  L 106.110744 117.855691  L 109.185124 110.837204  L 112.259504 104.479289  L 115.333884 98.723928  L 118.408264 93.516516  L 121.482645 88.806392  L 124.557025 84.546972  L 127.631405 80.69568  L 130.705785 77.213737  L 133.780165 74.065924  L 136.854545 71.2203  L 139.928926 68.647928  L 143.003306 66.322616  L 146.077686 64.220656  L 149.152066 62.32061  L 152.226446 60.603095  L 155.300826 59.050579  L 158.375207 57.647216  L 161.449587 56.378677  L 164.523967 55.232013  L 167.598347 54.195515  L 170.672727 53.258597  L 173.747107 52.411694  L 176.821488 51.646158  L 179.895868 50.954171  L 182.970248 50.328667  L 186.044628 49.763258  L 189.119008 49.252172  L 192.193388 48.790188  L 195.267769 48.37259  L 198.342149 47.995113  L 201.416529 47.653903  L 204.490909 47.345475  L 207.565289 47.066679  L 210.639669 46.814669  L 213.71405 46.58687  L 216.78843 46.380958  L 219.86281 46.194829  L 222.93719 46.026583  L 226.01157 45.874501  L 229.08595 45.73703  L 232.160331 45.612766  L 235.234711 45.500442  L 238.309091 45.398909  L 241.383471 45.307131  L 244.457851 45.224171  L 247.532231 45.149181  L 250.606612 45.081396  L 253.680992 45.020123  L 256.755372 44.964737  L 259.829752 44.914673  L 262.904132 44.869418  L 265.978512 44.828512  L 269.052893 44.791535  L 272.127273 44.758111  L 275.201653 44.727898  L 278.276033 44.700588  L 281.350413 44.675902  L 284.424793 44.653587  L 287.499174 44.633416  L 290.573554 44.615184  L 293.647934 44.598703  L 296.722314 44.583805  L 299.796694 44.570339  L 302.871074 44.558166  L 305.945455 44.547163  L 309.019835 44.537217  L 312.094215 44.528227  L 315.168595 44.5201  L 318.242975 44.512754  L 321.317355 44.506114  L 324.391736 44.500112  L 327.466116 44.494686  L 330.540496 44.489782  L 333.614876 44.485349  L 336.689256 44.481342  L 339.763636 44.47772  L 342.838017 44.474446  L 345.912397 44.471486  L 348.986777 44.468811  L 352.061157 44.466392  L 355.135537 44.464206  L 358.209917 44.46223  L 361.284298 44.460444  L 364.358678 44.45883  L 367.433058 44.457371  L 370.507438 44.456051  L 373.581818 44.454859  "
           style="fill:none;stroke:#7f7f7f;stroke-linecap:square;stroke-width:2;"
           id="path6752" />
      </g>
      <g
         id="line2d_21">
        <path
           clip-path="url(#p33c2829edc)"
           d="M 69.218182 242.116364  L 72.292562 163.747652  L 75.366942 116.440641  L 78.441322 87.89204  L 81.515702 70.66367  L 84.590083 60.266778  L 87.664463 53.992512  L 90.738843 50.20615  L 93.813223 47.921173  L 96.887603 46.542245  L 99.961983 45.710098  L 103.036364 45.207915  L 106.110744 44.90486  L 109.185124 44.721974  L 112.259504 44.611608  L 115.333884 44.545005  L 118.408264 44.504812  L 121.482645 44.480556  L 124.557025 44.465918  L 127.631405 44.457084  L 130.705785 44.451753  L 133.780165 44.448536  L 136.854545 44.446594  L 139.928926 44.445422  L 143.003306 44.444715  L 146.077686 44.444288  L 149.152066 44.44403  L 152.226446 44.443874  L 155.300826 44.443781  L 158.375207 44.443724  L 161.449587 44.44369  L 164.523967 44.443669  L 167.598347 44.443656  L 170.672727 44.443649  L 173.747107 44.443644  L 176.821488 44.443642  L 179.895868 44.44364  L 182.970248 44.443639  L 186.044628 44.443638  L 189.119008 44.443638  L 192.193388 44.443637  L 195.267769 44.443637  L 198.342149 44.443637  L 201.416529 44.443637  L 204.490909 44.443637  L 207.565289 44.443637  L 210.639669 44.443637  L 213.71405 44.443637  L 216.78843 44.443637  L 219.86281 44.443637  L 222.93719 44.443637  L 226.01157 44.443637  L 229.08595 44.443637  L 232.160331 44.443637  L 235.234711 44.443637  L 238.309091 44.443637  L 241.383471 44.443637  L 244.457851 44.443637  L 247.532231 44.443637  L 250.606612 44.443638  L 253.680992 44.443638  L 256.755372 44.443638  L 259.829752 44.443638  L 262.904132 44.443638  L 265.978512 44.443638  L 269.052893 44.443638  L 272.127273 44.443638  L 275.201653 44.443638  L 278.276033 44.443638  L 281.350413 44.443638  L 284.424793 44.443637  L 287.499174 44.443637  L 290.573554 44.443637  L 293.647934 44.443637  L 296.722314 44.443637  L 299.796694 44.443637  L 302.871074 44.443637  L 305.945455 44.443637  L 309.019835 44.443637  L 312.094215 44.443636  L 315.168595 44.443636  L 318.242975 44.443636  L 321.317355 44.443636  L 324.391736 44.443637  L 327.466116 44.443637  L 330.540496 44.443637  L 333.614876 44.443637  L 336.689256 44.443637  L 339.763636 44.443637  L 342.838017 44.443637  L 345.912397 44.443637  L 348.986777 44.443637  L 352.061157 44.443637  L 355.135537 44.443637  L 358.209917 44.443637  L 361.284298 44.443637  L 364.358678 44.443637  L 367.433058 44.443637  L 370.507438 44.443637  L 373.581818 44.443637  "
           style="fill:none;stroke:#bcbd22;stroke-linecap:square;stroke-width:2;"
           id="path6755" />
      </g>
      <g
         id="line2d_22">
        <path
           clip-path="url(#p33c2829edc)"
           d="M 69.218182 242.116364  L 72.292562 237.972373  L 75.366942 228.339064  L 78.441322 216.078352  L 81.515702 202.851494  L 84.590083 189.601506  L 87.664463 176.843681  L 90.738843 164.840357  L 93.813223 153.705895  L 96.887603 143.46958  L 99.961983 134.113169  L 103.036364 125.593184  L 106.110744 117.85405  L 109.185124 110.835702  L 112.259504 104.477915  L 115.333884 98.722671  L 118.408264 93.515366  L 121.482645 88.80534  L 124.557025 84.546013  L 127.631405 80.694807  L 130.705785 77.212946  L 133.780165 74.065209  L 136.854545 71.219652  L 139.928926 68.64734  L 143.003306 66.322079  L 146.077686 64.220167  L 149.152066 62.320168  L 152.226446 60.602693  L 155.300826 59.050214  L 158.375207 57.646884  L 161.449587 56.378377  L 164.523967 55.231739  L 167.598347 54.195265  L 170.672727 53.258369  L 173.747107 52.411486  L 176.821488 51.645968  L 179.895868 50.953998  L 182.970248 50.328509  L 186.044628 49.763114  L 189.119008 49.252041  L 192.193388 48.790069  L 195.267769 48.372481  L 198.342149 47.995014  L 201.416529 47.653812  L 204.490909 47.345392  L 207.565289 47.066603  L 210.639669 46.8146  L 213.71405 46.586808  L 216.78843 46.380901  L 219.86281 46.194777  L 222.93719 46.026535  L 226.01157 45.874457  L 229.08595 45.73699  L 232.160331 45.612731  L 235.234711 45.50041  L 238.309091 45.398879  L 241.383471 45.307104  L 244.457851 45.224146  L 247.532231 45.149159  L 250.606612 45.081376  L 253.680992 45.020105  L 256.755372 44.964721  L 259.829752 44.914657  L 262.904132 44.869404  L 265.978512 44.828498  L 269.052893 44.791523  L 272.127273 44.7581  L 275.201653 44.727888  L 278.276033 44.700579  L 281.350413 44.675894  L 284.424793 44.65358  L 287.499174 44.63341  L 290.573554 44.615177  L 293.647934 44.598697  L 296.722314 44.5838  L 299.796694 44.570334  L 302.871074 44.558162  L 305.945455 44.547159  L 309.019835 44.537214  L 312.094215 44.528224  L 315.168595 44.520097  L 318.242975 44.512751  L 321.317355 44.506111  L 324.391736 44.500109  L 327.466116 44.494684  L 330.540496 44.48978  L 333.614876 44.485347  L 336.689256 44.48134  L 339.763636 44.477718  L 342.838017 44.474444  L 345.912397 44.471485  L 348.986777 44.46881  L 352.061157 44.466391  L 355.135537 44.464206  L 358.209917 44.46223  L 361.284298 44.460443  L 364.358678 44.458829  L 367.433058 44.45737  L 370.507438 44.456051  L 373.581818 44.454858  "
           style="fill:none;stroke:#17becf;stroke-linecap:square;stroke-width:2;"
           id="path6758" />
      </g>
      <g
         id="line2d_23">
        <path
           clip-path="url(#p33c2829edc)"
           d="M 69.218182 242.116364  L 72.292562 176.316556  L 75.366942 124.091184  L 78.441322 92.509292  L 81.515702 73.450069  L 84.590083 61.9483  L 87.664463 55.007269  L 90.738843 50.81853  L 93.813223 48.29073  L 96.887603 46.765265  L 99.961983 45.844684  L 103.036364 45.289136  L 106.110744 44.953877  L 109.185124 44.751556  L 112.259504 44.629461  L 115.333884 44.555778  L 118.408264 44.511313  L 121.482645 44.484479  L 124.557025 44.468286  L 127.631405 44.458513  L 130.705785 44.452615  L 133.780165 44.449056  L 136.854545 44.446908  L 139.928926 44.445611  L 143.003306 44.44483  L 146.077686 44.444358  L 149.152066 44.444073  L 152.226446 44.4439  L 155.300826 44.443796  L 158.375207 44.443733  L 161.449587 44.443695  L 164.523967 44.443672  L 167.598347 44.443658  L 170.672727 44.44365  L 173.747107 44.443645  L 176.821488 44.443642  L 179.895868 44.443639  L 182.970248 44.443638  L 186.044628 44.443638  L 189.119008 44.443637  L 192.193388 44.443637  L 195.267769 44.443637  L 198.342149 44.443637  L 201.416529 44.443637  L 204.490909 44.443637  L 207.565289 44.443637  L 210.639669 44.443637  L 213.71405 44.443637  L 216.78843 44.443637  L 219.86281 44.443637  L 222.93719 44.443637  L 226.01157 44.443637  L 229.08595 44.443637  L 232.160331 44.443637  L 235.234711 44.443637  L 238.309091 44.443637  L 241.383471 44.443637  L 244.457851 44.443637  L 247.532231 44.443637  L 250.606612 44.443637  L 253.680992 44.443637  L 256.755372 44.443637  L 259.829752 44.443637  L 262.904132 44.443637  L 265.978512 44.443637  L 269.052893 44.443637  L 272.127273 44.443637  L 275.201653 44.443637  L 278.276033 44.443637  L 281.350413 44.443637  L 284.424793 44.443637  L 287.499174 44.443637  L 290.573554 44.443637  L 293.647934 44.443637  L 296.722314 44.443637  L 299.796694 44.443637  L 302.871074 44.443637  L 305.945455 44.443637  L 309.019835 44.443637  L 312.094215 44.443637  L 315.168595 44.443637  L 318.242975 44.443637  L 321.317355 44.443637  L 324.391736 44.443637  L 327.466116 44.443637  L 330.540496 44.443637  L 333.614876 44.443637  L 336.689256 44.443637  L 339.763636 44.443637  L 342.838017 44.443637  L 345.912397 44.443637  L 348.986777 44.443637  L 352.061157 44.443637  L 355.135537 44.443637  L 358.209917 44.443637  L 361.284298 44.443637  L 364.358678 44.443637  L 367.433058 44.443637  L 370.507438 44.443637  L 373.581818 44.443637  "
           style="fill:none;stroke:#1f77b4;stroke-linecap:square;stroke-width:2;"
           id="path6761" />
      </g>
      <g
         id="line2d_24">
        <path
           clip-path="url(#p33c2829edc)"
           d="M 69.218182 242.116364  L 72.292562 237.973868  L 75.366942 228.341335  L 78.441322 216.080974  L 81.515702 202.854223  L 84.590083 189.604202  L 87.664463 176.846269  L 90.738843 164.842798  L 93.813223 153.708171  L 96.887603 143.471685  L 99.961983 134.115107  L 103.036364 125.594968  L 106.110744 117.855688  L 109.185124 110.837204  L 112.259504 104.479291  L 115.333884 98.72393  L 118.408264 93.516517  L 121.482645 88.806392  L 124.557025 84.546974  L 127.631405 80.695681  L 130.705785 77.213741  L 133.780165 74.06593  L 136.854545 71.220308  L 139.928926 68.647941  L 143.003306 66.322626  L 146.077686 64.220664  L 149.152066 62.320619  L 152.226446 60.603103  L 155.300826 59.050587  L 158.375207 57.647222  L 161.449587 56.378684  L 164.523967 55.23202  L 167.598347 54.19552  L 170.672727 53.258602  L 173.747107 52.411699  L 176.821488 51.646162  L 179.895868 50.954175  L 182.970248 50.32867  L 186.044628 49.763261  L 189.119008 49.252174  L 192.193388 48.790191  L 195.267769 48.372593  L 198.342149 47.995116  L 201.416529 47.653905  L 204.490909 47.345477  L 207.565289 47.066681  L 210.639669 46.81467  L 213.71405 46.586872  L 216.78843 46.380959  L 219.86281 46.19483  L 222.93719 46.026584  L 226.01157 45.874502  L 229.08595 45.737031  L 232.160331 45.612767  L 235.234711 45.500443  L 238.309091 45.39891  L 241.383471 45.307132  L 244.457851 45.224172  L 247.532231 45.149182  L 250.606612 45.081396  L 253.680992 45.020124  L 256.755372 44.964738  L 259.829752 44.914673  L 262.904132 44.869419  L 265.978512 44.828512  L 269.052893 44.791536  L 272.127273 44.758111  L 275.201653 44.727899  L 278.276033 44.700588  L 281.350413 44.675902  L 284.424793 44.653587  L 287.499174 44.633416  L 290.573554 44.615183  L 293.647934 44.598702  L 296.722314 44.583804  L 299.796694 44.570338  L 302.871074 44.558165  L 305.945455 44.547162  L 309.019835 44.537216  L 312.094215 44.528225  L 315.168595 44.520098  L 318.242975 44.512752  L 321.317355 44.506112  L 324.391736 44.50011  L 327.466116 44.494684  L 330.540496 44.48978  L 333.614876 44.485347  L 336.689256 44.48134  L 339.763636 44.477718  L 342.838017 44.474443  L 345.912397 44.471484  L 348.986777 44.468808  L 352.061157 44.46639  L 355.135537 44.464204  L 358.209917 44.462228  L 361.284298 44.460442  L 364.358678 44.458828  L 367.433058 44.457368  L 370.507438 44.456049  L 373.581818 44.454856  "
           style="fill:none;stroke:#ff7f0e;stroke-linecap:square;stroke-width:2;"
           id="path6764" />
        <ellipse
           style="fill:#000000;stroke-width:0.53387409;stroke-linecap:butt;stroke-linejoin:round"
           id="path7492"
           cx="88.019104"
           cy="173.91046"
           rx="5.3065057"
           ry="5.3065047" />
        <ellipse
           style="fill:#000000;stroke-width:0.53387409;stroke-linecap:butt;stroke-linejoin:round"
           id="path7492-2"
           cx="116.74312"
           cy="96.042938"
           rx="5.3065057"
           ry="5.3065042" />
        <ellipse
           style="fill:#000000;stroke-width:0.53387409;stroke-linecap:butt;stroke-linejoin:round"
           id="path7492-4"
           cx="161.50233"
           cy="56.820946"
           rx="5.3065057"
           ry="5.3065042" />
        <ellipse
           style="fill:#000000;stroke-width:0.53387409;stroke-linecap:butt;stroke-linejoin:round"
           id="path7492-8"
           cx="87.672699"
           cy="54.513767"
           rx="5.3065057"
           ry="5.3065042" />
        <ellipse
           style="fill:#000000;stroke-width:0.53387409;stroke-linecap:butt;stroke-linejoin:round"
           id="path7492-6"
           cx="115.82024"
           cy="44.362194"
           rx="5.3065057"
           ry="5.3065042" />
        <ellipse
           style="fill:#000000;stroke-width:0.53387409;stroke-linecap:butt;stroke-linejoin:round"
           id="path7492-1"
           cx="160.57947"
           cy="44.362194"
           rx="5.3065057"
           ry="5.3065042" />
      </g>
      <g
         id="line2d_25">
        <path
           clip-path="url(#p33c2829edc)"
           d="M 87.664463 252  L 87.664463 34.56  "
           style="fill:none;stroke:#000000;stroke-dasharray:1.5,2.475;stroke-dashoffset:0;stroke-width:1.5;"
           id="path6767" />
      </g>
      <g
         id="line2d_26">
        <path
           clip-path="url(#p33c2829edc)"
           d="M 115.333884 252  L 115.333884 34.56  "
           style="fill:none;stroke:#000000;stroke-dasharray:1.5,2.475;stroke-dashoffset:0;stroke-width:1.5;"
           id="path6770" />
      </g>
      <g
         id="line2d_27">
        <path
           clip-path="url(#p33c2829edc)"
           d="M 161.449587 252  L 161.449587 34.56  "
           style="fill:none;stroke:#000000;stroke-dasharray:1.5,2.475;stroke-dashoffset:0;stroke-width:1.5;"
           id="path6773" />
      </g>
      <g
         id="patch_3">
        <path
           d="M 54 252  L 54 34.56  "
           style="fill:none;stroke:#000000;stroke-linecap:square;stroke-linejoin:miter;stroke-width:0.8;"
           id="path6776" />
      </g>
      <g
         id="patch_4">
        <path
           d="M 388.8 252  L 388.8 34.56  "
           style="fill:none;stroke:#000000;stroke-linecap:square;stroke-linejoin:miter;stroke-width:0.8;"
           id="path6779" />
      </g>
      <g
         id="patch_5">
        <path
           d="M 54 252  L 388.8 252  "
           style="fill:none;stroke:#000000;stroke-linecap:square;stroke-linejoin:miter;stroke-width:0.8;"
           id="path6782" />
      </g>
      <g
         id="patch_6">
        <path
           d="M 54 34.56  L 388.8 34.56  "
           style="fill:none;stroke:#000000;stroke-linecap:square;stroke-linejoin:miter;stroke-width:0.8;"
           id="path6785" />
      </g>
      <g
         id="legend_1">
        <g
           id="patch_7"
           transform="matrix(1,0,0,0.86038349,0,12.54559)"
           style="stroke-linecap:butt;stroke-linejoin:round">
          <path
             d="M 260.37875,248 H 383.2 q 1.6,0 1.6,-1.6 V 91.4575 q 0,-1.6 -1.6,-1.6 H 260.37875 q -1.6,0 -1.6,1.6 V 246.4 q 0,1.6 1.6,1.6 z"
             style="opacity:0.8;fill:#ffffff;stroke:#cccccc;stroke-linecap:butt;stroke-linejoin:miter"
             id="path6788"
             inkscape:connector-curvature="0" />
        </g>
        <g
           id="line2d_28">
          <path
             d="M 261.97875 96.33625  L 277.97875 96.33625  "
             style="fill:none;stroke:#000000;stroke-dasharray:18.5,8;stroke-dashoffset:0;stroke-width:5;"
             id="path6791" />
        </g>
        <g
           id="line2d_29" />
        <g
           id="text_14">
          <!-- Full CRN model -->
          <defs
             id="defs6804">
            <path
               d="M 9.8125 72.90625  L 51.703125 72.90625  L 51.703125 64.59375  L 19.671875 64.59375  L 19.671875 43.109375  L 48.578125 43.109375  L 48.578125 34.8125  L 19.671875 34.8125  L 19.671875 0  L 9.8125 0  z "
               id="DejaVuSans-70" />
            <path
               d="M 8.5 21.578125  L 8.5 54.6875  L 17.484375 54.6875  L 17.484375 21.921875  Q 17.484375 14.15625 20.5 10.265625  Q 23.53125 6.390625 29.59375 6.390625  Q 36.859375 6.390625 41.078125 11.03125  Q 45.3125 15.671875 45.3125 23.6875  L 45.3125 54.6875  L 54.296875 54.6875  L 54.296875 0  L 45.3125 0  L 45.3125 8.40625  Q 42.046875 3.421875 37.71875 1  Q 33.40625 -1.421875 27.6875 -1.421875  Q 18.265625 -1.421875 13.375 4.4375  Q 8.5 10.296875 8.5 21.578125  z M 31.109375 56  z "
               id="DejaVuSans-117" />
            <path
               d="M 9.421875 75.984375  L 18.40625 75.984375  L 18.40625 0  L 9.421875 0  z "
               id="DejaVuSans-108" />
            <path
               id="DejaVuSans-32" />
            <path
               d="M 64.40625 67.28125  L 64.40625 56.890625  Q 59.421875 61.53125 53.78125 63.8125  Q 48.140625 66.109375 41.796875 66.109375  Q 29.296875 66.109375 22.65625 58.46875  Q 16.015625 50.828125 16.015625 36.375  Q 16.015625 21.96875 22.65625 14.328125  Q 29.296875 6.6875 41.796875 6.6875  Q 48.140625 6.6875 53.78125 8.984375  Q 59.421875 11.28125 64.40625 15.921875  L 64.40625 5.609375  Q 59.234375 2.09375 53.4375 0.328125  Q 47.65625 -1.421875 41.21875 -1.421875  Q 24.65625 -1.421875 15.125 8.703125  Q 5.609375 18.84375 5.609375 36.375  Q 5.609375 53.953125 15.125 64.078125  Q 24.65625 74.21875 41.21875 74.21875  Q 47.75 74.21875 53.53125 72.484375  Q 59.328125 70.75 64.40625 67.28125  z "
               id="DejaVuSans-67" />
            <path
               d="M 44.390625 34.1875  Q 47.5625 33.109375 50.5625 29.59375  Q 53.5625 26.078125 56.59375 19.921875  L 66.609375 0  L 56 0  L 46.6875 18.703125  Q 43.0625 26.03125 39.671875 28.421875  Q 36.28125 30.8125 30.421875 30.8125  L 19.671875 30.8125  L 19.671875 0  L 9.8125 0  L 9.8125 72.90625  L 32.078125 72.90625  Q 44.578125 72.90625 50.734375 67.671875  Q 56.890625 62.453125 56.890625 51.90625  Q 56.890625 45.015625 53.6875 40.46875  Q 50.484375 35.9375 44.390625 34.1875  z M 19.671875 64.796875  L 19.671875 38.921875  L 32.078125 38.921875  Q 39.203125 38.921875 42.84375 42.21875  Q 46.484375 45.515625 46.484375 51.90625  Q 46.484375 58.296875 42.84375 61.546875  Q 39.203125 64.796875 32.078125 64.796875  z "
               id="DejaVuSans-82" />
            <path
               d="M 9.8125 72.90625  L 23.09375 72.90625  L 55.421875 11.921875  L 55.421875 72.90625  L 64.984375 72.90625  L 64.984375 0  L 51.703125 0  L 19.390625 60.984375  L 19.390625 0  L 9.8125 0  z "
               id="DejaVuSans-78" />
            <path
               d="M 30.609375 48.390625  Q 23.390625 48.390625 19.1875 42.75  Q 14.984375 37.109375 14.984375 27.296875  Q 14.984375 17.484375 19.15625 11.84375  Q 23.34375 6.203125 30.609375 6.203125  Q 37.796875 6.203125 41.984375 11.859375  Q 46.1875 17.53125 46.1875 27.296875  Q 46.1875 37.015625 41.984375 42.703125  Q 37.796875 48.390625 30.609375 48.390625  z M 30.609375 56  Q 42.328125 56 49.015625 48.375  Q 55.71875 40.765625 55.71875 27.296875  Q 55.71875 13.875 49.015625 6.21875  Q 42.328125 -1.421875 30.609375 -1.421875  Q 18.84375 -1.421875 12.171875 6.21875  Q 5.515625 13.875 5.515625 27.296875  Q 5.515625 40.765625 12.171875 48.375  Q 18.84375 56 30.609375 56  z "
               id="DejaVuSans-111" />
            <path
               d="M 45.40625 46.390625  L 45.40625 75.984375  L 54.390625 75.984375  L 54.390625 0  L 45.40625 0  L 45.40625 8.203125  Q 42.578125 3.328125 38.25 0.953125  Q 33.9375 -1.421875 27.875 -1.421875  Q 17.96875 -1.421875 11.734375 6.484375  Q 5.515625 14.40625 5.515625 27.296875  Q 5.515625 40.1875 11.734375 48.09375  Q 17.96875 56 27.875 56  Q 33.9375 56 38.25 53.625  Q 42.578125 51.265625 45.40625 46.390625  z M 14.796875 27.296875  Q 14.796875 17.390625 18.875 11.75  Q 22.953125 6.109375 30.078125 6.109375  Q 37.203125 6.109375 41.296875 11.75  Q 45.40625 17.390625 45.40625 27.296875  Q 45.40625 37.203125 41.296875 42.84375  Q 37.203125 48.484375 30.078125 48.484375  Q 22.953125 48.484375 18.875 42.84375  Q 14.796875 37.203125 14.796875 27.296875  z "
               id="DejaVuSans-100" />
          </defs>
          <g
             transform="translate(284.37875 99.13625)scale(0.08 -0.08)"
             id="g6834">
            <use
               xlink:href="#DejaVuSans-70"
               id="use6806" />
            <use
               x="57.441406"
               xlink:href="#DejaVuSans-117"
               id="use6808" />
            <use
               x="120.820312"
               xlink:href="#DejaVuSans-108"
               id="use6810" />
            <use
               x="148.603516"
               xlink:href="#DejaVuSans-108"
               id="use6812" />
            <use
               x="176.386719"
               xlink:href="#DejaVuSans-32"
               id="use6814" />
            <use
               x="208.173828"
               xlink:href="#DejaVuSans-67"
               id="use6816" />
            <use
               x="277.998047"
               xlink:href="#DejaVuSans-82"
               id="use6818" />
            <use
               x="347.480469"
               xlink:href="#DejaVuSans-78"
               id="use6820" />
            <use
               x="422.285156"
               xlink:href="#DejaVuSans-32"
               id="use6822" />
            <use
               x="454.072266"
               xlink:href="#DejaVuSans-109"
               id="use6824" />
            <use
               x="551.484375"
               xlink:href="#DejaVuSans-111"
               id="use6826" />
            <use
               x="612.666016"
               xlink:href="#DejaVuSans-100"
               id="use6828" />
            <use
               x="676.142578"
               xlink:href="#DejaVuSans-101"
               id="use6830" />
            <use
               x="737.666016"
               xlink:href="#DejaVuSans-108"
               id="use6832" />
          </g>
        </g>
        <g
           id="line2d_30">
          <path
             d="M 261.97875 108.11375  L 277.97875 108.11375  "
             style="fill:none;stroke:#1f77b4;stroke-linecap:square;stroke-width:2;"
             id="path6837" />
        </g>
        <g
           id="line2d_31" />
        <g
           id="text_15">
          <!-- [X], ||e|| = 12.57 -->
          <defs
             id="defs6846">
            <path
               d="M 11.71875 12.40625  L 22.015625 12.40625  L 22.015625 4  L 14.015625 -11.625  L 7.71875 -11.625  L 11.71875 4  z "
               id="DejaVuSans-44" />
            <path
               d="M 21 76.421875  L 21 -23.578125  L 12.703125 -23.578125  L 12.703125 76.421875  z "
               id="DejaVuSans-124" />
            <path
               d="M 10.59375 45.40625  L 73.1875 45.40625  L 73.1875 37.203125  L 10.59375 37.203125  z M 10.59375 25.484375  L 73.1875 25.484375  L 73.1875 17.1875  L 10.59375 17.1875  z "
               id="DejaVuSans-61" />
            <path
               d="M 10.6875 12.40625  L 21 12.40625  L 21 0  L 10.6875 0  z "
               id="DejaVuSans-46" />
            <path
               d="M 8.203125 72.90625  L 55.078125 72.90625  L 55.078125 68.703125  L 28.609375 0  L 18.3125 0  L 43.21875 64.59375  L 8.203125 64.59375  z "
               id="DejaVuSans-55" />
          </defs>
          <g
             transform="translate(284.37875 110.91375)scale(0.08 -0.08)"
             id="g6884">
            <use
               xlink:href="#DejaVuSans-91"
               id="use6848" />
            <use
               x="39.013672"
               xlink:href="#DejaVuSans-88"
               id="use6850" />
            <use
               x="107.519531"
               xlink:href="#DejaVuSans-93"
               id="use6852" />
            <use
               x="146.533203"
               xlink:href="#DejaVuSans-44"
               id="use6854" />
            <use
               x="178.320312"
               xlink:href="#DejaVuSans-32"
               id="use6856" />
            <use
               x="210.107422"
               xlink:href="#DejaVuSans-124"
               id="use6858" />
            <use
               x="243.798828"
               xlink:href="#DejaVuSans-124"
               id="use6860" />
            <use
               x="277.490234"
               xlink:href="#DejaVuSans-101"
               id="use6862" />
            <use
               x="339.013672"
               xlink:href="#DejaVuSans-124"
               id="use6864" />
            <use
               x="372.705078"
               xlink:href="#DejaVuSans-124"
               id="use6866" />
            <use
               x="406.396484"
               xlink:href="#DejaVuSans-32"
               id="use6868" />
            <use
               x="438.183594"
               xlink:href="#DejaVuSans-61"
               id="use6870" />
            <use
               x="521.972656"
               xlink:href="#DejaVuSans-32"
               id="use6872" />
            <use
               x="553.759766"
               xlink:href="#DejaVuSans-49"
               id="use6874" />
            <use
               x="617.382812"
               xlink:href="#DejaVuSans-50"
               id="use6876" />
            <use
               x="681.005859"
               xlink:href="#DejaVuSans-46"
               id="use6878" />
            <use
               x="712.792969"
               xlink:href="#DejaVuSans-53"
               id="use6880" />
            <use
               x="776.416016"
               xlink:href="#DejaVuSans-55"
               id="use6882" />
          </g>
        </g>
        <g
           id="line2d_32">
          <path
             d="M 261.97875 120.11375  L 277.97875 120.11375  "
             style="fill:none;stroke:#ff7f0e;stroke-linecap:square;stroke-width:2;"
             id="path6887" />
        </g>
        <g
           id="line2d_33" />
        <g
           id="text_16">
          <!-- [P, X], ||e|| = 12.33 -->
          <defs
             id="defs6892">
            <path
               d="M 19.671875 64.796875  L 19.671875 37.40625  L 32.078125 37.40625  Q 38.96875 37.40625 42.71875 40.96875  Q 46.484375 44.53125 46.484375 51.125  Q 46.484375 57.671875 42.71875 61.234375  Q 38.96875 64.796875 32.078125 64.796875  z M 9.8125 72.90625  L 32.078125 72.90625  Q 44.34375 72.90625 50.609375 67.359375  Q 56.890625 61.8125 56.890625 51.125  Q 56.890625 40.328125 50.609375 34.8125  Q 44.34375 29.296875 32.078125 29.296875  L 19.671875 29.296875  L 19.671875 0  L 9.8125 0  z "
               id="DejaVuSans-80" />
          </defs>
          <g
             transform="translate(284.37875 122.91375)scale(0.08 -0.08)"
             id="g6936">
            <use
               xlink:href="#DejaVuSans-91"
               id="use6894" />
            <use
               x="39.013672"
               xlink:href="#DejaVuSans-80"
               id="use6896" />
            <use
               x="99.316406"
               xlink:href="#DejaVuSans-44"
               id="use6898" />
            <use
               x="131.103516"
               xlink:href="#DejaVuSans-32"
               id="use6900" />
            <use
               x="162.890625"
               xlink:href="#DejaVuSans-88"
               id="use6902" />
            <use
               x="231.396484"
               xlink:href="#DejaVuSans-93"
               id="use6904" />
            <use
               x="270.410156"
               xlink:href="#DejaVuSans-44"
               id="use6906" />
            <use
               x="302.197266"
               xlink:href="#DejaVuSans-32"
               id="use6908" />
            <use
               x="333.984375"
               xlink:href="#DejaVuSans-124"
               id="use6910" />
            <use
               x="367.675781"
               xlink:href="#DejaVuSans-124"
               id="use6912" />
            <use
               x="401.367188"
               xlink:href="#DejaVuSans-101"
               id="use6914" />
            <use
               x="462.890625"
               xlink:href="#DejaVuSans-124"
               id="use6916" />
            <use
               x="496.582031"
               xlink:href="#DejaVuSans-124"
               id="use6918" />
            <use
               x="530.273438"
               xlink:href="#DejaVuSans-32"
               id="use6920" />
            <use
               x="562.060547"
               xlink:href="#DejaVuSans-61"
               id="use6922" />
            <use
               x="645.849609"
               xlink:href="#DejaVuSans-32"
               id="use6924" />
            <use
               x="677.636719"
               xlink:href="#DejaVuSans-49"
               id="use6926" />
            <use
               x="741.259766"
               xlink:href="#DejaVuSans-50"
               id="use6928" />
            <use
               x="804.882812"
               xlink:href="#DejaVuSans-46"
               id="use6930" />
            <use
               x="836.669922"
               xlink:href="#DejaVuSans-51"
               id="use6932" />
            <use
               x="900.292969"
               xlink:href="#DejaVuSans-51"
               id="use6934" />
          </g>
        </g>
        <g
           id="line2d_34">
          <path
             d="M 261.97875 132.11375  L 277.97875 132.11375  "
             style="fill:none;stroke:#2ca02c;stroke-linecap:square;stroke-width:2;"
             id="path6939" />
        </g>
        <g
           id="line2d_35" />
        <g
           id="text_17">
          <!-- [T, X], ||e|| = 12.57 -->
          <g
             transform="translate(284.37875 134.91375)scale(0.08 -0.08)"
             id="g6985">
            <use
               xlink:href="#DejaVuSans-91"
               id="use6943" />
            <use
               x="39.013672"
               xlink:href="#DejaVuSans-84"
               id="use6945" />
            <use
               x="100.097656"
               xlink:href="#DejaVuSans-44"
               id="use6947" />
            <use
               x="131.884766"
               xlink:href="#DejaVuSans-32"
               id="use6949" />
            <use
               x="163.671875"
               xlink:href="#DejaVuSans-88"
               id="use6951" />
            <use
               x="232.177734"
               xlink:href="#DejaVuSans-93"
               id="use6953" />
            <use
               x="271.191406"
               xlink:href="#DejaVuSans-44"
               id="use6955" />
            <use
               x="302.978516"
               xlink:href="#DejaVuSans-32"
               id="use6957" />
            <use
               x="334.765625"
               xlink:href="#DejaVuSans-124"
               id="use6959" />
            <use
               x="368.457031"
               xlink:href="#DejaVuSans-124"
               id="use6961" />
            <use
               x="402.148438"
               xlink:href="#DejaVuSans-101"
               id="use6963" />
            <use
               x="463.671875"
               xlink:href="#DejaVuSans-124"
               id="use6965" />
            <use
               x="497.363281"
               xlink:href="#DejaVuSans-124"
               id="use6967" />
            <use
               x="531.054688"
               xlink:href="#DejaVuSans-32"
               id="use6969" />
            <use
               x="562.841797"
               xlink:href="#DejaVuSans-61"
               id="use6971" />
            <use
               x="646.630859"
               xlink:href="#DejaVuSans-32"
               id="use6973" />
            <use
               x="678.417969"
               xlink:href="#DejaVuSans-49"
               id="use6975" />
            <use
               x="742.041016"
               xlink:href="#DejaVuSans-50"
               id="use6977" />
            <use
               x="805.664062"
               xlink:href="#DejaVuSans-46"
               id="use6979" />
            <use
               x="837.451172"
               xlink:href="#DejaVuSans-53"
               id="use6981" />
            <use
               x="901.074219"
               xlink:href="#DejaVuSans-55"
               id="use6983" />
          </g>
        </g>
        <g
           id="line2d_36">
          <path
             d="M 261.97875 144.11375  L 277.97875 144.11375  "
             style="fill:none;stroke:#d62728;stroke-linecap:square;stroke-width:2;"
             id="path6988" />
        </g>
        <g
           id="line2d_37" />
        <g
           id="text_18">
          <!-- [R, X], ||e|| = 0.24 -->
          <g
             transform="translate(284.37875 146.91375)scale(0.08 -0.08)"
             id="g7032">
            <use
               xlink:href="#DejaVuSans-91"
               id="use6992" />
            <use
               x="39.013672"
               xlink:href="#DejaVuSans-82"
               id="use6994" />
            <use
               x="108.496094"
               xlink:href="#DejaVuSans-44"
               id="use6996" />
            <use
               x="140.283203"
               xlink:href="#DejaVuSans-32"
               id="use6998" />
            <use
               x="172.070312"
               xlink:href="#DejaVuSans-88"
               id="use7000" />
            <use
               x="240.576172"
               xlink:href="#DejaVuSans-93"
               id="use7002" />
            <use
               x="279.589844"
               xlink:href="#DejaVuSans-44"
               id="use7004" />
            <use
               x="311.376953"
               xlink:href="#DejaVuSans-32"
               id="use7006" />
            <use
               x="343.164062"
               xlink:href="#DejaVuSans-124"
               id="use7008" />
            <use
               x="376.855469"
               xlink:href="#DejaVuSans-124"
               id="use7010" />
            <use
               x="410.546875"
               xlink:href="#DejaVuSans-101"
               id="use7012" />
            <use
               x="472.070312"
               xlink:href="#DejaVuSans-124"
               id="use7014" />
            <use
               x="505.761719"
               xlink:href="#DejaVuSans-124"
               id="use7016" />
            <use
               x="539.453125"
               xlink:href="#DejaVuSans-32"
               id="use7018" />
            <use
               x="571.240234"
               xlink:href="#DejaVuSans-61"
               id="use7020" />
            <use
               x="655.029297"
               xlink:href="#DejaVuSans-32"
               id="use7022" />
            <use
               x="686.816406"
               xlink:href="#DejaVuSans-48"
               id="use7024" />
            <use
               x="750.439453"
               xlink:href="#DejaVuSans-46"
               id="use7026" />
            <use
               x="782.226562"
               xlink:href="#DejaVuSans-50"
               id="use7028" />
            <use
               x="845.849609"
               xlink:href="#DejaVuSans-52"
               id="use7030" />
          </g>
        </g>
        <g
           id="line2d_38">
          <path
             d="M 261.97875 156.11375  L 277.97875 156.11375  "
             style="fill:none;stroke:#9467bd;stroke-linecap:square;stroke-width:2;"
             id="path7035" />
        </g>
        <g
           id="line2d_39" />
        <g
           id="text_19">
          <!-- [E, X], ||e|| = 12.57 -->
          <defs
             id="defs7040">
            <path
               d="M 9.8125 72.90625  L 55.90625 72.90625  L 55.90625 64.59375  L 19.671875 64.59375  L 19.671875 43.015625  L 54.390625 43.015625  L 54.390625 34.71875  L 19.671875 34.71875  L 19.671875 8.296875  L 56.78125 8.296875  L 56.78125 0  L 9.8125 0  z "
               id="DejaVuSans-69" />
          </defs>
          <g
             transform="translate(284.37875 158.91375)scale(0.08 -0.08)"
             id="g7084">
            <use
               xlink:href="#DejaVuSans-91"
               id="use7042" />
            <use
               x="39.013672"
               xlink:href="#DejaVuSans-69"
               id="use7044" />
            <use
               x="102.197266"
               xlink:href="#DejaVuSans-44"
               id="use7046" />
            <use
               x="133.984375"
               xlink:href="#DejaVuSans-32"
               id="use7048" />
            <use
               x="165.771484"
               xlink:href="#DejaVuSans-88"
               id="use7050" />
            <use
               x="234.277344"
               xlink:href="#DejaVuSans-93"
               id="use7052" />
            <use
               x="273.291016"
               xlink:href="#DejaVuSans-44"
               id="use7054" />
            <use
               x="305.078125"
               xlink:href="#DejaVuSans-32"
               id="use7056" />
            <use
               x="336.865234"
               xlink:href="#DejaVuSans-124"
               id="use7058" />
            <use
               x="370.556641"
               xlink:href="#DejaVuSans-124"
               id="use7060" />
            <use
               x="404.248047"
               xlink:href="#DejaVuSans-101"
               id="use7062" />
            <use
               x="465.771484"
               xlink:href="#DejaVuSans-124"
               id="use7064" />
            <use
               x="499.462891"
               xlink:href="#DejaVuSans-124"
               id="use7066" />
            <use
               x="533.154297"
               xlink:href="#DejaVuSans-32"
               id="use7068" />
            <use
               x="564.941406"
               xlink:href="#DejaVuSans-61"
               id="use7070" />
            <use
               x="648.730469"
               xlink:href="#DejaVuSans-32"
               id="use7072" />
            <use
               x="680.517578"
               xlink:href="#DejaVuSans-49"
               id="use7074" />
            <use
               x="744.140625"
               xlink:href="#DejaVuSans-50"
               id="use7076" />
            <use
               x="807.763672"
               xlink:href="#DejaVuSans-46"
               id="use7078" />
            <use
               x="839.550781"
               xlink:href="#DejaVuSans-53"
               id="use7080" />
            <use
               x="903.173828"
               xlink:href="#DejaVuSans-55"
               id="use7082" />
          </g>
        </g>
        <g
           id="line2d_40">
          <path
             d="M 261.97875 168.11375  L 277.97875 168.11375  "
             style="fill:none;stroke:#8c564b;stroke-linecap:square;stroke-width:2;"
             id="path7087" />
        </g>
        <g
           id="line2d_41" />
        <g
           id="text_20">
          <!-- [P, T, X], ||e|| = 12.33 -->
          <g
             transform="translate(284.37875 170.91375)scale(0.08 -0.08)"
             id="g7139">
            <use
               xlink:href="#DejaVuSans-91"
               id="use7091" />
            <use
               x="39.013672"
               xlink:href="#DejaVuSans-80"
               id="use7093" />
            <use
               x="99.316406"
               xlink:href="#DejaVuSans-44"
               id="use7095" />
            <use
               x="131.103516"
               xlink:href="#DejaVuSans-32"
               id="use7097" />
            <use
               x="162.890625"
               xlink:href="#DejaVuSans-84"
               id="use7099" />
            <use
               x="223.974609"
               xlink:href="#DejaVuSans-44"
               id="use7101" />
            <use
               x="255.761719"
               xlink:href="#DejaVuSans-32"
               id="use7103" />
            <use
               x="287.548828"
               xlink:href="#DejaVuSans-88"
               id="use7105" />
            <use
               x="356.054688"
               xlink:href="#DejaVuSans-93"
               id="use7107" />
            <use
               x="395.068359"
               xlink:href="#DejaVuSans-44"
               id="use7109" />
            <use
               x="426.855469"
               xlink:href="#DejaVuSans-32"
               id="use7111" />
            <use
               x="458.642578"
               xlink:href="#DejaVuSans-124"
               id="use7113" />
            <use
               x="492.333984"
               xlink:href="#DejaVuSans-124"
               id="use7115" />
            <use
               x="526.025391"
               xlink:href="#DejaVuSans-101"
               id="use7117" />
            <use
               x="587.548828"
               xlink:href="#DejaVuSans-124"
               id="use7119" />
            <use
               x="621.240234"
               xlink:href="#DejaVuSans-124"
               id="use7121" />
            <use
               x="654.931641"
               xlink:href="#DejaVuSans-32"
               id="use7123" />
            <use
               x="686.71875"
               xlink:href="#DejaVuSans-61"
               id="use7125" />
            <use
               x="770.507812"
               xlink:href="#DejaVuSans-32"
               id="use7127" />
            <use
               x="802.294922"
               xlink:href="#DejaVuSans-49"
               id="use7129" />
            <use
               x="865.917969"
               xlink:href="#DejaVuSans-50"
               id="use7131" />
            <use
               x="929.541016"
               xlink:href="#DejaVuSans-46"
               id="use7133" />
            <use
               x="961.328125"
               xlink:href="#DejaVuSans-51"
               id="use7135" />
            <use
               x="1024.951172"
               xlink:href="#DejaVuSans-51"
               id="use7137" />
          </g>
        </g>
        <g
           id="line2d_42">
          <path
             d="M 261.97875 180.11375  L 277.97875 180.11375  "
             style="fill:none;stroke:#e377c2;stroke-linecap:square;stroke-width:2;"
             id="path7142" />
        </g>
        <g
           id="line2d_43" />
        <g
           id="text_21">
          <!-- [P, E, X], ||e|| = 12.33 -->
          <g
             transform="translate(284.37875 182.91375)scale(0.08 -0.08)"
             id="g7194">
            <use
               xlink:href="#DejaVuSans-91"
               id="use7146" />
            <use
               x="39.013672"
               xlink:href="#DejaVuSans-80"
               id="use7148" />
            <use
               x="99.316406"
               xlink:href="#DejaVuSans-44"
               id="use7150" />
            <use
               x="131.103516"
               xlink:href="#DejaVuSans-32"
               id="use7152" />
            <use
               x="162.890625"
               xlink:href="#DejaVuSans-69"
               id="use7154" />
            <use
               x="226.074219"
               xlink:href="#DejaVuSans-44"
               id="use7156" />
            <use
               x="257.861328"
               xlink:href="#DejaVuSans-32"
               id="use7158" />
            <use
               x="289.648438"
               xlink:href="#DejaVuSans-88"
               id="use7160" />
            <use
               x="358.154297"
               xlink:href="#DejaVuSans-93"
               id="use7162" />
            <use
               x="397.167969"
               xlink:href="#DejaVuSans-44"
               id="use7164" />
            <use
               x="428.955078"
               xlink:href="#DejaVuSans-32"
               id="use7166" />
            <use
               x="460.742188"
               xlink:href="#DejaVuSans-124"
               id="use7168" />
            <use
               x="494.433594"
               xlink:href="#DejaVuSans-124"
               id="use7170" />
            <use
               x="528.125"
               xlink:href="#DejaVuSans-101"
               id="use7172" />
            <use
               x="589.648438"
               xlink:href="#DejaVuSans-124"
               id="use7174" />
            <use
               x="623.339844"
               xlink:href="#DejaVuSans-124"
               id="use7176" />
            <use
               x="657.03125"
               xlink:href="#DejaVuSans-32"
               id="use7178" />
            <use
               x="688.818359"
               xlink:href="#DejaVuSans-61"
               id="use7180" />
            <use
               x="772.607422"
               xlink:href="#DejaVuSans-32"
               id="use7182" />
            <use
               x="804.394531"
               xlink:href="#DejaVuSans-49"
               id="use7184" />
            <use
               x="868.017578"
               xlink:href="#DejaVuSans-50"
               id="use7186" />
            <use
               x="931.640625"
               xlink:href="#DejaVuSans-46"
               id="use7188" />
            <use
               x="963.427734"
               xlink:href="#DejaVuSans-51"
               id="use7190" />
            <use
               x="1027.050781"
               xlink:href="#DejaVuSans-51"
               id="use7192" />
          </g>
        </g>
        <g
           id="line2d_44">
          <path
             d="M 261.97875 192.11375  L 277.97875 192.11375  "
             style="fill:none;stroke:#7f7f7f;stroke-linecap:square;stroke-width:2;"
             id="path7197" />
        </g>
        <g
           id="line2d_45" />
        <g
           id="text_22">
          <!-- [T, R, X], ||e|| = 0.24 -->
          <g
             transform="translate(284.37875 194.91375)scale(0.08 -0.08)"
             id="g7247">
            <use
               xlink:href="#DejaVuSans-91"
               id="use7201" />
            <use
               x="39.013672"
               xlink:href="#DejaVuSans-84"
               id="use7203" />
            <use
               x="100.097656"
               xlink:href="#DejaVuSans-44"
               id="use7205" />
            <use
               x="131.884766"
               xlink:href="#DejaVuSans-32"
               id="use7207" />
            <use
               x="163.671875"
               xlink:href="#DejaVuSans-82"
               id="use7209" />
            <use
               x="233.154297"
               xlink:href="#DejaVuSans-44"
               id="use7211" />
            <use
               x="264.941406"
               xlink:href="#DejaVuSans-32"
               id="use7213" />
            <use
               x="296.728516"
               xlink:href="#DejaVuSans-88"
               id="use7215" />
            <use
               x="365.234375"
               xlink:href="#DejaVuSans-93"
               id="use7217" />
            <use
               x="404.248047"
               xlink:href="#DejaVuSans-44"
               id="use7219" />
            <use
               x="436.035156"
               xlink:href="#DejaVuSans-32"
               id="use7221" />
            <use
               x="467.822266"
               xlink:href="#DejaVuSans-124"
               id="use7223" />
            <use
               x="501.513672"
               xlink:href="#DejaVuSans-124"
               id="use7225" />
            <use
               x="535.205078"
               xlink:href="#DejaVuSans-101"
               id="use7227" />
            <use
               x="596.728516"
               xlink:href="#DejaVuSans-124"
               id="use7229" />
            <use
               x="630.419922"
               xlink:href="#DejaVuSans-124"
               id="use7231" />
            <use
               x="664.111328"
               xlink:href="#DejaVuSans-32"
               id="use7233" />
            <use
               x="695.898438"
               xlink:href="#DejaVuSans-61"
               id="use7235" />
            <use
               x="779.6875"
               xlink:href="#DejaVuSans-32"
               id="use7237" />
            <use
               x="811.474609"
               xlink:href="#DejaVuSans-48"
               id="use7239" />
            <use
               x="875.097656"
               xlink:href="#DejaVuSans-46"
               id="use7241" />
            <use
               x="906.884766"
               xlink:href="#DejaVuSans-50"
               id="use7243" />
            <use
               x="970.507812"
               xlink:href="#DejaVuSans-52"
               id="use7245" />
          </g>
        </g>
        <g
           id="line2d_46">
          <path
             d="M 261.97875 204.11375  L 277.97875 204.11375  "
             style="fill:none;stroke:#bcbd22;stroke-linecap:square;stroke-width:2;"
             id="path7250" />
        </g>
        <g
           id="line2d_47" />
        <g
           id="text_23">
          <!-- [T, E, X], ||e|| = 12.57 -->
          <g
             transform="translate(284.37875 206.91375)scale(0.08 -0.08)"
             id="g7302">
            <use
               xlink:href="#DejaVuSans-91"
               id="use7254" />
            <use
               x="39.013672"
               xlink:href="#DejaVuSans-84"
               id="use7256" />
            <use
               x="100.097656"
               xlink:href="#DejaVuSans-44"
               id="use7258" />
            <use
               x="131.884766"
               xlink:href="#DejaVuSans-32"
               id="use7260" />
            <use
               x="163.671875"
               xlink:href="#DejaVuSans-69"
               id="use7262" />
            <use
               x="226.855469"
               xlink:href="#DejaVuSans-44"
               id="use7264" />
            <use
               x="258.642578"
               xlink:href="#DejaVuSans-32"
               id="use7266" />
            <use
               x="290.429688"
               xlink:href="#DejaVuSans-88"
               id="use7268" />
            <use
               x="358.935547"
               xlink:href="#DejaVuSans-93"
               id="use7270" />
            <use
               x="397.949219"
               xlink:href="#DejaVuSans-44"
               id="use7272" />
            <use
               x="429.736328"
               xlink:href="#DejaVuSans-32"
               id="use7274" />
            <use
               x="461.523438"
               xlink:href="#DejaVuSans-124"
               id="use7276" />
            <use
               x="495.214844"
               xlink:href="#DejaVuSans-124"
               id="use7278" />
            <use
               x="528.90625"
               xlink:href="#DejaVuSans-101"
               id="use7280" />
            <use
               x="590.429688"
               xlink:href="#DejaVuSans-124"
               id="use7282" />
            <use
               x="624.121094"
               xlink:href="#DejaVuSans-124"
               id="use7284" />
            <use
               x="657.8125"
               xlink:href="#DejaVuSans-32"
               id="use7286" />
            <use
               x="689.599609"
               xlink:href="#DejaVuSans-61"
               id="use7288" />
            <use
               x="773.388672"
               xlink:href="#DejaVuSans-32"
               id="use7290" />
            <use
               x="805.175781"
               xlink:href="#DejaVuSans-49"
               id="use7292" />
            <use
               x="868.798828"
               xlink:href="#DejaVuSans-50"
               id="use7294" />
            <use
               x="932.421875"
               xlink:href="#DejaVuSans-46"
               id="use7296" />
            <use
               x="964.208984"
               xlink:href="#DejaVuSans-53"
               id="use7298" />
            <use
               x="1027.832031"
               xlink:href="#DejaVuSans-55"
               id="use7300" />
          </g>
        </g>
        <g
           id="line2d_48">
          <path
             d="M 261.97875 216.11375  L 277.97875 216.11375  "
             style="fill:none;stroke:#17becf;stroke-linecap:square;stroke-width:2;"
             id="path7305" />
        </g>
        <g
           id="line2d_49" />
        <g
           id="text_24">
          <!-- [R, E, X], ||e|| = 0.24 -->
          <g
             transform="translate(284.37875 218.91375)scale(0.08 -0.08)"
             id="g7355">
            <use
               xlink:href="#DejaVuSans-91"
               id="use7309" />
            <use
               x="39.013672"
               xlink:href="#DejaVuSans-82"
               id="use7311" />
            <use
               x="108.496094"
               xlink:href="#DejaVuSans-44"
               id="use7313" />
            <use
               x="140.283203"
               xlink:href="#DejaVuSans-32"
               id="use7315" />
            <use
               x="172.070312"
               xlink:href="#DejaVuSans-69"
               id="use7317" />
            <use
               x="235.253906"
               xlink:href="#DejaVuSans-44"
               id="use7319" />
            <use
               x="267.041016"
               xlink:href="#DejaVuSans-32"
               id="use7321" />
            <use
               x="298.828125"
               xlink:href="#DejaVuSans-88"
               id="use7323" />
            <use
               x="367.333984"
               xlink:href="#DejaVuSans-93"
               id="use7325" />
            <use
               x="406.347656"
               xlink:href="#DejaVuSans-44"
               id="use7327" />
            <use
               x="438.134766"
               xlink:href="#DejaVuSans-32"
               id="use7329" />
            <use
               x="469.921875"
               xlink:href="#DejaVuSans-124"
               id="use7331" />
            <use
               x="503.613281"
               xlink:href="#DejaVuSans-124"
               id="use7333" />
            <use
               x="537.304688"
               xlink:href="#DejaVuSans-101"
               id="use7335" />
            <use
               x="598.828125"
               xlink:href="#DejaVuSans-124"
               id="use7337" />
            <use
               x="632.519531"
               xlink:href="#DejaVuSans-124"
               id="use7339" />
            <use
               x="666.210938"
               xlink:href="#DejaVuSans-32"
               id="use7341" />
            <use
               x="697.998047"
               xlink:href="#DejaVuSans-61"
               id="use7343" />
            <use
               x="781.787109"
               xlink:href="#DejaVuSans-32"
               id="use7345" />
            <use
               x="813.574219"
               xlink:href="#DejaVuSans-48"
               id="use7347" />
            <use
               x="877.197266"
               xlink:href="#DejaVuSans-46"
               id="use7349" />
            <use
               x="908.984375"
               xlink:href="#DejaVuSans-50"
               id="use7351" />
            <use
               x="972.607422"
               xlink:href="#DejaVuSans-52"
               id="use7353" />
          </g>
        </g>
        <g
           id="line2d_51" />
        <g
           id="line2d_53" />
      </g>
    </g>
  </g>
  <defs
     id="defs7484">
    <clipPath
       id="p33c2829edc">
      <rect
         height="217.44"
         width="334.8"
         x="54"
         y="34.56"
         id="rect7481" />
    </clipPath>
  </defs>
</svg>
