<?xml version="1.0" encoding="utf-8" standalone="no"?>
<!DOCTYPE svg PUBLIC "-//W3C//DTD SVG 1.1//EN"
  "http://www.w3.org/Graphics/SVG/1.1/DTD/svg11.dtd">
<!-- Created with matplotlib (https://matplotlib.org/) -->
<svg height="288pt" version="1.1" viewBox="0 0 432 288" width="432pt" xmlns="http://www.w3.org/2000/svg" xmlns:xlink="http://www.w3.org/1999/xlink">
 <defs>
  <style type="text/css">
*{stroke-linecap:butt;stroke-linejoin:round;}
  </style>
 </defs>
 <g id="figure_1">
  <g id="patch_1">
   <path d="M 0 288 
L 432 288 
L 432 0 
L 0 0 
z
" style="fill:#ffffff;"/>
  </g>
  <g id="axes_1">
   <g id="patch_2">
    <path d="M 54 252 
L 388.8 252 
L 388.8 34.56 
L 54 34.56 
z
" style="fill:#ffffff;"/>
   </g>
   <g id="matplotlib.axis_1">
    <g id="xtick_1">
     <g id="line2d_1">
      <defs>
       <path d="M 0 0 
L 0 3.5 
" id="m7026404eb8" style="stroke:#000000;stroke-width:0.8;"/>
      </defs>
      <g>
       <use style="stroke:#000000;stroke-width:0.8;" x="69.218182" xlink:href="#m7026404eb8" y="252"/>
      </g>
     </g>
     <g id="text_1">
      <!-- 0 -->
      <defs>
       <path d="M 31.78125 66.40625 
Q 24.171875 66.40625 20.328125 58.90625 
Q 16.5 51.421875 16.5 36.375 
Q 16.5 21.390625 20.328125 13.890625 
Q 24.171875 6.390625 31.78125 6.390625 
Q 39.453125 6.390625 43.28125 13.890625 
Q 47.125 21.390625 47.125 36.375 
Q 47.125 51.421875 43.28125 58.90625 
Q 39.453125 66.40625 31.78125 66.40625 
z
M 31.78125 74.21875 
Q 44.046875 74.21875 50.515625 64.515625 
Q 56.984375 54.828125 56.984375 36.375 
Q 56.984375 17.96875 50.515625 8.265625 
Q 44.046875 -1.421875 31.78125 -1.421875 
Q 19.53125 -1.421875 13.0625 8.265625 
Q 6.59375 17.96875 6.59375 36.375 
Q 6.59375 54.828125 13.0625 64.515625 
Q 19.53125 74.21875 31.78125 74.21875 
z
" id="DejaVuSans-48"/>
      </defs>
      <g transform="translate(64.764432 269.637812)scale(0.14 -0.14)">
       <use xlink:href="#DejaVuSans-48"/>
      </g>
     </g>
    </g>
    <g id="xtick_2">
     <g id="line2d_2">
      <g>
       <use style="stroke:#000000;stroke-width:0.8;" x="132.627273" xlink:href="#m7026404eb8" y="252"/>
      </g>
     </g>
     <g id="text_2">
      <!-- 5 -->
      <defs>
       <path d="M 10.796875 72.90625 
L 49.515625 72.90625 
L 49.515625 64.59375 
L 19.828125 64.59375 
L 19.828125 46.734375 
Q 21.96875 47.46875 24.109375 47.828125 
Q 26.265625 48.1875 28.421875 48.1875 
Q 40.625 48.1875 47.75 41.5 
Q 54.890625 34.8125 54.890625 23.390625 
Q 54.890625 11.625 47.5625 5.09375 
Q 40.234375 -1.421875 26.90625 -1.421875 
Q 22.3125 -1.421875 17.546875 -0.640625 
Q 12.796875 0.140625 7.71875 1.703125 
L 7.71875 11.625 
Q 12.109375 9.234375 16.796875 8.0625 
Q 21.484375 6.890625 26.703125 6.890625 
Q 35.15625 6.890625 40.078125 11.328125 
Q 45.015625 15.765625 45.015625 23.390625 
Q 45.015625 31 40.078125 35.4375 
Q 35.15625 39.890625 26.703125 39.890625 
Q 22.75 39.890625 18.8125 39.015625 
Q 14.890625 38.140625 10.796875 36.28125 
z
" id="DejaVuSans-53"/>
      </defs>
      <g transform="translate(128.173523 269.637812)scale(0.14 -0.14)">
       <use xlink:href="#DejaVuSans-53"/>
      </g>
     </g>
    </g>
    <g id="xtick_3">
     <g id="line2d_3">
      <g>
       <use style="stroke:#000000;stroke-width:0.8;" x="196.036364" xlink:href="#m7026404eb8" y="252"/>
      </g>
     </g>
     <g id="text_3">
      <!-- 10 -->
      <defs>
       <path d="M 12.40625 8.296875 
L 28.515625 8.296875 
L 28.515625 63.921875 
L 10.984375 60.40625 
L 10.984375 69.390625 
L 28.421875 72.90625 
L 38.28125 72.90625 
L 38.28125 8.296875 
L 54.390625 8.296875 
L 54.390625 0 
L 12.40625 0 
z
" id="DejaVuSans-49"/>
      </defs>
      <g transform="translate(187.128864 269.637812)scale(0.14 -0.14)">
       <use xlink:href="#DejaVuSans-49"/>
       <use x="63.623047" xlink:href="#DejaVuSans-48"/>
      </g>
     </g>
    </g>
    <g id="xtick_4">
     <g id="line2d_4">
      <g>
       <use style="stroke:#000000;stroke-width:0.8;" x="259.445455" xlink:href="#m7026404eb8" y="252"/>
      </g>
     </g>
     <g id="text_4">
      <!-- 15 -->
      <g transform="translate(250.537955 269.637812)scale(0.14 -0.14)">
       <use xlink:href="#DejaVuSans-49"/>
       <use x="63.623047" xlink:href="#DejaVuSans-53"/>
      </g>
     </g>
    </g>
    <g id="xtick_5">
     <g id="line2d_5">
      <g>
       <use style="stroke:#000000;stroke-width:0.8;" x="322.854545" xlink:href="#m7026404eb8" y="252"/>
      </g>
     </g>
     <g id="text_5">
      <!-- 20 -->
      <defs>
       <path d="M 19.1875 8.296875 
L 53.609375 8.296875 
L 53.609375 0 
L 7.328125 0 
L 7.328125 8.296875 
Q 12.9375 14.109375 22.625 23.890625 
Q 32.328125 33.6875 34.8125 36.53125 
Q 39.546875 41.84375 41.421875 45.53125 
Q 43.3125 49.21875 43.3125 52.78125 
Q 43.3125 58.59375 39.234375 62.25 
Q 35.15625 65.921875 28.609375 65.921875 
Q 23.96875 65.921875 18.8125 64.3125 
Q 13.671875 62.703125 7.8125 59.421875 
L 7.8125 69.390625 
Q 13.765625 71.78125 18.9375 73 
Q 24.125 74.21875 28.421875 74.21875 
Q 39.75 74.21875 46.484375 68.546875 
Q 53.21875 62.890625 53.21875 53.421875 
Q 53.21875 48.921875 51.53125 44.890625 
Q 49.859375 40.875 45.40625 35.40625 
Q 44.1875 33.984375 37.640625 27.21875 
Q 31.109375 20.453125 19.1875 8.296875 
z
" id="DejaVuSans-50"/>
      </defs>
      <g transform="translate(313.947045 269.637812)scale(0.14 -0.14)">
       <use xlink:href="#DejaVuSans-50"/>
       <use x="63.623047" xlink:href="#DejaVuSans-48"/>
      </g>
     </g>
    </g>
    <g id="xtick_6">
     <g id="line2d_6">
      <g>
       <use style="stroke:#000000;stroke-width:0.8;" x="386.263636" xlink:href="#m7026404eb8" y="252"/>
      </g>
     </g>
     <g id="text_6">
      <!-- 25 -->
      <g transform="translate(377.356136 269.637812)scale(0.14 -0.14)">
       <use xlink:href="#DejaVuSans-50"/>
       <use x="63.623047" xlink:href="#DejaVuSans-53"/>
      </g>
     </g>
    </g>
    <g id="text_7">
     <!-- Time -->
     <defs>
      <path d="M -0.296875 72.90625 
L 61.375 72.90625 
L 61.375 64.59375 
L 35.5 64.59375 
L 35.5 0 
L 25.59375 0 
L 25.59375 64.59375 
L -0.296875 64.59375 
z
" id="DejaVuSans-84"/>
      <path d="M 9.421875 54.6875 
L 18.40625 54.6875 
L 18.40625 0 
L 9.421875 0 
z
M 9.421875 75.984375 
L 18.40625 75.984375 
L 18.40625 64.59375 
L 9.421875 64.59375 
z
" id="DejaVuSans-105"/>
      <path d="M 52 44.1875 
Q 55.375 50.25 60.0625 53.125 
Q 64.75 56 71.09375 56 
Q 79.640625 56 84.28125 50.015625 
Q 88.921875 44.046875 88.921875 33.015625 
L 88.921875 0 
L 79.890625 0 
L 79.890625 32.71875 
Q 79.890625 40.578125 77.09375 44.375 
Q 74.3125 48.1875 68.609375 48.1875 
Q 61.625 48.1875 57.5625 43.546875 
Q 53.515625 38.921875 53.515625 30.90625 
L 53.515625 0 
L 44.484375 0 
L 44.484375 32.71875 
Q 44.484375 40.625 41.703125 44.40625 
Q 38.921875 48.1875 33.109375 48.1875 
Q 26.21875 48.1875 22.15625 43.53125 
Q 18.109375 38.875 18.109375 30.90625 
L 18.109375 0 
L 9.078125 0 
L 9.078125 54.6875 
L 18.109375 54.6875 
L 18.109375 46.1875 
Q 21.1875 51.21875 25.484375 53.609375 
Q 29.78125 56 35.6875 56 
Q 41.65625 56 45.828125 52.96875 
Q 50 49.953125 52 44.1875 
z
" id="DejaVuSans-109"/>
      <path d="M 56.203125 29.59375 
L 56.203125 25.203125 
L 14.890625 25.203125 
Q 15.484375 15.921875 20.484375 11.0625 
Q 25.484375 6.203125 34.421875 6.203125 
Q 39.59375 6.203125 44.453125 7.46875 
Q 49.3125 8.734375 54.109375 11.28125 
L 54.109375 2.78125 
Q 49.265625 0.734375 44.1875 -0.34375 
Q 39.109375 -1.421875 33.890625 -1.421875 
Q 20.796875 -1.421875 13.15625 6.1875 
Q 5.515625 13.8125 5.515625 26.8125 
Q 5.515625 40.234375 12.765625 48.109375 
Q 20.015625 56 32.328125 56 
Q 43.359375 56 49.78125 48.890625 
Q 56.203125 41.796875 56.203125 29.59375 
z
M 47.21875 32.234375 
Q 47.125 39.59375 43.09375 43.984375 
Q 39.0625 48.390625 32.421875 48.390625 
Q 24.90625 48.390625 20.390625 44.140625 
Q 15.875 39.890625 15.1875 32.171875 
z
" id="DejaVuSans-101"/>
     </defs>
     <g transform="translate(199.1025 290.226562)scale(0.18 -0.18)">
      <use xlink:href="#DejaVuSans-84"/>
      <use x="61.037109" xlink:href="#DejaVuSans-105"/>
      <use x="88.820312" xlink:href="#DejaVuSans-109"/>
      <use x="186.232422" xlink:href="#DejaVuSans-101"/>
     </g>
    </g>
   </g>
   <g id="matplotlib.axis_2">
    <g id="ytick_1">
     <g id="line2d_7">
      <defs>
       <path d="M 0 0 
L -3.5 0 
" id="m00432f196b" style="stroke:#000000;stroke-width:0.8;"/>
      </defs>
      <g>
       <use style="stroke:#000000;stroke-width:0.8;" x="54" xlink:href="#m00432f196b" y="241.815316"/>
      </g>
     </g>
     <g id="text_8">
      <!-- 0 -->
      <g transform="translate(38.0925 247.134223)scale(0.14 -0.14)">
       <use xlink:href="#DejaVuSans-48"/>
      </g>
     </g>
    </g>
    <g id="ytick_2">
     <g id="line2d_8">
      <g>
       <use style="stroke:#000000;stroke-width:0.8;" x="54" xlink:href="#m00432f196b" y="206.205587"/>
      </g>
     </g>
     <g id="text_9">
      <!-- 20 -->
      <g transform="translate(29.185 211.524493)scale(0.14 -0.14)">
       <use xlink:href="#DejaVuSans-50"/>
       <use x="63.623047" xlink:href="#DejaVuSans-48"/>
      </g>
     </g>
    </g>
    <g id="ytick_3">
     <g id="line2d_9">
      <g>
       <use style="stroke:#000000;stroke-width:0.8;" x="54" xlink:href="#m00432f196b" y="170.595858"/>
      </g>
     </g>
     <g id="text_10">
      <!-- 40 -->
      <defs>
       <path d="M 37.796875 64.3125 
L 12.890625 25.390625 
L 37.796875 25.390625 
z
M 35.203125 72.90625 
L 47.609375 72.90625 
L 47.609375 25.390625 
L 58.015625 25.390625 
L 58.015625 17.1875 
L 47.609375 17.1875 
L 47.609375 0 
L 37.796875 0 
L 37.796875 17.1875 
L 4.890625 17.1875 
L 4.890625 26.703125 
z
" id="DejaVuSans-52"/>
      </defs>
      <g transform="translate(29.185 175.914764)scale(0.14 -0.14)">
       <use xlink:href="#DejaVuSans-52"/>
       <use x="63.623047" xlink:href="#DejaVuSans-48"/>
      </g>
     </g>
    </g>
    <g id="ytick_4">
     <g id="line2d_10">
      <g>
       <use style="stroke:#000000;stroke-width:0.8;" x="54" xlink:href="#m00432f196b" y="134.986129"/>
      </g>
     </g>
     <g id="text_11">
      <!-- 60 -->
      <defs>
       <path d="M 33.015625 40.375 
Q 26.375 40.375 22.484375 35.828125 
Q 18.609375 31.296875 18.609375 23.390625 
Q 18.609375 15.53125 22.484375 10.953125 
Q 26.375 6.390625 33.015625 6.390625 
Q 39.65625 6.390625 43.53125 10.953125 
Q 47.40625 15.53125 47.40625 23.390625 
Q 47.40625 31.296875 43.53125 35.828125 
Q 39.65625 40.375 33.015625 40.375 
z
M 52.59375 71.296875 
L 52.59375 62.3125 
Q 48.875 64.0625 45.09375 64.984375 
Q 41.3125 65.921875 37.59375 65.921875 
Q 27.828125 65.921875 22.671875 59.328125 
Q 17.53125 52.734375 16.796875 39.40625 
Q 19.671875 43.65625 24.015625 45.921875 
Q 28.375 48.1875 33.59375 48.1875 
Q 44.578125 48.1875 50.953125 41.515625 
Q 57.328125 34.859375 57.328125 23.390625 
Q 57.328125 12.15625 50.6875 5.359375 
Q 44.046875 -1.421875 33.015625 -1.421875 
Q 20.359375 -1.421875 13.671875 8.265625 
Q 6.984375 17.96875 6.984375 36.375 
Q 6.984375 53.65625 15.1875 63.9375 
Q 23.390625 74.21875 37.203125 74.21875 
Q 40.921875 74.21875 44.703125 73.484375 
Q 48.484375 72.75 52.59375 71.296875 
z
" id="DejaVuSans-54"/>
      </defs>
      <g transform="translate(29.185 140.305035)scale(0.14 -0.14)">
       <use xlink:href="#DejaVuSans-54"/>
       <use x="63.623047" xlink:href="#DejaVuSans-48"/>
      </g>
     </g>
    </g>
    <g id="ytick_5">
     <g id="line2d_11">
      <g>
       <use style="stroke:#000000;stroke-width:0.8;" x="54" xlink:href="#m00432f196b" y="99.3764"/>
      </g>
     </g>
     <g id="text_12">
      <!-- 80 -->
      <defs>
       <path d="M 31.78125 34.625 
Q 24.75 34.625 20.71875 30.859375 
Q 16.703125 27.09375 16.703125 20.515625 
Q 16.703125 13.921875 20.71875 10.15625 
Q 24.75 6.390625 31.78125 6.390625 
Q 38.8125 6.390625 42.859375 10.171875 
Q 46.921875 13.96875 46.921875 20.515625 
Q 46.921875 27.09375 42.890625 30.859375 
Q 38.875 34.625 31.78125 34.625 
z
M 21.921875 38.8125 
Q 15.578125 40.375 12.03125 44.71875 
Q 8.5 49.078125 8.5 55.328125 
Q 8.5 64.0625 14.71875 69.140625 
Q 20.953125 74.21875 31.78125 74.21875 
Q 42.671875 74.21875 48.875 69.140625 
Q 55.078125 64.0625 55.078125 55.328125 
Q 55.078125 49.078125 51.53125 44.71875 
Q 48 40.375 41.703125 38.8125 
Q 48.828125 37.15625 52.796875 32.3125 
Q 56.78125 27.484375 56.78125 20.515625 
Q 56.78125 9.90625 50.3125 4.234375 
Q 43.84375 -1.421875 31.78125 -1.421875 
Q 19.734375 -1.421875 13.25 4.234375 
Q 6.78125 9.90625 6.78125 20.515625 
Q 6.78125 27.484375 10.78125 32.3125 
Q 14.796875 37.15625 21.921875 38.8125 
z
M 18.3125 54.390625 
Q 18.3125 48.734375 21.84375 45.5625 
Q 25.390625 42.390625 31.78125 42.390625 
Q 38.140625 42.390625 41.71875 45.5625 
Q 45.3125 48.734375 45.3125 54.390625 
Q 45.3125 60.0625 41.71875 63.234375 
Q 38.140625 66.40625 31.78125 66.40625 
Q 25.390625 66.40625 21.84375 63.234375 
Q 18.3125 60.0625 18.3125 54.390625 
z
" id="DejaVuSans-56"/>
      </defs>
      <g transform="translate(29.185 104.695306)scale(0.14 -0.14)">
       <use xlink:href="#DejaVuSans-56"/>
       <use x="63.623047" xlink:href="#DejaVuSans-48"/>
      </g>
     </g>
    </g>
    <g id="ytick_6">
     <g id="line2d_12">
      <g>
       <use style="stroke:#000000;stroke-width:0.8;" x="54" xlink:href="#m00432f196b" y="63.766671"/>
      </g>
     </g>
     <g id="text_13">
      <!-- 100 -->
      <g transform="translate(20.2775 69.085577)scale(0.14 -0.14)">
       <use xlink:href="#DejaVuSans-49"/>
       <use x="63.623047" xlink:href="#DejaVuSans-48"/>
       <use x="127.246094" xlink:href="#DejaVuSans-48"/>
      </g>
     </g>
    </g>
    <g id="text_14">
     <!-- [X] -->
     <defs>
      <path d="M 8.59375 75.984375 
L 29.296875 75.984375 
L 29.296875 69 
L 17.578125 69 
L 17.578125 -6.203125 
L 29.296875 -6.203125 
L 29.296875 -13.1875 
L 8.59375 -13.1875 
z
" id="DejaVuSans-91"/>
      <path d="M 6.296875 72.90625 
L 16.890625 72.90625 
L 35.015625 45.796875 
L 53.21875 72.90625 
L 63.8125 72.90625 
L 40.375 37.890625 
L 65.375 0 
L 54.78125 0 
L 34.28125 31 
L 13.625 0 
L 2.984375 0 
L 29 38.921875 
z
" id="DejaVuSans-88"/>
      <path d="M 30.421875 75.984375 
L 30.421875 -13.1875 
L 9.71875 -13.1875 
L 9.71875 -6.203125 
L 21.390625 -6.203125 
L 21.390625 69 
L 9.71875 69 
L 9.71875 75.984375 
z
" id="DejaVuSans-93"/>
     </defs>
     <g transform="translate(12.534062 156.467813)rotate(-90)scale(0.18 -0.18)">
      <use xlink:href="#DejaVuSans-91"/>
      <use x="39.013672" xlink:href="#DejaVuSans-88"/>
      <use x="107.519531" xlink:href="#DejaVuSans-93"/>
     </g>
    </g>
   </g>
   <g id="line2d_13">
    <path clip-path="url(#p0ee039bb56)" d="M 69.218182 241.815316 
L 72.292562 217.932011 
L 75.366942 197.142955 
L 78.441322 178.791071 
L 81.515702 162.583251 
L 84.590083 148.27439 
L 87.664463 135.647673 
L 90.738843 124.511042 
L 93.813223 114.694361 
L 96.887603 106.046917 
L 99.961983 98.435201 
L 103.036364 91.740944 
L 106.110744 85.859379 
L 109.185124 80.697696 
L 112.259504 76.173683 
L 115.333884 72.214509 
L 118.408264 68.755661 
L 121.482645 65.739986 
L 124.557025 63.116858 
L 127.631405 60.841431 
L 130.705785 58.873974 
L 133.780165 57.179295 
L 136.854545 55.726218 
L 139.928926 54.487134 
L 143.003306 53.437567 
L 146.077686 52.555849 
L 149.152066 51.822783 
L 152.226446 51.221361 
L 155.300826 50.736519 
L 158.375207 50.354911 
L 161.449587 50.064715 
L 164.523967 49.855458 
L 167.598347 49.717863 
L 170.672727 49.643711 
L 173.747107 49.625721 
L 176.821488 49.657444 
L 179.895868 49.733168 
L 182.970248 49.84783 
L 186.044628 49.996949 
L 189.119008 50.176551 
L 192.193388 50.383121 
L 195.267769 50.613539 
L 198.342149 50.865044 
L 201.416529 51.13519 
L 204.490909 51.421812 
L 207.565289 51.72299 
L 210.639669 52.037021 
L 213.71405 52.362399 
L 216.78843 52.69779 
L 219.86281 53.042012 
L 222.93719 53.394017 
L 226.01157 53.752877 
L 229.08595 54.11777 
L 232.160331 54.487968 
L 235.234711 54.862825 
L 238.309091 55.241769 
L 241.383471 55.624294 
L 244.457851 56.009951 
L 247.532231 56.398342 
L 250.606612 56.789115 
L 253.680992 57.181957 
L 256.755372 57.576592 
L 259.829752 57.972774 
L 262.904132 58.370286 
L 265.978512 58.768936 
L 269.052893 59.168552 
L 272.127273 59.568984 
L 275.201653 59.970097 
L 278.276033 60.371771 
L 281.350413 60.773903 
L 284.424793 61.176398 
L 287.499174 61.579173 
L 290.573554 61.982155 
L 293.647934 62.385278 
L 296.722314 62.788485 
L 299.796694 63.191723 
L 302.871074 63.594948 
L 305.945455 63.998119 
L 309.019835 64.401199 
L 312.094215 64.804157 
L 315.168595 65.206965 
L 318.242975 65.609596 
L 321.317355 66.012029 
L 324.391736 66.414243 
L 327.466116 66.816221 
L 330.540496 67.217946 
L 333.614876 67.619404 
L 336.689256 68.020583 
L 339.763636 68.421471 
L 342.838017 68.822059 
L 345.912397 69.222336 
L 348.986777 69.622295 
L 352.061157 70.021928 
L 355.135537 70.421229 
L 358.209917 70.820192 
L 361.284298 71.21881 
L 364.358678 71.617081 
L 367.433058 72.014998 
L 370.507438 72.412558 
L 373.581818 72.809757 
" style="fill:none;stroke:#000000;stroke-dasharray:18.5,8;stroke-dashoffset:0;stroke-width:5;"/>
   </g>
   <g id="line2d_14">
    <path clip-path="url(#p0ee039bb56)" d="M 69.218182 241.815316 
L 72.292562 239.846082 
L 75.366942 237.518043 
L 78.441322 235.431661 
L 81.515702 233.582206 
L 84.590083 231.943809 
L 87.664463 230.492438 
L 90.738843 229.206747 
L 93.813223 228.067822 
L 96.887603 227.058911 
L 99.961983 226.165171 
L 103.036364 225.373454 
L 106.110744 224.672115 
L 109.185124 224.050837 
L 112.259504 223.50048 
L 115.333884 223.012948 
L 118.408264 222.581071 
L 121.482645 222.198493 
L 124.557025 221.859589 
L 127.631405 221.559372 
L 130.705785 221.293426 
L 133.780165 221.057838 
L 136.854545 220.849144 
L 139.928926 220.664273 
L 143.003306 220.500506 
L 146.077686 220.355433 
L 149.152066 220.226921 
L 152.226446 220.11308 
L 155.300826 220.012234 
L 158.375207 219.922899 
L 161.449587 219.843763 
L 164.523967 219.77366 
L 167.598347 219.71156 
L 170.672727 219.656549 
L 173.747107 219.607817 
L 176.821488 219.564649 
L 179.895868 219.526408 
L 182.970248 219.492532 
L 186.044628 219.462524 
L 189.119008 219.435941 
L 192.193388 219.412393 
L 195.267769 219.391533 
L 198.342149 219.373054 
L 201.416529 219.356685 
L 204.490909 219.342184 
L 207.565289 219.329339 
L 210.639669 219.31796 
L 213.71405 219.307879 
L 216.78843 219.29895 
L 219.86281 219.29104 
L 222.93719 219.284033 
L 226.01157 219.277826 
L 229.08595 219.272327 
L 232.160331 219.267456 
L 235.234711 219.263141 
L 238.309091 219.259318 
L 241.383471 219.255933 
L 244.457851 219.252933 
L 247.532231 219.250276 
L 250.606612 219.247922 
L 253.680992 219.245837 
L 256.755372 219.24399 
L 259.829752 219.242354 
L 262.904132 219.240905 
L 265.978512 219.239621 
L 269.052893 219.238483 
L 272.127273 219.237476 
L 275.201653 219.236583 
L 278.276033 219.235792 
L 281.350413 219.235092 
L 284.424793 219.234471 
L 287.499174 219.233922 
L 290.573554 219.233435 
L 293.647934 219.233004 
L 296.722314 219.232622 
L 299.796694 219.232283 
L 302.871074 219.231983 
L 305.945455 219.231718 
L 309.019835 219.231482 
L 312.094215 219.231274 
L 315.168595 219.231089 
L 318.242975 219.230926 
L 321.317355 219.230781 
L 324.391736 219.230653 
L 327.466116 219.230539 
L 330.540496 219.230438 
L 333.614876 219.230349 
L 336.689256 219.23027 
L 339.763636 219.2302 
L 342.838017 219.230138 
L 345.912397 219.230083 
L 348.986777 219.230035 
L 352.061157 219.229992 
L 355.135537 219.229953 
L 358.209917 219.22992 
L 361.284298 219.229889 
L 364.358678 219.229863 
L 367.433058 219.229839 
L 370.507438 219.229818 
L 373.581818 219.2298 
" style="fill:none;stroke:#1f77b4;stroke-linecap:square;stroke-width:2;"/>
   </g>
   <g id="line2d_15">
    <path clip-path="url(#p0ee039bb56)" d="M 69.218182 241.815316 
L 72.292562 242.116364 
L 75.366942 239.762838 
L 78.441322 237.433183 
L 81.515702 235.355926 
L 84.590083 233.515087 
L 87.664463 231.884351 
L 90.738843 230.439767 
L 93.813223 229.160089 
L 96.887603 228.026491 
L 99.961983 227.022297 
L 103.036364 226.132736 
L 106.110744 225.344722 
L 109.185124 224.646663 
L 112.259504 224.02829 
L 115.333884 223.480507 
L 118.408264 222.995256 
L 121.482645 222.565398 
L 124.557025 222.18461 
L 127.631405 221.84729 
L 130.705785 221.548477 
L 133.780165 221.283774 
L 136.854545 221.049288 
L 139.928926 220.84157 
L 143.003306 220.657564 
L 146.077686 220.494562 
L 149.152066 220.350168 
L 152.226446 220.222258 
L 155.300826 220.108948 
L 158.375207 220.008574 
L 161.449587 219.919657 
L 164.523967 219.840891 
L 167.598347 219.771117 
L 170.672727 219.709307 
L 173.747107 219.654553 
L 176.821488 219.60605 
L 179.895868 219.563083 
L 182.970248 219.525021 
L 186.044628 219.491304 
L 189.119008 219.461436 
L 192.193388 219.434978 
L 195.267769 219.411539 
L 198.342149 219.390776 
L 201.416529 219.372385 
L 204.490909 219.356092 
L 207.565289 219.341659 
L 210.639669 219.328873 
L 213.71405 219.317547 
L 216.78843 219.307514 
L 219.86281 219.298626 
L 222.93719 219.290753 
L 226.01157 219.283779 
L 229.08595 219.277601 
L 232.160331 219.272128 
L 235.234711 219.26728 
L 238.309091 219.262985 
L 241.383471 219.25918 
L 244.457851 219.25581 
L 247.532231 219.252825 
L 250.606612 219.25018 
L 253.680992 219.247837 
L 256.755372 219.245762 
L 259.829752 219.243923 
L 262.904132 219.242294 
L 265.978512 219.240852 
L 269.052893 219.239574 
L 272.127273 219.238442 
L 275.201653 219.237439 
L 278.276033 219.23655 
L 281.350413 219.235763 
L 284.424793 219.235066 
L 287.499174 219.234449 
L 290.573554 219.233902 
L 293.647934 219.233417 
L 296.722314 219.232988 
L 299.796694 219.232608 
L 302.871074 219.232271 
L 305.945455 219.231972 
L 309.019835 219.231708 
L 312.094215 219.231474 
L 315.168595 219.231266 
L 318.242975 219.231083 
L 321.317355 219.23092 
L 324.391736 219.230776 
L 327.466116 219.230648 
L 330.540496 219.230535 
L 333.614876 219.230435 
L 336.689256 219.230346 
L 339.763636 219.230267 
L 342.838017 219.230197 
L 345.912397 219.230136 
L 348.986777 219.230081 
L 352.061157 219.230033 
L 355.135537 219.22999 
L 358.209917 219.229952 
L 361.284298 219.229918 
L 364.358678 219.229888 
L 367.433058 219.229862 
L 370.507438 219.229838 
L 373.581818 219.229818 
" style="fill:none;stroke:#ff7f0e;stroke-linecap:square;stroke-width:2;"/>
   </g>
   <g id="line2d_16">
    <path clip-path="url(#p0ee039bb56)" d="M 69.218182 241.815316 
L 72.292562 217.607392 
L 75.366942 196.229775 
L 78.441322 177.342868 
L 81.515702 160.662312 
L 84.590083 145.936212 
L 87.664463 132.941428 
L 90.738843 121.48029 
L 93.813223 111.377695 
L 96.887603 102.478526 
L 99.961983 94.645377 
L 103.036364 87.756523 
L 106.110744 81.704136 
L 109.185124 76.392698 
L 112.259504 71.737593 
L 115.333884 67.663866 
L 118.408264 64.105117 
L 121.482645 61.002527 
L 124.557025 58.30399 
L 127.631405 55.963349 
L 130.705785 53.939714 
L 133.780165 52.196866 
L 136.854545 50.702718 
L 139.928926 49.428846 
L 143.003306 48.350073 
L 146.077686 47.444091 
L 149.152066 46.691144 
L 152.226446 46.073728 
L 155.300826 45.576337 
L 158.375207 45.185236 
L 161.449587 44.888259 
L 164.523967 44.674627 
L 167.598347 44.53479 
L 170.672727 44.460291 
L 173.747107 44.443636 
L 176.821488 44.478189 
L 179.895868 44.55807 
L 182.970248 44.678069 
L 186.044628 44.833572 
L 189.119008 45.020492 
L 192.193388 45.235208 
L 195.267769 45.474511 
L 198.342149 45.73556 
L 201.416529 46.015838 
L 204.490909 46.313114 
L 207.565289 46.625414 
L 210.639669 46.950985 
L 213.71405 47.288279 
L 216.78843 47.635922 
L 219.86281 47.992696 
L 222.93719 48.357525 
L 226.01157 48.729452 
L 229.08595 49.107632 
L 232.160331 49.491315 
L 235.234711 49.879837 
L 238.309091 50.272609 
L 241.383471 50.66911 
L 244.457851 51.068879 
L 247.532231 51.471507 
L 250.606612 51.876629 
L 253.680992 52.283926 
L 256.755372 52.693112 
L 259.829752 53.103935 
L 262.904132 53.516172 
L 265.978512 53.929624 
L 269.052893 54.344115 
L 272.127273 54.759491 
L 275.201653 55.175613 
L 278.276033 55.592359 
L 281.350413 56.009621 
L 284.424793 56.427302 
L 287.499174 56.845316 
L 290.573554 57.263586 
L 293.647934 57.682047 
L 296.722314 58.10064 
L 299.796694 58.519313 
L 302.871074 58.938018 
L 305.945455 59.356713 
L 309.019835 59.775361 
L 312.094215 60.193929 
L 315.168595 60.612388 
L 318.242975 61.030712 
L 321.317355 61.448878 
L 324.391736 61.866866 
L 327.466116 62.284657 
L 330.540496 62.702235 
L 333.614876 63.119586 
L 336.689256 63.536696 
L 339.763636 63.953554 
L 342.838017 64.370149 
L 345.912397 64.786473 
L 348.986777 65.202515 
L 352.061157 65.61827 
L 355.135537 66.033731 
L 358.209917 66.44889 
L 361.284298 66.863744 
L 364.358678 67.278286 
L 367.433058 67.692513 
L 370.507438 68.10642 
L 373.581818 68.520004 
" style="fill:none;stroke:#2ca02c;stroke-linecap:square;stroke-width:2;"/>
   </g>
   <g id="line2d_17">
    <path clip-path="url(#p0ee039bb56)" d="M 69.218182 241.815316 
L 72.292562 217.842651 
L 75.366942 196.833865 
L 78.441322 178.274928 
L 81.515702 161.884356 
L 84.590083 147.414569 
L 87.664463 134.646267 
L 90.738843 123.385168 
L 93.813223 113.459192 
L 96.887603 104.715876 
L 99.961983 97.020177 
L 103.036364 90.252465 
L 106.110744 84.306762 
L 109.185124 79.089195 
L 112.259504 74.516601 
L 115.333884 70.515313 
L 118.408264 67.020072 
L 121.482645 63.973069 
L 124.557025 61.323096 
L 127.631405 59.024788 
L 130.705785 57.037957 
L 133.780165 55.327008 
L 136.854545 53.860403 
L 139.928926 52.61021 
L 143.003306 51.551683 
L 146.077686 50.662901 
L 149.152066 49.924443 
L 152.226446 49.319108 
L 155.300826 48.831656 
L 158.375207 48.448591 
L 161.449587 48.157952 
L 164.523967 47.949146 
L 167.598347 47.812792 
L 170.672727 47.740575 
L 173.747107 47.725133 
L 176.821488 47.759944 
L 179.895868 47.839226 
L 182.970248 47.95786 
L 186.044628 48.111312 
L 189.119008 48.295565 
L 192.193388 48.507061 
L 195.267769 48.742646 
L 198.342149 48.999528 
L 201.416529 49.275233 
L 204.490909 49.567571 
L 207.565289 49.874599 
L 210.639669 50.194596 
L 213.71405 50.526041 
L 216.78843 50.867582 
L 219.86281 51.218025 
L 222.93719 51.576309 
L 226.01157 51.941497 
L 229.08595 52.312758 
L 232.160331 52.689354 
L 235.234711 53.070633 
L 238.309091 53.456018 
L 241.383471 53.844995 
L 244.457851 54.237112 
L 247.532231 54.631965 
L 250.606612 55.0292 
L 253.680992 55.4285 
L 256.755372 55.829586 
L 259.829752 56.23221 
L 262.904132 56.636153 
L 265.978512 57.041218 
L 269.052893 57.447236 
L 272.127273 57.854051 
L 275.201653 58.26153 
L 278.276033 58.669552 
L 281.350413 59.07801 
L 284.424793 59.486811 
L 287.499174 59.89587 
L 290.573554 60.305113 
L 293.647934 60.714475 
L 296.722314 61.123896 
L 299.796694 61.533326 
L 302.871074 61.942719 
L 305.945455 62.352033 
L 309.019835 62.761233 
L 312.094215 63.170286 
L 315.168595 63.579164 
L 318.242975 63.987841 
L 321.317355 64.396295 
L 324.391736 64.804506 
L 327.466116 65.212455 
L 330.540496 65.620127 
L 333.614876 66.027508 
L 336.689256 66.434585 
L 339.763636 66.841347 
L 342.838017 67.247783 
L 345.912397 67.653885 
L 348.986777 68.059645 
L 352.061157 68.465055 
L 355.135537 68.870109 
L 358.209917 69.2748 
L 361.284298 69.679125 
L 364.358678 70.083077 
L 367.433058 70.486653 
L 370.507438 70.889849 
L 373.581818 71.292661 
" style="fill:none;stroke:#d62728;stroke-linecap:square;stroke-width:2;"/>
   </g>
   <g id="line2d_18">
    <path clip-path="url(#p0ee039bb56)" d="M 69.218182 241.815316 
L 72.292562 217.670687 
L 75.366942 196.372595 
L 78.441322 177.55622 
L 81.515702 160.938092 
L 84.590083 146.267237 
L 87.664463 133.321335 
L 90.738843 121.903444 
L 93.813223 111.839102 
L 96.887603 102.973764 
L 99.961983 95.170526 
L 103.036364 88.308111 
L 106.110744 82.279089 
L 109.185124 76.98829 
L 112.259504 72.351412 
L 115.333884 68.293773 
L 118.408264 64.749221 
L 121.482645 61.659154 
L 124.557025 58.97165 
L 127.631405 56.640726 
L 130.705785 54.625643 
L 133.780165 52.890311 
L 136.854545 51.402764 
L 139.928926 50.134682 
L 143.003306 49.060978 
L 146.077686 48.159429 
L 149.152066 47.41035 
L 152.226446 46.7963 
L 155.300826 46.301836 
L 158.375207 45.913273 
L 161.449587 45.618479 
L 164.523967 45.406723 
L 167.598347 45.26849 
L 170.672727 45.195352 
L 173.747107 45.179844 
L 176.821488 45.215354 
L 179.895868 45.296022 
L 182.970248 45.416659 
L 186.044628 45.572668 
L 189.119008 45.759976 
L 192.193388 45.974976 
L 195.267769 46.214469 
L 198.342149 46.475626 
L 201.416529 46.755939 
L 204.490909 47.053185 
L 207.565289 47.365397 
L 210.639669 47.690829 
L 213.71405 48.027939 
L 216.78843 48.375357 
L 219.86281 48.731871 
L 222.93719 49.096407 
L 226.01157 49.468015 
L 229.08595 49.845851 
L 232.160331 50.229166 
L 235.234711 50.6173 
L 238.309091 51.009666 
L 241.383471 51.405746 
L 244.457851 51.805079 
L 247.532231 52.207257 
L 250.606612 52.611918 
L 253.680992 53.018743 
L 256.755372 53.427448 
L 259.829752 53.837781 
L 262.904132 54.249521 
L 265.978512 54.662469 
L 269.052893 55.076451 
L 272.127273 55.491311 
L 275.201653 55.906912 
L 278.276033 56.323131 
L 281.350413 56.739861 
L 284.424793 57.157006 
L 287.499174 57.574481 
L 290.573554 57.99221 
L 293.647934 58.410128 
L 296.722314 58.828174 
L 299.796694 59.246296 
L 302.871074 59.664446 
L 305.945455 60.082585 
L 309.019835 60.500674 
L 312.094215 60.918681 
L 315.168595 61.336576 
L 318.242975 61.754335 
L 321.317355 62.171934 
L 324.391736 62.589353 
L 327.466116 63.006572 
L 330.540496 63.423577 
L 333.614876 63.840352 
L 336.689256 64.256885 
L 339.763636 64.673163 
L 342.838017 65.089177 
L 345.912397 65.504917 
L 348.986777 65.920375 
L 352.061157 66.335544 
L 355.135537 66.750416 
L 358.209917 67.164986 
L 361.284298 67.579248 
L 364.358678 67.993197 
L 367.433058 68.406829 
L 370.507438 68.820139 
L 373.581818 69.233125 
" style="fill:none;stroke:#9467bd;stroke-linecap:square;stroke-width:2;"/>
   </g>
   <g id="line2d_19">
    <path clip-path="url(#p0ee039bb56)" d="M 69.218182 241.815316 
L 72.292562 217.883871 
L 75.366942 196.955501 
L 78.441322 178.46899 
L 81.515702 162.142509 
L 84.590083 147.729429 
L 87.664463 135.011286 
L 90.738843 123.794553 
L 93.813223 113.907798 
L 96.887603 105.19916 
L 99.961983 97.534108 
L 103.036364 90.793472 
L 106.110744 84.871683 
L 109.185124 79.675228 
L 112.259504 75.121264 
L 115.333884 71.136407 
L 118.408264 67.65565 
L 121.482645 64.621403 
L 124.557025 61.98266 
L 127.631405 59.694229 
L 130.705785 57.716071 
L 133.780165 56.012734 
L 136.854545 54.552802 
L 139.928926 53.308446 
L 143.003306 52.255016 
L 146.077686 51.370676 
L 149.152066 50.636081 
L 152.226446 50.034096 
L 155.300826 49.54954 
L 158.375207 49.168966 
L 161.449587 48.880461 
L 164.523967 48.673477 
L 167.598347 48.538661 
L 170.672727 48.467731 
L 173.747107 48.453356 
L 176.821488 48.489039 
L 179.895868 48.569019 
L 182.970248 48.688197 
L 186.044628 48.842056 
L 189.119008 49.026598 
L 192.193388 49.238276 
L 195.267769 49.473946 
L 198.342149 49.730816 
L 201.416529 50.006462 
L 204.490909 50.298663 
L 207.565289 50.605493 
L 210.639669 50.925241 
L 213.71405 51.25639 
L 216.78843 51.597594 
L 219.86281 51.947664 
L 222.93719 52.305543 
L 226.01157 52.670297 
L 229.08595 53.041096 
L 232.160331 53.417211 
L 235.234711 53.797987 
L 238.309091 54.182847 
L 241.383471 54.571289 
L 244.457851 54.962854 
L 247.532231 55.357143 
L 250.606612 55.753801 
L 253.680992 56.152514 
L 256.755372 56.553006 
L 259.829752 56.955025 
L 262.904132 57.358354 
L 265.978512 57.762803 
L 269.052893 58.168195 
L 272.127273 58.57438 
L 275.201653 58.981223 
L 278.276033 59.388604 
L 281.350413 59.796419 
L 284.424793 60.204571 
L 287.499174 60.612976 
L 290.573554 61.021564 
L 293.647934 61.430267 
L 296.722314 61.839028 
L 299.796694 62.247794 
L 302.871074 62.656521 
L 305.945455 63.065166 
L 309.019835 63.473695 
L 312.094215 63.882076 
L 315.168595 64.290279 
L 318.242975 64.69828 
L 321.317355 65.106055 
L 324.391736 65.513586 
L 327.466116 65.920853 
L 330.540496 66.327842 
L 333.614876 66.734538 
L 336.689256 67.140928 
L 339.763636 67.547002 
L 342.838017 67.952747 
L 345.912397 68.358158 
L 348.986777 68.763223 
L 352.061157 69.167939 
L 355.135537 69.572298 
L 358.209917 69.976293 
L 361.284298 70.379919 
L 364.358678 70.783172 
L 367.433058 71.186047 
L 370.507438 71.588539 
L 373.581818 71.990647 
" style="fill:none;stroke:#8c564b;stroke-linecap:square;stroke-width:2;"/>
   </g>
   <g id="patch_3">
    <path d="M 54 252 
L 54 34.56 
" style="fill:none;stroke:#000000;stroke-linecap:square;stroke-linejoin:miter;stroke-width:0.8;"/>
   </g>
   <g id="patch_4">
    <path d="M 388.8 252 
L 388.8 34.56 
" style="fill:none;stroke:#000000;stroke-linecap:square;stroke-linejoin:miter;stroke-width:0.8;"/>
   </g>
   <g id="patch_5">
    <path d="M 54 252 
L 388.8 252 
" style="fill:none;stroke:#000000;stroke-linecap:square;stroke-linejoin:miter;stroke-width:0.8;"/>
   </g>
   <g id="patch_6">
    <path d="M 54 34.56 
L 388.8 34.56 
" style="fill:none;stroke:#000000;stroke-linecap:square;stroke-linejoin:miter;stroke-width:0.8;"/>
   </g>
   <g id="legend_1">
    <g id="patch_7">
     <path d="M 296.36375 185.57875 
L 383.2 185.57875 
Q 384.8 185.57875 384.8 183.97875 
L 384.8 102.58125 
Q 384.8 100.98125 383.2 100.98125 
L 296.36375 100.98125 
Q 294.76375 100.98125 294.76375 102.58125 
L 294.76375 183.97875 
Q 294.76375 185.57875 296.36375 185.57875 
z
" style="fill:#ffffff;opacity:0.8;stroke:#cccccc;stroke-linejoin:miter;"/>
    </g>
    <g id="line2d_20">
     <path d="M 297.96375 107.46 
L 313.96375 107.46 
" style="fill:none;stroke:#000000;stroke-dasharray:18.5,8;stroke-dashoffset:0;stroke-width:5;"/>
    </g>
    <g id="line2d_21"/>
    <g id="text_15">
     <!-- Full CRN model -->
     <defs>
      <path d="M 9.8125 72.90625 
L 51.703125 72.90625 
L 51.703125 64.59375 
L 19.671875 64.59375 
L 19.671875 43.109375 
L 48.578125 43.109375 
L 48.578125 34.8125 
L 19.671875 34.8125 
L 19.671875 0 
L 9.8125 0 
z
" id="DejaVuSans-70"/>
      <path d="M 8.5 21.578125 
L 8.5 54.6875 
L 17.484375 54.6875 
L 17.484375 21.921875 
Q 17.484375 14.15625 20.5 10.265625 
Q 23.53125 6.390625 29.59375 6.390625 
Q 36.859375 6.390625 41.078125 11.03125 
Q 45.3125 15.671875 45.3125 23.6875 
L 45.3125 54.6875 
L 54.296875 54.6875 
L 54.296875 0 
L 45.3125 0 
L 45.3125 8.40625 
Q 42.046875 3.421875 37.71875 1 
Q 33.40625 -1.421875 27.6875 -1.421875 
Q 18.265625 -1.421875 13.375 4.4375 
Q 8.5 10.296875 8.5 21.578125 
z
M 31.109375 56 
z
" id="DejaVuSans-117"/>
      <path d="M 9.421875 75.984375 
L 18.40625 75.984375 
L 18.40625 0 
L 9.421875 0 
z
" id="DejaVuSans-108"/>
      <path id="DejaVuSans-32"/>
      <path d="M 64.40625 67.28125 
L 64.40625 56.890625 
Q 59.421875 61.53125 53.78125 63.8125 
Q 48.140625 66.109375 41.796875 66.109375 
Q 29.296875 66.109375 22.65625 58.46875 
Q 16.015625 50.828125 16.015625 36.375 
Q 16.015625 21.96875 22.65625 14.328125 
Q 29.296875 6.6875 41.796875 6.6875 
Q 48.140625 6.6875 53.78125 8.984375 
Q 59.421875 11.28125 64.40625 15.921875 
L 64.40625 5.609375 
Q 59.234375 2.09375 53.4375 0.328125 
Q 47.65625 -1.421875 41.21875 -1.421875 
Q 24.65625 -1.421875 15.125 8.703125 
Q 5.609375 18.84375 5.609375 36.375 
Q 5.609375 53.953125 15.125 64.078125 
Q 24.65625 74.21875 41.21875 74.21875 
Q 47.75 74.21875 53.53125 72.484375 
Q 59.328125 70.75 64.40625 67.28125 
z
" id="DejaVuSans-67"/>
      <path d="M 44.390625 34.1875 
Q 47.5625 33.109375 50.5625 29.59375 
Q 53.5625 26.078125 56.59375 19.921875 
L 66.609375 0 
L 56 0 
L 46.6875 18.703125 
Q 43.0625 26.03125 39.671875 28.421875 
Q 36.28125 30.8125 30.421875 30.8125 
L 19.671875 30.8125 
L 19.671875 0 
L 9.8125 0 
L 9.8125 72.90625 
L 32.078125 72.90625 
Q 44.578125 72.90625 50.734375 67.671875 
Q 56.890625 62.453125 56.890625 51.90625 
Q 56.890625 45.015625 53.6875 40.46875 
Q 50.484375 35.9375 44.390625 34.1875 
z
M 19.671875 64.796875 
L 19.671875 38.921875 
L 32.078125 38.921875 
Q 39.203125 38.921875 42.84375 42.21875 
Q 46.484375 45.515625 46.484375 51.90625 
Q 46.484375 58.296875 42.84375 61.546875 
Q 39.203125 64.796875 32.078125 64.796875 
z
" id="DejaVuSans-82"/>
      <path d="M 9.8125 72.90625 
L 23.09375 72.90625 
L 55.421875 11.921875 
L 55.421875 72.90625 
L 64.984375 72.90625 
L 64.984375 0 
L 51.703125 0 
L 19.390625 60.984375 
L 19.390625 0 
L 9.8125 0 
z
" id="DejaVuSans-78"/>
      <path d="M 30.609375 48.390625 
Q 23.390625 48.390625 19.1875 42.75 
Q 14.984375 37.109375 14.984375 27.296875 
Q 14.984375 17.484375 19.15625 11.84375 
Q 23.34375 6.203125 30.609375 6.203125 
Q 37.796875 6.203125 41.984375 11.859375 
Q 46.1875 17.53125 46.1875 27.296875 
Q 46.1875 37.015625 41.984375 42.703125 
Q 37.796875 48.390625 30.609375 48.390625 
z
M 30.609375 56 
Q 42.328125 56 49.015625 48.375 
Q 55.71875 40.765625 55.71875 27.296875 
Q 55.71875 13.875 49.015625 6.21875 
Q 42.328125 -1.421875 30.609375 -1.421875 
Q 18.84375 -1.421875 12.171875 6.21875 
Q 5.515625 13.875 5.515625 27.296875 
Q 5.515625 40.765625 12.171875 48.375 
Q 18.84375 56 30.609375 56 
z
" id="DejaVuSans-111"/>
      <path d="M 45.40625 46.390625 
L 45.40625 75.984375 
L 54.390625 75.984375 
L 54.390625 0 
L 45.40625 0 
L 45.40625 8.203125 
Q 42.578125 3.328125 38.25 0.953125 
Q 33.9375 -1.421875 27.875 -1.421875 
Q 17.96875 -1.421875 11.734375 6.484375 
Q 5.515625 14.40625 5.515625 27.296875 
Q 5.515625 40.1875 11.734375 48.09375 
Q 17.96875 56 27.875 56 
Q 33.9375 56 38.25 53.625 
Q 42.578125 51.265625 45.40625 46.390625 
z
M 14.796875 27.296875 
Q 14.796875 17.390625 18.875 11.75 
Q 22.953125 6.109375 30.078125 6.109375 
Q 37.203125 6.109375 41.296875 11.75 
Q 45.40625 17.390625 45.40625 27.296875 
Q 45.40625 37.203125 41.296875 42.84375 
Q 37.203125 48.484375 30.078125 48.484375 
Q 22.953125 48.484375 18.875 42.84375 
Q 14.796875 37.203125 14.796875 27.296875 
z
" id="DejaVuSans-100"/>
     </defs>
     <g transform="translate(320.36375 110.26)scale(0.08 -0.08)">
      <use xlink:href="#DejaVuSans-70"/>
      <use x="57.441406" xlink:href="#DejaVuSans-117"/>
      <use x="120.820312" xlink:href="#DejaVuSans-108"/>
      <use x="148.603516" xlink:href="#DejaVuSans-108"/>
      <use x="176.386719" xlink:href="#DejaVuSans-32"/>
      <use x="208.173828" xlink:href="#DejaVuSans-67"/>
      <use x="277.998047" xlink:href="#DejaVuSans-82"/>
      <use x="347.480469" xlink:href="#DejaVuSans-78"/>
      <use x="422.285156" xlink:href="#DejaVuSans-32"/>
      <use x="454.072266" xlink:href="#DejaVuSans-109"/>
      <use x="551.484375" xlink:href="#DejaVuSans-111"/>
      <use x="612.666016" xlink:href="#DejaVuSans-100"/>
      <use x="676.142578" xlink:href="#DejaVuSans-101"/>
      <use x="737.666016" xlink:href="#DejaVuSans-108"/>
     </g>
    </g>
    <g id="line2d_22">
     <path d="M 297.96375 119.2025 
L 313.96375 119.2025 
" style="fill:none;stroke:#1f77b4;stroke-linecap:square;stroke-width:2;"/>
    </g>
    <g id="line2d_23"/>
    <g id="text_16">
     <!-- [T, X] -->
     <defs>
      <path d="M 11.71875 12.40625 
L 22.015625 12.40625 
L 22.015625 4 
L 14.015625 -11.625 
L 7.71875 -11.625 
L 11.71875 4 
z
" id="DejaVuSans-44"/>
     </defs>
     <g transform="translate(320.36375 122.0025)scale(0.08 -0.08)">
      <use xlink:href="#DejaVuSans-91"/>
      <use x="39.013672" xlink:href="#DejaVuSans-84"/>
      <use x="100.097656" xlink:href="#DejaVuSans-44"/>
      <use x="131.884766" xlink:href="#DejaVuSans-32"/>
      <use x="163.671875" xlink:href="#DejaVuSans-88"/>
      <use x="232.177734" xlink:href="#DejaVuSans-93"/>
     </g>
    </g>
    <g id="line2d_24">
     <path d="M 297.96375 130.945 
L 313.96375 130.945 
" style="fill:none;stroke:#ff7f0e;stroke-linecap:square;stroke-width:2;"/>
    </g>
    <g id="line2d_25"/>
    <g id="text_17">
     <!-- [P, T, X] -->
     <defs>
      <path d="M 19.671875 64.796875 
L 19.671875 37.40625 
L 32.078125 37.40625 
Q 38.96875 37.40625 42.71875 40.96875 
Q 46.484375 44.53125 46.484375 51.125 
Q 46.484375 57.671875 42.71875 61.234375 
Q 38.96875 64.796875 32.078125 64.796875 
z
M 9.8125 72.90625 
L 32.078125 72.90625 
Q 44.34375 72.90625 50.609375 67.359375 
Q 56.890625 61.8125 56.890625 51.125 
Q 56.890625 40.328125 50.609375 34.8125 
Q 44.34375 29.296875 32.078125 29.296875 
L 19.671875 29.296875 
L 19.671875 0 
L 9.8125 0 
z
" id="DejaVuSans-80"/>
     </defs>
     <g transform="translate(320.36375 133.745)scale(0.08 -0.08)">
      <use xlink:href="#DejaVuSans-91"/>
      <use x="39.013672" xlink:href="#DejaVuSans-80"/>
      <use x="99.316406" xlink:href="#DejaVuSans-44"/>
      <use x="131.103516" xlink:href="#DejaVuSans-32"/>
      <use x="162.890625" xlink:href="#DejaVuSans-84"/>
      <use x="223.974609" xlink:href="#DejaVuSans-44"/>
      <use x="255.761719" xlink:href="#DejaVuSans-32"/>
      <use x="287.548828" xlink:href="#DejaVuSans-88"/>
      <use x="356.054688" xlink:href="#DejaVuSans-93"/>
     </g>
    </g>
    <g id="line2d_26">
     <path d="M 297.96375 142.6875 
L 313.96375 142.6875 
" style="fill:none;stroke:#2ca02c;stroke-linecap:square;stroke-width:2;"/>
    </g>
    <g id="line2d_27"/>
    <g id="text_18">
     <!-- [T, R, X] -->
     <g transform="translate(320.36375 145.4875)scale(0.08 -0.08)">
      <use xlink:href="#DejaVuSans-91"/>
      <use x="39.013672" xlink:href="#DejaVuSans-84"/>
      <use x="100.097656" xlink:href="#DejaVuSans-44"/>
      <use x="131.884766" xlink:href="#DejaVuSans-32"/>
      <use x="163.671875" xlink:href="#DejaVuSans-82"/>
      <use x="233.154297" xlink:href="#DejaVuSans-44"/>
      <use x="264.941406" xlink:href="#DejaVuSans-32"/>
      <use x="296.728516" xlink:href="#DejaVuSans-88"/>
      <use x="365.234375" xlink:href="#DejaVuSans-93"/>
     </g>
    </g>
    <g id="line2d_28">
     <path d="M 297.96375 154.43 
L 313.96375 154.43 
" style="fill:none;stroke:#d62728;stroke-linecap:square;stroke-width:2;"/>
    </g>
    <g id="line2d_29"/>
    <g id="text_19">
     <!-- [R, E, X] -->
     <defs>
      <path d="M 9.8125 72.90625 
L 55.90625 72.90625 
L 55.90625 64.59375 
L 19.671875 64.59375 
L 19.671875 43.015625 
L 54.390625 43.015625 
L 54.390625 34.71875 
L 19.671875 34.71875 
L 19.671875 8.296875 
L 56.78125 8.296875 
L 56.78125 0 
L 9.8125 0 
z
" id="DejaVuSans-69"/>
     </defs>
     <g transform="translate(320.36375 157.23)scale(0.08 -0.08)">
      <use xlink:href="#DejaVuSans-91"/>
      <use x="39.013672" xlink:href="#DejaVuSans-82"/>
      <use x="108.496094" xlink:href="#DejaVuSans-44"/>
      <use x="140.283203" xlink:href="#DejaVuSans-32"/>
      <use x="172.070312" xlink:href="#DejaVuSans-69"/>
      <use x="235.253906" xlink:href="#DejaVuSans-44"/>
      <use x="267.041016" xlink:href="#DejaVuSans-32"/>
      <use x="298.828125" xlink:href="#DejaVuSans-88"/>
      <use x="367.333984" xlink:href="#DejaVuSans-93"/>
     </g>
    </g>
    <g id="line2d_30">
     <path d="M 297.96375 166.1725 
L 313.96375 166.1725 
" style="fill:none;stroke:#9467bd;stroke-linecap:square;stroke-width:2;"/>
    </g>
    <g id="line2d_31"/>
    <g id="text_20">
     <!-- [P, T, R, X] -->
     <g transform="translate(320.36375 168.9725)scale(0.08 -0.08)">
      <use xlink:href="#DejaVuSans-91"/>
      <use x="39.013672" xlink:href="#DejaVuSans-80"/>
      <use x="99.316406" xlink:href="#DejaVuSans-44"/>
      <use x="131.103516" xlink:href="#DejaVuSans-32"/>
      <use x="162.890625" xlink:href="#DejaVuSans-84"/>
      <use x="223.974609" xlink:href="#DejaVuSans-44"/>
      <use x="255.761719" xlink:href="#DejaVuSans-32"/>
      <use x="287.548828" xlink:href="#DejaVuSans-82"/>
      <use x="357.03125" xlink:href="#DejaVuSans-44"/>
      <use x="388.818359" xlink:href="#DejaVuSans-32"/>
      <use x="420.605469" xlink:href="#DejaVuSans-88"/>
      <use x="489.111328" xlink:href="#DejaVuSans-93"/>
     </g>
    </g>
    <g id="line2d_32">
     <path d="M 297.96375 177.915 
L 313.96375 177.915 
" style="fill:none;stroke:#8c564b;stroke-linecap:square;stroke-width:2;"/>
    </g>
    <g id="line2d_33"/>
    <g id="text_21">
     <!-- [P, R, E, X] -->
     <g transform="translate(320.36375 180.715)scale(0.08 -0.08)">
      <use xlink:href="#DejaVuSans-91"/>
      <use x="39.013672" xlink:href="#DejaVuSans-80"/>
      <use x="99.316406" xlink:href="#DejaVuSans-44"/>
      <use x="131.103516" xlink:href="#DejaVuSans-32"/>
      <use x="162.890625" xlink:href="#DejaVuSans-82"/>
      <use x="232.373047" xlink:href="#DejaVuSans-44"/>
      <use x="264.160156" xlink:href="#DejaVuSans-32"/>
      <use x="295.947266" xlink:href="#DejaVuSans-69"/>
      <use x="359.130859" xlink:href="#DejaVuSans-44"/>
      <use x="390.917969" xlink:href="#DejaVuSans-32"/>
      <use x="422.705078" xlink:href="#DejaVuSans-88"/>
      <use x="491.210938" xlink:href="#DejaVuSans-93"/>
     </g>
    </g>
   </g>
  </g>
 </g>
 <defs>
  <clipPath id="p0ee039bb56">
   <rect height="217.44" width="334.8" x="54" y="34.56"/>
  </clipPath>
 </defs>
</svg>
