<?xml version="1.0" encoding="utf-8" standalone="no"?>
<!DOCTYPE svg PUBLIC "-//W3C//DTD SVG 1.1//EN"
  "http://www.w3.org/Graphics/SVG/1.1/DTD/svg11.dtd">
<!-- Created with matplotlib (https://matplotlib.org/) -->
<svg height="288pt" version="1.1" viewBox="0 0 432 288" width="432pt" xmlns="http://www.w3.org/2000/svg" xmlns:xlink="http://www.w3.org/1999/xlink">
 <defs>
  <style type="text/css">
*{stroke-linecap:butt;stroke-linejoin:round;}
  </style>
 </defs>
 <g id="figure_1">
  <g id="patch_1">
   <path d="M 0 288 
L 432 288 
L 432 0 
L 0 0 
z
" style="fill:#ffffff;"/>
  </g>
  <g id="axes_1">
   <g id="patch_2">
    <path d="M 54 252 
L 388.8 252 
L 388.8 34.56 
L 54 34.56 
z
" style="fill:#ffffff;"/>
   </g>
   <g id="matplotlib.axis_1">
    <g id="xtick_1">
     <g id="line2d_1">
      <defs>
       <path d="M 0 0 
L 0 3.5 
" id="m2196fce324" style="stroke:#000000;stroke-width:0.8;"/>
      </defs>
      <g>
       <use style="stroke:#000000;stroke-width:0.8;" x="69.218182" xlink:href="#m2196fce324" y="252"/>
      </g>
     </g>
     <g id="text_1">
      <!-- 0 -->
      <defs>
       <path d="M 31.78125 66.40625 
Q 24.171875 66.40625 20.328125 58.90625 
Q 16.5 51.421875 16.5 36.375 
Q 16.5 21.390625 20.328125 13.890625 
Q 24.171875 6.390625 31.78125 6.390625 
Q 39.453125 6.390625 43.28125 13.890625 
Q 47.125 21.390625 47.125 36.375 
Q 47.125 51.421875 43.28125 58.90625 
Q 39.453125 66.40625 31.78125 66.40625 
z
M 31.78125 74.21875 
Q 44.046875 74.21875 50.515625 64.515625 
Q 56.984375 54.828125 56.984375 36.375 
Q 56.984375 17.96875 50.515625 8.265625 
Q 44.046875 -1.421875 31.78125 -1.421875 
Q 19.53125 -1.421875 13.0625 8.265625 
Q 6.59375 17.96875 6.59375 36.375 
Q 6.59375 54.828125 13.0625 64.515625 
Q 19.53125 74.21875 31.78125 74.21875 
z
" id="DejaVuSans-48"/>
      </defs>
      <g transform="translate(64.764432 269.637812)scale(0.14 -0.14)">
       <use xlink:href="#DejaVuSans-48"/>
      </g>
     </g>
    </g>
    <g id="xtick_2">
     <g id="line2d_2">
      <g>
       <use style="stroke:#000000;stroke-width:0.8;" x="145.309091" xlink:href="#m2196fce324" y="252"/>
      </g>
     </g>
     <g id="text_2">
      <!-- 5 -->
      <defs>
       <path d="M 10.796875 72.90625 
L 49.515625 72.90625 
L 49.515625 64.59375 
L 19.828125 64.59375 
L 19.828125 46.734375 
Q 21.96875 47.46875 24.109375 47.828125 
Q 26.265625 48.1875 28.421875 48.1875 
Q 40.625 48.1875 47.75 41.5 
Q 54.890625 34.8125 54.890625 23.390625 
Q 54.890625 11.625 47.5625 5.09375 
Q 40.234375 -1.421875 26.90625 -1.421875 
Q 22.3125 -1.421875 17.546875 -0.640625 
Q 12.796875 0.140625 7.71875 1.703125 
L 7.71875 11.625 
Q 12.109375 9.234375 16.796875 8.0625 
Q 21.484375 6.890625 26.703125 6.890625 
Q 35.15625 6.890625 40.078125 11.328125 
Q 45.015625 15.765625 45.015625 23.390625 
Q 45.015625 31 40.078125 35.4375 
Q 35.15625 39.890625 26.703125 39.890625 
Q 22.75 39.890625 18.8125 39.015625 
Q 14.890625 38.140625 10.796875 36.28125 
z
" id="DejaVuSans-53"/>
      </defs>
      <g transform="translate(140.855341 269.637812)scale(0.14 -0.14)">
       <use xlink:href="#DejaVuSans-53"/>
      </g>
     </g>
    </g>
    <g id="xtick_3">
     <g id="line2d_3">
      <g>
       <use style="stroke:#000000;stroke-width:0.8;" x="221.4" xlink:href="#m2196fce324" y="252"/>
      </g>
     </g>
     <g id="text_3">
      <!-- 10 -->
      <defs>
       <path d="M 12.40625 8.296875 
L 28.515625 8.296875 
L 28.515625 63.921875 
L 10.984375 60.40625 
L 10.984375 69.390625 
L 28.421875 72.90625 
L 38.28125 72.90625 
L 38.28125 8.296875 
L 54.390625 8.296875 
L 54.390625 0 
L 12.40625 0 
z
" id="DejaVuSans-49"/>
      </defs>
      <g transform="translate(212.4925 269.637812)scale(0.14 -0.14)">
       <use xlink:href="#DejaVuSans-49"/>
       <use x="63.623047" xlink:href="#DejaVuSans-48"/>
      </g>
     </g>
    </g>
    <g id="xtick_4">
     <g id="line2d_4">
      <g>
       <use style="stroke:#000000;stroke-width:0.8;" x="297.490909" xlink:href="#m2196fce324" y="252"/>
      </g>
     </g>
     <g id="text_4">
      <!-- 15 -->
      <g transform="translate(288.583409 269.637812)scale(0.14 -0.14)">
       <use xlink:href="#DejaVuSans-49"/>
       <use x="63.623047" xlink:href="#DejaVuSans-53"/>
      </g>
     </g>
    </g>
    <g id="xtick_5">
     <g id="line2d_5">
      <g>
       <use style="stroke:#000000;stroke-width:0.8;" x="373.581818" xlink:href="#m2196fce324" y="252"/>
      </g>
     </g>
     <g id="text_5">
      <!-- 20 -->
      <defs>
       <path d="M 19.1875 8.296875 
L 53.609375 8.296875 
L 53.609375 0 
L 7.328125 0 
L 7.328125 8.296875 
Q 12.9375 14.109375 22.625 23.890625 
Q 32.328125 33.6875 34.8125 36.53125 
Q 39.546875 41.84375 41.421875 45.53125 
Q 43.3125 49.21875 43.3125 52.78125 
Q 43.3125 58.59375 39.234375 62.25 
Q 35.15625 65.921875 28.609375 65.921875 
Q 23.96875 65.921875 18.8125 64.3125 
Q 13.671875 62.703125 7.8125 59.421875 
L 7.8125 69.390625 
Q 13.765625 71.78125 18.9375 73 
Q 24.125 74.21875 28.421875 74.21875 
Q 39.75 74.21875 46.484375 68.546875 
Q 53.21875 62.890625 53.21875 53.421875 
Q 53.21875 48.921875 51.53125 44.890625 
Q 49.859375 40.875 45.40625 35.40625 
Q 44.1875 33.984375 37.640625 27.21875 
Q 31.109375 20.453125 19.1875 8.296875 
z
" id="DejaVuSans-50"/>
      </defs>
      <g transform="translate(364.674318 269.637812)scale(0.14 -0.14)">
       <use xlink:href="#DejaVuSans-50"/>
       <use x="63.623047" xlink:href="#DejaVuSans-48"/>
      </g>
     </g>
    </g>
    <g id="text_6">
     <!-- Time -->
     <defs>
      <path d="M -0.296875 72.90625 
L 61.375 72.90625 
L 61.375 64.59375 
L 35.5 64.59375 
L 35.5 0 
L 25.59375 0 
L 25.59375 64.59375 
L -0.296875 64.59375 
z
" id="DejaVuSans-84"/>
      <path d="M 9.421875 54.6875 
L 18.40625 54.6875 
L 18.40625 0 
L 9.421875 0 
z
M 9.421875 75.984375 
L 18.40625 75.984375 
L 18.40625 64.59375 
L 9.421875 64.59375 
z
" id="DejaVuSans-105"/>
      <path d="M 52 44.1875 
Q 55.375 50.25 60.0625 53.125 
Q 64.75 56 71.09375 56 
Q 79.640625 56 84.28125 50.015625 
Q 88.921875 44.046875 88.921875 33.015625 
L 88.921875 0 
L 79.890625 0 
L 79.890625 32.71875 
Q 79.890625 40.578125 77.09375 44.375 
Q 74.3125 48.1875 68.609375 48.1875 
Q 61.625 48.1875 57.5625 43.546875 
Q 53.515625 38.921875 53.515625 30.90625 
L 53.515625 0 
L 44.484375 0 
L 44.484375 32.71875 
Q 44.484375 40.625 41.703125 44.40625 
Q 38.921875 48.1875 33.109375 48.1875 
Q 26.21875 48.1875 22.15625 43.53125 
Q 18.109375 38.875 18.109375 30.90625 
L 18.109375 0 
L 9.078125 0 
L 9.078125 54.6875 
L 18.109375 54.6875 
L 18.109375 46.1875 
Q 21.1875 51.21875 25.484375 53.609375 
Q 29.78125 56 35.6875 56 
Q 41.65625 56 45.828125 52.96875 
Q 50 49.953125 52 44.1875 
z
" id="DejaVuSans-109"/>
      <path d="M 56.203125 29.59375 
L 56.203125 25.203125 
L 14.890625 25.203125 
Q 15.484375 15.921875 20.484375 11.0625 
Q 25.484375 6.203125 34.421875 6.203125 
Q 39.59375 6.203125 44.453125 7.46875 
Q 49.3125 8.734375 54.109375 11.28125 
L 54.109375 2.78125 
Q 49.265625 0.734375 44.1875 -0.34375 
Q 39.109375 -1.421875 33.890625 -1.421875 
Q 20.796875 -1.421875 13.15625 6.1875 
Q 5.515625 13.8125 5.515625 26.8125 
Q 5.515625 40.234375 12.765625 48.109375 
Q 20.015625 56 32.328125 56 
Q 43.359375 56 49.78125 48.890625 
Q 56.203125 41.796875 56.203125 29.59375 
z
M 47.21875 32.234375 
Q 47.125 39.59375 43.09375 43.984375 
Q 39.0625 48.390625 32.421875 48.390625 
Q 24.90625 48.390625 20.390625 44.140625 
Q 15.875 39.890625 15.1875 32.171875 
z
" id="DejaVuSans-101"/>
     </defs>
     <g transform="translate(199.1025 290.226562)scale(0.18 -0.18)">
      <use xlink:href="#DejaVuSans-84"/>
      <use x="61.037109" xlink:href="#DejaVuSans-105"/>
      <use x="88.820312" xlink:href="#DejaVuSans-109"/>
      <use x="186.232422" xlink:href="#DejaVuSans-101"/>
     </g>
    </g>
   </g>
   <g id="matplotlib.axis_2">
    <g id="ytick_1">
     <g id="line2d_6">
      <defs>
       <path d="M 0 0 
L -3.5 0 
" id="ma077711532" style="stroke:#000000;stroke-width:0.8;"/>
      </defs>
      <g>
       <use style="stroke:#000000;stroke-width:0.8;" x="54" xlink:href="#ma077711532" y="242.116364"/>
      </g>
     </g>
     <g id="text_7">
      <!-- 0 -->
      <g transform="translate(38.0925 247.43527)scale(0.14 -0.14)">
       <use xlink:href="#DejaVuSans-48"/>
      </g>
     </g>
    </g>
    <g id="ytick_2">
     <g id="line2d_7">
      <g>
       <use style="stroke:#000000;stroke-width:0.8;" x="54" xlink:href="#ma077711532" y="206.597225"/>
      </g>
     </g>
     <g id="text_8">
      <!-- 2500 -->
      <g transform="translate(11.37 211.916131)scale(0.14 -0.14)">
       <use xlink:href="#DejaVuSans-50"/>
       <use x="63.623047" xlink:href="#DejaVuSans-53"/>
       <use x="127.246094" xlink:href="#DejaVuSans-48"/>
       <use x="190.869141" xlink:href="#DejaVuSans-48"/>
      </g>
     </g>
    </g>
    <g id="ytick_3">
     <g id="line2d_8">
      <g>
       <use style="stroke:#000000;stroke-width:0.8;" x="54" xlink:href="#ma077711532" y="171.078086"/>
      </g>
     </g>
     <g id="text_9">
      <!-- 5000 -->
      <g transform="translate(11.37 176.396992)scale(0.14 -0.14)">
       <use xlink:href="#DejaVuSans-53"/>
       <use x="63.623047" xlink:href="#DejaVuSans-48"/>
       <use x="127.246094" xlink:href="#DejaVuSans-48"/>
       <use x="190.869141" xlink:href="#DejaVuSans-48"/>
      </g>
     </g>
    </g>
    <g id="ytick_4">
     <g id="line2d_9">
      <g>
       <use style="stroke:#000000;stroke-width:0.8;" x="54" xlink:href="#ma077711532" y="135.558947"/>
      </g>
     </g>
     <g id="text_10">
      <!-- 7500 -->
      <defs>
       <path d="M 8.203125 72.90625 
L 55.078125 72.90625 
L 55.078125 68.703125 
L 28.609375 0 
L 18.3125 0 
L 43.21875 64.59375 
L 8.203125 64.59375 
z
" id="DejaVuSans-55"/>
      </defs>
      <g transform="translate(11.37 140.877853)scale(0.14 -0.14)">
       <use xlink:href="#DejaVuSans-55"/>
       <use x="63.623047" xlink:href="#DejaVuSans-53"/>
       <use x="127.246094" xlink:href="#DejaVuSans-48"/>
       <use x="190.869141" xlink:href="#DejaVuSans-48"/>
      </g>
     </g>
    </g>
    <g id="ytick_5">
     <g id="line2d_10">
      <g>
       <use style="stroke:#000000;stroke-width:0.8;" x="54" xlink:href="#ma077711532" y="100.039808"/>
      </g>
     </g>
     <g id="text_11">
      <!-- 10000 -->
      <g transform="translate(2.4625 105.358714)scale(0.14 -0.14)">
       <use xlink:href="#DejaVuSans-49"/>
       <use x="63.623047" xlink:href="#DejaVuSans-48"/>
       <use x="127.246094" xlink:href="#DejaVuSans-48"/>
       <use x="190.869141" xlink:href="#DejaVuSans-48"/>
       <use x="254.492188" xlink:href="#DejaVuSans-48"/>
      </g>
     </g>
    </g>
    <g id="ytick_6">
     <g id="line2d_11">
      <g>
       <use style="stroke:#000000;stroke-width:0.8;" x="54" xlink:href="#ma077711532" y="64.520669"/>
      </g>
     </g>
     <g id="text_12">
      <!-- 12500 -->
      <g transform="translate(2.4625 69.839575)scale(0.14 -0.14)">
       <use xlink:href="#DejaVuSans-49"/>
       <use x="63.623047" xlink:href="#DejaVuSans-50"/>
       <use x="127.246094" xlink:href="#DejaVuSans-53"/>
       <use x="190.869141" xlink:href="#DejaVuSans-48"/>
       <use x="254.492188" xlink:href="#DejaVuSans-48"/>
      </g>
     </g>
    </g>
    <g id="text_13">
     <!-- [X] -->
     <defs>
      <path d="M 8.59375 75.984375 
L 29.296875 75.984375 
L 29.296875 69 
L 17.578125 69 
L 17.578125 -6.203125 
L 29.296875 -6.203125 
L 29.296875 -13.1875 
L 8.59375 -13.1875 
z
" id="DejaVuSans-91"/>
      <path d="M 6.296875 72.90625 
L 16.890625 72.90625 
L 35.015625 45.796875 
L 53.21875 72.90625 
L 63.8125 72.90625 
L 40.375 37.890625 
L 65.375 0 
L 54.78125 0 
L 34.28125 31 
L 13.625 0 
L 2.984375 0 
L 29 38.921875 
z
" id="DejaVuSans-88"/>
      <path d="M 30.421875 75.984375 
L 30.421875 -13.1875 
L 9.71875 -13.1875 
L 9.71875 -6.203125 
L 21.390625 -6.203125 
L 21.390625 69 
L 9.71875 69 
L 9.71875 75.984375 
z
" id="DejaVuSans-93"/>
     </defs>
     <g transform="translate(-5.280938 156.467813)rotate(-90)scale(0.18 -0.18)">
      <use xlink:href="#DejaVuSans-91"/>
      <use x="39.013672" xlink:href="#DejaVuSans-88"/>
      <use x="107.519531" xlink:href="#DejaVuSans-93"/>
     </g>
    </g>
   </g>
   <g id="line2d_12">
    <path clip-path="url(#p5d80d743ed)" d="M 69.218182 242.116364 
L 72.292562 242.011408 
L 75.366942 241.703511 
L 78.441322 241.212121 
L 81.515702 240.554872 
L 84.590083 239.747703 
L 87.664463 238.805023 
L 90.738843 237.739856 
L 93.813223 236.563975 
L 96.887603 235.288024 
L 99.961983 233.921624 
L 103.036364 232.473471 
L 106.110744 230.951428 
L 109.185124 229.362604 
L 112.259504 227.713424 
L 115.333884 226.009697 
L 118.408264 224.256677 
L 121.482645 222.459112 
L 124.557025 220.621299 
L 127.631405 218.747121 
L 130.705785 216.840093 
L 133.780165 214.903392 
L 136.854545 212.939896 
L 139.928926 210.952211 
L 143.003306 208.942695 
L 146.077686 206.913488 
L 149.152066 204.866532 
L 152.226446 202.803594 
L 155.300826 200.726282 
L 158.375207 198.63607 
L 161.449587 196.534311 
L 164.523967 194.422263 
L 167.598347 192.301109 
L 170.672727 190.171982 
L 173.747107 188.036013 
L 176.821488 185.894382 
L 179.895868 183.748431 
L 182.970248 181.599871 
L 186.044628 179.451249 
L 189.119008 177.307164 
L 192.193388 175.177896 
L 195.267769 173.090078 
L 198.342149 171.097301 
L 201.416529 169.247392 
L 204.490909 167.553919 
L 207.565289 166.01222 
L 210.639669 164.612154 
L 213.71405 163.342343 
L 216.78843 162.191531 
L 219.86281 161.149061 
L 222.93719 160.205037 
L 226.01157 159.350352 
L 229.08595 158.57668 
L 232.160331 157.876426 
L 235.234711 157.24268 
L 238.309091 156.669166 
L 241.383471 156.150187 
L 244.457851 155.680576 
L 247.532231 155.255648 
L 250.606612 154.871162 
L 253.680992 154.523271 
L 256.755372 154.208497 
L 259.829752 153.923686 
L 262.904132 153.665986 
L 265.978512 153.432814 
L 269.052893 153.221834 
L 272.127273 153.030931 
L 275.201653 152.85819 
L 278.276033 152.701881 
L 281.350413 152.560436 
L 284.424793 152.432438 
L 287.499174 152.316605 
L 290.573554 152.211777 
L 293.647934 152.116904 
L 296.722314 152.031037 
L 299.796694 151.953317 
L 302.871074 151.882968 
L 305.945455 151.819286 
L 309.019835 151.761637 
L 312.094215 151.709444 
L 315.168595 151.662189 
L 318.242975 151.6194 
L 321.317355 151.580653 
L 324.391736 151.545562 
L 327.466116 151.513779 
L 330.540496 151.484989 
L 333.614876 151.458907 
L 336.689256 151.435276 
L 339.763636 151.413863 
L 342.838017 151.394457 
L 345.912397 151.376866 
L 348.986777 151.360919 
L 352.061157 151.346459 
L 355.135537 151.333346 
L 358.209917 151.321451 
L 361.284298 151.310659 
L 364.358678 151.300865 
L 367.433058 151.291976 
L 370.507438 151.283905 
L 373.581818 151.276575 
" style="fill:none;stroke:#000000;stroke-dasharray:18.5,8;stroke-dashoffset:0;stroke-width:5;"/>
   </g>
   <g id="line2d_13">
    <path clip-path="url(#p5d80d743ed)" d="M 69.218182 242.116364 
L 72.292562 233.855407 
L 75.366942 225.989393 
L 78.441322 218.847685 
L 81.515702 212.379139 
L 84.590083 206.524923 
L 87.664463 201.228628 
L 90.738843 196.438051 
L 93.813223 192.105441 
L 96.887603 188.187338 
L 99.961983 184.644288 
L 103.036364 181.440521 
L 106.110744 178.543634 
L 109.185124 175.924292 
L 112.259504 173.555944 
L 115.333884 171.414567 
L 118.408264 169.478428 
L 121.482645 167.727869 
L 124.557025 166.14511 
L 127.631405 164.714071 
L 130.705785 163.420212 
L 133.780165 162.250381 
L 136.854545 161.19269 
L 139.928926 160.236387 
L 143.003306 159.371751 
L 146.077686 158.589991 
L 149.152066 157.883161 
L 152.226446 157.244075 
L 155.300826 156.666236 
L 158.375207 156.143771 
L 161.449587 155.67137 
L 164.523967 155.244231 
L 167.598347 154.858014 
L 170.672727 154.508793 
L 173.747107 154.193022 
L 176.821488 153.907492 
L 179.895868 153.649303 
L 182.970248 153.415834 
L 186.044628 153.204714 
L 189.119008 153.0138 
L 192.193388 152.841155 
L 195.267769 152.685027 
L 198.342149 152.543833 
L 201.416529 152.416141 
L 204.490909 152.300656 
L 207.565289 152.196209 
L 210.639669 152.101742 
L 213.71405 152.016297 
L 216.78843 151.939012 
L 219.86281 151.869103 
L 222.93719 151.805864 
L 226.01157 151.748656 
L 229.08595 151.696902 
L 232.160331 151.650078 
L 235.234711 151.607713 
L 238.309091 151.569381 
L 241.383471 151.534694 
L 244.457851 151.503304 
L 247.532231 151.474895 
L 250.606612 151.449183 
L 253.680992 151.425908 
L 256.755372 151.404839 
L 259.829752 151.385764 
L 262.904132 151.368493 
L 265.978512 151.352853 
L 269.052893 151.338688 
L 272.127273 151.325857 
L 275.201653 151.314234 
L 278.276033 151.303702 
L 281.350413 151.294158 
L 284.424793 151.285508 
L 287.499174 151.277665 
L 290.573554 151.270554 
L 293.647934 151.264105 
L 296.722314 151.258254 
L 299.796694 151.252945 
L 302.871074 151.248127 
L 305.945455 151.243751 
L 309.019835 151.239778 
L 312.094215 151.236167 
L 315.168595 151.232886 
L 318.242975 151.229902 
L 321.317355 151.227188 
L 324.391736 151.224719 
L 327.466116 151.22247 
L 330.540496 151.220421 
L 333.614876 151.218554 
L 336.689256 151.216851 
L 339.763636 151.215297 
L 342.838017 151.213877 
L 345.912397 151.21258 
L 348.986777 151.211394 
L 352.061157 151.210308 
L 355.135537 151.209314 
L 358.209917 151.208402 
L 361.284298 151.207565 
L 364.358678 151.206796 
L 367.433058 151.206088 
L 370.507438 151.205437 
L 373.581818 151.204837 
" style="fill:none;stroke:#1f77b4;stroke-linecap:square;stroke-width:2;"/>
   </g>
   <g id="line2d_14">
    <path clip-path="url(#p5d80d743ed)" d="M 69.218182 242.116364 
L 72.292562 242.007996 
L 75.366942 241.696891 
L 78.441322 241.202527 
L 81.515702 240.542511 
L 84.590083 239.732759 
L 87.664463 238.787656 
L 90.738843 237.720206 
L 93.813223 236.542164 
L 96.887603 235.264156 
L 99.961983 233.895785 
L 103.036364 232.445733 
L 106.110744 230.921848 
L 109.185124 229.331224 
L 112.259504 227.680272 
L 115.333884 225.974789 
L 118.408264 224.220013 
L 121.482645 222.420681 
L 124.557025 220.581073 
L 127.631405 218.70506 
L 130.705785 216.796137 
L 133.780165 214.857468 
L 136.854545 212.891911 
L 139.928926 210.902048 
L 143.003306 208.890215 
L 146.077686 206.858522 
L 149.152066 204.808878 
L 152.226446 202.743007 
L 155.300826 200.662469 
L 158.375207 198.568672 
L 161.449587 196.462891 
L 164.523967 194.346276 
L 167.598347 192.219869 
L 170.672727 190.084611 
L 173.747107 187.941351 
L 176.821488 185.790859 
L 179.895868 183.633829 
L 182.970248 181.47089 
L 186.044628 179.302609 
L 189.119008 177.129499 
L 192.193388 174.952025 
L 195.267769 172.770606 
L 198.342149 170.585621 
L 201.416529 168.397411 
L 204.490909 166.206288 
L 207.565289 164.012532 
L 210.639669 161.816394 
L 213.71405 159.618104 
L 216.78843 157.417869 
L 219.86281 155.215875 
L 222.93719 153.012292 
L 226.01157 150.807272 
L 229.08595 148.600953 
L 232.160331 146.39346 
L 235.234711 144.184907 
L 238.309091 141.975393 
L 241.383471 139.765013 
L 244.457851 137.553849 
L 247.532231 135.341977 
L 250.606612 133.129464 
L 253.680992 130.916372 
L 256.755372 128.702758 
L 259.829752 126.48867 
L 262.904132 124.274154 
L 265.978512 122.059252 
L 269.052893 119.844001 
L 272.127273 117.628434 
L 275.201653 115.412581 
L 278.276033 113.196471 
L 281.350413 110.980127 
L 284.424793 108.763573 
L 287.499174 106.546828 
L 290.573554 104.32991 
L 293.647934 102.112837 
L 296.722314 99.895624 
L 299.796694 97.678283 
L 302.871074 95.460827 
L 305.945455 93.243267 
L 309.019835 91.025613 
L 312.094215 88.807874 
L 315.168595 86.590058 
L 318.242975 84.372173 
L 321.317355 82.154225 
L 324.391736 79.936221 
L 327.466116 77.718165 
L 330.540496 75.500063 
L 333.614876 73.281919 
L 336.689256 71.063738 
L 339.763636 68.845522 
L 342.838017 66.627275 
L 345.912397 64.409 
L 348.986777 62.1907 
L 352.061157 59.972377 
L 355.135537 57.754033 
L 358.209917 55.535671 
L 361.284298 53.317292 
L 364.358678 51.098897 
L 367.433058 48.880489 
L 370.507438 46.662068 
L 373.581818 44.443636 
" style="fill:none;stroke:#ff7f0e;stroke-linecap:square;stroke-width:2;"/>
   </g>
   <g id="line2d_15">
    <path clip-path="url(#p5d80d743ed)" d="M 69.218182 242.116364 
L 72.292562 233.952051 
L 75.366942 226.077627 
L 78.441322 218.927736 
L 81.515702 212.451648 
L 84.590083 206.590556 
L 87.664463 201.288014 
L 90.738843 196.491774 
L 93.813223 192.154034 
L 96.887603 188.231286 
L 99.961983 184.684034 
L 103.036364 181.476464 
L 106.110744 178.576137 
L 109.185124 175.953684 
L 112.259504 173.582522 
L 115.333884 171.4386 
L 118.408264 169.50016 
L 121.482645 167.747521 
L 124.557025 166.16288 
L 127.631405 164.73014 
L 130.705785 163.434741 
L 133.780165 162.263519 
L 136.854545 161.204569 
L 139.928926 160.247128 
L 143.003306 159.381463 
L 146.077686 158.598773 
L 149.152066 157.891102 
L 152.226446 157.251256 
L 155.300826 156.67273 
L 158.375207 156.149645 
L 161.449587 155.676682 
L 164.523967 155.249035 
L 167.598347 154.862358 
L 170.672727 154.512722 
L 173.747107 154.196575 
L 176.821488 153.910706 
L 179.895868 153.65221 
L 182.970248 153.418463 
L 186.044628 153.207092 
L 189.119008 153.015951 
L 192.193388 152.843101 
L 195.267769 152.686787 
L 198.342149 152.545425 
L 201.416529 152.417581 
L 204.490909 152.30196 
L 207.565289 152.197388 
L 210.639669 152.102809 
L 213.71405 152.017263 
L 216.78843 151.939886 
L 219.86281 151.869894 
L 222.93719 151.80658 
L 226.01157 151.749305 
L 229.08595 151.697489 
L 232.160331 151.65061 
L 235.234711 151.608195 
L 238.309091 151.569817 
L 241.383471 151.535089 
L 244.457851 151.503662 
L 247.532231 151.475219 
L 250.606612 151.449476 
L 253.680992 151.426175 
L 256.755372 151.405081 
L 259.829752 151.385983 
L 262.904132 151.368691 
L 265.978512 151.353033 
L 269.052893 151.338851 
L 272.127273 151.326006 
L 275.201653 151.314368 
L 278.276033 151.303824 
L 281.350413 151.294269 
L 284.424793 151.285609 
L 287.499174 151.277757 
L 290.573554 151.270638 
L 293.647934 151.264181 
L 296.722314 151.258324 
L 299.796694 151.253009 
L 302.871074 151.248184 
L 305.945455 151.243804 
L 309.019835 151.239826 
L 312.094215 151.236211 
L 315.168595 151.232926 
L 318.242975 151.229939 
L 321.317355 151.227222 
L 324.391736 151.224749 
L 327.466116 151.222498 
L 330.540496 151.220447 
L 333.614876 151.218578 
L 336.689256 151.216873 
L 339.763636 151.215317 
L 342.838017 151.213896 
L 345.912397 151.212597 
L 348.986777 151.21141 
L 352.061157 151.210323 
L 355.135537 151.209327 
L 358.209917 151.208414 
L 361.284298 151.207576 
L 364.358678 151.206807 
L 367.433058 151.206099 
L 370.507438 151.205447 
L 373.581818 151.204846 
" style="fill:none;stroke:#2ca02c;stroke-linecap:square;stroke-width:2;"/>
   </g>
   <g id="line2d_16">
    <path clip-path="url(#p5d80d743ed)" d="M 69.218182 242.116364 
L 72.292562 242.011342 
L 75.366942 241.703313 
L 78.441322 241.211731 
L 81.515702 240.554229 
L 84.590083 239.746749 
L 87.664463 238.8037 
L 90.738843 237.738106 
L 93.813223 236.561743 
L 96.887603 235.285251 
L 99.961983 233.918252 
L 103.036364 232.469439 
L 106.110744 230.946675 
L 109.185124 229.357063 
L 112.259504 227.707027 
L 115.333884 226.002371 
L 118.408264 224.248343 
L 121.482645 222.449687 
L 124.557025 220.610691 
L 127.631405 218.735229 
L 130.705785 216.826806 
L 133.780165 214.888589 
L 136.854545 212.923439 
L 139.928926 210.933945 
L 143.003306 208.922445 
L 146.077686 206.891054 
L 149.152066 204.841682 
L 152.226446 202.776058 
L 155.300826 200.695742 
L 158.375207 198.602146 
L 161.449587 196.496547 
L 164.523967 194.380096 
L 167.598347 192.253838 
L 170.672727 190.118714 
L 173.747107 187.975575 
L 176.821488 185.825193 
L 179.895868 183.668262 
L 182.970248 181.505413 
L 186.044628 179.337213 
L 189.119008 177.164176 
L 192.193388 174.986769 
L 195.267769 172.805409 
L 198.342149 170.620478 
L 201.416529 168.432318 
L 204.490909 166.241239 
L 207.565289 164.047522 
L 210.639669 161.85142 
L 213.71405 159.653163 
L 216.78843 157.452957 
L 219.86281 155.25099 
L 222.93719 153.047431 
L 226.01157 150.842433 
L 229.08595 148.636134 
L 232.160331 146.428659 
L 235.234711 144.220121 
L 238.309091 142.010623 
L 241.383471 139.800256 
L 244.457851 137.589104 
L 247.532231 135.377242 
L 250.606612 133.164739 
L 253.680992 130.951656 
L 256.755372 128.738049 
L 259.829752 126.523968 
L 262.904132 124.309459 
L 265.978512 122.094563 
L 269.052893 119.879317 
L 272.127273 117.663755 
L 275.201653 115.447907 
L 278.276033 113.2318 
L 281.350413 111.01546 
L 284.424793 108.798909 
L 287.499174 106.582167 
L 290.573554 104.365252 
L 293.647934 102.148181 
L 296.722314 99.93097 
L 299.796694 97.713631 
L 302.871074 95.496177 
L 305.945455 93.278618 
L 309.019835 91.060966 
L 312.094215 88.843229 
L 315.168595 86.625414 
L 318.242975 84.40753 
L 321.317355 82.189584 
L 324.391736 79.97158 
L 327.466116 77.753525 
L 330.540496 75.535424 
L 333.614876 73.317281 
L 336.689256 71.0991 
L 339.763636 68.880884 
L 342.838017 66.662638 
L 345.912397 64.444363 
L 348.986777 62.226064 
L 352.061157 60.007741 
L 355.135537 57.789398 
L 358.209917 55.571036 
L 361.284298 53.352657 
L 364.358678 51.134263 
L 367.433058 48.915855 
L 370.507438 46.697434 
L 373.581818 44.479003 
" style="fill:none;stroke:#d62728;stroke-linecap:square;stroke-width:2;"/>
   </g>
   <g id="line2d_17">
    <path clip-path="url(#p5d80d743ed)" d="M 69.218182 242.116364 
L 72.292562 242.008063 
L 75.366942 241.69709 
L 78.441322 241.202921 
L 81.515702 240.543159 
L 84.590083 239.733719 
L 87.664463 238.788985 
L 90.738843 237.721963 
L 93.813223 236.544405 
L 96.887603 235.266938 
L 99.961983 233.899167 
L 103.036364 232.449775 
L 106.110744 230.926614 
L 109.185124 229.336777 
L 112.259504 227.686683 
L 115.333884 225.98213 
L 118.408264 224.228363 
L 121.482645 222.430124 
L 124.557025 220.591701 
L 127.631405 218.716972 
L 130.705785 216.809446 
L 133.780165 214.872296 
L 136.854545 212.908395 
L 139.928926 210.920343 
L 143.003306 208.910496 
L 146.077686 206.880992 
L 149.152066 204.833768 
L 152.226446 202.770588 
L 155.300826 200.693059 
L 158.375207 198.602652 
L 161.449587 196.50072 
L 164.523967 194.388517 
L 167.598347 192.267227 
L 170.672727 190.137982 
L 173.747107 188.001913 
L 176.821488 185.860202 
L 179.895868 183.714195 
L 182.970248 181.56561 
L 186.044628 179.417017 
L 189.119008 177.273062 
L 192.193388 175.14418 
L 195.267769 173.057398 
L 198.342149 171.066612 
L 201.416529 169.219166 
L 204.490909 167.528175 
L 207.565289 165.988819 
L 210.639669 164.59092 
L 213.71405 163.323093 
L 216.78843 162.174089 
L 219.86281 161.133265 
L 222.93719 160.190734 
L 226.01157 159.337404 
L 229.08595 158.56496 
L 232.160331 157.865818 
L 235.234711 157.233081 
L 238.309091 156.660479 
L 241.383471 156.142326 
L 244.457851 155.673463 
L 247.532231 155.249213 
L 250.606612 154.865339 
L 253.680992 154.518003 
L 256.755372 154.203729 
L 259.829752 153.919372 
L 262.904132 153.662083 
L 265.978512 153.429283 
L 269.052893 153.218639 
L 272.127273 153.02804 
L 275.201653 152.855574 
L 278.276033 152.699514 
L 281.350413 152.558294 
L 284.424793 152.4305 
L 287.499174 152.314851 
L 290.573554 152.210189 
L 293.647934 152.115468 
L 296.722314 152.029738 
L 299.796694 151.952142 
L 302.871074 151.881905 
L 305.945455 151.818324 
L 309.019835 151.760766 
L 312.094215 151.708656 
L 315.168595 151.661476 
L 318.242975 151.618755 
L 321.317355 151.580068 
L 324.391736 151.545032 
L 327.466116 151.513299 
L 330.540496 151.484555 
L 333.614876 151.458514 
L 336.689256 151.43492 
L 339.763636 151.41354 
L 342.838017 151.394164 
L 345.912397 151.376601 
L 348.986777 151.360679 
L 352.061157 151.346242 
L 355.135537 151.333149 
L 358.209917 151.321273 
L 361.284298 151.310497 
L 364.358678 151.300719 
L 367.433058 151.291843 
L 370.507438 151.283785 
L 373.581818 151.276466 
" style="fill:none;stroke:#9467bd;stroke-linecap:square;stroke-width:2;"/>
   </g>
   <g id="line2d_18">
    <path clip-path="url(#p5d80d743ed)" d="M 69.218182 242.116364 
L 72.292562 233.855407 
L 75.366942 225.989393 
L 78.441322 218.847685 
L 81.515702 212.379139 
L 84.590083 206.524922 
L 87.664463 201.228628 
L 90.738843 196.43805 
L 93.813223 192.10544 
L 96.887603 188.187338 
L 99.961983 184.644288 
L 103.036364 181.44052 
L 106.110744 178.543634 
L 109.185124 175.924291 
L 112.259504 173.555943 
L 115.333884 171.414566 
L 118.408264 169.478427 
L 121.482645 167.727869 
L 124.557025 166.14511 
L 127.631405 164.71407 
L 130.705785 163.42021 
L 133.780165 162.250379 
L 136.854545 161.192687 
L 139.928926 160.236384 
L 143.003306 159.371747 
L 146.077686 158.589986 
L 149.152066 157.883156 
L 152.226446 157.244069 
L 155.300826 156.666231 
L 158.375207 156.143767 
L 161.449587 155.671366 
L 164.523967 155.244227 
L 167.598347 154.85801 
L 170.672727 154.50879 
L 173.747107 154.193019 
L 176.821488 153.907489 
L 179.895868 153.6493 
L 182.970248 153.415831 
L 186.044628 153.204711 
L 189.119008 153.013798 
L 192.193388 152.841153 
L 195.267769 152.685025 
L 198.342149 152.543831 
L 201.416529 152.416139 
L 204.490909 152.300654 
L 207.565289 152.196207 
L 210.639669 152.10174 
L 213.71405 152.016296 
L 216.78843 151.93901 
L 219.86281 151.869101 
L 222.93719 151.805863 
L 226.01157 151.748655 
L 229.08595 151.6969 
L 232.160331 151.650077 
L 235.234711 151.607712 
L 238.309091 151.569379 
L 241.383471 151.534692 
L 244.457851 151.503302 
L 247.532231 151.474894 
L 250.606612 151.449182 
L 253.680992 151.425908 
L 256.755372 151.404839 
L 259.829752 151.385764 
L 262.904132 151.368493 
L 265.978512 151.352852 
L 269.052893 151.338688 
L 272.127273 151.325858 
L 275.201653 151.314235 
L 278.276033 151.303703 
L 281.350413 151.294159 
L 284.424793 151.285509 
L 287.499174 151.277666 
L 290.573554 151.270556 
L 293.647934 151.264106 
L 296.722314 151.258256 
L 299.796694 151.252947 
L 302.871074 151.248128 
L 305.945455 151.243753 
L 309.019835 151.239779 
L 312.094215 151.236169 
L 315.168595 151.232888 
L 318.242975 151.229905 
L 321.317355 151.227191 
L 324.391736 151.224721 
L 327.466116 151.222471 
L 330.540496 151.220421 
L 333.614876 151.218553 
L 336.689256 151.21685 
L 339.763636 151.215296 
L 342.838017 151.213877 
L 345.912397 151.21258 
L 348.986777 151.211393 
L 352.061157 151.210308 
L 355.135537 151.209313 
L 358.209917 151.208401 
L 361.284298 151.207564 
L 364.358678 151.206794 
L 367.433058 151.206087 
L 370.507438 151.205436 
L 373.581818 151.204836 
" style="fill:none;stroke:#8c564b;stroke-linecap:square;stroke-width:2;"/>
   </g>
   <g id="line2d_19">
    <path clip-path="url(#p5d80d743ed)" d="M 69.218182 242.116364 
L 72.292562 242.007996 
L 75.366942 241.696891 
L 78.441322 241.202527 
L 81.515702 240.542511 
L 84.590083 239.732759 
L 87.664463 238.787656 
L 90.738843 237.720206 
L 93.813223 236.542164 
L 96.887603 235.264156 
L 99.961983 233.895785 
L 103.036364 232.445733 
L 106.110744 230.921848 
L 109.185124 229.331224 
L 112.259504 227.680272 
L 115.333884 225.974789 
L 118.408264 224.220013 
L 121.482645 222.420681 
L 124.557025 220.581074 
L 127.631405 218.70506 
L 130.705785 216.796138 
L 133.780165 214.857469 
L 136.854545 212.891911 
L 139.928926 210.902048 
L 143.003306 208.890215 
L 146.077686 206.858523 
L 149.152066 204.808879 
L 152.226446 202.743008 
L 155.300826 200.66247 
L 158.375207 198.568673 
L 161.449587 196.462891 
L 164.523967 194.346277 
L 167.598347 192.21987 
L 170.672727 190.084611 
L 173.747107 187.941351 
L 176.821488 185.790859 
L 179.895868 183.633829 
L 182.970248 181.47089 
L 186.044628 179.302609 
L 189.119008 177.1295 
L 192.193388 174.952026 
L 195.267769 172.770606 
L 198.342149 170.585621 
L 201.416529 168.397412 
L 204.490909 166.206289 
L 207.565289 164.012532 
L 210.639669 161.816394 
L 213.71405 159.618104 
L 216.78843 157.417869 
L 219.86281 155.215875 
L 222.93719 153.012292 
L 226.01157 150.807272 
L 229.08595 148.600953 
L 232.160331 146.393461 
L 235.234711 144.184907 
L 238.309091 141.975394 
L 241.383471 139.765013 
L 244.457851 137.553849 
L 247.532231 135.341977 
L 250.606612 133.129464 
L 253.680992 130.916372 
L 256.755372 128.702757 
L 259.829752 126.48867 
L 262.904132 124.274154 
L 265.978512 122.059252 
L 269.052893 119.844001 
L 272.127273 117.628434 
L 275.201653 115.412581 
L 278.276033 113.196471 
L 281.350413 110.980127 
L 284.424793 108.763573 
L 287.499174 106.546828 
L 290.573554 104.32991 
L 293.647934 102.112837 
L 296.722314 99.895624 
L 299.796694 97.678283 
L 302.871074 95.460827 
L 305.945455 93.243267 
L 309.019835 91.025613 
L 312.094215 88.807874 
L 315.168595 86.590058 
L 318.242975 84.372173 
L 321.317355 82.154226 
L 324.391736 79.936221 
L 327.466116 77.718165 
L 330.540496 75.500063 
L 333.614876 73.28192 
L 336.689256 71.063738 
L 339.763636 68.845522 
L 342.838017 66.627275 
L 345.912397 64.409 
L 348.986777 62.1907 
L 352.061157 59.972377 
L 355.135537 57.754033 
L 358.209917 55.535671 
L 361.284298 53.317292 
L 364.358678 51.098897 
L 367.433058 48.880489 
L 370.507438 46.662068 
L 373.581818 44.443636 
" style="fill:none;stroke:#e377c2;stroke-linecap:square;stroke-width:2;"/>
   </g>
   <g id="patch_3">
    <path d="M 54 252 
L 54 34.56 
" style="fill:none;stroke:#000000;stroke-linecap:square;stroke-linejoin:miter;stroke-width:0.8;"/>
   </g>
   <g id="patch_4">
    <path d="M 388.8 252 
L 388.8 34.56 
" style="fill:none;stroke:#000000;stroke-linecap:square;stroke-linejoin:miter;stroke-width:0.8;"/>
   </g>
   <g id="patch_5">
    <path d="M 54 252 
L 388.8 252 
" style="fill:none;stroke:#000000;stroke-linecap:square;stroke-linejoin:miter;stroke-width:0.8;"/>
   </g>
   <g id="patch_6">
    <path d="M 54 34.56 
L 388.8 34.56 
" style="fill:none;stroke:#000000;stroke-linecap:square;stroke-linejoin:miter;stroke-width:0.8;"/>
   </g>
   <g id="legend_1">
    <g id="patch_7">
     <path d="M 59.6 137.2625 
L 186.32 137.2625 
Q 187.92 137.2625 187.92 135.6625 
L 187.92 40.16 
Q 187.92 38.56 186.32 38.56 
L 59.6 38.56 
Q 58 38.56 58 40.16 
L 58 135.6625 
Q 58 137.2625 59.6 137.2625 
z
" style="fill:#ffffff;opacity:0.8;stroke:#cccccc;stroke-linejoin:miter;"/>
    </g>
    <g id="line2d_20">
     <path d="M 61.2 45.03875 
L 77.2 45.03875 
" style="fill:none;stroke:#000000;stroke-dasharray:18.5,8;stroke-dashoffset:0;stroke-width:5;"/>
    </g>
    <g id="line2d_21"/>
    <g id="text_14">
     <!-- Full CRN model -->
     <defs>
      <path d="M 9.8125 72.90625 
L 51.703125 72.90625 
L 51.703125 64.59375 
L 19.671875 64.59375 
L 19.671875 43.109375 
L 48.578125 43.109375 
L 48.578125 34.8125 
L 19.671875 34.8125 
L 19.671875 0 
L 9.8125 0 
z
" id="DejaVuSans-70"/>
      <path d="M 8.5 21.578125 
L 8.5 54.6875 
L 17.484375 54.6875 
L 17.484375 21.921875 
Q 17.484375 14.15625 20.5 10.265625 
Q 23.53125 6.390625 29.59375 6.390625 
Q 36.859375 6.390625 41.078125 11.03125 
Q 45.3125 15.671875 45.3125 23.6875 
L 45.3125 54.6875 
L 54.296875 54.6875 
L 54.296875 0 
L 45.3125 0 
L 45.3125 8.40625 
Q 42.046875 3.421875 37.71875 1 
Q 33.40625 -1.421875 27.6875 -1.421875 
Q 18.265625 -1.421875 13.375 4.4375 
Q 8.5 10.296875 8.5 21.578125 
z
M 31.109375 56 
z
" id="DejaVuSans-117"/>
      <path d="M 9.421875 75.984375 
L 18.40625 75.984375 
L 18.40625 0 
L 9.421875 0 
z
" id="DejaVuSans-108"/>
      <path id="DejaVuSans-32"/>
      <path d="M 64.40625 67.28125 
L 64.40625 56.890625 
Q 59.421875 61.53125 53.78125 63.8125 
Q 48.140625 66.109375 41.796875 66.109375 
Q 29.296875 66.109375 22.65625 58.46875 
Q 16.015625 50.828125 16.015625 36.375 
Q 16.015625 21.96875 22.65625 14.328125 
Q 29.296875 6.6875 41.796875 6.6875 
Q 48.140625 6.6875 53.78125 8.984375 
Q 59.421875 11.28125 64.40625 15.921875 
L 64.40625 5.609375 
Q 59.234375 2.09375 53.4375 0.328125 
Q 47.65625 -1.421875 41.21875 -1.421875 
Q 24.65625 -1.421875 15.125 8.703125 
Q 5.609375 18.84375 5.609375 36.375 
Q 5.609375 53.953125 15.125 64.078125 
Q 24.65625 74.21875 41.21875 74.21875 
Q 47.75 74.21875 53.53125 72.484375 
Q 59.328125 70.75 64.40625 67.28125 
z
" id="DejaVuSans-67"/>
      <path d="M 44.390625 34.1875 
Q 47.5625 33.109375 50.5625 29.59375 
Q 53.5625 26.078125 56.59375 19.921875 
L 66.609375 0 
L 56 0 
L 46.6875 18.703125 
Q 43.0625 26.03125 39.671875 28.421875 
Q 36.28125 30.8125 30.421875 30.8125 
L 19.671875 30.8125 
L 19.671875 0 
L 9.8125 0 
L 9.8125 72.90625 
L 32.078125 72.90625 
Q 44.578125 72.90625 50.734375 67.671875 
Q 56.890625 62.453125 56.890625 51.90625 
Q 56.890625 45.015625 53.6875 40.46875 
Q 50.484375 35.9375 44.390625 34.1875 
z
M 19.671875 64.796875 
L 19.671875 38.921875 
L 32.078125 38.921875 
Q 39.203125 38.921875 42.84375 42.21875 
Q 46.484375 45.515625 46.484375 51.90625 
Q 46.484375 58.296875 42.84375 61.546875 
Q 39.203125 64.796875 32.078125 64.796875 
z
" id="DejaVuSans-82"/>
      <path d="M 9.8125 72.90625 
L 23.09375 72.90625 
L 55.421875 11.921875 
L 55.421875 72.90625 
L 64.984375 72.90625 
L 64.984375 0 
L 51.703125 0 
L 19.390625 60.984375 
L 19.390625 0 
L 9.8125 0 
z
" id="DejaVuSans-78"/>
      <path d="M 30.609375 48.390625 
Q 23.390625 48.390625 19.1875 42.75 
Q 14.984375 37.109375 14.984375 27.296875 
Q 14.984375 17.484375 19.15625 11.84375 
Q 23.34375 6.203125 30.609375 6.203125 
Q 37.796875 6.203125 41.984375 11.859375 
Q 46.1875 17.53125 46.1875 27.296875 
Q 46.1875 37.015625 41.984375 42.703125 
Q 37.796875 48.390625 30.609375 48.390625 
z
M 30.609375 56 
Q 42.328125 56 49.015625 48.375 
Q 55.71875 40.765625 55.71875 27.296875 
Q 55.71875 13.875 49.015625 6.21875 
Q 42.328125 -1.421875 30.609375 -1.421875 
Q 18.84375 -1.421875 12.171875 6.21875 
Q 5.515625 13.875 5.515625 27.296875 
Q 5.515625 40.765625 12.171875 48.375 
Q 18.84375 56 30.609375 56 
z
" id="DejaVuSans-111"/>
      <path d="M 45.40625 46.390625 
L 45.40625 75.984375 
L 54.390625 75.984375 
L 54.390625 0 
L 45.40625 0 
L 45.40625 8.203125 
Q 42.578125 3.328125 38.25 0.953125 
Q 33.9375 -1.421875 27.875 -1.421875 
Q 17.96875 -1.421875 11.734375 6.484375 
Q 5.515625 14.40625 5.515625 27.296875 
Q 5.515625 40.1875 11.734375 48.09375 
Q 17.96875 56 27.875 56 
Q 33.9375 56 38.25 53.625 
Q 42.578125 51.265625 45.40625 46.390625 
z
M 14.796875 27.296875 
Q 14.796875 17.390625 18.875 11.75 
Q 22.953125 6.109375 30.078125 6.109375 
Q 37.203125 6.109375 41.296875 11.75 
Q 45.40625 17.390625 45.40625 27.296875 
Q 45.40625 37.203125 41.296875 42.84375 
Q 37.203125 48.484375 30.078125 48.484375 
Q 22.953125 48.484375 18.875 42.84375 
Q 14.796875 37.203125 14.796875 27.296875 
z
" id="DejaVuSans-100"/>
     </defs>
     <g transform="translate(83.6 47.83875)scale(0.08 -0.08)">
      <use xlink:href="#DejaVuSans-70"/>
      <use x="57.441406" xlink:href="#DejaVuSans-117"/>
      <use x="120.820312" xlink:href="#DejaVuSans-108"/>
      <use x="148.603516" xlink:href="#DejaVuSans-108"/>
      <use x="176.386719" xlink:href="#DejaVuSans-32"/>
      <use x="208.173828" xlink:href="#DejaVuSans-67"/>
      <use x="277.998047" xlink:href="#DejaVuSans-82"/>
      <use x="347.480469" xlink:href="#DejaVuSans-78"/>
      <use x="422.285156" xlink:href="#DejaVuSans-32"/>
      <use x="454.072266" xlink:href="#DejaVuSans-109"/>
      <use x="551.484375" xlink:href="#DejaVuSans-111"/>
      <use x="612.666016" xlink:href="#DejaVuSans-100"/>
      <use x="676.142578" xlink:href="#DejaVuSans-101"/>
      <use x="737.666016" xlink:href="#DejaVuSans-108"/>
     </g>
    </g>
    <g id="line2d_22">
     <path d="M 61.2 56.8625 
L 77.2 56.8625 
" style="fill:none;stroke:#1f77b4;stroke-linecap:square;stroke-width:2;"/>
    </g>
    <g id="line2d_23"/>
    <g id="text_15">
     <!-- [T, X], $\|e\|_2$ = 23450.41 -->
     <defs>
      <path d="M 11.71875 12.40625 
L 22.015625 12.40625 
L 22.015625 4 
L 14.015625 -11.625 
L 7.71875 -11.625 
L 11.71875 4 
z
" id="DejaVuSans-44"/>
      <path d="M 21 76.421875 
L 21 -23.578125 
L 12.703125 -23.578125 
L 12.703125 76.421875 
z
" id="DejaVuSans-124"/>
      <path d="M 48.09375 32.234375 
Q 48.25 33.015625 48.3125 33.84375 
Q 48.390625 34.671875 48.390625 35.5 
Q 48.390625 41.453125 44.890625 44.921875 
Q 41.40625 48.390625 35.40625 48.390625 
Q 28.71875 48.390625 23.578125 44.15625 
Q 18.453125 39.9375 15.828125 32.171875 
z
M 55.90625 25.203125 
L 14.109375 25.203125 
Q 13.8125 23.34375 13.71875 22.265625 
Q 13.625 21.1875 13.625 20.40625 
Q 13.625 13.625 17.796875 9.90625 
Q 21.96875 6.203125 29.59375 6.203125 
Q 35.453125 6.203125 40.671875 7.515625 
Q 45.90625 8.84375 50.390625 11.375 
L 48.6875 2.484375 
Q 43.84375 0.53125 38.6875 -0.4375 
Q 33.546875 -1.421875 28.21875 -1.421875 
Q 16.84375 -1.421875 10.71875 4.015625 
Q 4.59375 9.46875 4.59375 19.484375 
Q 4.59375 28.03125 7.640625 35.375 
Q 10.6875 42.71875 16.609375 48.484375 
Q 20.40625 52.09375 25.65625 54.046875 
Q 30.90625 56 36.8125 56 
Q 46.09375 56 51.578125 50.4375 
Q 57.078125 44.875 57.078125 35.5 
Q 57.078125 33.25 56.78125 30.6875 
Q 56.5 28.125 55.90625 25.203125 
z
" id="DejaVuSans-Oblique-101"/>
      <path d="M 10.59375 45.40625 
L 73.1875 45.40625 
L 73.1875 37.203125 
L 10.59375 37.203125 
z
M 10.59375 25.484375 
L 73.1875 25.484375 
L 73.1875 17.1875 
L 10.59375 17.1875 
z
" id="DejaVuSans-61"/>
      <path d="M 40.578125 39.3125 
Q 47.65625 37.796875 51.625 33 
Q 55.609375 28.21875 55.609375 21.1875 
Q 55.609375 10.40625 48.1875 4.484375 
Q 40.765625 -1.421875 27.09375 -1.421875 
Q 22.515625 -1.421875 17.65625 -0.515625 
Q 12.796875 0.390625 7.625 2.203125 
L 7.625 11.71875 
Q 11.71875 9.328125 16.59375 8.109375 
Q 21.484375 6.890625 26.8125 6.890625 
Q 36.078125 6.890625 40.9375 10.546875 
Q 45.796875 14.203125 45.796875 21.1875 
Q 45.796875 27.640625 41.28125 31.265625 
Q 36.765625 34.90625 28.71875 34.90625 
L 20.21875 34.90625 
L 20.21875 43.015625 
L 29.109375 43.015625 
Q 36.375 43.015625 40.234375 45.921875 
Q 44.09375 48.828125 44.09375 54.296875 
Q 44.09375 59.90625 40.109375 62.90625 
Q 36.140625 65.921875 28.71875 65.921875 
Q 24.65625 65.921875 20.015625 65.03125 
Q 15.375 64.15625 9.8125 62.3125 
L 9.8125 71.09375 
Q 15.4375 72.65625 20.34375 73.4375 
Q 25.25 74.21875 29.59375 74.21875 
Q 40.828125 74.21875 47.359375 69.109375 
Q 53.90625 64.015625 53.90625 55.328125 
Q 53.90625 49.265625 50.4375 45.09375 
Q 46.96875 40.921875 40.578125 39.3125 
z
" id="DejaVuSans-51"/>
      <path d="M 37.796875 64.3125 
L 12.890625 25.390625 
L 37.796875 25.390625 
z
M 35.203125 72.90625 
L 47.609375 72.90625 
L 47.609375 25.390625 
L 58.015625 25.390625 
L 58.015625 17.1875 
L 47.609375 17.1875 
L 47.609375 0 
L 37.796875 0 
L 37.796875 17.1875 
L 4.890625 17.1875 
L 4.890625 26.703125 
z
" id="DejaVuSans-52"/>
      <path d="M 10.6875 12.40625 
L 21 12.40625 
L 21 0 
L 10.6875 0 
z
" id="DejaVuSans-46"/>
     </defs>
     <g transform="translate(83.6 59.6625)scale(0.08 -0.08)">
      <use transform="translate(0 0.578125)" xlink:href="#DejaVuSans-91"/>
      <use transform="translate(39.013672 0.578125)" xlink:href="#DejaVuSans-84"/>
      <use transform="translate(100.097656 0.578125)" xlink:href="#DejaVuSans-44"/>
      <use transform="translate(131.884766 0.578125)" xlink:href="#DejaVuSans-32"/>
      <use transform="translate(163.671875 0.578125)" xlink:href="#DejaVuSans-88"/>
      <use transform="translate(232.177734 0.578125)" xlink:href="#DejaVuSans-93"/>
      <use transform="translate(271.191406 0.578125)" xlink:href="#DejaVuSans-44"/>
      <use transform="translate(302.978516 0.578125)" xlink:href="#DejaVuSans-32"/>
      <use transform="translate(334.765625 0.578125)" xlink:href="#DejaVuSans-124"/>
      <use transform="translate(368.457031 0.578125)" xlink:href="#DejaVuSans-Oblique-101"/>
      <use transform="translate(429.980469 0.578125)" xlink:href="#DejaVuSans-124"/>
      <use transform="translate(464.628906 -15.828125)scale(0.7)" xlink:href="#DejaVuSans-50"/>
      <use transform="translate(511.899414 0.578125)" xlink:href="#DejaVuSans-32"/>
      <use transform="translate(543.686523 0.578125)" xlink:href="#DejaVuSans-61"/>
      <use transform="translate(627.475586 0.578125)" xlink:href="#DejaVuSans-32"/>
      <use transform="translate(659.262695 0.578125)" xlink:href="#DejaVuSans-50"/>
      <use transform="translate(722.885742 0.578125)" xlink:href="#DejaVuSans-51"/>
      <use transform="translate(786.508789 0.578125)" xlink:href="#DejaVuSans-52"/>
      <use transform="translate(850.131836 0.578125)" xlink:href="#DejaVuSans-53"/>
      <use transform="translate(913.754883 0.578125)" xlink:href="#DejaVuSans-48"/>
      <use transform="translate(977.37793 0.578125)" xlink:href="#DejaVuSans-46"/>
      <use transform="translate(1009.165039 0.578125)" xlink:href="#DejaVuSans-52"/>
      <use transform="translate(1072.788086 0.578125)" xlink:href="#DejaVuSans-49"/>
     </g>
    </g>
    <g id="line2d_24">
     <path d="M 61.2 68.9425 
L 77.2 68.9425 
" style="fill:none;stroke:#ff7f0e;stroke-linecap:square;stroke-width:2;"/>
    </g>
    <g id="line2d_25"/>
    <g id="text_16">
     <!-- [R, X], $\|e\|_2$ = 11.24 -->
     <g transform="translate(83.6 71.7425)scale(0.08 -0.08)">
      <use transform="translate(0 0.578125)" xlink:href="#DejaVuSans-91"/>
      <use transform="translate(38.966797 0.578125)" xlink:href="#DejaVuSans-82"/>
      <use transform="translate(108.449219 0.578125)" xlink:href="#DejaVuSans-44"/>
      <use transform="translate(140.236328 0.578125)" xlink:href="#DejaVuSans-32"/>
      <use transform="translate(172.023438 0.578125)" xlink:href="#DejaVuSans-88"/>
      <use transform="translate(240.529297 0.578125)" xlink:href="#DejaVuSans-93"/>
      <use transform="translate(279.542969 0.578125)" xlink:href="#DejaVuSans-44"/>
      <use transform="translate(311.330078 0.578125)" xlink:href="#DejaVuSans-32"/>
      <use transform="translate(343.117188 0.578125)" xlink:href="#DejaVuSans-124"/>
      <use transform="translate(376.808594 0.578125)" xlink:href="#DejaVuSans-Oblique-101"/>
      <use transform="translate(438.332031 0.578125)" xlink:href="#DejaVuSans-124"/>
      <use transform="translate(472.980469 -15.828125)scale(0.7)" xlink:href="#DejaVuSans-50"/>
      <use transform="translate(520.250977 0.578125)" xlink:href="#DejaVuSans-32"/>
      <use transform="translate(552.038086 0.578125)" xlink:href="#DejaVuSans-61"/>
      <use transform="translate(635.827148 0.578125)" xlink:href="#DejaVuSans-32"/>
      <use transform="translate(667.614258 0.578125)" xlink:href="#DejaVuSans-49"/>
      <use transform="translate(731.237305 0.578125)" xlink:href="#DejaVuSans-49"/>
      <use transform="translate(794.860352 0.578125)" xlink:href="#DejaVuSans-46"/>
      <use transform="translate(826.569336 0.578125)" xlink:href="#DejaVuSans-50"/>
      <use transform="translate(890.192383 0.578125)" xlink:href="#DejaVuSans-52"/>
     </g>
    </g>
    <g id="line2d_26">
     <path d="M 61.2 81.0225 
L 77.2 81.0225 
" style="fill:none;stroke:#2ca02c;stroke-linecap:square;stroke-width:2;"/>
    </g>
    <g id="line2d_27"/>
    <g id="text_17">
     <!-- [P, T, X], $\|e\|_2$ = 23412.78 -->
     <defs>
      <path d="M 19.671875 64.796875 
L 19.671875 37.40625 
L 32.078125 37.40625 
Q 38.96875 37.40625 42.71875 40.96875 
Q 46.484375 44.53125 46.484375 51.125 
Q 46.484375 57.671875 42.71875 61.234375 
Q 38.96875 64.796875 32.078125 64.796875 
z
M 9.8125 72.90625 
L 32.078125 72.90625 
Q 44.34375 72.90625 50.609375 67.359375 
Q 56.890625 61.8125 56.890625 51.125 
Q 56.890625 40.328125 50.609375 34.8125 
Q 44.34375 29.296875 32.078125 29.296875 
L 19.671875 29.296875 
L 19.671875 0 
L 9.8125 0 
z
" id="DejaVuSans-80"/>
      <path d="M 31.78125 34.625 
Q 24.75 34.625 20.71875 30.859375 
Q 16.703125 27.09375 16.703125 20.515625 
Q 16.703125 13.921875 20.71875 10.15625 
Q 24.75 6.390625 31.78125 6.390625 
Q 38.8125 6.390625 42.859375 10.171875 
Q 46.921875 13.96875 46.921875 20.515625 
Q 46.921875 27.09375 42.890625 30.859375 
Q 38.875 34.625 31.78125 34.625 
z
M 21.921875 38.8125 
Q 15.578125 40.375 12.03125 44.71875 
Q 8.5 49.078125 8.5 55.328125 
Q 8.5 64.0625 14.71875 69.140625 
Q 20.953125 74.21875 31.78125 74.21875 
Q 42.671875 74.21875 48.875 69.140625 
Q 55.078125 64.0625 55.078125 55.328125 
Q 55.078125 49.078125 51.53125 44.71875 
Q 48 40.375 41.703125 38.8125 
Q 48.828125 37.15625 52.796875 32.3125 
Q 56.78125 27.484375 56.78125 20.515625 
Q 56.78125 9.90625 50.3125 4.234375 
Q 43.84375 -1.421875 31.78125 -1.421875 
Q 19.734375 -1.421875 13.25 4.234375 
Q 6.78125 9.90625 6.78125 20.515625 
Q 6.78125 27.484375 10.78125 32.3125 
Q 14.796875 37.15625 21.921875 38.8125 
z
M 18.3125 54.390625 
Q 18.3125 48.734375 21.84375 45.5625 
Q 25.390625 42.390625 31.78125 42.390625 
Q 38.140625 42.390625 41.71875 45.5625 
Q 45.3125 48.734375 45.3125 54.390625 
Q 45.3125 60.0625 41.71875 63.234375 
Q 38.140625 66.40625 31.78125 66.40625 
Q 25.390625 66.40625 21.84375 63.234375 
Q 18.3125 60.0625 18.3125 54.390625 
z
" id="DejaVuSans-56"/>
     </defs>
     <g transform="translate(83.6 83.8225)scale(0.08 -0.08)">
      <use transform="translate(0 0.578125)" xlink:href="#DejaVuSans-91"/>
      <use transform="translate(39.013672 0.578125)" xlink:href="#DejaVuSans-80"/>
      <use transform="translate(99.316406 0.578125)" xlink:href="#DejaVuSans-44"/>
      <use transform="translate(131.103516 0.578125)" xlink:href="#DejaVuSans-32"/>
      <use transform="translate(162.890625 0.578125)" xlink:href="#DejaVuSans-84"/>
      <use transform="translate(223.974609 0.578125)" xlink:href="#DejaVuSans-44"/>
      <use transform="translate(255.761719 0.578125)" xlink:href="#DejaVuSans-32"/>
      <use transform="translate(287.548828 0.578125)" xlink:href="#DejaVuSans-88"/>
      <use transform="translate(356.054688 0.578125)" xlink:href="#DejaVuSans-93"/>
      <use transform="translate(395.068359 0.578125)" xlink:href="#DejaVuSans-44"/>
      <use transform="translate(426.855469 0.578125)" xlink:href="#DejaVuSans-32"/>
      <use transform="translate(458.642578 0.578125)" xlink:href="#DejaVuSans-124"/>
      <use transform="translate(492.333984 0.578125)" xlink:href="#DejaVuSans-Oblique-101"/>
      <use transform="translate(553.857422 0.578125)" xlink:href="#DejaVuSans-124"/>
      <use transform="translate(588.505859 -15.828125)scale(0.7)" xlink:href="#DejaVuSans-50"/>
      <use transform="translate(635.776367 0.578125)" xlink:href="#DejaVuSans-32"/>
      <use transform="translate(667.563477 0.578125)" xlink:href="#DejaVuSans-61"/>
      <use transform="translate(751.352539 0.578125)" xlink:href="#DejaVuSans-32"/>
      <use transform="translate(783.139648 0.578125)" xlink:href="#DejaVuSans-50"/>
      <use transform="translate(846.762695 0.578125)" xlink:href="#DejaVuSans-51"/>
      <use transform="translate(910.385742 0.578125)" xlink:href="#DejaVuSans-52"/>
      <use transform="translate(974.008789 0.578125)" xlink:href="#DejaVuSans-49"/>
      <use transform="translate(1037.631836 0.578125)" xlink:href="#DejaVuSans-50"/>
      <use transform="translate(1101.254883 0.578125)" xlink:href="#DejaVuSans-46"/>
      <use transform="translate(1132.932617 0.578125)" xlink:href="#DejaVuSans-55"/>
      <use transform="translate(1196.555664 0.578125)" xlink:href="#DejaVuSans-56"/>
     </g>
    </g>
    <g id="line2d_28">
     <path d="M 61.2 93.1025 
L 77.2 93.1025 
" style="fill:none;stroke:#d62728;stroke-linecap:square;stroke-width:2;"/>
    </g>
    <g id="line2d_29"/>
    <g id="text_18">
     <!-- [P, R, X], $\|e\|_2$ = 1.09 -->
     <defs>
      <path d="M 10.984375 1.515625 
L 10.984375 10.5 
Q 14.703125 8.734375 18.5 7.8125 
Q 22.3125 6.890625 25.984375 6.890625 
Q 35.75 6.890625 40.890625 13.453125 
Q 46.046875 20.015625 46.78125 33.40625 
Q 43.953125 29.203125 39.59375 26.953125 
Q 35.25 24.703125 29.984375 24.703125 
Q 19.046875 24.703125 12.671875 31.3125 
Q 6.296875 37.9375 6.296875 49.421875 
Q 6.296875 60.640625 12.9375 67.421875 
Q 19.578125 74.21875 30.609375 74.21875 
Q 43.265625 74.21875 49.921875 64.515625 
Q 56.59375 54.828125 56.59375 36.375 
Q 56.59375 19.140625 48.40625 8.859375 
Q 40.234375 -1.421875 26.421875 -1.421875 
Q 22.703125 -1.421875 18.890625 -0.6875 
Q 15.09375 0.046875 10.984375 1.515625 
z
M 30.609375 32.421875 
Q 37.25 32.421875 41.125 36.953125 
Q 45.015625 41.5 45.015625 49.421875 
Q 45.015625 57.28125 41.125 61.84375 
Q 37.25 66.40625 30.609375 66.40625 
Q 23.96875 66.40625 20.09375 61.84375 
Q 16.21875 57.28125 16.21875 49.421875 
Q 16.21875 41.5 20.09375 36.953125 
Q 23.96875 32.421875 30.609375 32.421875 
z
" id="DejaVuSans-57"/>
     </defs>
     <g transform="translate(83.6 95.9025)scale(0.08 -0.08)">
      <use transform="translate(0 0.578125)" xlink:href="#DejaVuSans-91"/>
      <use transform="translate(39.013672 0.578125)" xlink:href="#DejaVuSans-80"/>
      <use transform="translate(99.316406 0.578125)" xlink:href="#DejaVuSans-44"/>
      <use transform="translate(131.103516 0.578125)" xlink:href="#DejaVuSans-32"/>
      <use transform="translate(162.890625 0.578125)" xlink:href="#DejaVuSans-82"/>
      <use transform="translate(232.373047 0.578125)" xlink:href="#DejaVuSans-44"/>
      <use transform="translate(264.160156 0.578125)" xlink:href="#DejaVuSans-32"/>
      <use transform="translate(295.947266 0.578125)" xlink:href="#DejaVuSans-88"/>
      <use transform="translate(364.453125 0.578125)" xlink:href="#DejaVuSans-93"/>
      <use transform="translate(403.466797 0.578125)" xlink:href="#DejaVuSans-44"/>
      <use transform="translate(435.253906 0.578125)" xlink:href="#DejaVuSans-32"/>
      <use transform="translate(467.041016 0.578125)" xlink:href="#DejaVuSans-124"/>
      <use transform="translate(500.732422 0.578125)" xlink:href="#DejaVuSans-Oblique-101"/>
      <use transform="translate(562.255859 0.578125)" xlink:href="#DejaVuSans-124"/>
      <use transform="translate(596.904297 -15.828125)scale(0.7)" xlink:href="#DejaVuSans-50"/>
      <use transform="translate(644.174805 0.578125)" xlink:href="#DejaVuSans-32"/>
      <use transform="translate(675.961914 0.578125)" xlink:href="#DejaVuSans-61"/>
      <use transform="translate(759.750977 0.578125)" xlink:href="#DejaVuSans-32"/>
      <use transform="translate(791.538086 0.578125)" xlink:href="#DejaVuSans-49"/>
      <use transform="translate(855.161133 0.578125)" xlink:href="#DejaVuSans-46"/>
      <use transform="translate(886.948242 0.578125)" xlink:href="#DejaVuSans-48"/>
      <use transform="translate(950.571289 0.578125)" xlink:href="#DejaVuSans-57"/>
     </g>
    </g>
    <g id="line2d_30">
     <path d="M 61.2 105.1825 
L 77.2 105.1825 
" style="fill:none;stroke:#9467bd;stroke-linecap:square;stroke-width:2;"/>
    </g>
    <g id="line2d_31"/>
    <g id="text_19">
     <!-- [T, R, X], $\|e\|_2$ = 10.19 -->
     <g transform="translate(83.6 107.9825)scale(0.08 -0.08)">
      <use transform="translate(0 0.578125)" xlink:href="#DejaVuSans-91"/>
      <use transform="translate(39.013672 0.578125)" xlink:href="#DejaVuSans-84"/>
      <use transform="translate(100.097656 0.578125)" xlink:href="#DejaVuSans-44"/>
      <use transform="translate(131.884766 0.578125)" xlink:href="#DejaVuSans-32"/>
      <use transform="translate(163.671875 0.578125)" xlink:href="#DejaVuSans-82"/>
      <use transform="translate(233.154297 0.578125)" xlink:href="#DejaVuSans-44"/>
      <use transform="translate(264.941406 0.578125)" xlink:href="#DejaVuSans-32"/>
      <use transform="translate(296.728516 0.578125)" xlink:href="#DejaVuSans-88"/>
      <use transform="translate(365.234375 0.578125)" xlink:href="#DejaVuSans-93"/>
      <use transform="translate(404.248047 0.578125)" xlink:href="#DejaVuSans-44"/>
      <use transform="translate(436.035156 0.578125)" xlink:href="#DejaVuSans-32"/>
      <use transform="translate(467.822266 0.578125)" xlink:href="#DejaVuSans-124"/>
      <use transform="translate(501.513672 0.578125)" xlink:href="#DejaVuSans-Oblique-101"/>
      <use transform="translate(563.037109 0.578125)" xlink:href="#DejaVuSans-124"/>
      <use transform="translate(597.685547 -15.828125)scale(0.7)" xlink:href="#DejaVuSans-50"/>
      <use transform="translate(644.956055 0.578125)" xlink:href="#DejaVuSans-32"/>
      <use transform="translate(676.743164 0.578125)" xlink:href="#DejaVuSans-61"/>
      <use transform="translate(760.532227 0.578125)" xlink:href="#DejaVuSans-32"/>
      <use transform="translate(792.319336 0.578125)" xlink:href="#DejaVuSans-49"/>
      <use transform="translate(855.942383 0.578125)" xlink:href="#DejaVuSans-48"/>
      <use transform="translate(919.56543 0.578125)" xlink:href="#DejaVuSans-46"/>
      <use transform="translate(951.352539 0.578125)" xlink:href="#DejaVuSans-49"/>
      <use transform="translate(1014.975586 0.578125)" xlink:href="#DejaVuSans-57"/>
     </g>
    </g>
    <g id="line2d_32">
     <path d="M 61.2 117.2625 
L 77.2 117.2625 
" style="fill:none;stroke:#8c564b;stroke-linecap:square;stroke-width:2;"/>
    </g>
    <g id="line2d_33"/>
    <g id="text_20">
     <!-- [T, E, X], $\|e\|_2$ = 23450.41 -->
     <defs>
      <path d="M 9.8125 72.90625 
L 55.90625 72.90625 
L 55.90625 64.59375 
L 19.671875 64.59375 
L 19.671875 43.015625 
L 54.390625 43.015625 
L 54.390625 34.71875 
L 19.671875 34.71875 
L 19.671875 8.296875 
L 56.78125 8.296875 
L 56.78125 0 
L 9.8125 0 
z
" id="DejaVuSans-69"/>
     </defs>
     <g transform="translate(83.6 120.0625)scale(0.08 -0.08)">
      <use transform="translate(0 0.578125)" xlink:href="#DejaVuSans-91"/>
      <use transform="translate(39.013672 0.578125)" xlink:href="#DejaVuSans-84"/>
      <use transform="translate(100.097656 0.578125)" xlink:href="#DejaVuSans-44"/>
      <use transform="translate(131.884766 0.578125)" xlink:href="#DejaVuSans-32"/>
      <use transform="translate(163.671875 0.578125)" xlink:href="#DejaVuSans-69"/>
      <use transform="translate(226.855469 0.578125)" xlink:href="#DejaVuSans-44"/>
      <use transform="translate(258.642578 0.578125)" xlink:href="#DejaVuSans-32"/>
      <use transform="translate(290.429688 0.578125)" xlink:href="#DejaVuSans-88"/>
      <use transform="translate(358.935547 0.578125)" xlink:href="#DejaVuSans-93"/>
      <use transform="translate(397.949219 0.578125)" xlink:href="#DejaVuSans-44"/>
      <use transform="translate(429.736328 0.578125)" xlink:href="#DejaVuSans-32"/>
      <use transform="translate(461.523438 0.578125)" xlink:href="#DejaVuSans-124"/>
      <use transform="translate(495.214844 0.578125)" xlink:href="#DejaVuSans-Oblique-101"/>
      <use transform="translate(556.738281 0.578125)" xlink:href="#DejaVuSans-124"/>
      <use transform="translate(591.386719 -15.828125)scale(0.7)" xlink:href="#DejaVuSans-50"/>
      <use transform="translate(638.657227 0.578125)" xlink:href="#DejaVuSans-32"/>
      <use transform="translate(670.444336 0.578125)" xlink:href="#DejaVuSans-61"/>
      <use transform="translate(754.233398 0.578125)" xlink:href="#DejaVuSans-32"/>
      <use transform="translate(786.020508 0.578125)" xlink:href="#DejaVuSans-50"/>
      <use transform="translate(849.643555 0.578125)" xlink:href="#DejaVuSans-51"/>
      <use transform="translate(913.266602 0.578125)" xlink:href="#DejaVuSans-52"/>
      <use transform="translate(976.889648 0.578125)" xlink:href="#DejaVuSans-53"/>
      <use transform="translate(1040.512695 0.578125)" xlink:href="#DejaVuSans-48"/>
      <use transform="translate(1104.135742 0.578125)" xlink:href="#DejaVuSans-46"/>
      <use transform="translate(1135.922852 0.578125)" xlink:href="#DejaVuSans-52"/>
      <use transform="translate(1199.545898 0.578125)" xlink:href="#DejaVuSans-49"/>
     </g>
    </g>
    <g id="line2d_34">
     <path d="M 61.2 129.3425 
L 77.2 129.3425 
" style="fill:none;stroke:#e377c2;stroke-linecap:square;stroke-width:2;"/>
    </g>
    <g id="line2d_35"/>
    <g id="text_21">
     <!-- [R, E, X], $\|e\|_2$ = 11.24 -->
     <g transform="translate(83.6 132.1425)scale(0.08 -0.08)">
      <use transform="translate(0 0.578125)" xlink:href="#DejaVuSans-91"/>
      <use transform="translate(38.966797 0.578125)" xlink:href="#DejaVuSans-82"/>
      <use transform="translate(108.449219 0.578125)" xlink:href="#DejaVuSans-44"/>
      <use transform="translate(140.236328 0.578125)" xlink:href="#DejaVuSans-32"/>
      <use transform="translate(172.023438 0.578125)" xlink:href="#DejaVuSans-69"/>
      <use transform="translate(235.207031 0.578125)" xlink:href="#DejaVuSans-44"/>
      <use transform="translate(266.994141 0.578125)" xlink:href="#DejaVuSans-32"/>
      <use transform="translate(298.78125 0.578125)" xlink:href="#DejaVuSans-88"/>
      <use transform="translate(367.287109 0.578125)" xlink:href="#DejaVuSans-93"/>
      <use transform="translate(406.300781 0.578125)" xlink:href="#DejaVuSans-44"/>
      <use transform="translate(438.087891 0.578125)" xlink:href="#DejaVuSans-32"/>
      <use transform="translate(469.875 0.578125)" xlink:href="#DejaVuSans-124"/>
      <use transform="translate(503.566406 0.578125)" xlink:href="#DejaVuSans-Oblique-101"/>
      <use transform="translate(565.089844 0.578125)" xlink:href="#DejaVuSans-124"/>
      <use transform="translate(599.738281 -15.828125)scale(0.7)" xlink:href="#DejaVuSans-50"/>
      <use transform="translate(647.008789 0.578125)" xlink:href="#DejaVuSans-32"/>
      <use transform="translate(678.795898 0.578125)" xlink:href="#DejaVuSans-61"/>
      <use transform="translate(762.584961 0.578125)" xlink:href="#DejaVuSans-32"/>
      <use transform="translate(794.37207 0.578125)" xlink:href="#DejaVuSans-49"/>
      <use transform="translate(857.995117 0.578125)" xlink:href="#DejaVuSans-49"/>
      <use transform="translate(921.618164 0.578125)" xlink:href="#DejaVuSans-46"/>
      <use transform="translate(953.327148 0.578125)" xlink:href="#DejaVuSans-50"/>
      <use transform="translate(1016.950195 0.578125)" xlink:href="#DejaVuSans-52"/>
     </g>
    </g>
   </g>
  </g>
 </g>
 <defs>
  <clipPath id="p5d80d743ed">
   <rect height="217.44" width="334.8" x="54" y="34.56"/>
  </clipPath>
 </defs>
</svg>
