<?xml version="1.0" encoding="utf-8" standalone="no"?>
<!DOCTYPE svg PUBLIC "-//W3C//DTD SVG 1.1//EN"
  "http://www.w3.org/Graphics/SVG/1.1/DTD/svg11.dtd">
<!-- Created with matplotlib (https://matplotlib.org/) -->
<svg height="288pt" version="1.1" viewBox="0 0 432 288" width="432pt" xmlns="http://www.w3.org/2000/svg" xmlns:xlink="http://www.w3.org/1999/xlink">
 <defs>
  <style type="text/css">
*{stroke-linecap:butt;stroke-linejoin:round;}
  </style>
 </defs>
 <g id="figure_1">
  <g id="patch_1">
   <path d="M 0 288 
L 432 288 
L 432 0 
L 0 0 
z
" style="fill:#ffffff;"/>
  </g>
  <g id="axes_1">
   <g id="patch_2">
    <path d="M 54 252 
L 388.8 252 
L 388.8 34.56 
L 54 34.56 
z
" style="fill:#ffffff;"/>
   </g>
   <g id="matplotlib.axis_1">
    <g id="xtick_1">
     <g id="line2d_1">
      <defs>
       <path d="M 0 0 
L 0 3.5 
" id="m64626cedaf" style="stroke:#000000;stroke-width:0.8;"/>
      </defs>
      <g>
       <use style="stroke:#000000;stroke-width:0.8;" x="69.218182" xlink:href="#m64626cedaf" y="252"/>
      </g>
     </g>
     <g id="text_1">
      <!-- 0 -->
      <defs>
       <path d="M 31.78125 66.40625 
Q 24.171875 66.40625 20.328125 58.90625 
Q 16.5 51.421875 16.5 36.375 
Q 16.5 21.390625 20.328125 13.890625 
Q 24.171875 6.390625 31.78125 6.390625 
Q 39.453125 6.390625 43.28125 13.890625 
Q 47.125 21.390625 47.125 36.375 
Q 47.125 51.421875 43.28125 58.90625 
Q 39.453125 66.40625 31.78125 66.40625 
z
M 31.78125 74.21875 
Q 44.046875 74.21875 50.515625 64.515625 
Q 56.984375 54.828125 56.984375 36.375 
Q 56.984375 17.96875 50.515625 8.265625 
Q 44.046875 -1.421875 31.78125 -1.421875 
Q 19.53125 -1.421875 13.0625 8.265625 
Q 6.59375 17.96875 6.59375 36.375 
Q 6.59375 54.828125 13.0625 64.515625 
Q 19.53125 74.21875 31.78125 74.21875 
z
" id="DejaVuSans-48"/>
      </defs>
      <g transform="translate(64.764432 269.637812)scale(0.14 -0.14)">
       <use xlink:href="#DejaVuSans-48"/>
      </g>
     </g>
    </g>
    <g id="xtick_2">
     <g id="line2d_2">
      <g>
       <use style="stroke:#000000;stroke-width:0.8;" x="130.090909" xlink:href="#m64626cedaf" y="252"/>
      </g>
     </g>
     <g id="text_2">
      <!-- 1 -->
      <defs>
       <path d="M 12.40625 8.296875 
L 28.515625 8.296875 
L 28.515625 63.921875 
L 10.984375 60.40625 
L 10.984375 69.390625 
L 28.421875 72.90625 
L 38.28125 72.90625 
L 38.28125 8.296875 
L 54.390625 8.296875 
L 54.390625 0 
L 12.40625 0 
z
" id="DejaVuSans-49"/>
      </defs>
      <g transform="translate(125.637159 269.637812)scale(0.14 -0.14)">
       <use xlink:href="#DejaVuSans-49"/>
      </g>
     </g>
    </g>
    <g id="xtick_3">
     <g id="line2d_3">
      <g>
       <use style="stroke:#000000;stroke-width:0.8;" x="190.963636" xlink:href="#m64626cedaf" y="252"/>
      </g>
     </g>
     <g id="text_3">
      <!-- 2 -->
      <defs>
       <path d="M 19.1875 8.296875 
L 53.609375 8.296875 
L 53.609375 0 
L 7.328125 0 
L 7.328125 8.296875 
Q 12.9375 14.109375 22.625 23.890625 
Q 32.328125 33.6875 34.8125 36.53125 
Q 39.546875 41.84375 41.421875 45.53125 
Q 43.3125 49.21875 43.3125 52.78125 
Q 43.3125 58.59375 39.234375 62.25 
Q 35.15625 65.921875 28.609375 65.921875 
Q 23.96875 65.921875 18.8125 64.3125 
Q 13.671875 62.703125 7.8125 59.421875 
L 7.8125 69.390625 
Q 13.765625 71.78125 18.9375 73 
Q 24.125 74.21875 28.421875 74.21875 
Q 39.75 74.21875 46.484375 68.546875 
Q 53.21875 62.890625 53.21875 53.421875 
Q 53.21875 48.921875 51.53125 44.890625 
Q 49.859375 40.875 45.40625 35.40625 
Q 44.1875 33.984375 37.640625 27.21875 
Q 31.109375 20.453125 19.1875 8.296875 
z
" id="DejaVuSans-50"/>
      </defs>
      <g transform="translate(186.509886 269.637812)scale(0.14 -0.14)">
       <use xlink:href="#DejaVuSans-50"/>
      </g>
     </g>
    </g>
    <g id="xtick_4">
     <g id="line2d_4">
      <g>
       <use style="stroke:#000000;stroke-width:0.8;" x="251.836364" xlink:href="#m64626cedaf" y="252"/>
      </g>
     </g>
     <g id="text_4">
      <!-- 3 -->
      <defs>
       <path d="M 40.578125 39.3125 
Q 47.65625 37.796875 51.625 33 
Q 55.609375 28.21875 55.609375 21.1875 
Q 55.609375 10.40625 48.1875 4.484375 
Q 40.765625 -1.421875 27.09375 -1.421875 
Q 22.515625 -1.421875 17.65625 -0.515625 
Q 12.796875 0.390625 7.625 2.203125 
L 7.625 11.71875 
Q 11.71875 9.328125 16.59375 8.109375 
Q 21.484375 6.890625 26.8125 6.890625 
Q 36.078125 6.890625 40.9375 10.546875 
Q 45.796875 14.203125 45.796875 21.1875 
Q 45.796875 27.640625 41.28125 31.265625 
Q 36.765625 34.90625 28.71875 34.90625 
L 20.21875 34.90625 
L 20.21875 43.015625 
L 29.109375 43.015625 
Q 36.375 43.015625 40.234375 45.921875 
Q 44.09375 48.828125 44.09375 54.296875 
Q 44.09375 59.90625 40.109375 62.90625 
Q 36.140625 65.921875 28.71875 65.921875 
Q 24.65625 65.921875 20.015625 65.03125 
Q 15.375 64.15625 9.8125 62.3125 
L 9.8125 71.09375 
Q 15.4375 72.65625 20.34375 73.4375 
Q 25.25 74.21875 29.59375 74.21875 
Q 40.828125 74.21875 47.359375 69.109375 
Q 53.90625 64.015625 53.90625 55.328125 
Q 53.90625 49.265625 50.4375 45.09375 
Q 46.96875 40.921875 40.578125 39.3125 
z
" id="DejaVuSans-51"/>
      </defs>
      <g transform="translate(247.382614 269.637812)scale(0.14 -0.14)">
       <use xlink:href="#DejaVuSans-51"/>
      </g>
     </g>
    </g>
    <g id="xtick_5">
     <g id="line2d_5">
      <g>
       <use style="stroke:#000000;stroke-width:0.8;" x="312.709091" xlink:href="#m64626cedaf" y="252"/>
      </g>
     </g>
     <g id="text_5">
      <!-- 4 -->
      <defs>
       <path d="M 37.796875 64.3125 
L 12.890625 25.390625 
L 37.796875 25.390625 
z
M 35.203125 72.90625 
L 47.609375 72.90625 
L 47.609375 25.390625 
L 58.015625 25.390625 
L 58.015625 17.1875 
L 47.609375 17.1875 
L 47.609375 0 
L 37.796875 0 
L 37.796875 17.1875 
L 4.890625 17.1875 
L 4.890625 26.703125 
z
" id="DejaVuSans-52"/>
      </defs>
      <g transform="translate(308.255341 269.637812)scale(0.14 -0.14)">
       <use xlink:href="#DejaVuSans-52"/>
      </g>
     </g>
    </g>
    <g id="xtick_6">
     <g id="line2d_6">
      <g>
       <use style="stroke:#000000;stroke-width:0.8;" x="373.581818" xlink:href="#m64626cedaf" y="252"/>
      </g>
     </g>
     <g id="text_6">
      <!-- 5 -->
      <defs>
       <path d="M 10.796875 72.90625 
L 49.515625 72.90625 
L 49.515625 64.59375 
L 19.828125 64.59375 
L 19.828125 46.734375 
Q 21.96875 47.46875 24.109375 47.828125 
Q 26.265625 48.1875 28.421875 48.1875 
Q 40.625 48.1875 47.75 41.5 
Q 54.890625 34.8125 54.890625 23.390625 
Q 54.890625 11.625 47.5625 5.09375 
Q 40.234375 -1.421875 26.90625 -1.421875 
Q 22.3125 -1.421875 17.546875 -0.640625 
Q 12.796875 0.140625 7.71875 1.703125 
L 7.71875 11.625 
Q 12.109375 9.234375 16.796875 8.0625 
Q 21.484375 6.890625 26.703125 6.890625 
Q 35.15625 6.890625 40.078125 11.328125 
Q 45.015625 15.765625 45.015625 23.390625 
Q 45.015625 31 40.078125 35.4375 
Q 35.15625 39.890625 26.703125 39.890625 
Q 22.75 39.890625 18.8125 39.015625 
Q 14.890625 38.140625 10.796875 36.28125 
z
" id="DejaVuSans-53"/>
      </defs>
      <g transform="translate(369.128068 269.637812)scale(0.14 -0.14)">
       <use xlink:href="#DejaVuSans-53"/>
      </g>
     </g>
    </g>
    <g id="text_7">
     <!-- Time -->
     <defs>
      <path d="M -0.296875 72.90625 
L 61.375 72.90625 
L 61.375 64.59375 
L 35.5 64.59375 
L 35.5 0 
L 25.59375 0 
L 25.59375 64.59375 
L -0.296875 64.59375 
z
" id="DejaVuSans-84"/>
      <path d="M 9.421875 54.6875 
L 18.40625 54.6875 
L 18.40625 0 
L 9.421875 0 
z
M 9.421875 75.984375 
L 18.40625 75.984375 
L 18.40625 64.59375 
L 9.421875 64.59375 
z
" id="DejaVuSans-105"/>
      <path d="M 52 44.1875 
Q 55.375 50.25 60.0625 53.125 
Q 64.75 56 71.09375 56 
Q 79.640625 56 84.28125 50.015625 
Q 88.921875 44.046875 88.921875 33.015625 
L 88.921875 0 
L 79.890625 0 
L 79.890625 32.71875 
Q 79.890625 40.578125 77.09375 44.375 
Q 74.3125 48.1875 68.609375 48.1875 
Q 61.625 48.1875 57.5625 43.546875 
Q 53.515625 38.921875 53.515625 30.90625 
L 53.515625 0 
L 44.484375 0 
L 44.484375 32.71875 
Q 44.484375 40.625 41.703125 44.40625 
Q 38.921875 48.1875 33.109375 48.1875 
Q 26.21875 48.1875 22.15625 43.53125 
Q 18.109375 38.875 18.109375 30.90625 
L 18.109375 0 
L 9.078125 0 
L 9.078125 54.6875 
L 18.109375 54.6875 
L 18.109375 46.1875 
Q 21.1875 51.21875 25.484375 53.609375 
Q 29.78125 56 35.6875 56 
Q 41.65625 56 45.828125 52.96875 
Q 50 49.953125 52 44.1875 
z
" id="DejaVuSans-109"/>
      <path d="M 56.203125 29.59375 
L 56.203125 25.203125 
L 14.890625 25.203125 
Q 15.484375 15.921875 20.484375 11.0625 
Q 25.484375 6.203125 34.421875 6.203125 
Q 39.59375 6.203125 44.453125 7.46875 
Q 49.3125 8.734375 54.109375 11.28125 
L 54.109375 2.78125 
Q 49.265625 0.734375 44.1875 -0.34375 
Q 39.109375 -1.421875 33.890625 -1.421875 
Q 20.796875 -1.421875 13.15625 6.1875 
Q 5.515625 13.8125 5.515625 26.8125 
Q 5.515625 40.234375 12.765625 48.109375 
Q 20.015625 56 32.328125 56 
Q 43.359375 56 49.78125 48.890625 
Q 56.203125 41.796875 56.203125 29.59375 
z
M 47.21875 32.234375 
Q 47.125 39.59375 43.09375 43.984375 
Q 39.0625 48.390625 32.421875 48.390625 
Q 24.90625 48.390625 20.390625 44.140625 
Q 15.875 39.890625 15.1875 32.171875 
z
" id="DejaVuSans-101"/>
     </defs>
     <g transform="translate(199.1025 290.226562)scale(0.18 -0.18)">
      <use xlink:href="#DejaVuSans-84"/>
      <use x="61.037109" xlink:href="#DejaVuSans-105"/>
      <use x="88.820312" xlink:href="#DejaVuSans-109"/>
      <use x="186.232422" xlink:href="#DejaVuSans-101"/>
     </g>
    </g>
   </g>
   <g id="matplotlib.axis_2">
    <g id="ytick_1">
     <g id="line2d_7">
      <defs>
       <path d="M 0 0 
L -3.5 0 
" id="m4c3de3440f" style="stroke:#000000;stroke-width:0.8;"/>
      </defs>
      <g>
       <use style="stroke:#000000;stroke-width:0.8;" x="54" xlink:href="#m4c3de3440f" y="242.116364"/>
      </g>
     </g>
     <g id="text_8">
      <!-- 0 -->
      <g transform="translate(38.0925 247.43527)scale(0.14 -0.14)">
       <use xlink:href="#DejaVuSans-48"/>
      </g>
     </g>
    </g>
    <g id="ytick_2">
     <g id="line2d_8">
      <g>
       <use style="stroke:#000000;stroke-width:0.8;" x="54" xlink:href="#m4c3de3440f" y="190.669117"/>
      </g>
     </g>
     <g id="text_9">
      <!-- 1 -->
      <g transform="translate(38.0925 195.988024)scale(0.14 -0.14)">
       <use xlink:href="#DejaVuSans-49"/>
      </g>
     </g>
    </g>
    <g id="ytick_3">
     <g id="line2d_9">
      <g>
       <use style="stroke:#000000;stroke-width:0.8;" x="54" xlink:href="#m4c3de3440f" y="139.221871"/>
      </g>
     </g>
     <g id="text_10">
      <!-- 2 -->
      <g transform="translate(38.0925 144.540777)scale(0.14 -0.14)">
       <use xlink:href="#DejaVuSans-50"/>
      </g>
     </g>
    </g>
    <g id="ytick_4">
     <g id="line2d_10">
      <g>
       <use style="stroke:#000000;stroke-width:0.8;" x="54" xlink:href="#m4c3de3440f" y="87.774625"/>
      </g>
     </g>
     <g id="text_11">
      <!-- 3 -->
      <g transform="translate(38.0925 93.093531)scale(0.14 -0.14)">
       <use xlink:href="#DejaVuSans-51"/>
      </g>
     </g>
    </g>
    <g id="ytick_5">
     <g id="line2d_11">
      <g>
       <use style="stroke:#000000;stroke-width:0.8;" x="54" xlink:href="#m4c3de3440f" y="36.327379"/>
      </g>
     </g>
     <g id="text_12">
      <!-- 4 -->
      <g transform="translate(38.0925 41.646285)scale(0.14 -0.14)">
       <use xlink:href="#DejaVuSans-52"/>
      </g>
     </g>
    </g>
    <g id="text_13">
     <!-- [X] -->
     <defs>
      <path d="M 8.59375 75.984375 
L 29.296875 75.984375 
L 29.296875 69 
L 17.578125 69 
L 17.578125 -6.203125 
L 29.296875 -6.203125 
L 29.296875 -13.1875 
L 8.59375 -13.1875 
z
" id="DejaVuSans-91"/>
      <path d="M 6.296875 72.90625 
L 16.890625 72.90625 
L 35.015625 45.796875 
L 53.21875 72.90625 
L 63.8125 72.90625 
L 40.375 37.890625 
L 65.375 0 
L 54.78125 0 
L 34.28125 31 
L 13.625 0 
L 2.984375 0 
L 29 38.921875 
z
" id="DejaVuSans-88"/>
      <path d="M 30.421875 75.984375 
L 30.421875 -13.1875 
L 9.71875 -13.1875 
L 9.71875 -6.203125 
L 21.390625 -6.203125 
L 21.390625 69 
L 9.71875 69 
L 9.71875 75.984375 
z
" id="DejaVuSans-93"/>
     </defs>
     <g transform="translate(30.349063 156.467813)rotate(-90)scale(0.18 -0.18)">
      <use xlink:href="#DejaVuSans-91"/>
      <use x="39.013672" xlink:href="#DejaVuSans-88"/>
      <use x="107.519531" xlink:href="#DejaVuSans-93"/>
     </g>
    </g>
   </g>
   <g id="line2d_12">
    <path clip-path="url(#pf07046a5a7)" d="M 69.218182 242.116364 
L 72.292562 239.181514 
L 75.366942 230.382803 
L 78.441322 218.500241 
L 81.515702 205.386991 
L 84.590083 192.101968 
L 87.664463 179.229358 
L 90.738843 167.072115 
L 93.813223 155.768249 
L 96.887603 145.360537 
L 99.961983 135.83817 
L 103.036364 127.161523 
L 106.110744 119.276762 
L 109.185124 112.124353 
L 112.259504 105.643921 
L 115.333884 99.776931 
L 118.408264 94.468082 
L 121.482645 89.665946 
L 124.557025 85.323164 
L 127.631405 81.396402 
L 130.705785 77.846173 
L 133.780165 74.636592 
L 136.854545 71.735108 
L 139.928926 69.112225 
L 143.003306 66.741241 
L 146.077686 64.597993 
L 149.152066 62.660625 
L 152.226446 60.909369 
L 155.300826 59.326354 
L 158.375207 57.89542 
L 161.449587 56.601959 
L 164.523967 55.432766 
L 167.598347 54.375902 
L 170.672727 53.420576 
L 173.747107 52.557033 
L 176.821488 51.776456 
L 179.895868 51.070872 
L 182.970248 50.433078 
L 186.044628 49.856561 
L 189.119008 49.335432 
L 192.193388 48.864372 
L 195.267769 48.43857 
L 198.342149 48.053676 
L 201.416529 47.705762 
L 204.490909 47.391273 
L 207.565289 47.107 
L 210.639669 46.850038 
L 213.71405 46.617764 
L 216.78843 46.407806 
L 219.86281 46.21802 
L 222.93719 46.046468 
L 226.01157 45.891397 
L 229.08595 45.751226 
L 232.160331 45.624521 
L 235.234711 45.50999 
L 238.309091 45.406462 
L 241.383471 45.312881 
L 244.457851 45.228291 
L 247.532231 45.151827 
L 250.606612 45.08271 
L 253.680992 45.020234 
L 256.755372 44.96376 
L 259.829752 44.912712 
L 262.904132 44.866568 
L 265.978512 44.824857 
L 269.052893 44.787154 
L 272.127273 44.753073 
L 275.201653 44.722266 
L 278.276033 44.69442 
L 281.350413 44.669248 
L 284.424793 44.646495 
L 287.499174 44.625929 
L 290.573554 44.607338 
L 293.647934 44.590533 
L 296.722314 44.575343 
L 299.796694 44.561612 
L 302.871074 44.5492 
L 305.945455 44.53798 
L 309.019835 44.527839 
L 312.094215 44.518672 
L 315.168595 44.510386 
L 318.242975 44.502896 
L 321.317355 44.496125 
L 324.391736 44.490005 
L 327.466116 44.484473 
L 330.540496 44.479472 
L 333.614876 44.474952 
L 336.689256 44.470866 
L 339.763636 44.467172 
L 342.838017 44.463834 
L 345.912397 44.460816 
L 348.986777 44.458088 
L 352.061157 44.455622 
L 355.135537 44.453394 
L 358.209917 44.451379 
L 361.284298 44.449558 
L 364.358678 44.447912 
L 367.433058 44.446424 
L 370.507438 44.445079 
L 373.581818 44.443863 
" style="fill:none;stroke:#000000;stroke-dasharray:18.5,8;stroke-dashoffset:0;stroke-width:5;"/>
   </g>
   <g id="line2d_13">
    <path clip-path="url(#pf07046a5a7)" d="M 69.218182 242.116364 
L 72.292562 237.972137 
L 75.366942 228.338282 
L 78.441322 216.076876 
L 81.515702 202.849269 
L 84.590083 189.59853 
L 87.664463 176.839981 
L 90.738843 164.835975 
L 93.813223 153.700881 
L 96.887603 143.463984 
L 99.961983 134.107039 
L 103.036364 125.586573 
L 106.110744 117.847002 
L 109.185124 110.828256 
L 112.259504 104.470109 
L 115.333884 98.714538 
L 118.408264 93.506937 
L 121.482645 88.796643 
L 124.557025 84.537074 
L 127.631405 80.685649 
L 130.705785 77.203588 
L 133.780165 74.055669 
L 136.854545 71.209949 
L 139.928926 68.637489 
L 143.003306 66.312092 
L 146.077686 64.210057 
L 149.152066 62.309952 
L 152.226446 60.592378 
L 155.300826 59.03981 
L 158.375207 57.636399 
L 161.449587 56.367818 
L 164.523967 55.221116 
L 167.598347 54.184584 
L 170.672727 53.247636 
L 173.747107 52.400705 
L 176.821488 51.635144 
L 179.895868 50.943135 
L 182.970248 50.317612 
L 186.044628 49.752186 
L 189.119008 49.241084 
L 192.193388 48.779087 
L 195.267769 48.361476 
L 198.342149 47.983988 
L 201.416529 47.642768 
L 204.490909 47.33433 
L 207.565289 47.055526 
L 210.639669 46.803507 
L 213.71405 46.575702 
L 216.78843 46.369784 
L 219.86281 46.18365 
L 222.93719 46.015398 
L 226.01157 45.863312 
L 229.08595 45.725837 
L 232.160331 45.601571 
L 235.234711 45.489244 
L 238.309091 45.387708 
L 241.383471 45.295928 
L 244.457851 45.212965 
L 247.532231 45.137974 
L 250.606612 45.070187 
L 253.680992 45.008912 
L 256.755372 44.953525 
L 259.829752 44.903459 
L 262.904132 44.858203 
L 265.978512 44.817296 
L 269.052893 44.780318 
L 272.127273 44.746893 
L 275.201653 44.71668 
L 278.276033 44.689371 
L 281.350413 44.664684 
L 284.424793 44.642369 
L 287.499174 44.622198 
L 290.573554 44.603965 
L 293.647934 44.587484 
L 296.722314 44.572586 
L 299.796694 44.559119 
L 302.871074 44.546947 
L 305.945455 44.535943 
L 309.019835 44.525997 
L 312.094215 44.517007 
L 315.168595 44.50888 
L 318.242975 44.501534 
L 321.317355 44.494894 
L 324.391736 44.488892 
L 327.466116 44.483467 
L 330.540496 44.478563 
L 333.614876 44.474129 
L 336.689256 44.470122 
L 339.763636 44.4665 
L 342.838017 44.463225 
L 345.912397 44.460266 
L 348.986777 44.457591 
L 352.061157 44.455173 
L 355.135537 44.452988 
L 358.209917 44.451012 
L 361.284298 44.449226 
L 364.358678 44.447611 
L 367.433058 44.446151 
L 370.507438 44.44483 
L 373.581818 44.443636 
" style="fill:none;stroke:#1f77b4;stroke-linecap:square;stroke-width:2;"/>
   </g>
   <g id="line2d_14">
    <path clip-path="url(#pf07046a5a7)" d="M 69.218182 242.116364 
L 72.292562 239.180249 
L 75.366942 230.380648 
L 78.441322 218.497669 
L 81.515702 205.384277 
L 84.590083 192.099269 
L 87.664463 179.226751 
L 90.738843 167.069648 
L 93.813223 155.765944 
L 96.887603 145.3584 
L 99.961983 135.836197 
L 103.036364 127.159707 
L 106.110744 119.275096 
L 109.185124 112.122826 
L 112.259504 105.642523 
L 115.333884 99.775651 
L 118.408264 94.466912 
L 121.482645 89.664876 
L 124.557025 85.322185 
L 127.631405 81.395508 
L 130.705785 77.845356 
L 133.780165 74.635846 
L 136.854545 71.734426 
L 139.928926 69.111603 
L 143.003306 66.740673 
L 146.077686 64.597474 
L 149.152066 62.66015 
L 152.226446 60.908936 
L 155.300826 59.325958 
L 158.375207 57.895059 
L 161.449587 56.60163 
L 164.523967 55.432465 
L 167.598347 54.375628 
L 170.672727 53.420326 
L 173.747107 52.556805 
L 176.821488 51.776247 
L 179.895868 51.070682 
L 182.970248 50.432905 
L 186.044628 49.856403 
L 189.119008 49.335289 
L 192.193388 48.864241 
L 195.267769 48.43845 
L 198.342149 48.053567 
L 201.416529 47.705662 
L 204.490909 47.391183 
L 207.565289 47.106918 
L 210.639669 46.849963 
L 213.71405 46.617696 
L 216.78843 46.407744 
L 219.86281 46.217963 
L 222.93719 46.046416 
L 226.01157 45.891351 
L 229.08595 45.751183 
L 232.160331 45.624482 
L 235.234711 45.509954 
L 238.309091 45.40643 
L 241.383471 45.312851 
L 244.457851 45.228263 
L 247.532231 45.151802 
L 250.606612 45.082688 
L 253.680992 45.020213 
L 256.755372 44.963741 
L 259.829752 44.912694 
L 262.904132 44.866552 
L 265.978512 44.824843 
L 269.052893 44.787141 
L 272.127273 44.753061 
L 275.201653 44.722256 
L 278.276033 44.694411 
L 281.350413 44.66924 
L 284.424793 44.646488 
L 287.499174 44.625922 
L 290.573554 44.607331 
L 293.647934 44.590526 
L 296.722314 44.575336 
L 299.796694 44.561607 
L 302.871074 44.549196 
L 305.945455 44.537976 
L 309.019835 44.527834 
L 312.094215 44.518668 
L 315.168595 44.510382 
L 318.242975 44.502892 
L 321.317355 44.496121 
L 324.391736 44.490001 
L 327.466116 44.484469 
L 330.540496 44.479469 
L 333.614876 44.474948 
L 336.689256 44.470863 
L 339.763636 44.467169 
L 342.838017 44.463831 
L 345.912397 44.460813 
L 348.986777 44.458086 
L 352.061157 44.45562 
L 355.135537 44.453391 
L 358.209917 44.451377 
L 361.284298 44.449555 
L 364.358678 44.447909 
L 367.433058 44.446422 
L 370.507438 44.445078 
L 373.581818 44.443861 
" style="fill:none;stroke:#ff7f0e;stroke-linecap:square;stroke-width:2;"/>
   </g>
   <g id="line2d_15">
    <path clip-path="url(#pf07046a5a7)" d="M 69.218182 242.116364 
L 72.292562 237.973633 
L 75.366942 228.340553 
L 78.441322 216.079497 
L 81.515702 202.851995 
L 84.590083 189.601222 
L 87.664463 176.842563 
L 90.738843 164.83841 
L 93.813223 153.703152 
L 96.887603 143.466088 
L 99.961983 134.108982 
L 103.036364 125.588359 
L 106.110744 117.84864 
L 109.185124 110.829755 
L 112.259504 104.471479 
L 115.333884 98.715792 
L 118.408264 93.508084 
L 121.482645 88.797693 
L 124.557025 84.538031 
L 127.631405 80.68652 
L 130.705785 77.20438 
L 133.780165 74.056389 
L 136.854545 71.210603 
L 139.928926 68.638085 
L 143.003306 66.312641 
L 146.077686 64.210561 
L 149.152066 62.310408 
L 152.226446 60.592795 
L 155.300826 59.040192 
L 158.375207 57.636749 
L 161.449587 56.368138 
L 164.523967 55.221409 
L 167.598347 54.184852 
L 170.672727 53.247881 
L 173.747107 52.40093 
L 176.821488 51.63535 
L 179.895868 50.943324 
L 182.970248 50.317784 
L 186.044628 49.752344 
L 189.119008 49.241228 
L 192.193388 48.779218 
L 195.267769 48.361597 
L 198.342149 47.984098 
L 201.416529 47.642869 
L 204.490909 47.334423 
L 207.565289 47.055612 
L 210.639669 46.803587 
L 213.71405 46.575776 
L 216.78843 46.369852 
L 219.86281 46.183712 
L 222.93719 46.015456 
L 226.01157 45.863366 
L 229.08595 45.725887 
L 232.160331 45.601616 
L 235.234711 45.489285 
L 238.309091 45.387747 
L 241.383471 45.295964 
L 244.457851 45.212999 
L 247.532231 45.138005 
L 250.606612 45.070216 
L 253.680992 45.00894 
L 256.755372 44.953551 
L 259.829752 44.903483 
L 262.904132 44.858226 
L 265.978512 44.817317 
L 269.052893 44.780338 
L 272.127273 44.746913 
L 275.201653 44.716698 
L 278.276033 44.689386 
L 281.350413 44.664699 
L 284.424793 44.642383 
L 287.499174 44.622211 
L 290.573554 44.603977 
L 293.647934 44.587495 
L 296.722314 44.572597 
L 299.796694 44.55913 
L 302.871074 44.546956 
L 305.945455 44.535953 
L 309.019835 44.526006 
L 312.094215 44.517015 
L 315.168595 44.508888 
L 318.242975 44.501541 
L 321.317355 44.494901 
L 324.391736 44.488898 
L 327.466116 44.483473 
L 330.540496 44.478568 
L 333.614876 44.474135 
L 336.689256 44.470128 
L 339.763636 44.466505 
L 342.838017 44.463231 
L 345.912397 44.460271 
L 348.986777 44.457596 
L 352.061157 44.455177 
L 355.135537 44.452991 
L 358.209917 44.451015 
L 361.284298 44.449229 
L 364.358678 44.447614 
L 367.433058 44.446155 
L 370.507438 44.444836 
L 373.581818 44.443643 
" style="fill:none;stroke:#2ca02c;stroke-linecap:square;stroke-width:2;"/>
   </g>
   <g id="line2d_16">
    <path clip-path="url(#pf07046a5a7)" d="M 69.218182 242.116364 
L 72.292562 237.972138 
L 75.366942 228.338283 
L 78.441322 216.076874 
L 81.515702 202.849266 
L 84.590083 189.598526 
L 87.664463 176.839977 
L 90.738843 164.835972 
L 93.813223 153.700879 
L 96.887603 143.463983 
L 99.961983 134.10704 
L 103.036364 125.586572 
L 106.110744 117.846999 
L 109.185124 110.828253 
L 112.259504 104.470105 
L 115.333884 98.714534 
L 118.408264 93.506934 
L 121.482645 88.796641 
L 124.557025 84.537073 
L 127.631405 80.685648 
L 130.705785 77.203589 
L 133.780165 74.055673 
L 136.854545 71.209955 
L 139.928926 68.637497 
L 143.003306 66.312104 
L 146.077686 64.210073 
L 149.152066 62.309966 
L 152.226446 60.592394 
L 155.300826 59.039827 
L 158.375207 57.636417 
L 161.449587 56.367837 
L 164.523967 55.221135 
L 167.598347 54.184602 
L 170.672727 53.247653 
L 173.747107 52.400722 
L 176.821488 51.635161 
L 179.895868 50.943151 
L 182.970248 50.317626 
L 186.044628 49.7522 
L 189.119008 49.241097 
L 192.193388 48.779099 
L 195.267769 48.361488 
L 198.342149 47.983999 
L 201.416529 47.642778 
L 204.490909 47.33434 
L 207.565289 47.055536 
L 210.639669 46.803518 
L 213.71405 46.575713 
L 216.78843 46.369794 
L 219.86281 46.18366 
L 222.93719 46.015408 
L 226.01157 45.863322 
L 229.08595 45.725848 
L 232.160331 45.601581 
L 235.234711 45.489253 
L 238.309091 45.387717 
L 241.383471 45.295937 
L 244.457851 45.212974 
L 247.532231 45.137982 
L 250.606612 45.070195 
L 253.680992 45.008921 
L 256.755372 44.953534 
L 259.829752 44.903468 
L 262.904132 44.858212 
L 265.978512 44.817304 
L 269.052893 44.780326 
L 272.127273 44.746901 
L 275.201653 44.716688 
L 278.276033 44.689377 
L 281.350413 44.66469 
L 284.424793 44.642375 
L 287.499174 44.622204 
L 290.573554 44.603971 
L 293.647934 44.587489 
L 296.722314 44.572591 
L 299.796694 44.559125 
L 302.871074 44.546952 
L 305.945455 44.535949 
L 309.019835 44.526003 
L 312.094215 44.517012 
L 315.168595 44.508885 
L 318.242975 44.501539 
L 321.317355 44.494899 
L 324.391736 44.488896 
L 327.466116 44.48347 
L 330.540496 44.478566 
L 333.614876 44.474133 
L 336.689256 44.470126 
L 339.763636 44.466504 
L 342.838017 44.46323 
L 345.912397 44.46027 
L 348.986777 44.457595 
L 352.061157 44.455176 
L 355.135537 44.45299 
L 358.209917 44.451014 
L 361.284298 44.449228 
L 364.358678 44.447613 
L 367.433058 44.446154 
L 370.507438 44.444835 
L 373.581818 44.443642 
" style="fill:none;stroke:#d62728;stroke-linecap:square;stroke-width:2;"/>
   </g>
   <g id="line2d_17">
    <path clip-path="url(#pf07046a5a7)" d="M 87.664463 252 
L 87.664463 34.56 
" style="fill:none;stroke:#000000;stroke-dasharray:1.5,2.475;stroke-dashoffset:0;stroke-width:1.5;"/>
   </g>
   <g id="line2d_18">
    <path clip-path="url(#pf07046a5a7)" d="M 115.333884 252 
L 115.333884 34.56 
" style="fill:none;stroke:#000000;stroke-dasharray:1.5,2.475;stroke-dashoffset:0;stroke-width:1.5;"/>
   </g>
   <g id="line2d_19">
    <path clip-path="url(#pf07046a5a7)" d="M 161.449587 252 
L 161.449587 34.56 
" style="fill:none;stroke:#000000;stroke-dasharray:1.5,2.475;stroke-dashoffset:0;stroke-width:1.5;"/>
   </g>
   <g id="patch_3">
    <path d="M 54 252 
L 54 34.56 
" style="fill:none;stroke:#000000;stroke-linecap:square;stroke-linejoin:miter;stroke-width:0.8;"/>
   </g>
   <g id="patch_4">
    <path d="M 388.8 252 
L 388.8 34.56 
" style="fill:none;stroke:#000000;stroke-linecap:square;stroke-linejoin:miter;stroke-width:0.8;"/>
   </g>
   <g id="patch_5">
    <path d="M 54 252 
L 388.8 252 
" style="fill:none;stroke:#000000;stroke-linecap:square;stroke-linejoin:miter;stroke-width:0.8;"/>
   </g>
   <g id="patch_6">
    <path d="M 54 34.56 
L 388.8 34.56 
" style="fill:none;stroke:#000000;stroke-linecap:square;stroke-linejoin:miter;stroke-width:0.8;"/>
   </g>
   <g id="legend_1">
    <g id="patch_7">
     <path d="M 273.254687 247 
L 381.8 247 
Q 383.8 247 383.8 245 
L 383.8 172.609375 
Q 383.8 170.609375 381.8 170.609375 
L 273.254687 170.609375 
Q 271.254687 170.609375 271.254687 172.609375 
L 271.254687 245 
Q 271.254687 247 273.254687 247 
z
" style="fill:#ffffff;opacity:0.8;stroke:#cccccc;stroke-linejoin:miter;"/>
    </g>
    <g id="line2d_20">
     <path d="M 275.254687 178.707812 
L 295.254687 178.707812 
" style="fill:none;stroke:#000000;stroke-dasharray:18.5,8;stroke-dashoffset:0;stroke-width:5;"/>
    </g>
    <g id="line2d_21"/>
    <g id="text_14">
     <!-- Full CRN model -->
     <defs>
      <path d="M 9.8125 72.90625 
L 51.703125 72.90625 
L 51.703125 64.59375 
L 19.671875 64.59375 
L 19.671875 43.109375 
L 48.578125 43.109375 
L 48.578125 34.8125 
L 19.671875 34.8125 
L 19.671875 0 
L 9.8125 0 
z
" id="DejaVuSans-70"/>
      <path d="M 8.5 21.578125 
L 8.5 54.6875 
L 17.484375 54.6875 
L 17.484375 21.921875 
Q 17.484375 14.15625 20.5 10.265625 
Q 23.53125 6.390625 29.59375 6.390625 
Q 36.859375 6.390625 41.078125 11.03125 
Q 45.3125 15.671875 45.3125 23.6875 
L 45.3125 54.6875 
L 54.296875 54.6875 
L 54.296875 0 
L 45.3125 0 
L 45.3125 8.40625 
Q 42.046875 3.421875 37.71875 1 
Q 33.40625 -1.421875 27.6875 -1.421875 
Q 18.265625 -1.421875 13.375 4.4375 
Q 8.5 10.296875 8.5 21.578125 
z
M 31.109375 56 
z
" id="DejaVuSans-117"/>
      <path d="M 9.421875 75.984375 
L 18.40625 75.984375 
L 18.40625 0 
L 9.421875 0 
z
" id="DejaVuSans-108"/>
      <path id="DejaVuSans-32"/>
      <path d="M 64.40625 67.28125 
L 64.40625 56.890625 
Q 59.421875 61.53125 53.78125 63.8125 
Q 48.140625 66.109375 41.796875 66.109375 
Q 29.296875 66.109375 22.65625 58.46875 
Q 16.015625 50.828125 16.015625 36.375 
Q 16.015625 21.96875 22.65625 14.328125 
Q 29.296875 6.6875 41.796875 6.6875 
Q 48.140625 6.6875 53.78125 8.984375 
Q 59.421875 11.28125 64.40625 15.921875 
L 64.40625 5.609375 
Q 59.234375 2.09375 53.4375 0.328125 
Q 47.65625 -1.421875 41.21875 -1.421875 
Q 24.65625 -1.421875 15.125 8.703125 
Q 5.609375 18.84375 5.609375 36.375 
Q 5.609375 53.953125 15.125 64.078125 
Q 24.65625 74.21875 41.21875 74.21875 
Q 47.75 74.21875 53.53125 72.484375 
Q 59.328125 70.75 64.40625 67.28125 
z
" id="DejaVuSans-67"/>
      <path d="M 44.390625 34.1875 
Q 47.5625 33.109375 50.5625 29.59375 
Q 53.5625 26.078125 56.59375 19.921875 
L 66.609375 0 
L 56 0 
L 46.6875 18.703125 
Q 43.0625 26.03125 39.671875 28.421875 
Q 36.28125 30.8125 30.421875 30.8125 
L 19.671875 30.8125 
L 19.671875 0 
L 9.8125 0 
L 9.8125 72.90625 
L 32.078125 72.90625 
Q 44.578125 72.90625 50.734375 67.671875 
Q 56.890625 62.453125 56.890625 51.90625 
Q 56.890625 45.015625 53.6875 40.46875 
Q 50.484375 35.9375 44.390625 34.1875 
z
M 19.671875 64.796875 
L 19.671875 38.921875 
L 32.078125 38.921875 
Q 39.203125 38.921875 42.84375 42.21875 
Q 46.484375 45.515625 46.484375 51.90625 
Q 46.484375 58.296875 42.84375 61.546875 
Q 39.203125 64.796875 32.078125 64.796875 
z
" id="DejaVuSans-82"/>
      <path d="M 9.8125 72.90625 
L 23.09375 72.90625 
L 55.421875 11.921875 
L 55.421875 72.90625 
L 64.984375 72.90625 
L 64.984375 0 
L 51.703125 0 
L 19.390625 60.984375 
L 19.390625 0 
L 9.8125 0 
z
" id="DejaVuSans-78"/>
      <path d="M 30.609375 48.390625 
Q 23.390625 48.390625 19.1875 42.75 
Q 14.984375 37.109375 14.984375 27.296875 
Q 14.984375 17.484375 19.15625 11.84375 
Q 23.34375 6.203125 30.609375 6.203125 
Q 37.796875 6.203125 41.984375 11.859375 
Q 46.1875 17.53125 46.1875 27.296875 
Q 46.1875 37.015625 41.984375 42.703125 
Q 37.796875 48.390625 30.609375 48.390625 
z
M 30.609375 56 
Q 42.328125 56 49.015625 48.375 
Q 55.71875 40.765625 55.71875 27.296875 
Q 55.71875 13.875 49.015625 6.21875 
Q 42.328125 -1.421875 30.609375 -1.421875 
Q 18.84375 -1.421875 12.171875 6.21875 
Q 5.515625 13.875 5.515625 27.296875 
Q 5.515625 40.765625 12.171875 48.375 
Q 18.84375 56 30.609375 56 
z
" id="DejaVuSans-111"/>
      <path d="M 45.40625 46.390625 
L 45.40625 75.984375 
L 54.390625 75.984375 
L 54.390625 0 
L 45.40625 0 
L 45.40625 8.203125 
Q 42.578125 3.328125 38.25 0.953125 
Q 33.9375 -1.421875 27.875 -1.421875 
Q 17.96875 -1.421875 11.734375 6.484375 
Q 5.515625 14.40625 5.515625 27.296875 
Q 5.515625 40.1875 11.734375 48.09375 
Q 17.96875 56 27.875 56 
Q 33.9375 56 38.25 53.625 
Q 42.578125 51.265625 45.40625 46.390625 
z
M 14.796875 27.296875 
Q 14.796875 17.390625 18.875 11.75 
Q 22.953125 6.109375 30.078125 6.109375 
Q 37.203125 6.109375 41.296875 11.75 
Q 45.40625 17.390625 45.40625 27.296875 
Q 45.40625 37.203125 41.296875 42.84375 
Q 37.203125 48.484375 30.078125 48.484375 
Q 22.953125 48.484375 18.875 42.84375 
Q 14.796875 37.203125 14.796875 27.296875 
z
" id="DejaVuSans-100"/>
     </defs>
     <g transform="translate(303.254687 182.207812)scale(0.1 -0.1)">
      <use xlink:href="#DejaVuSans-70"/>
      <use x="57.441406" xlink:href="#DejaVuSans-117"/>
      <use x="120.820312" xlink:href="#DejaVuSans-108"/>
      <use x="148.603516" xlink:href="#DejaVuSans-108"/>
      <use x="176.386719" xlink:href="#DejaVuSans-32"/>
      <use x="208.173828" xlink:href="#DejaVuSans-67"/>
      <use x="277.998047" xlink:href="#DejaVuSans-82"/>
      <use x="347.480469" xlink:href="#DejaVuSans-78"/>
      <use x="422.285156" xlink:href="#DejaVuSans-32"/>
      <use x="454.072266" xlink:href="#DejaVuSans-109"/>
      <use x="551.484375" xlink:href="#DejaVuSans-111"/>
      <use x="612.666016" xlink:href="#DejaVuSans-100"/>
      <use x="676.142578" xlink:href="#DejaVuSans-101"/>
      <use x="737.666016" xlink:href="#DejaVuSans-108"/>
     </g>
    </g>
    <g id="line2d_22">
     <path d="M 275.254687 193.385938 
L 295.254687 193.385938 
" style="fill:none;stroke:#1f77b4;stroke-linecap:square;stroke-width:2;"/>
    </g>
    <g id="line2d_23"/>
    <g id="text_15">
     <!-- [T, X] -->
     <defs>
      <path d="M 11.71875 12.40625 
L 22.015625 12.40625 
L 22.015625 4 
L 14.015625 -11.625 
L 7.71875 -11.625 
L 11.71875 4 
z
" id="DejaVuSans-44"/>
     </defs>
     <g transform="translate(303.254687 196.885938)scale(0.1 -0.1)">
      <use xlink:href="#DejaVuSans-91"/>
      <use x="39.013672" xlink:href="#DejaVuSans-84"/>
      <use x="100.097656" xlink:href="#DejaVuSans-44"/>
      <use x="131.884766" xlink:href="#DejaVuSans-32"/>
      <use x="163.671875" xlink:href="#DejaVuSans-88"/>
      <use x="232.177734" xlink:href="#DejaVuSans-93"/>
     </g>
    </g>
    <g id="line2d_24">
     <path d="M 275.254687 208.064063 
L 295.254687 208.064063 
" style="fill:none;stroke:#ff7f0e;stroke-linecap:square;stroke-width:2;"/>
    </g>
    <g id="line2d_25"/>
    <g id="text_16">
     <!-- [T, C1, X] -->
     <g transform="translate(303.254687 211.564063)scale(0.1 -0.1)">
      <use xlink:href="#DejaVuSans-91"/>
      <use x="39.013672" xlink:href="#DejaVuSans-84"/>
      <use x="100.097656" xlink:href="#DejaVuSans-44"/>
      <use x="131.884766" xlink:href="#DejaVuSans-32"/>
      <use x="163.671875" xlink:href="#DejaVuSans-67"/>
      <use x="233.496094" xlink:href="#DejaVuSans-49"/>
      <use x="297.119141" xlink:href="#DejaVuSans-44"/>
      <use x="328.90625" xlink:href="#DejaVuSans-32"/>
      <use x="360.693359" xlink:href="#DejaVuSans-88"/>
      <use x="429.199219" xlink:href="#DejaVuSans-93"/>
     </g>
    </g>
    <g id="line2d_26">
     <path d="M 275.254687 222.742188 
L 295.254687 222.742188 
" style="fill:none;stroke:#2ca02c;stroke-linecap:square;stroke-width:2;"/>
    </g>
    <g id="line2d_27"/>
    <g id="text_17">
     <!-- [T, C2, X] -->
     <g transform="translate(303.254687 226.242188)scale(0.1 -0.1)">
      <use xlink:href="#DejaVuSans-91"/>
      <use x="39.013672" xlink:href="#DejaVuSans-84"/>
      <use x="100.097656" xlink:href="#DejaVuSans-44"/>
      <use x="131.884766" xlink:href="#DejaVuSans-32"/>
      <use x="163.671875" xlink:href="#DejaVuSans-67"/>
      <use x="233.496094" xlink:href="#DejaVuSans-50"/>
      <use x="297.119141" xlink:href="#DejaVuSans-44"/>
      <use x="328.90625" xlink:href="#DejaVuSans-32"/>
      <use x="360.693359" xlink:href="#DejaVuSans-88"/>
      <use x="429.199219" xlink:href="#DejaVuSans-93"/>
     </g>
    </g>
    <g id="line2d_28">
     <path d="M 275.254687 237.420313 
L 295.254687 237.420313 
" style="fill:none;stroke:#d62728;stroke-linecap:square;stroke-width:2;"/>
    </g>
    <g id="line2d_29"/>
    <g id="text_18">
     <!-- [T, C3, X] -->
     <g transform="translate(303.254687 240.920313)scale(0.1 -0.1)">
      <use xlink:href="#DejaVuSans-91"/>
      <use x="39.013672" xlink:href="#DejaVuSans-84"/>
      <use x="100.097656" xlink:href="#DejaVuSans-44"/>
      <use x="131.884766" xlink:href="#DejaVuSans-32"/>
      <use x="163.671875" xlink:href="#DejaVuSans-67"/>
      <use x="233.496094" xlink:href="#DejaVuSans-51"/>
      <use x="297.119141" xlink:href="#DejaVuSans-44"/>
      <use x="328.90625" xlink:href="#DejaVuSans-32"/>
      <use x="360.693359" xlink:href="#DejaVuSans-88"/>
      <use x="429.199219" xlink:href="#DejaVuSans-93"/>
     </g>
    </g>
   </g>
  </g>
 </g>
 <defs>
  <clipPath id="pf07046a5a7">
   <rect height="217.44" width="334.8" x="54" y="34.56"/>
  </clipPath>
 </defs>
</svg>
